<?xml version="1.0" standalone="no"?>
<!DOCTYPE svg PUBLIC "-//W3C//DTD SVG 1.1//EN" "http://www.w3.org/Graphics/SVG/1.1/DTD/svg11.dtd" >
<svg xmlns="http://www.w3.org/2000/svg" xmlns:xlink="http://www.w3.org/1999/xlink" version="1.1">
<metadata>
Created by FontForge 20170731 at Tue Apr  7 03:48:39 2015
 By Aleksey,,,
Copyright (c) 2014-2015 by Typek - Ekaluck Peanpanawate &#38; Tippawan Sumnavong. All rights reserved. Exclusive Licensed for Chulalongkorn University.
</metadata>
<defs>
<font id="CHULALONGKORN-Bold" horiz-adv-x="0" >
  <font-face 
    font-family="CHULALONGKORN"
    font-weight="700"
    font-stretch="normal"
    units-per-em="2000"
    panose-1="2 0 8 6 5 0 0 2 0 4"
    ascent="1616"
    descent="-384"
    x-height="945"
    cap-height="1331"
    bbox="-1151 -808 7924 2073"
    underline-thickness="150"
    underline-position="-570"
    unicode-range="U+000D-FB02"
  />
<missing-glyph horiz-adv-x="954" 
d="M124 0v1330h706v-1330h-706zM266 136h422v1058h-422v-1058z" />
    <glyph glyph-name="uni0E5A" unicode="&#xe2f;&#xe2f;" horiz-adv-x="1098" 
d="M439 338v529q-33 -30 -89.5 -46.5t-107.5 -16.5q-87 0 -145 53.5t-58 151.5q0 78 24 137h241q-22 -41 -29 -64t-7 -55q0 -51 48 -51q91 0 187 170h165v-808q0 -163 2.5 -216t16.5 -123q-68 2 -133 2q-64 0 -132 -2q12 67 14.5 123t2.5 216zM757 -1q9 42 10.5 125t1.5 391
v117q0 300 -2.5 374t-15.5 141q99 -3 132 -3q32 0 134 3q-13 -67 -15.5 -141t-2.5 -374v-117q0 -298 2.5 -372.5t17.5 -143.5q-66 2 -135 2q-55 0 -127 -2z" />
    <glyph glyph-name="uni0E4F.liga" unicode="&#xe4f;&#x22;" horiz-adv-x="1208" 
d="M792 525q0 -95 -58.5 -149t-130.5 -54t-131 54t-59 149q0 105 57 160t133 55t132.5 -55t56.5 -160zM605 0q-75 0 -145.5 19t-135 60t-112.5 101t-76.5 149t-28.5 196q0 133 43 237t115.5 165.5t158.5 92.5t181 31t181 -31t158.5 -92.5t115.5 -165.5t43 -237
q0 -107 -28.5 -196t-76.5 -149t-112.5 -101t-135 -60t-145.5 -19zM605 952q-76 0 -143 -26t-120 -77t-84 -134.5t-31 -189.5t31 -189t84 -134t120 -77t143 -26t143 26t120 77t84 134t31 189t-31 189.5t-84 134.5t-120 77t-143 26z" />
    <glyph glyph-name="uni0E24.liga" unicode="&#xe24;&#xe32;" horiz-adv-x="1767" 
d="M742 25v770q0 96 -47.5 145.5t-153.5 49.5q-130 0 -225 -62q53 -58 53 -139v-557q0 -65 11 -82t40 -17q19 0 70 7l-22 -121q-86 -24 -128 -24q-109 0 -161 56.5t-52 176.5v581q0 40 -18.5 74t-36.5 48l-18 14v29q83 71 218 129.5t269 58.5q215 0 330 -95.5t115 -271.5
v-770q0 -165 1.5 -220.5t10.5 -119.5q-70 2 -132 2q-68 0 -136 -2q12 90 12 340zM1662 815v-790q0 -162 2.5 -215t16.5 -125q-68 2 -139 2q-72 0 -144 -2q14 71 17 127t3 213v793q0 171 -132 171q-129 0 -202 -83h-31q-2 16 -8 36t-21 61t-26 76q148 80 286 80
q194 0 286 -83.5t92 -260.5z" />
    <glyph glyph-name="uni0E26.liga" unicode="&#xe26;&#xe32;" horiz-adv-x="1767" 
d="M755 25v770q0 94 -53.5 144.5t-161.5 50.5q-126 0 -211 -60q62 -62 62 -141v-561q0 -120 -50.5 -176.5t-158.5 -56.5q-64 0 -138 21l-14 125q46 -8 67 -8q25 0 37.5 16.5t12.5 66.5v582q0 25 -8.5 48t-21 38.5t-25 27.5t-20.5 18l-9 5v27q59 69 200 134.5t277 65.5
q216 0 337.5 -96t121.5 -271v-770q0 -165 1.5 -220.5t10.5 -119.5q-70 2 -132 2q-68 0 -136 -2q12 90 12 340zM1662 815v-790q0 -162 2.5 -215t16.5 -125q-68 2 -139 2q-72 0 -144 -2q14 71 17 127t3 213v793q0 171 -132 171q-129 0 -202 -83h-31q-2 16 -8 36t-21 61t-26 76
q148 80 286 80q194 0 286 -83.5t92 -260.5z" />
    <glyph glyph-name="fi" unicode="fi" horiz-adv-x="1032" 
d="M901 632v-314q0 -152 2.5 -202t14.5 -117q-64 2 -133 2q-72 0 -136 -2q12 66 14.5 118.5t2.5 200.5v314q0 109 -1 147q-125 5 -254 5v-466q0 -152 2.5 -202t15.5 -117q-64 2 -134 2q-71 0 -135 -2q11 66 13.5 118.5t2.5 200.5v466q-75 0 -151 -6l1 35v50q0 14 -0.5 49.5
t-0.5 36.5q91 -8 151 -8v33q0 176 111 280t280 104q97 0 170 -27l-35 -168l-13 -2q-16 13 -49.5 23t-63.5 10q-77 0 -121 -48.5t-44 -149.5v-57q137 4 174 7t64 4q64 -2 136 -2q69 0 133 2q-12 -67 -14.5 -117t-2.5 -201z" />
    <glyph glyph-name="fl" unicode="fl" horiz-adv-x="1100" 
d="M853 0q-68 0 -134 -2q12 67 14.5 117.5t2.5 202.5v692q0 107 -1 143q-20 13 -65.5 27t-73.5 14q-88 0 -136.5 -48.5t-48.5 -149.5v-57q94 2 211 7q-4 -24 -4 -92q0 -35 4 -76q-102 6 -211 6v-466q0 -152 2.5 -202t15.5 -117q-64 2 -134 2q-71 0 -135 -2q11 66 13.5 118.5
t2.5 200.5v466q-75 0 -151 -6l1 35v50q0 14 -0.5 49.5t-0.5 36.5q91 -8 151 -8v33q0 179 107.5 281.5t293.5 102.5q36 0 151.5 -16t174.5 -16q17 0 83 2q-12 -67 -14.5 -117t-2.5 -201v-692q0 -152 2.5 -202.5t14.5 -117.5q-66 2 -133 2z" />
    <glyph glyph-name=".notdef" horiz-adv-x="954" 
d="M124 0v1330h706v-1330h-706zM266 136h422v1058h-422v-1058z" />
    <glyph glyph-name=".null" 
 />
    <glyph glyph-name=".null" 
 />
    <glyph glyph-name="nonmarkingreturn" horiz-adv-x="666" 
 />
    <glyph glyph-name="CR" unicode="&#xd;" horiz-adv-x="494" 
 />
    <glyph glyph-name="space" unicode=" " horiz-adv-x="494" 
 />
    <glyph glyph-name="exclam" unicode="!" horiz-adv-x="493" 
d="M371 121q0 -54 -35 -87.5t-95 -33.5t-95 33t-35 88q0 54 35 87t95 33q59 0 94.5 -33t35.5 -87zM309 382q-82 3 -138 0q-54 555 -56 624q-2 54 -4 122t-3.5 115.5t-3.5 87.5q102 -3 136 -3t136 3q-2 -40 -3.5 -87.5t-3.5 -115.5t-4 -122q-1 -31 -15 -187t-28 -297z" />
    <glyph glyph-name="quotedbl" unicode="&#x22;" horiz-adv-x="712" 
d="M197 843q-15 0 -61 -2q-47 235 -58 362q-2 21 -6 128q35 -2 125 -2t125 2q-1 -17 -2 -56t-4 -72q-5 -56 -19.5 -146.5t-26.5 -152.5l-12 -63q-46 2 -61 2zM515 843q-15 0 -61 -2q-47 235 -58 362q-2 21 -6 128q35 -2 125 -2t125 2q-1 -17 -2 -56t-4 -72
q-5 -56 -19.5 -146.5t-26.5 -152.5l-12 -63q-46 2 -61 2z" />
    <glyph glyph-name="numbersign" unicode="#" horiz-adv-x="928" 
d="M47 482h134l34 383h-132l13 155h133l28 310h183l-28 -310h170l28 310h182l-29 -310h133l-15 -155h-132l-35 -383h131l-12 -155h-133l-29 -327h-181l29 327h-170l-29 -327h-182l29 327h-132zM398 865l-35 -383h170l35 383h-170z" />
    <glyph glyph-name="dollar" unicode="$" horiz-adv-x="988" 
d="M185 291q32 -57 101.5 -92t153.5 -36v416q-136 53 -175 73q-137 72 -167 188q-10 38 -10 81q0 140 94.5 236.5t257.5 121.5q-1 144 -12 196q21 0 45 -0.5t27 -0.5q4 0 29 0.5t43 0.5q-12 -57 -12 -189q91 -2 178 -30.5t142 -67.5q-34 -66 -45 -94.5t-27 -81.5h-36
q-19 43 -78 69.5t-134 30.5v-357q32 -9 48 -14t47 -15.5t47.5 -19t43.5 -22.5t42.5 -29t35.5 -35t31 -43.5t22.5 -52t16 -63t4.5 -74.5q0 -168 -88.5 -267t-249.5 -124q0 -139 12 -198q-24 0 -47 0.5t-25 0.5t-24.5 -0.5t-47.5 -0.5q11 57 12 189q-217 1 -370 112
q66 143 79 192h36zM333 942q0 -100 107 -147v301q-49 -19 -78 -59t-29 -95zM648 381q0 86 -88 142v-330q88 54 88 188z" />
    <glyph glyph-name="percent" unicode="%" horiz-adv-x="1700" 
d="M408 689q52 0 79 55.5t27 188.5t-27 189t-79 56t-79 -56t-27 -189t27 -188.5t79 -55.5zM1256 1332l-520 -1173q-40 -91 -49 -159q-18 0 -46 1t-50 1q-12 0 -120 -4l491 1129q58 131 66 203q18 0 52 -1t56 -1q12 0 120 4zM408 539q-149 0 -223.5 96t-74.5 298t74.5 298.5
t223.5 96.5t223.5 -96.5t74.5 -298.5t-74.5 -298t-223.5 -96zM1302 135q52 0 79 55.5t27 188.5t-27 189t-79 56t-79 -56t-27 -189t27 -188.5t79 -55.5zM1302 -15q-149 0 -223.5 96t-74.5 298t74.5 298.5t223.5 96.5t223.5 -96.5t74.5 -298.5t-74.5 -298t-223.5 -96z" />
    <glyph glyph-name="ampersand" unicode="&#x26;" horiz-adv-x="1142" 
d="M801 1058q0 -101 -55.5 -184t-171.5 -134q102 -157 187 -281q6 59 6 125q0 90 -22 129v21h242v-107q0 -215 -77 -380q46 -64 85 -115.5t55 -71.5l16 -19v-41h-265l-40 58q-101 -72 -236 -72q-189 0 -295.5 102.5t-106.5 292.5q0 233 188 349q-124 189 -124 324
q0 125 86 207t227 82t221 -77t80 -208zM548 156q70 0 118 45l-268 400q-35 -83 -35 -209q0 -236 185 -236zM427 1059q0 -55 18.5 -101.5t56.5 -106.5l1 -2q39 48 53.5 97.5t14.5 113.5q0 54 -19 83.5t-52 29.5q-31 0 -52 -30t-21 -84z" />
    <glyph glyph-name="quotesingle" unicode="'" horiz-adv-x="406" 
d="M197 843q-15 0 -61 -2q-47 235 -58 362q-2 21 -6 128q35 -2 125 -2t125 2q-1 -17 -2 -56t-4 -72q-5 -56 -19.5 -146.5t-26.5 -152.5l-12 -63q-46 2 -61 2z" />
    <glyph glyph-name="parenleft" unicode="(" horiz-adv-x="632" 
d="M71 664q0 241 70.5 476t195.5 418h223q-131 -213 -190 -420.5t-59 -473.5q0 -265 59 -472t190 -420h-223q-125 183 -195.5 417.5t-70.5 474.5z" />
    <glyph glyph-name="parenright" unicode=")" horiz-adv-x="632" 
d="M548 664q0 -240 -70.5 -474.5t-195.5 -417.5h-223q131 212 189.5 419t58.5 473q0 267 -58.5 474.5t-189.5 419.5h223q125 -183 195.5 -418t70.5 -476z" />
    <glyph glyph-name="asterisk" unicode="*" horiz-adv-x="948" 
d="M466 655q-28 0 -90 -3l34 264l-211 -155q-37 88 -78 147l256 101l-261 121q57 71 88 139l206 -152l-34 252q44 -4 90 -4t90 4l-34 -252l206 152q31 -68 88 -139l-261 -121l256 -101q-41 -59 -78 -147l-211 155l34 -264q-61 3 -90 3z" />
    <glyph glyph-name="plus" unicode="+" horiz-adv-x="1086" 
d="M630 515v-138q0 -87 6 -166l-44 1h-60t-61.5 -0.5t-45.5 -0.5q7 87 7 166v138h-119q-86 0 -182 -7l1 37v52v52l-1 37q96 -7 182 -7h119v138q0 79 -7 166q1 0 45.5 -0.5t61.5 -0.5h60l44 1q-6 -80 -6 -166v-138h119q86 0 182 7l-1 -37v-52v-52l1 -37q-96 7 -182 7h-119z
" />
    <glyph glyph-name="comma" unicode="," horiz-adv-x="453" 
d="M77 -307l-67 10q73 98 91 166.5t18 220.5q0 55 27 87t75 32q53 0 80.5 -32.5t27.5 -83.5q0 -93 -61.5 -187t-190.5 -213z" />
    <glyph glyph-name="hyphen" unicode="-" horiz-adv-x="900" 
d="M581 508h-267q-86 0 -182 -7v18.5t0.5 39.5t0.5 34q0 17 -0.5 55t-0.5 39q112 -7 182 -7h267q77 0 187 8q-6 -34 -6 -93q0 -53 6 -94q-114 7 -187 7z" />
    <glyph glyph-name="period" unicode="." horiz-adv-x="460" 
d="M100 110q0 54 35 87t95 33t95 -33t35 -87t-35 -87t-95 -33t-95 33t-35 87z" />
    <glyph glyph-name="slash" unicode="/" horiz-adv-x="672" 
d="M682 1531l-406 -1525q-27 -99 -41 -208q-81 3 -120 3q-17 0 -125 -4l407 1524q27 99 41 209q81 -3 121 -3q15 0 123 4z" />
    <glyph glyph-name="zero" unicode="0" horiz-adv-x="988" 
d="M493 1173q-65 0 -103.5 -40t-61 -152.5t-22.5 -310.5q0 -195 21.5 -309t61 -159t104.5 -45t104.5 45t61 159t21.5 309q0 198 -22.5 310.5t-61 152.5t-103.5 40zM493 -13q-231 0 -329 167t-98 525q0 343 98 503.5t329 160.5t329 -160.5t98 -503.5q0 -358 -98 -525
t-329 -167z" />
    <glyph glyph-name="one" unicode="1" horiz-adv-x="780" 
d="M308 1076l-163 -83q-45 88 -84 114v23q220 85 462 223l39 -16q-7 -60 -8.5 -132.5t-1.5 -389.5v-300q0 -301 2 -375t13 -141q-64 2 -140 2q-71 0 -135 -2q11 70 13.5 148t2.5 368v561z" />
    <glyph glyph-name="two" unicode="2" horiz-adv-x="988" 
d="M126 0v166q0 52 9.5 100t23 85.5t38.5 76t45.5 64.5t55.5 59.5t56.5 52t60.5 50.5q38 31 56 47t49.5 46t47.5 53.5t34.5 56t26 68t7.5 75.5q0 169 -176 169q-80 0 -134 -33.5t-76 -85.5h-25q-3 12 -6.5 21.5t-6 17.5t-8 18.5t-8.5 16t-12.5 20t-14 21.5t-18.5 27.5
t-22 32.5q61 49 151.5 83.5t195.5 34.5q201 0 305.5 -91.5t104.5 -266.5q0 -36 -5.5 -69.5t-12.5 -61t-23 -57t-27 -49.5t-35.5 -48t-37.5 -42.5t-43 -41.5t-42.5 -38t-45.5 -39q-44 -37 -68.5 -58.5t-60 -59.5t-54.5 -70t-35 -76.5t-20 -92.5q234 0 325.5 4.5t170.5 18.5
q-5 -48 -5 -112t6 -97q-55 4 -180 4h-567z" />
    <glyph glyph-name="three" unicode="3" horiz-adv-x="988" 
d="M426 -13q-99 0 -197.5 31t-164.5 81q70 144 83 192h35q28 -56 96.5 -89.5t149.5 -33.5q213 0 213 228q0 108 -56.5 162t-156.5 54h-31q-86 0 -164 -6q0 1 0.5 18t0.5 38.5v33.5v56l-1 38q118 -8 164 -8h23q193 0 193 191q0 196 -184 196q-75 0 -136 -34.5t-86 -84.5h-35
q-12 44 -27.5 72t-68.5 103q58 45 156 81.5t195 36.5q198 0 314.5 -92t116.5 -265q0 -102 -47.5 -177.5t-126.5 -106.5q86 -22 146 -96.5t60 -197.5q0 -209 -123 -315t-341 -106z" />
    <glyph glyph-name="four" unicode="4" horiz-adv-x="988" 
d="M66 302v71q200 701 248 958q99 -3 114 -3q11 0 34.5 0.5t54 2t40.5 1.5l-226 -848h235q0 316 -16 407q93 -3 133 -3q34 0 136 3q-18 -102 -18 -407q46 1 139 8q-6 -35 -6 -99q0 -60 6 -100q-137 9 -139 9q0 -208 19 -303q-66 2 -136 2q-73 0 -135 -2q17 96 17 303h-500z
" />
    <glyph glyph-name="five" unicode="5" horiz-adv-x="988" 
d="M840 1135q-58 8 -127 10t-308 3v-333h26q228 0 342 -97t114 -301q0 -430 -463 -430q-98 0 -190 30.5t-158 81.5q75 118 93 192h36q29 -58 90 -93t139 -35q93 0 148 59.5t55 183.5q0 119 -56.5 173t-170.5 54h-245v536q0 29 -2.5 69.5t-4.5 65.5l-2 26h684q-4 -38 -4 -90
q0 -59 4 -105z" />
    <glyph glyph-name="six" unicode="6" horiz-adv-x="988" 
d="M495 702q-71 0 -117.5 -61.5t-46.5 -192.5q0 -149 43 -219t115 -70q165 0 165 290q0 132 -43.5 192.5t-115.5 60.5zM331 831v-34q29 32 80 53.5t110 21.5q175 0 276.5 -107t101.5 -317t-106.5 -335.5t-304.5 -125.5q-181 0 -291 133.5t-110 386.5v308q0 86 19 164
t58 144.5t95 115.5t133.5 76.5t169.5 27.5q108 0 226 -30l14 -168l-15 -15q-72 21 -117 28t-113 7q-103 0 -164.5 -86.5t-61.5 -247.5z" />
    <glyph glyph-name="seven" unicode="7" horiz-adv-x="926" 
d="M854 1252l-449 -1253q-52 2 -120 2q-59 0 -146 -3l424 1150h-298q-71 0 -173 -14v20t0.5 42.5t0.5 37.5q0 19 -1 60v41q93 -5 173 -5h589v-78z" />
    <glyph glyph-name="eight" unicode="8" horiz-adv-x="988" 
d="M680 371q0 231 -250 241q-42 -25 -67 -52t-39 -73.5t-14 -115.5q0 -109 49.5 -160.5t134.5 -51.5q86 0 136 52t50 160zM657 980q0 191 -163 191q-77 0 -119.5 -49t-42.5 -142q0 -94 57.5 -149t163.5 -58q47 26 75.5 83.5t28.5 123.5zM918 388q0 -195 -107 -298t-317 -103
t-317 103t-107 298q0 200 169 301q-144 94 -144 274q0 183 113.5 281.5t285.5 98.5q83 0 154 -23.5t126.5 -69t87.5 -119.5t32 -168q0 -171 -144 -259q77 -40 122.5 -119t45.5 -197z" />
    <glyph glyph-name="nine" unicode="9" horiz-adv-x="988" 
d="M491 628q71 0 117.5 61.5t46.5 192.5q0 149 -43 219t-115 70q-165 0 -165 -290q0 -132 43.5 -192.5t115.5 -60.5zM655 469v64q-29 -32 -80 -53.5t-110 -21.5q-175 0 -276.5 107t-101.5 317t106.5 335.5t304.5 125.5q181 0 291 -133.5t110 -386.5v-308
q0 -241 -122.5 -384.5t-352.5 -143.5q-108 0 -226 30l-14 168l15 15q74 -22 114 -28.5t106 -6.5q108 0 172 73.5t64 230.5z" />
    <glyph glyph-name="colon" unicode=":" horiz-adv-x="460" 
d="M100 119q0 54 35 87t95 33t95 -33t35 -87t-35 -87t-95 -33t-95 33t-35 87zM100 841q0 54 35 87t95 33t95 -33t35 -87t-35 -87t-95 -33t-95 33t-35 87z" />
    <glyph glyph-name="semicolon" unicode=";" horiz-adv-x="453" 
d="M100 841q0 54 35 87t95 33t95 -33t35 -87t-35 -87t-95 -33t-95 33t-35 87zM79 -307l-79 10q72 97 93 169.5t21 217.5q0 51 28.5 85t83.5 34q53 0 80.5 -32.5t27.5 -83.5q0 -92 -62 -185t-193 -215z" />
    <glyph glyph-name="less" unicode="&#x3c;" horiz-adv-x="1086" 
d="M415 639l519 -271q-2 -58 -2 -84q0 -13 4 -125l-806 414q5 53 5 61t-5 70l806 403q-4 -116 -4 -129q0 -5 3 -89z" />
    <glyph glyph-name="equal" unicode="=" horiz-adv-x="1086" 
d="M739 339h-414q-86 0 -182 -7q0 1 0.5 18.5t0.5 39.5v34q0 17 -0.5 55t-0.5 39q112 -7 182 -7h414q79 0 187 8q-6 -35 -6 -93q0 -54 6 -94q-110 7 -187 7zM739 681h-414q-72 0 -182 -6q0 1 0.5 18.5t0.5 39v33.5q0 17 -0.5 55t-0.5 39q112 -7 182 -7h414q79 0 187 8
q-6 -34 -6 -93q0 -53 6 -93q-126 6 -187 6z" />
    <glyph glyph-name="greater" unicode="&#x3e;" horiz-adv-x="1086" 
d="M132 368l520 271l-521 250q2 56 2 89q0 42 -3 129l806 -403q-5 -60 -5 -70q0 -8 5 -61l-806 -414q3 84 3 125q0 55 -1 84z" />
    <glyph glyph-name="question" unicode="?" horiz-adv-x="711" 
d="M449 121q0 -54 -35 -87.5t-95 -33.5t-95 33t-35 88q0 54 35 87t95 33q59 0 94.5 -33t35.5 -87zM424 398q-72 2 -108 2q-47 0 -109 -2v150q0 62 25.5 116.5t61.5 96t72 82t61.5 91.5t25.5 108q0 127 -143 127q-71 0 -124.5 -31t-73.5 -79h-27q-27 91 -72 182
q58 43 139 72.5t170 29.5q178 0 274 -82t96 -230q0 -68 -28.5 -125.5t-69 -98.5t-80.5 -80t-68.5 -89.5t-28.5 -108.5q0 -30 1.5 -63t3.5 -50z" />
    <glyph glyph-name="at" unicode="@" horiz-adv-x="1610" 
d="M855 577v284q-15 3 -31 3q-133 0 -133 -223q0 -103 18.5 -150t63.5 -47q82 0 82 133zM841 -25q-333 0 -518 174.5t-185 506.5q0 158 48.5 287.5t136 217t209.5 135t268 47.5q301 0 479 -163.5t178 -440.5q0 -217 -98.5 -345t-242.5 -128q-91 0 -142 32.5t-74 97.5
q-57 -117 -185 -117q-117 0 -180.5 97t-63.5 258q0 173 94 278t276 105q82 0 234 -35v-519q0 -50 34 -50q24 0 47 13.5t47 46t39 101.5t15 165q0 217 -116.5 330.5t-340.5 113.5q-215 0 -338.5 -134t-123.5 -393q0 -246 134 -383.5t369 -137.5q164 0 275 36l13 -9l-32 -157
q-47 -10 -128 -20t-128 -10z" />
    <glyph glyph-name="A" unicode="A" horiz-adv-x="1060" 
d="M769 -2l-88 299h-339l-87 -299q-69 3 -102 3q-47 0 -135 -4l431 1343h161l432 -1342q-72 3 -148 3q-56 0 -125 -3zM511 877l-119 -406h238z" />
    <glyph glyph-name="B" unicode="B" horiz-adv-x="1146" 
d="M772 389q0 109 -49 156t-155 47h-150v-426q120 -5 158 -5q46 0 77 8t60.5 30.5t44 70t14.5 119.5zM741 963q0 109 -40.5 158.5t-140.5 49.5l-142 -6v-401h132q28 0 51 3.5t50.5 15.5t46 32.5t31 58.5t12.5 89zM128 1330q271 13 404 13q232 0 353 -88t121 -279
q0 -94 -52 -171t-122 -117q209 -68 209 -287q0 -118 -33 -200t-98 -128t-149.5 -66t-200.5 -20q-78 0 -186 3.5t-177 6.5l-69 3q14 66 16.5 140t2.5 375v300q0 301 -2.5 375t-16.5 140z" />
    <glyph glyph-name="C" unicode="C" horiz-adv-x="1037" 
d="M927 211l19 -16l-26 -170q-167 -38 -250 -38q-113 0 -200 21t-158 70t-117 128.5t-70.5 199t-24.5 279.5q0 333 139.5 495.5t420.5 162.5q73 0 153 -19.5t139 -54.5q-12 -23 -28.5 -54t-24 -46t-15.5 -35.5t-11 -38.5h-18q-75 68 -211 68q-94 0 -152.5 -44t-90 -153
t-31.5 -294q0 -124 14.5 -215t38.5 -146.5t62 -88.5t78.5 -45t94.5 -12q123 0 269 46z" />
    <glyph glyph-name="D" unicode="D" horiz-adv-x="1180" 
d="M801 672q0 124 -15 214.5t-39.5 144t-62 85.5t-75 42.5t-86.5 10.5l-126 -5v-999q92 -4 124 -4q47 0 87 15.5t76.5 52.5t61.5 94.5t40 146t15 202.5zM120 0q9 48 10.5 121.5t1.5 386.5v314q0 313 -1.5 386.5t-10.5 121.5q215 13 358 13q78 0 141 -7t126.5 -25.5
t111 -49.5t89.5 -81.5t68.5 -118.5t42 -163t15.5 -213q0 -165 -28.5 -288.5t-77 -201t-122.5 -125t-155.5 -65.5t-185.5 -18q-72 0 -168 3.5t-155 6.5z" />
    <glyph glyph-name="E" unicode="E" horiz-adv-x="1002" 
d="M128 1330h781q-5 -48 -5 -81q0 -54 3 -100q-67 12 -154 15t-337 3v-396q350 3 444 15q-4 -56 -4 -99q0 -40 4 -92q-107 14 -444 14v-439q222 0 321.5 4t184.5 20q-4 -64 -4 -104q0 -51 4 -90h-794q14 66 16.5 140t2.5 375v300q0 301 -2.5 375t-16.5 140z" />
    <glyph glyph-name="F" unicode="F" horiz-adv-x="990" 
d="M406 1167v-406q382 3 474 15q-4 -56 -4 -99q0 -40 4 -92q-107 14 -474 14v-84q0 -301 2.5 -375t17.5 -141q-68 2 -154 2q-82 0 -154 -2q14 66 16.5 140.5t2.5 375.5v300q0 301 -2.5 375t-16.5 140h800q-5 -48 -5 -81q0 -54 3 -100q-66 12 -161 15t-349 3z" />
    <glyph glyph-name="G" unicode="G" horiz-adv-x="1150" 
d="M751 172v258q0 177 -19 277q61 -7 159 -7q75 0 132 9q-5 -210 -5 -300v-381q-274 -41 -359 -41q-116 0 -201 19.5t-155 67t-113.5 127t-66.5 200t-23 284.5q0 333 158 495.5t433 162.5q85 0 180 -20.5t157 -54.5q-5 -10 -18.5 -36.5t-17.5 -35t-13 -28t-12.5 -30
t-8 -25.5t-6.5 -29h-30q-94 85 -234 85q-76 0 -132.5 -25t-99 -82t-64.5 -154.5t-22 -235.5q0 -145 19.5 -246.5t57.5 -158.5t87 -81.5t115 -24.5q38 0 102 11z" />
    <glyph glyph-name="H" unicode="H" horiz-adv-x="1210" 
d="M803 589h-396v-74q0 -301 2.5 -375t17.5 -141q-68 2 -154 2q-83 0 -153 -2q15 69 17.5 143.5t2.5 372.5v300q0 298 -2.5 372.5t-17.5 143.5q105 -3 152 -3q49 0 154 3q-14 -69 -16.5 -143.5t-2.5 -372.5v-44h396v44q0 298 -3 372.5t-18 143.5q108 -3 152 -3q41 0 155 3
q-14 -69 -16.5 -143.5t-2.5 -372.5v-300q0 -301 2.5 -375t17.5 -141q-74 2 -155 2t-153 -2q15 69 18 143.5t3 372.5v74z" />
    <glyph glyph-name="I" unicode="I" horiz-adv-x="666" 
d="M484 -1q-68 2 -151 2q-87 0 -151 -2q14 69 16.5 143.5t2.5 372.5v300q0 298 -2.5 372.5t-16.5 143.5q96 -3 151 -3q43 0 151 3q-14 -69 -16.5 -143.5t-2.5 -372.5v-300q0 -298 2.5 -372.5t16.5 -143.5z" />
    <glyph glyph-name="J" unicode="J" horiz-adv-x="664" 
d="M197 84v731q0 298 -2.5 372.5t-16.5 143.5q102 -3 150 -3t153 3q-14 -69 -16.5 -143.5t-2.5 -372.5v-731q0 -97 -16.5 -170.5t-64.5 -138.5q-49 -67 -146.5 -108t-219.5 -45l-34 133q45 -3 72 -3q78 0 111 77.5t33 254.5z" />
    <glyph glyph-name="K" unicode="K" horiz-adv-x="1122" 
d="M826 0l-387 656q-10 16 -20 16q-8 0 -10 -10v61q1 -11 12 -11q12 0 23 18l367 600q26 -3 141 -3q99 0 150 3l-408 -641l428 -689q-64 2 -171 2q-67 0 -125 -2zM409 815v-87v-5v-208q0 -301 2.5 -375t17.5 -141q-68 2 -154 2q-83 0 -151 -2q15 69 17.5 143.5t2.5 372.5
v300q0 298 -2.5 372.5t-17.5 143.5q102 -3 151 -3q48 0 153 3q-14 -69 -16.5 -143.5t-2.5 -372.5z" />
    <glyph glyph-name="L" unicode="L" horiz-adv-x="890" 
d="M878 0h-762q14 66 16.5 140t2.5 375v300q0 298 -2.5 372.5t-17.5 143.5q105 -3 150 -3q39 0 147 3q-9 -69 -10.5 -143.5t-1.5 -372.5v-633q383 0 480 29q-6 -64 -6 -111q0 -63 4 -100z" />
    <glyph glyph-name="M" unicode="M" horiz-adv-x="1320" 
d="M572 434l-179 385v-304q0 -301 2.5 -375t17.5 -141q-72 2 -147 2q-76 0 -146 -2q15 69 17.5 143.5t2.5 372.5v815h236l287 -609q31 69 131 287t146 322h240v-815q0 -301 2.5 -375t17.5 -141q-70 2 -146 2q-75 0 -147 -2q15 69 17.5 143.5t2.5 372.5v304l-188 -385
q-44 2 -83 2q-40 0 -84 -2z" />
    <glyph glyph-name="N" unicode="N" horiz-adv-x="1180" 
d="M142 515v595q0 104 -2 139.5t-12 93.5h173l486 -789v261q0 294 -3.5 371.5t-19.5 144.5q108 -3 148 -3q43 0 148 3q-14 -67 -16.5 -141t-2.5 -375v-826h-173l-472 753v-227q0 -294 3 -371t18 -145q-72 2 -150 2q-77 0 -147 -2q16 67 19 141t3 375z" />
    <glyph glyph-name="O" unicode="O" horiz-adv-x="1188" 
d="M594 1170q-82 0 -132.5 -42.5t-78 -154t-27.5 -303.5q0 -188 27.5 -302t78.5 -161t132 -47t132 47t78.5 161t27.5 302q0 192 -27.5 303.5t-78 154t-132.5 42.5zM594 -14q-259 0 -383.5 171.5t-124.5 521.5q0 336 124.5 500.5t383.5 164.5t383.5 -164.5t124.5 -500.5
q0 -350 -124.5 -521.5t-383.5 -171.5z" />
    <glyph glyph-name="P" unicode="P" horiz-adv-x="1078" 
d="M744 911q0 125 -58 192.5t-149 67.5l-125 -6v-516h94q108 0 173 62.5t65 199.5zM497 478h-85q0 -150 0.5 -218t5 -142.5t14.5 -118.5q-68 2 -154 2q-78 0 -150 -2q14 66 16.5 140.5t2.5 375.5v300q0 301 -2.5 375t-16.5 140q223 13 396 13q248 0 370 -115.5t122 -305.5
q0 -218 -132.5 -331t-386.5 -113z" />
    <glyph glyph-name="Q" unicode="Q" horiz-adv-x="1189" 
d="M901 -267q-55 51 -102 88t-110.5 82.5t-112.5 83.5q-250 7 -370 177.5t-120 514.5q0 336 124.5 500.5t383.5 164.5t383.5 -164.5t124.5 -500.5q0 -530 -290 -654q232 -142 306 -180q-44 -11 -119 -51t-98 -61zM594 1170q-82 0 -132.5 -42.5t-78 -154t-27.5 -303.5
q0 -188 27.5 -302t78.5 -161t132 -47t132 47t78.5 161t27.5 302q0 192 -27.5 303.5t-78 154t-132.5 42.5z" />
    <glyph glyph-name="R" unicode="R" horiz-adv-x="1126" 
d="M412 855v-147h126q87 0 143 53.5t56 172.5q0 237 -173 237q-82 0 -145 -6q-7 -136 -7 -310zM147 515v340q0 182 -12 475q62 0 195.5 6.5t208.5 6.5q241 0 354 -104.5t113 -291.5q0 -276 -254 -380l327 -571q-98 7 -168 7q-65 0 -133 -5l-284 536h-83v-19q0 -301 2.5 -375
t17.5 -141q-68 2 -153 2q-84 0 -150 -2q14 69 16.5 143.5t2.5 372.5z" />
    <glyph glyph-name="S" unicode="S" horiz-adv-x="980" 
d="M449 167q93 0 142.5 54.5t49.5 159.5q0 36 -14 66t-32 49.5t-54.5 40.5t-61 32t-72.5 30q-43 17 -74 32t-69.5 38t-64.5 50.5t-49.5 63t-35.5 82.5t-12 102q0 179 121 277.5t330 98.5q97 0 181.5 -25t139.5 -64q-13 -26 -29.5 -57.5t-23 -44t-14.5 -32t-15 -42.5h-36
q-39 91 -214 91q-81 0 -128 -44.5t-47 -126.5q0 -28 4.5 -51.5t15 -43t20 -34t29 -28.5t31.5 -22.5t38 -19.5t38 -15.5t41 -15.5q40 -14 65.5 -24.5t63.5 -30t62.5 -38t52.5 -48t44 -63t27 -79t11 -98.5q0 -195 -128.5 -297.5t-343.5 -102.5q-209 0 -361 108q11 24 35 73
t38.5 81t19.5 52h36q36 -60 98.5 -97t144.5 -37z" />
    <glyph glyph-name="T" unicode="T" horiz-adv-x="918" 
d="M12 1330h894q-7 -39 -7 -102q0 -51 2 -91q-233 10 -310 11v-633q0 -301 2.5 -375t16.5 -141q-70 2 -151 2q-82 0 -152 -2q15 69 18 143.5t3 372.5v633q-76 -1 -311 -11q0 9 1 42.5t1 48.5q0 63 -7 102z" />
    <glyph glyph-name="U" unicode="U" horiz-adv-x="1188" 
d="M594 -13q-226 0 -344.5 112t-118.5 313v403q0 294 -3 371t-18 145q102 -3 154 -3q53 0 155 3q-15 -67 -17.5 -141t-2.5 -375v-429q0 -225 195 -225t195 225v429q0 301 -2.5 375t-17.5 141q102 -3 155 -3q52 0 154 3q-15 -68 -18 -145t-3 -371v-403q0 -201 -118.5 -313
t-344.5 -112z" />
    <glyph glyph-name="V" unicode="V" horiz-adv-x="1050" 
d="M388 0q-111 390 -205 727t-126.5 452.5t-44.5 152.5q136 -4 159 -4q35 0 143 3q17 -138 225 -914q61 232 97 378.5t73.5 308.5t52.5 227q87 -3 127 -3q33 0 149 4q-61 -193 -168 -568t-225 -765q-69 3 -129 3q-86 0 -128 -2z" />
    <glyph glyph-name="W" unicode="W" horiz-adv-x="1376" 
d="M1134 -2q-57 4 -128 4q-37 0 -125 -4q-30 98 -94.5 332t-94.5 331q-99 -358 -191 -663q-92 4 -124 4q-46 0 -130 -4q-81 655 -196 1333q72 -2 139 -2q112 0 148 2q34 -356 101 -894q131 441 173 624q48 -2 83 -2q34 0 80 2q20 -80 53 -190.5t76.5 -247t61.5 -196.5
q78 554 104 904q90 -3 132 -3q19 0 139 4q-29 -215 -103 -662.5t-104 -671.5z" />
    <glyph glyph-name="X" unicode="X" horiz-adv-x="1103" 
d="M187 1q-69 0 -162 -3l389 693l-361 642q100 -5 127 -5q16 0 35.5 0.5t55 1t70.5 0.5l207 -392l213 392q14 0 57 -1t80 -1q50 0 141 7l-360 -641l386 -696q-96 3 -162 3q-68 0 -124 -2l-235 450l-233 -450q-56 2 -124 2z" />
    <glyph glyph-name="Y" unicode="Y" horiz-adv-x="1090" 
d="M545 809q133 251 242 521q100 -2 136 -2q17 0 157 4q-185 -325 -404 -762q0 -339 3 -420t19 -151q-70 2 -153 2q-81 0 -151 -2q14 67 16.5 148t2.5 423q-212 428 -403 762q140 -4 157 -4q36 0 136 2q143 -334 242 -521z" />
    <glyph glyph-name="Z" unicode="Z" horiz-adv-x="970" 
d="M900 1252l-525 -1082q375 0 510 19q-4 -55 -4 -102q0 -56 4 -91q-53 4 -190 4h-645v71l530 1087h-292q-60 0 -186 -9v19t0.5 40t0.5 34q0 17 -0.5 55.5t-0.5 39.5q112 -7 186 -7h612v-78z" />
    <glyph glyph-name="bracketleft" unicode="[" horiz-adv-x="643" 
d="M349 -46h36q77 0 187 8q-6 -35 -6 -94q0 -55 6 -95q-142 9 -187 9h-273q12 66 14.5 140t2.5 375v736q0 301 -2.5 375t-14.5 140h273q45 0 187 9q-6 -40 -6 -95t8 -94q-110 8 -189 8h-36v-1422z" />
    <glyph glyph-name="backslash" unicode="\" horiz-adv-x="643" 
d="M375 -1l-407 1540q108 -4 125 -4q39 0 120 3q12 -98 41 -208l406 -1541q-108 4 -123 4q-40 0 -121 -3q-14 110 -41 209z" />
    <glyph glyph-name="bracketright" unicode="]" horiz-adv-x="643" 
d="M280 1376h-36q-88 0 -182 -7v19t0.5 40t0.5 34q0 17 -0.5 55.5t-0.5 39.5q144 -9 182 -9h273q-12 -66 -14.5 -140t-2.5 -375v-736q0 -301 2.5 -375t14.5 -140h-273q-38 0 -182 -9q0 1 0.5 39.5t0.5 55.5t-1 55v38q95 -7 182 -7h36v1422z" />
    <glyph glyph-name="asciicircum" unicode="^" horiz-adv-x="963" 
d="M486 1161l-188 -398q-60 2 -109 2q-55 0 -139 -3l335 680q52 -5 101 -5q46 0 100 5l327 -680q-87 3 -144 3t-115 -2z" />
    <glyph glyph-name="underscore" unicode="_" horiz-adv-x="1007" 
d="M828 -306h-669q-86 0 -182 -7q0 1 0.5 18.5t0.5 39.5v34q0 17 -0.5 55t-0.5 39q112 -7 182 -7h669q77 0 187 8q-6 -35 -6 -93q0 -54 6 -94q-110 7 -187 7z" />
    <glyph glyph-name="grave" unicode="`" horiz-adv-x="599" 
d="M474 1102h-127q-157 137 -271 259q43 -2 144 -2q93 0 120 1q21 -40 65.5 -120t68.5 -124v-14z" />
    <glyph glyph-name="a" unicode="a" horiz-adv-x="940" 
d="M420 803q-135 0 -218 -95h-25q-4 18 -6.5 29t-10.5 26.5t-12 22.5t-21.5 35t-28.5 47q63 42 148 68.5t177 26.5q191 0 280.5 -78t89.5 -240v-443q0 -36 17.5 -49t74.5 -13q-18 -94 -18 -114q-56 -30 -124 -30q-62 0 -108.5 28t-56.5 87q-58 -123 -234 -123
q-131 0 -202.5 78t-71.5 212q0 136 102.5 213t297.5 77h85v110q0 59 -34 92t-101 33zM416 149q60 0 99.5 41.5t39.5 108.5v119h-95q-70 0 -110 -36.5t-40 -108.5q0 -61 29 -92.5t77 -31.5z" />
    <glyph glyph-name="b" unicode="b" horiz-adv-x="976" 
d="M499 798q-58 0 -97 -38t-39 -103v-499q48 -6 95 -6q100 0 146.5 90t46.5 273q0 157 -37 220t-115 63zM363 1012v-104q25 21 71.5 38t97.5 17q185 0 272.5 -107.5t87.5 -322.5q0 -295 -105 -420.5t-347 -125.5q-58 0 -171.5 13t-139.5 15v997q0 147 -2.5 199.5
t-15.5 118.5q66 -2 135 -2t135 2q-13 -67 -15.5 -117t-2.5 -201z" />
    <glyph glyph-name="c" unicode="c" horiz-adv-x="800" 
d="M500 788q-184 0 -184 -331q0 -295 197 -295q85 0 204 47l18 -7l-22 -174q-119 -41 -205 -41q-221 0 -327.5 121.5t-106.5 384.5q0 230 117 350t312 120q63 0 136 -18t121 -42q-65 -128 -71 -182h-29q-67 67 -160 67z" />
    <glyph glyph-name="d" unicode="d" horiz-adv-x="986" 
d="M865 1012v-694q0 -152 2.5 -202t14.5 -117q-64 2 -134 2q-64 0 -128 -2q3 29 7 80q-70 -92 -200 -92q-166 0 -254.5 126t-88.5 341q0 241 128 375t333 134q36 0 86 -9v58q0 147 -2.5 199.5t-15.5 118.5q64 -2 135 -2q70 0 134 2q-12 -67 -14.5 -117t-2.5 -201zM482 152
q67 0 107 53.5t42 150.5v433q-47 9 -88 9q-101 0 -159 -82.5t-58 -260.5q0 -152 42 -227.5t114 -75.5z" />
    <glyph glyph-name="e" unicode="e" horiz-adv-x="916" 
d="M521 156q126 0 251 54l19 -8l-22 -176q-45 -13 -119 -26t-119 -13q-82 0 -147 13t-122.5 46.5t-95.5 88t-60 140t-22 199.5q0 489 397 489q178 0 264.5 -109.5t86.5 -306.5v-135h-511q4 -138 54 -197t146 -59zM477 803q-74 0 -110 -50.5t-43 -190.5h273v13
q0 120 -28.5 174t-91.5 54z" />
    <glyph glyph-name="f" unicode="f" horiz-adv-x="656" 
d="M411 784v-466q0 -152 2.5 -202t15.5 -117q-64 2 -134 2q-71 0 -135 -2q11 66 13.5 118.5t2.5 200.5v466q-75 0 -151 -6l1 35v50q0 14 -0.5 49.5t-0.5 36.5q91 -8 151 -8v53q0 164 90 264t251 100q87 0 160 -27l-35 -168l-13 -2q-41 33 -93 33q-56 0 -90.5 -44.5
t-34.5 -133.5v-77q94 2 211 7q-4 -24 -4 -92q0 -35 4 -76q-102 6 -211 6z" />
    <glyph glyph-name="g" unicode="g" horiz-adv-x="952" 
d="M467 176q63 0 102 51t39 113v457q-36 6 -92 6q-100 0 -145.5 -74.5t-45.5 -266.5q0 -151 36 -218.5t106 -67.5zM382 -190q105 0 165.5 54.5t60.5 161.5v72q-21 -35 -76 -63.5t-107 -28.5q-167 0 -254 117t-87 341q0 246 115.5 372.5t329.5 126.5q107 0 319 -25v-827
q0 -221 -120 -345.5t-350 -124.5q-123 0 -204 22l-32 189l8 8q124 -50 232 -50z" />
    <glyph glyph-name="h" unicode="h" horiz-adv-x="995" 
d="M358 1086v-215q44 44 104 68t120 24q296 0 296 -330v-315q0 -152 2.5 -202t15.5 -117q-64 2 -134 2q-71 0 -135 -2q12 66 14.5 118.5t2.5 200.5v332q0 79 -26 116t-85 37q-70 0 -122.5 -48.5t-52.5 -126.5v-310q0 -152 2.5 -202t13.5 -117q-64 2 -133 2q-71 0 -135 -2
q13 66 15.5 118.5t2.5 200.5v768q0 154 -20 244q93 -3 135 -3q46 0 139 3q-20 -90 -20 -244z" />
    <glyph glyph-name="i" unicode="i" horiz-adv-x="485" 
d="M109 1235q0 54 37.5 90t97.5 36t97.5 -36t37.5 -90t-37.5 -90t-97.5 -36t-97.5 36t-37.5 90zM360 632v-314q0 -152 2.5 -202t14.5 -117q-64 2 -133 2q-72 0 -136 -2q12 66 14.5 118.5t2.5 200.5v314q0 147 -2.5 199.5t-14.5 118.5q64 -2 136 -2q69 0 133 2
q-12 -67 -14.5 -117t-2.5 -201z" />
    <glyph glyph-name="j" unicode="j" horiz-adv-x="465" 
d="M350 632l3 -568q0 -106 -11.5 -166.5t-48.5 -112.5q-48 -67 -148 -113t-218 -50l-33 154q50 -9 100 -9q76 0 98.5 58.5t22.5 238.5v568q0 147 -2.5 199.5t-14.5 118.5q64 -2 136 -2q69 0 133 2q-12 -68 -15 -120t-2 -198zM99 1235q0 54 37.5 90t97.5 36t97.5 -36
t37.5 -90t-37.5 -90t-97.5 -36t-97.5 36t-37.5 90z" />
    <glyph glyph-name="k" unicode="k" horiz-adv-x="938" 
d="M357 1010v-479v-5q0 -11 11 -11q8 0 19 18l253 419q50 -4 123 -4q90 0 148 4l-300 -439l322 -514q-70 2 -168 2q-61 0 -115 -3l-268 469q-6 11 -8.5 13.5t-7.5 2.5q-9 0 -9 -12v-153q0 -152 2.5 -202t14.5 -117q-66 2 -134 2q-72 0 -136 -2q13 66 15.5 118.5t2.5 200.5
v692q0 151 -2.5 201t-15.5 117q62 -2 134 -2q70 0 136 2q-12 -66 -14.5 -118.5t-2.5 -199.5z" />
    <glyph glyph-name="l" unicode="l" horiz-adv-x="495" 
d="M248 0q-68 0 -134 -2q12 67 14.5 117.5t2.5 202.5v692q0 151 -2.5 201t-14.5 117q66 -2 134 -2q67 0 133 2q-12 -67 -14.5 -117t-2.5 -201v-692q0 -152 2.5 -202.5t14.5 -117.5q-66 2 -133 2z" />
    <glyph glyph-name="m" unicode="m" horiz-adv-x="1434" 
d="M359 604v-286q0 -152 2.5 -202t13.5 -117q-64 2 -133 2q-72 0 -136 -2q13 66 15.5 118.5t2.5 200.5v389q0 154 -20 244q93 -3 135 -3q37 0 130 3l-4 -77q73 89 201 89q166 0 233 -118q37 56 98 87t133 31q141 0 212 -84t71 -246v-315q0 -152 2.5 -202t14.5 -117
q-64 2 -134 2q-71 0 -135 -2q13 66 15.5 118.5t2.5 200.5v332q0 153 -107 153q-55 0 -90.5 -40t-37.5 -121v-9v-315q0 -152 2.5 -202t15.5 -117q-64 2 -134 2t-136 -2q13 66 15.5 118.5t2.5 200.5v332q0 153 -108 153q-131 0 -143 -170v-29z" />
    <glyph glyph-name="n" unicode="n" horiz-adv-x="1000" 
d="M644 318v297q0 104 -25 146t-86 42q-69 0 -120.5 -61.5t-54.5 -162.5v-261q0 -152 2.5 -202t13.5 -117q-64 2 -133 2q-71 0 -135 -2q13 66 15.5 118.5t2.5 200.5v389q0 154 -20 244q93 -3 134 -3q37 0 130 3l-4 -85q74 97 218 97q138 0 217 -82t79 -263v-300
q0 -152 2.5 -202t15.5 -117q-64 2 -134 2q-71 0 -135 -2q12 66 14.5 118.5t2.5 200.5z" />
    <glyph glyph-name="o" unicode="o" horiz-adv-x="944" 
d="M472 147q158 0 158 320q0 180 -38 258t-120 78t-120 -78t-38 -258q0 -320 158 -320zM472 -13q-198 0 -299 117.5t-101 388.5q0 226 102 348t298 122t298 -122t102 -348q0 -271 -101 -388.5t-299 -117.5z" />
    <glyph glyph-name="p" unicode="p" horiz-adv-x="986" 
d="M122 -62v694q0 152 -2.5 202t-15.5 117q64 -2 134 -2q64 0 128 2q-3 -28 -7 -77q76 89 205 89q160 0 249 -122.5t89 -344.5q0 -253 -117 -381t-336 -128q-39 0 -93 9v-58q0 -147 2.5 -199.5t15.5 -118.5q-66 2 -136 2t-134 -2q13 67 15.5 117t2.5 201zM513 794
q-70 0 -113.5 -63.5t-43.5 -146.5v-421q59 -11 92 -11q48 0 84 15.5t66 52t46 106t16 169.5q0 159 -36 229t-111 70z" />
    <glyph glyph-name="q" unicode="q" horiz-adv-x="969" 
d="M481 152q55 0 93.5 39t38.5 102v499q-48 6 -94 6q-194 0 -194 -343q0 -158 42 -230.5t114 -72.5zM613 -40v86q-27 -23 -72 -41t-97 -18q-178 0 -269 123t-91 337q0 264 111 390t341 126q58 0 171.5 -13t139.5 -15v-975q0 -147 2.5 -199.5t15.5 -118.5q-66 2 -135 2
t-135 -2q13 67 15.5 117t2.5 201z" />
    <glyph glyph-name="r" unicode="r" horiz-adv-x="700" 
d="M531 763q-66 0 -120 -49t-57 -141v-255q0 -152 2.5 -202t14.5 -117q-64 2 -134 2q-71 0 -135 -2q12 66 14.5 118.5t2.5 200.5v389q0 152 -19 244q93 -3 134 -3q35 0 131 3q-10 -106 -11 -142q81 154 199 154q33 0 72.5 -7t54.5 -16q-23 -106 -27 -206l-21 -11
q-32 40 -101 40z" />
    <glyph glyph-name="s" unicode="s" horiz-adv-x="828" 
d="M385 156q139 0 139 121q0 39 -23 64t-60 38t-81.5 24.5t-89 29t-81.5 44.5t-60 78.5t-23 123.5q0 133 95 210t257 77q141 0 268 -65q-21 -36 -45.5 -98.5t-28.5 -89.5h-34q-12 39 -53.5 61t-101.5 22q-127 0 -127 -102q0 -42 23.5 -68t60.5 -39t82 -23t90 -26.5t82 -42
t60.5 -76.5t23.5 -124q0 -129 -96 -219t-272 -90q-165 0 -310 81q67 130 67 185h31q21 -40 78 -68t129 -28z" />
    <glyph glyph-name="t" unicode="t" horiz-adv-x="696" 
d="M168 1128l228 100h15v-289q106 2 221 7q-4 -48 -4 -92q0 -35 4 -76q-104 6 -220 6v-451q0 -42 0.5 -63t4 -47.5t9.5 -38t18 -23.5t30 -16t44 -4q56 0 126 20v-143q-95 -31 -190 -31q-138 0 -207.5 68.5t-69.5 194.5v534q-64 0 -142 -6l1 35v50q0 14 -0.5 49t-0.5 36
q90 -6 142 -6q-1 149 -9 186z" />
    <glyph glyph-name="u" unicode="u" horiz-adv-x="989" 
d="M356 632v-332q0 -79 28.5 -116t72.5 -37q71 0 120.5 48t56.5 130v21v286q0 152 -2.5 202t-15.5 117q93 -3 134 -3q36 0 135 3q-12 -66 -14.5 -118.5t-2.5 -200.5v-286q0 -232 12 -347q-62 2 -129 2t-129 -2l5 85q-90 -97 -223 -97q-283 0 -283 330v315q0 152 -2.5 202
t-14.5 117q93 -3 134 -3q37 0 136 3q-13 -66 -15.5 -118.5t-2.5 -200.5z" />
    <glyph glyph-name="v" unicode="v" horiz-adv-x="880" 
d="M309 -1q-24 78 -87 296t-109.5 364t-102.5 293q84 -3 130 -3q65 0 137 2q70 -272 169 -625q85 279 178 627q85 -5 116 -5q85 0 130 7q-222 -635 -322 -957q-56 4 -124 4q-67 0 -115 -3z" />
    <glyph glyph-name="w" unicode="w" horiz-adv-x="1232" 
d="M761 -2q-59 231 -153 529q-119 -393 -153 -529q-45 3 -103 3q-60 0 -102 -3q-137 578 -240 954q78 -3 126 -3q71 0 141 2q29 -188 45.5 -277.5t57.5 -282.5q25 93 59.5 211.5t56 196.5t37.5 152q72 -4 179 0q21 -88 76.5 -274t78.5 -283q83 373 111 558q47 -4 114 -4
q75 0 130 5q-44 -175 -131.5 -497t-123.5 -458q-42 3 -112 3q-44 0 -94 -3z" />
    <glyph glyph-name="x" unicode="x" horiz-adv-x="918" 
d="M850 952q-187 -294 -278 -445l294 -509q-105 3 -171 3q-55 0 -95 -2l-160 288l-175 -288q-36 2 -87 2q-58 0 -126 -2q176 282 288 468l-271 487q87 -6 148 -6q65 0 117 4l138 -263q123 199 160 263q52 -4 107 -4q53 0 111 4z" />
    <glyph glyph-name="y" unicode="y" horiz-adv-x="910" 
d="M229 -367q19 50 68.5 169t72.5 183l-22 -1q-227 701 -328 968q81 -3 129 -3q67 0 137 2q29 -88 89.5 -300.5t99.5 -326.5q74 249 168 628q67 -5 116 -5q59 0 131 6q-73 -201 -139.5 -410t-153 -497t-126.5 -416q-36 6 -110 6q-54 0 -132 -3z" />
    <glyph glyph-name="z" unicode="z" horiz-adv-x="797" 
d="M747 862l-397 -702h208q74 0 176 6q-4 -44 -4 -86q0 -38 4 -85q-62 5 -196 5h-483v71l404 710h-196q-83 0 -171 -7v18t0.5 37t0.5 32q0 15 -0.5 49t-0.5 35q59 -4 171 -4h484v-79z" />
    <glyph glyph-name="braceleft" unicode="{" horiz-adv-x="643" 
d="M422 467v-529q0 -48 53 -48q35 0 91 13v-124q-62 -17 -143 -17q-227 0 -227 222v477q0 165 -164 185v38q164 20 164 185v477q0 222 227 222q81 0 143 -17v-124q-56 13 -91 13q-53 0 -53 -48v-529q0 -73 -41 -126t-110 -72q70 -18 110.5 -71.5t40.5 -126.5z" />
    <glyph glyph-name="bar" unicode="|" horiz-adv-x="567" 
d="M284 -208q-68 0 -134 -2q12 67 14.5 117.5t2.5 202.5v1112q0 151 -2.5 201t-14.5 117q66 -2 134 -2q67 0 133 2q-12 -67 -14.5 -117t-2.5 -201v-1112q0 -152 2.5 -202.5t14.5 -117.5q-66 2 -133 2z" />
    <glyph glyph-name="braceright" unicode="}" horiz-adv-x="643" 
d="M206 863v529q0 48 -53 48q-35 0 -91 -13v124q62 17 143 17q227 0 227 -222v-477q0 -165 164 -185v-38q-164 -20 -164 -185v-477q0 -222 -227 -222q-81 0 -143 17v124q56 -13 91 -13q53 0 53 48v529q0 73 41 126t110 72q-70 18 -110.5 71.5t-40.5 126.5z" />
    <glyph glyph-name="asciitilde" unicode="~" horiz-adv-x="1007" 
d="M132 467v202q75 43 127.5 58.5t105.5 15.5t142 -35.5t131 -35.5q91 0 217 79v-197q-122 -76 -233 -76q-56 0 -140 35.5t-135 35.5q-62 0 -102.5 -17t-112.5 -65z" />
    <glyph glyph-name="uni00A0" unicode="&#xa0;" horiz-adv-x="489" 
 />
    <glyph glyph-name="exclamdown" unicode="&#xa1;" horiz-adv-x="493" 
d="M122 829q0 54 35 87.5t95 33.5t95 -33t35 -88q0 -54 -35 -87t-95 -33q-59 0 -94.5 33t-35.5 87zM184 568q82 -3 138 0q54 -555 56 -624q2 -54 4 -122t3.5 -115.5t3.5 -87.5q-102 3 -136 3t-136 -3q2 40 3.5 87.5t3.5 115.5t4 122q1 31 15 187t27 297z" />
    <glyph glyph-name="cent" unicode="&#xa2;" horiz-adv-x="988" 
d="M785 731q-15 15 -52 34t-83 28v-638q91 11 175 44l18 -7l-22 -164q-71 -25 -171 -37q0 -134 12 -193q-24 0 -47 0.5t-25 0.5t-24.5 -0.5t-47.5 -0.5q11 58 12 192q-196 16 -302 140t-106 363q0 196 112.5 321.5t295.5 145.5q-1 130 -12 187q21 0 45 -0.5t27 -0.5
q4 0 29 0.5t43 0.5q-12 -57 -12 -186q133 -9 228 -58q-57 -113 -64 -172h-29zM364 457q0 -117 44.5 -194t121.5 -101v627q-166 -47 -166 -332z" />
    <glyph glyph-name="sterling" unicode="&#xa3;" horiz-adv-x="988" 
d="M200 951q0 126 55 217.5t143 134.5t196 43q177 0 290 -93q-14 -24 -30.5 -61t-26.5 -62l-10 -24h-25q-92 97 -194 97q-155 0 -155 -177q0 -92 49 -230q138 0 280 6q-4 -52 -4 -87q0 -31 4 -73q-102 4 -228 6q32 -103 32 -174q0 -78 -19.5 -140t-43.5 -96.5t-66 -80.5h169
q71 0 253 8q-4 -52 -4 -94q0 -36 4 -78q-121 7 -253 7h-349q-91 0 -182 -7l1 34v47t-0.5 46.5t-0.5 35.5q61 -3 71 -3q50 0 85.5 23t54 63t26 83.5t7.5 96.5q0 66 -53 229q-143 -2 -191 -6l1 34v46t-0.5 47t-0.5 36q66 -4 144 -7q-29 99 -29 153z" />
    <glyph glyph-name="currency" unicode="&#xa4;" horiz-adv-x="1125" 
d="M551 277q115 0 186 78t71 219t-71 219t-186 78q-114 0 -185.5 -78.5t-71.5 -218.5t71.5 -218.5t185.5 -78.5zM551 119q-152 0 -256 61l-116 -112l-157 147l126 121q-52 101 -52 238q0 141 51 237l-125 122l157 147l117 -113q99 63 255 63t255 -63l118 113l157 -147
l-124 -122q51 -102 51 -237q0 -137 -51 -239q105 -102 124 -120l-157 -147l-117 112q-104 -61 -256 -61z" />
    <glyph glyph-name="yen" unicode="&#xa5;" horiz-adv-x="1005" 
d="M716 506h-80v-104h80q79 0 187 8q-5 -35 -5 -89q0 -45 5 -85q-126 6 -187 6h-79q1 -161 21 -243q-70 2 -153 2q-81 0 -151 -2q17 86 18 243h-90q-72 0 -182 -6v17t0.5 36t0.5 31q0 14 -0.5 51t-0.5 38q112 -7 182 -7h91v104h-91q-72 0 -182 -6v17t0.5 36t0.5 31
q0 15 -0.5 51.5t-0.5 37.5q112 -7 182 -7h44q-53 109 -156.5 330.5t-159.5 335.5q140 -4 157 -4q36 0 136 2q36 -84 100 -257t102 -264q42 101 107 274.5t95 246.5q100 -2 136 -2q17 0 157 4q-56 -114 -160.5 -337t-156.5 -329h33q79 0 187 8q-5 -35 -5 -88q0 -46 5 -86
q-126 6 -187 6z" />
    <glyph glyph-name="brokenbar" unicode="&#xa6;" horiz-adv-x="572" 
d="M165 1102v142q0 194 -18 286q99 -3 133 -3q30 0 135 3q-19 -92 -19 -286v-142q0 -194 19 -286q-70 2 -135 2q-67 0 -133 -2q18 92 18 286zM165 84v142q0 194 -18 286q99 -3 133 -3q30 0 135 3q-19 -92 -19 -286v-142q0 -194 19 -286q-70 2 -135 2q-67 0 -133 -2
q18 92 18 286z" />
    <glyph glyph-name="section" unicode="&#xa7;" horiz-adv-x="936" 
d="M506 547q28 16 51.5 47.5t23.5 67.5q0 48 -35.5 78t-115.5 45q-25 -14 -43.5 -47.5t-18.5 -69.5q0 -48 32.5 -78t105.5 -43zM94 83q11 16 20.5 32.5t16.5 29.5t14 29t11 25.5t9.5 24.5t7 21t5.5 20t5 16h33q57 -134 204 -134q64 0 103 30.5t39 82.5q0 33 -24 57t-62 39.5
t-84 30t-92 34t-84 46t-62 72t-24 106.5q0 79 40 126t112 78q-58 35 -94 89t-36 122q0 138 99 210.5t259 72.5q88 0 173.5 -25t138.5 -64q-12 -21 -29 -48t-23.5 -38t-15 -27.5t-14 -30t-10.5 -32.5h-32q-39 91 -180 91q-63 0 -96.5 -27t-33.5 -70q0 -38 24 -63t62 -38.5
t84 -25t92 -28t84 -42t62 -73t24 -113.5q0 -69 -44 -127.5t-110 -82.5q60 -31 96.5 -85t36.5 -125q0 -90 -51 -155.5t-133 -96t-185 -30.5q-204 0 -336 96z" />
    <glyph glyph-name="dieresis" unicode="&#xa8;" horiz-adv-x="700" 
d="M42 1230q0 54 33.5 87t91.5 33t91.5 -33t33.5 -87t-33.5 -87t-91.5 -33t-91.5 33t-33.5 87zM408 1227q0 54 33.5 87t91.5 33t91.5 -33t33.5 -87t-33.5 -87t-91.5 -33t-91.5 33t-33.5 87z" />
    <glyph glyph-name="copyright" unicode="&#xa9;" horiz-adv-x="1570" 
d="M998 464l17 -10l-17 -140q-37 -14 -92 -24.5t-96 -10.5q-161 0 -251 103t-90 294q0 174 92.5 273.5t258.5 99.5q51 0 109.5 -15t102.5 -39q-61 -113 -70 -154h-27q-46 59 -124 59q-73 0 -107.5 -50.5t-34.5 -178.5q0 -243 143 -243q74 0 186 36zM785 1205
q-240 0 -367.5 -135t-127.5 -406q0 -267 128 -403t367 -136t367 136t128 403q0 271 -127.5 406t-367.5 135zM785 -13q-311 0 -483 178t-172 499q0 317 172 498t483 181t483 -181t172 -498q0 -321 -172 -499t-483 -178z" />
    <glyph glyph-name="ordfeminine" unicode="&#xaa;" horiz-adv-x="780" 
d="M362 1198q-89 0 -154 -80h-30q-7 47 -65 153q114 69 264 69q142 0 216 -62.5t74 -173.5v-324q0 -32 11 -42t57 -10q-18 -59 -18 -102q-49 -26 -105 -26q-40 0 -73.5 24t-43.5 66q-32 -52 -74 -75t-110 -23q-102 0 -160.5 64.5t-58.5 152.5q0 234 295 234h71v70
q0 39 -25 62t-71 23zM362 734q41 0 68.5 28.5t27.5 85.5v65h-69q-52 0 -74.5 -22t-22.5 -69q0 -40 19 -64t51 -24z" />
    <glyph glyph-name="guillemotleft" unicode="&#xab;" horiz-adv-x="980" 
d="M525 174h-204l-221 394l221 394h204l-179 -394zM880 174h-204l-191 394l191 394h204l-149 -394z" />
    <glyph glyph-name="logicalnot" unicode="&#xac;" horiz-adv-x="1085" 
d="M758 498h-442q-86 0 -182 -7v18.5t0.5 39.5t0.5 34q0 17 -0.5 55t-0.5 39q110 -7 182 -7h460q86 0 182 7v-308q0 -63 7 -170q-33 3 -113 3l-99 -3q5 130 5 171v128z" />
    <glyph glyph-name="uni00AD" unicode="&#xad;" horiz-adv-x="900" 
d="M581 508h-267q-86 0 -182 -7v18.5t0.5 39.5t0.5 34q0 17 -0.5 55t-0.5 39q112 -7 182 -7h267q77 0 187 8q-6 -34 -6 -93q0 -53 6 -94q-114 7 -187 7z" />
    <glyph glyph-name="registered" unicode="&#xae;" horiz-adv-x="1570" 
d="M785 1205q-240 0 -367.5 -135t-127.5 -406q0 -267 128 -403t367 -136t367 136t128 403q0 271 -127.5 406t-367.5 135zM738 764v-51h46q41 0 64 25.5t23 69.5q0 45 -22.5 66t-59.5 21q-31 0 -49 -3q-2 -102 -2 -128zM754 560h-16q0 -134 2.5 -174.5t14.5 -82.5
q-11 0 -57.5 0.5t-56.5 0.5q-12 0 -57.5 -0.5t-55.5 -0.5q11 45 13.5 91t2.5 199v171q0 105 -8 268q36 0 116 3.5t127 3.5q147 0 218.5 -64.5t71.5 -165.5q0 -66 -36.5 -124t-98.5 -87q33 -55 91 -158.5t79 -139.5q-80 4 -136 4q-32 0 -80 -3zM785 -13q-311 0 -483 178
t-172 499q0 317 172 498t483 181t483 -181t172 -498q0 -321 -172 -499t-483 -178z" />
    <glyph glyph-name="macron" unicode="&#xaf;" horiz-adv-x="642" 
d="M407 1140h-177q-74 0 -182 -6v18.5t0.5 39.5t0.5 34q0 16 -1 54v39q96 -6 182 -6h177q91 0 187 7q-6 -34 -6 -93q0 -53 6 -93q-126 6 -187 6z" />
    <glyph glyph-name="degree" unicode="&#xb0;" horiz-adv-x="722" 
d="M230 1031v-2q0 -69 34.5 -108t96.5 -39q63 0 97 39.5t34 109.5q0 69 -34.5 108t-96.5 39t-96.5 -39t-34.5 -108zM35 1030q0 135 88.5 222.5t237.5 87.5t237.5 -87.5t88.5 -222.5t-88.5 -222.5t-237.5 -87.5t-237.5 87.5t-88.5 222.5z" />
    <glyph glyph-name="plusminus" unicode="&#xb1;" horiz-adv-x="1086" 
d="M630 815v-128h119q79 0 187 8q-6 -35 -6 -88q0 -49 6 -89q-126 6 -187 6h-119v-109q0 -87 6 -165h-44q-43 1 -60 1t-61.5 -0.5t-45.5 -0.5q7 85 7 165v109h-119q-72 0 -182 -6q0 1 0.5 17.5t0.5 37.5v32q0 15 -0.5 51.5t-0.5 37.5q110 -7 182 -7h119v128q0 70 -8 174
q50 -9 106 -9q51 0 106 7q-6 -92 -6 -172zM749 4h-436q-86 0 -182 -7q0 2 0.5 18.5t0.5 37v31.5q0 15 -0.5 51.5t-0.5 37.5q110 -7 182 -7h436q79 0 187 8q-6 -34 -6 -88q0 -49 6 -89q-110 7 -187 7z" />
    <glyph glyph-name="twosuperior" unicode="&#xb2;" horiz-adv-x="809" 
d="M84 403v114q0 64 21.5 119t56 94.5t76.5 74.5t84 66t76.5 61t56 67.5t21.5 78.5q0 57 -34.5 89.5t-95.5 32.5q-109 0 -163 -91h-28q-15 52 -70 142q41 34 117 61.5t159 27.5q161 0 244 -73.5t83 -197.5q0 -57 -19 -104.5t-50.5 -80.5t-70 -62t-78.5 -57t-74.5 -57.5
t-60.5 -70.5t-34 -90q289 0 370 16q-5 -65 -5 -87q0 -47 5 -77q-49 4 -154 4h-433z" />
    <glyph glyph-name="threesuperior" unicode="&#xb3;" horiz-adv-x="809" 
d="M542 898v-4q156 -55 156 -206q0 -142 -93 -218.5t-262 -76.5q-79 0 -155.5 22.5t-133.5 60.5q11 23 30 59t31 60t16 39h27q56 -96 175 -96q78 0 114 34.5t36 108.5q0 72 -33 104t-106 32h-39q-5 0 -108 -5l1 14v31.5v26.5q0 12 -0.5 44t-0.5 33q19 -1 45 -3t44 -3.5
t27 -1.5h23q130 0 130 127q0 59 -37 90t-103 31q-53 0 -93 -24t-58 -60h-29q-14 41 -77 135q128 88 274 88q158 0 245.5 -65.5t87.5 -185.5q0 -63 -36.5 -114t-97.5 -77z" />
    <glyph glyph-name="acute" unicode="&#xb4;" horiz-adv-x="599" 
d="M239 1102h-127v14q24 44 68.5 124t65.5 120q27 -1 120 -1q101 0 144 2q-114 -122 -271 -259z" />
    <glyph glyph-name="mu" unicode="&#xb5;" horiz-adv-x="989" 
d="M868 632v-286q0 -232 12 -347q-62 2 -129 2t-129 -2l3 61q-70 -73 -154 -73q-74 0 -118 22q3 -40 3 -70q0 -147 2.5 -200t15.5 -119q-99 3 -136 3q-41 0 -134 -3q12 67 14.5 117t2.5 202v693q0 152 -2.5 202t-14.5 117q93 -3 134 -3q37 0 136 3q-13 -66 -15.5 -118.5
t-2.5 -200.5v-332q0 -153 131 -153q67 0 107 48.5t40 129.5v21v286q0 152 -2.5 202t-15.5 117q93 -3 134 -3q36 0 135 3q-12 -66 -14.5 -118.5t-2.5 -200.5z" />
    <glyph glyph-name="paragraph" unicode="&#xb6;" horiz-adv-x="1144" 
d="M499 650h-36q-184 0 -282 90.5t-98 263.5q0 160 90.5 250t284.5 90q79 0 138.5 -3.5t79.5 -6.5l21 -4q-9 -48 -10.5 -121.5t-1.5 -386.5v-314q0 -313 1.5 -386.5t10.5 -121.5q-105 3 -212 0q10 46 12 173t2 477zM814 0q11 48 13 121.5t2 386.5v314q0 313 -2 386.5
t-12 121.5q106 -3 214 0q-10 -48 -12 -121.5t-2 -386.5v-314q0 -313 2 -386.5t13 -121.5q-107 3 -216 0z" />
    <glyph glyph-name="periodcentered" unicode="&#xb7;" horiz-adv-x="453" 
d="M87 592q0 54 37.5 87.5t98.5 33.5t98 -33.5t37 -87.5q0 -53 -37 -86.5t-98 -33.5t-98.5 33.5t-37.5 86.5z" />
    <glyph glyph-name="cedilla" unicode="&#xb8;" horiz-adv-x="597" 
d="M127 -394l-32 46q155 54 155 135q0 64 -103 78l87 209h126l-29 -134q122 -32 122 -143q0 -88 -84.5 -140t-212.5 -52q-4 0 -14.5 0.5t-14.5 0.5z" />
    <glyph glyph-name="onesuperior" unicode="&#xb9;" horiz-adv-x="809" 
d="M322 1122l-120 -57q-36 66 -83 96v20q26 9 57.5 21t75 30t76.5 32.5t94 41t95 40.5l25 -11q-7 -48 -8.5 -105.5t-1.5 -267.5v-191q0 -207 2.5 -260t16.5 -108h-246q12 54 14.5 107t2.5 261v351z" />
    <glyph glyph-name="ordmasculine" unicode="&#xba;" horiz-adv-x="822" 
d="M401 714q61 0 90 57t29 178q0 134 -27 191.5t-92 57.5q-63 0 -90 -57.5t-27 -191.5q0 -235 117 -235zM401 572q-109 0 -178.5 36t-108.5 125t-39 237q0 181 82 275.5t244 94.5q163 0 245.5 -94.5t82.5 -275.5q0 -218 -81 -308t-247 -90z" />
    <glyph glyph-name="guillemotright" unicode="&#xbb;" horiz-adv-x="980" 
d="M455 962h204l221 -394l-221 -394h-204l179 394zM100 962h204l191 -394l-191 -394h-204l149 394z" />
    <glyph glyph-name="onequarter" unicode="&#xbc;" horiz-adv-x="1780" 
d="M1003 181v37q162 533 201 712q102 -2 202 0l-157 -609h176q0 228 -10 277q105 -2 214 0q-10 -44 -10 -277q49 0 91 2q-1 -5 -1 -72.5t1 -74.5q-83 5 -91 5q0 -134 10 -181q-107 2 -214 0q10 47 10 181h-422zM303 1122l-120 -57q-36 66 -83 96v20q26 9 57.5 21t75 30
t76.5 32.5t94 41t95 40.5l25 -11q-7 -48 -8.5 -105.5t-1.5 -267.5v-191q0 -207 2.5 -260t16.5 -108h-246q12 54 14.5 107t2.5 261v351zM1294 1531l-555 -1508q-51 -135 -59 -206q-81 3 -109 3q-15 0 -119 -4l555 1508q49 134 59 206q81 -3 108 -3q12 0 120 4z" />
    <glyph glyph-name="onehalf" unicode="&#xbd;" horiz-adv-x="1780" 
d="M303 1122l-120 -57q-36 66 -83 96v20q26 9 57.5 21t75 30t76.5 32.5t94 41t95 40.5l25 -11q-7 -48 -8.5 -105.5t-1.5 -267.5v-191q0 -207 2.5 -260t16.5 -108h-246q12 54 14.5 107t2.5 261v351zM1098 3v114q0 64 21.5 119t56 94.5t76.5 74.5t84 66t76.5 61t56 67.5
t21.5 78.5q0 57 -34.5 89.5t-95.5 32.5q-109 0 -163 -91h-28q-15 52 -70 142q41 34 117 61.5t159 27.5q161 0 244 -73.5t83 -197.5q0 -57 -19 -104.5t-50.5 -80.5t-70 -62t-78.5 -57t-74.5 -57.5t-60.5 -70.5t-34 -90q289 0 370 16q-5 -65 -5 -87q0 -47 5 -77q-49 4 -154 4
h-433zM1284 1531l-555 -1508q-51 -135 -59 -206q-81 3 -109 3q-15 0 -119 -4l555 1508q49 134 59 206q81 -3 108 -3q12 0 120 4z" />
    <glyph glyph-name="threequarters" unicode="&#xbe;" horiz-adv-x="1840" 
d="M1063 181v37q162 533 201 712q102 -2 202 0l-157 -609h176q0 228 -10 277q105 -2 214 0q-10 -44 -10 -277q49 0 91 2q-1 -5 -1 -72.5t1 -74.5q-83 5 -91 5q0 -134 10 -181q-107 2 -214 0q10 47 10 181h-422zM572 898v-4q156 -55 156 -206q0 -142 -93 -218.5t-262 -76.5
q-79 0 -155.5 22.5t-133.5 60.5q11 23 30 59t31 60t16 39h27q56 -96 175 -96q78 0 114 34.5t36 108.5q0 72 -33 104t-106 32h-39q-5 0 -108 -5l1 14v31.5v26.5q0 12 -0.5 44t-0.5 33q19 -1 45 -3t44 -3.5t27 -1.5h23q130 0 130 127q0 59 -37 90t-103 31q-53 0 -93 -24
t-58 -60h-29q-14 41 -77 135q128 88 274 88q158 0 245.5 -65.5t87.5 -185.5q0 -63 -36.5 -114t-97.5 -77zM1375 1531l-555 -1508q-51 -135 -59 -206q-81 3 -109 3q-15 0 -119 -4l555 1508q49 134 59 206q81 -3 108 -3q12 0 120 4z" />
    <glyph glyph-name="questiondown" unicode="&#xbf;" horiz-adv-x="711" 
d="M283 829q0 54 35 87.5t95 33.5t95 -33t35 -88q0 -54 -35 -87t-95 -33q-59 0 -94.5 33t-35.5 87zM308 552q72 -2 108 -2q47 0 109 2v-150q0 -62 -25.5 -116.5t-61.5 -96t-72 -82t-61.5 -91.5t-25.5 -108q0 -127 143 -127q71 0 124.5 31t73.5 79h27q27 -91 72 -182
q-58 -43 -139 -72.5t-170 -29.5q-178 0 -274 82t-96 230q0 68 28.5 125.5t69 98.5t80.5 80t68.5 89.5t28.5 108.5q0 30 -1.5 63t-3.5 50z" />
    <glyph glyph-name="Agrave" unicode="&#xc0;" horiz-adv-x="1100" 
d="M789 -2l-88 299h-339l-87 -299q-69 3 -102 3q-47 0 -135 -4l431 1343h161l432 -1342q-72 3 -148 3q-56 0 -125 -3zM531 877l-119 -406h238zM636 1380h-147q-31 27 -135 106.5t-146 112.5q43 -2 154 -2q103 0 130 1q35 -54 144 -204v-14z" />
    <glyph glyph-name="Aacute" unicode="&#xc1;" horiz-adv-x="1100" 
d="M789 -2l-88 299h-339l-87 -299q-69 3 -102 3q-47 0 -135 -4l431 1343h161l432 -1342q-72 3 -148 3q-56 0 -125 -3zM531 877l-119 -406h238zM628 1380h-147v14q109 150 144 204q27 -1 130 -1q111 0 154 2q-42 -33 -146 -112.5t-135 -106.5z" />
    <glyph glyph-name="Acircumflex" unicode="&#xc2;" horiz-adv-x="1100" 
d="M789 -2l-88 299h-339l-87 -299q-69 3 -102 3q-47 0 -135 -4l431 1343h161l432 -1342q-72 3 -148 3q-56 0 -125 -3zM681 1385l-134 79l-132 -79h-200l245 235h177l246 -235h-202zM531 877l-119 -406h238z" />
    <glyph glyph-name="Atilde" unicode="&#xc3;" horiz-adv-x="1100" 
d="M789 -2l-88 299h-339l-87 -299q-69 3 -102 3q-47 0 -135 -4l431 1343h161l432 -1342q-72 3 -148 3q-56 0 -125 -3zM367 1393l-137 29q8 90 56.5 146t134.5 56q44 0 111 -34t101 -34q52 0 66 73l143 -24q-22 -216 -210 -216q-37 0 -68 11.5t-49 26t-39.5 26t-40.5 11.5
q-52 0 -68 -71zM531 877l-119 -406h238z" />
    <glyph glyph-name="Adieresis" unicode="&#xc4;" horiz-adv-x="1100" 
d="M789 -2l-88 299h-339l-87 -299q-69 3 -102 3q-47 0 -135 -4l431 1343h161l432 -1342q-72 3 -148 3q-56 0 -125 -3zM240 1508q0 54 33.5 87t91.5 33t91.5 -33t33.5 -87t-33.5 -87t-91.5 -33t-91.5 33t-33.5 87zM606 1505q0 54 33.5 87t91.5 33t91.5 -33t33.5 -87
t-33.5 -87t-91.5 -33t-91.5 33t-33.5 87zM531 877l-119 -406h238z" />
    <glyph glyph-name="Aring" unicode="&#xc5;" horiz-adv-x="1100" 
d="M789 -2l-88 299h-339l-87 -299q-69 3 -102 3q-47 0 -135 -4l410 1279q-108 43 -108 168q0 87 55.5 136t150.5 49t150.5 -49t55.5 -136q0 -121 -102 -166l412 -1280q-72 3 -148 3q-56 0 -125 -3zM531 877l-119 -406h238zM546 1382q23 0 39.5 16.5t16.5 47.5q0 30 -16 45.5
t-40 15.5t-40 -15.5t-16 -45.5q0 -31 16.5 -47.5t39.5 -16.5z" />
    <glyph glyph-name="AE" unicode="&#xc6;" horiz-adv-x="1479" 
d="M654 499l-52 499l-172 -499h224zM814 1167l24.5 -189t26.5 -207q354 3 448 15q-4 -56 -4 -99q0 -40 4 -92q-107 14 -429 14l53 -439q203 0 270.5 3.5t156.5 20.5q-4 -64 -4 -104q0 -51 4 -90h-668q3 18 3 78q0 52 -24 243h-305q-15 -45 -53.5 -156t-56.5 -166
q-44 2 -119 2q-55 0 -139 -4l484 1333h836q-5 -48 -5 -81q0 -54 3 -100q-67 12 -160 15t-346 3z" />
    <glyph glyph-name="Ccedilla" unicode="&#xc7;" horiz-adv-x="985" 
d="M485 -394l-32 46q155 54 155 135q0 64 -103 78l53 128q-114 13 -196.5 55t-142.5 123t-89.5 208.5t-29.5 305.5q0 333 139.5 495.5t420.5 162.5q73 0 153 -19.5t139 -54.5q-12 -23 -28.5 -54t-24 -46t-15.5 -35.5t-11 -38.5h-18q-75 68 -211 68q-94 0 -152.5 -44
t-90 -153t-31.5 -294q0 -124 14.5 -215t38.5 -146.5t62 -88.5t78.5 -45t94.5 -12q123 0 269 46l19 -16l-26 -170q-126 -30 -221 -37l-10 -48q122 -32 122 -143q0 -88 -84.5 -140t-212.5 -52q-4 0 -14.5 0.5t-14.5 0.5z" />
    <glyph glyph-name="Egrave" unicode="&#xc8;" horiz-adv-x="992" 
d="M647 1380h-147q-31 27 -135 106.5t-146 112.5q43 -2 154 -2q103 0 130 1q35 -54 144 -204v-14zM118 1330h781q-5 -48 -5 -81q0 -54 3 -100q-67 12 -154 15t-337 3v-396q350 3 444 15q-4 -56 -4 -99q0 -40 4 -92q-107 14 -444 14v-439q222 0 321.5 4t184.5 20
q-4 -64 -4 -104q0 -51 4 -90h-794q14 66 16.5 140t2.5 375v300q0 301 -2.5 375t-16.5 140z" />
    <glyph glyph-name="Eacute" unicode="&#xc9;" horiz-adv-x="992" 
d="M546 1380h-147v14q109 150 144 204q27 -1 130 -1q111 0 154 2q-42 -33 -146 -112.5t-135 -106.5zM118 1330h781q-5 -48 -5 -81q0 -54 3 -100q-67 12 -154 15t-337 3v-396q350 3 444 15q-4 -56 -4 -99q0 -40 4 -92q-107 14 -444 14v-439q222 0 321.5 4t184.5 20
q-4 -64 -4 -104q0 -51 4 -90h-794q14 66 16.5 140t2.5 375v300q0 301 -2.5 375t-16.5 140z" />
    <glyph glyph-name="Ecircumflex" unicode="&#xca;" horiz-adv-x="992" 
d="M675 1386l-148 86l-146 -86h-137l215 220h139l215 -220h-138zM118 1330h781q-5 -48 -5 -81q0 -54 3 -100q-67 12 -154 15t-337 3v-396q350 3 444 15q-4 -56 -4 -99q0 -40 4 -92q-107 14 -444 14v-439q222 0 321.5 4t184.5 20q-4 -64 -4 -104q0 -51 4 -90h-794
q14 66 16.5 140t2.5 375v300q0 301 -2.5 375t-16.5 140z" />
    <glyph glyph-name="Edieresis" unicode="&#xcb;" horiz-adv-x="992" 
d="M118 1330h781q-5 -48 -5 -81q0 -54 3 -100q-67 12 -154 15t-337 3v-396q350 3 444 15q-4 -56 -4 -99q0 -40 4 -92q-107 14 -444 14v-439q222 0 321.5 4t184.5 20q-4 -64 -4 -104q0 -51 4 -90h-794q14 66 16.5 140t2.5 375v300q0 301 -2.5 375t-16.5 140zM224 1508
q0 54 33.5 87t91.5 33t91.5 -33t33.5 -87t-33.5 -87t-91.5 -33t-91.5 33t-33.5 87zM590 1505q0 54 33.5 87t91.5 33t91.5 -33t33.5 -87t-33.5 -87t-91.5 -33t-91.5 33t-33.5 87z" />
    <glyph glyph-name="Igrave" unicode="&#xcc;" horiz-adv-x="666" 
d="M435 1380h-147q-31 27 -135 106.5t-146 112.5q43 -2 154 -2q103 0 130 1q35 -54 144 -204v-14zM484 -1q-68 2 -151 2q-87 0 -151 -2q14 69 16.5 143.5t2.5 372.5v300q0 298 -2.5 372.5t-16.5 143.5q96 -3 151 -3q43 0 151 3q-14 -69 -16.5 -143.5t-2.5 -372.5v-300
q0 -298 2.5 -372.5t16.5 -143.5z" />
    <glyph glyph-name="Iacute" unicode="&#xcd;" horiz-adv-x="666" 
d="M366 1380h-147v14q109 150 144 204q27 -1 130 -1q111 0 154 2q-42 -33 -146 -112.5t-135 -106.5zM484 -1q-68 2 -151 2q-87 0 -151 -2q14 69 16.5 143.5t2.5 372.5v300q0 298 -2.5 372.5t-16.5 143.5q96 -3 151 -3q43 0 151 3q-14 -69 -16.5 -143.5t-2.5 -372.5v-300
q0 -298 2.5 -372.5t16.5 -143.5z" />
    <glyph glyph-name="Icircumflex" unicode="&#xce;" horiz-adv-x="666" 
d="M480 1386l-148 86l-146 -86h-137l215 220h139l215 -220h-138zM484 -1q-68 2 -151 2q-87 0 -151 -2q14 69 16.5 143.5t2.5 372.5v300q0 298 -2.5 372.5t-16.5 143.5q96 -3 151 -3q43 0 151 3q-14 -69 -16.5 -143.5t-2.5 -372.5v-300q0 -298 2.5 -372.5t16.5 -143.5z" />
    <glyph glyph-name="Idieresis" unicode="&#xcf;" horiz-adv-x="666" 
d="M484 -1q-68 2 -151 2q-87 0 -151 -2q14 69 16.5 143.5t2.5 372.5v300q0 298 -2.5 372.5t-16.5 143.5q96 -3 151 -3q43 0 151 3q-14 -69 -16.5 -143.5t-2.5 -372.5v-300q0 -298 2.5 -372.5t16.5 -143.5zM25 1508q0 54 33.5 87t91.5 33t91.5 -33t33.5 -87t-33.5 -87
t-91.5 -33t-91.5 33t-33.5 87zM391 1505q0 54 33.5 87t91.5 33t91.5 -33t33.5 -87t-33.5 -87t-91.5 -33t-91.5 33t-33.5 87z" />
    <glyph glyph-name="Eth" unicode="&#xd0;" horiz-adv-x="1098" 
d="M131 0q9 48 10.5 121.5t1.5 386.5v94q-62 0 -123 -4q1 8 1 83t-1 85q68 -4 123 -4v60q0 313 -1.5 386.5t-10.5 121.5q215 13 358 13q78 0 141 -7t126.5 -25.5t111 -49.5t89.5 -81.5t68.5 -118.5t42 -163t15.5 -213q0 -165 -28.5 -288.5t-77 -201t-122.5 -125
t-155.5 -65.5t-185.5 -18q-72 0 -168 3.5t-156 6.5zM812 672q0 124 -15 214.5t-39.5 144t-62 85.5t-75 42.5t-86.5 10.5l-126 -5v-402h46q91 0 148 4q-1 -8 -1 -83t1 -85q-66 4 -148 4h-46v-437q92 -4 124 -4q47 0 87 15.5t76.5 52.5t61.5 94.5t40 146t15 202.5z" />
    <glyph glyph-name="Ntilde" unicode="&#xd1;" horiz-adv-x="1189" 
d="M143 515v595q0 104 -2 139.5t-12 93.5h173l486 -789v261q0 294 -3.5 371.5t-19.5 144.5q108 -3 148 -3q43 0 148 3q-14 -67 -16.5 -141t-2.5 -375v-826h-173l-472 753v-227q0 -294 3 -371t18 -145q-72 2 -150 2q-77 0 -147 -2q16 67 19 141t3 375zM414 1393l-137 29
q8 90 56.5 146t134.5 56q44 0 111 -34t101 -34q52 0 66 73l143 -24q-22 -216 -210 -216q-37 0 -68 11.5t-49 26t-39.5 26t-40.5 11.5q-52 0 -68 -71z" />
    <glyph glyph-name="Ograve" unicode="&#xd2;" horiz-adv-x="1188" 
d="M701 1380h-147q-31 27 -135 106.5t-146 112.5q43 -2 154 -2q103 0 130 1q35 -54 144 -204v-14zM594 1170q-82 0 -132.5 -42.5t-78 -154t-27.5 -303.5q0 -188 27.5 -302t78.5 -161t132 -47t132 47t78.5 161t27.5 302q0 192 -27.5 303.5t-78 154t-132.5 42.5zM594 -14
q-259 0 -383.5 171.5t-124.5 521.5q0 336 124.5 500.5t383.5 164.5t383.5 -164.5t124.5 -500.5q0 -350 -124.5 -521.5t-383.5 -171.5z" />
    <glyph glyph-name="Oacute" unicode="&#xd3;" horiz-adv-x="1188" 
d="M636 1380h-147v14q109 150 144 204q27 -1 130 -1q111 0 154 2q-42 -33 -146 -112.5t-135 -106.5zM594 1170q-82 0 -132.5 -42.5t-78 -154t-27.5 -303.5q0 -188 27.5 -302t78.5 -161t132 -47t132 47t78.5 161t27.5 302q0 192 -27.5 303.5t-78 154t-132.5 42.5zM594 -14
q-259 0 -383.5 171.5t-124.5 521.5q0 336 124.5 500.5t383.5 164.5t383.5 -164.5t124.5 -500.5q0 -350 -124.5 -521.5t-383.5 -171.5z" />
    <glyph glyph-name="Ocircumflex" unicode="&#xd4;" horiz-adv-x="1188" 
d="M756 1386l-148 86l-146 -86h-137l215 220h139l215 -220h-138zM594 1170q-82 0 -132.5 -42.5t-78 -154t-27.5 -303.5q0 -188 27.5 -302t78.5 -161t132 -47t132 47t78.5 161t27.5 302q0 192 -27.5 303.5t-78 154t-132.5 42.5zM594 -14q-259 0 -383.5 171.5t-124.5 521.5
q0 336 124.5 500.5t383.5 164.5t383.5 -164.5t124.5 -500.5q0 -350 -124.5 -521.5t-383.5 -171.5z" />
    <glyph glyph-name="Otilde" unicode="&#xd5;" horiz-adv-x="1188" 
d="M594 1170q-82 0 -132.5 -42.5t-78 -154t-27.5 -303.5q0 -188 27.5 -302t78.5 -161t132 -47t132 47t78.5 161t27.5 302q0 192 -27.5 303.5t-78 154t-132.5 42.5zM594 -14q-259 0 -383.5 171.5t-124.5 521.5q0 336 124.5 500.5t383.5 164.5t383.5 -164.5t124.5 -500.5
q0 -350 -124.5 -521.5t-383.5 -171.5zM406 1393l-137 29q8 90 56.5 146t134.5 56q44 0 111 -34t101 -34q52 0 66 73l143 -24q-22 -216 -210 -216q-37 0 -68 11.5t-49 26t-39.5 26t-40.5 11.5q-52 0 -68 -71z" />
    <glyph glyph-name="Odieresis" unicode="&#xd6;" horiz-adv-x="1188" 
d="M594 1170q-82 0 -132.5 -42.5t-78 -154t-27.5 -303.5q0 -188 27.5 -302t78.5 -161t132 -47t132 47t78.5 161t27.5 302q0 192 -27.5 303.5t-78 154t-132.5 42.5zM594 -14q-259 0 -383.5 171.5t-124.5 521.5q0 336 124.5 500.5t383.5 164.5t383.5 -164.5t124.5 -500.5
q0 -350 -124.5 -521.5t-383.5 -171.5zM286 1508q0 54 33.5 87t91.5 33t91.5 -33t33.5 -87t-33.5 -87t-91.5 -33t-91.5 33t-33.5 87zM652 1505q0 54 33.5 87t91.5 33t91.5 -33t33.5 -87t-33.5 -87t-91.5 -33t-91.5 33t-33.5 87z" />
    <glyph glyph-name="multiply" unicode="&#xd7;" horiz-adv-x="1086" 
d="M406 591l-119 114q-56 56 -129 115q12 8 69 63t69 68q102 -113 125 -131l111 -107l112 107q49 48 127 134q13 -16 67.5 -71t66.5 -64q-78 -64 -128 -114l-119 -114l119 -114q77 -72 129 -114q-12 -9 -68.5 -63t-69.5 -68q-80 86 -124 130l-112 108l-111 -107
q-38 -37 -128 -134q-11 14 -63 66.5t-70 68.5q87 74 126 113z" />
    <glyph glyph-name="Oslash" unicode="&#xd8;" horiz-adv-x="1188" 
d="M594 -14q-100 0 -183 26q-51 -136 -57 -182q-81 3 -145 0l89 240q-212 154 -212 609q0 336 124.5 500.5t383.5 164.5q93 0 168 -21l8 21q7 20 19.5 51.5t18.5 47.5t11.5 33.5t6.5 25.5q84 -3 151 0l-90 -237q215 -147 215 -586q0 -350 -124.5 -521.5t-383.5 -171.5z
M832 670q0 230 -39 347l-313 -824q46 -33 114 -33q81 0 132 47t78.5 161t27.5 302zM594 1170q-82 0 -132.5 -42.5t-78 -154t-27.5 -303.5q0 -224 37 -342l304 819q-43 23 -103 23z" />
    <glyph glyph-name="Ugrave" unicode="&#xd9;" horiz-adv-x="1188" 
d="M687 1380h-147q-31 27 -135 106.5t-146 112.5q43 -2 154 -2q103 0 130 1q35 -54 144 -204v-14zM594 -13q-226 0 -344.5 112t-118.5 313v403q0 294 -3 371t-18 145q102 -3 154 -3q53 0 155 3q-15 -67 -17.5 -141t-2.5 -375v-429q0 -225 195 -225t195 225v429
q0 301 -2.5 375t-17.5 141q102 -3 155 -3q52 0 154 3q-15 -68 -18 -145t-3 -371v-403q0 -201 -118.5 -313t-344.5 -112z" />
    <glyph glyph-name="Uacute" unicode="&#xda;" horiz-adv-x="1188" 
d="M620 1380h-147v14q109 150 144 204q27 -1 130 -1q111 0 154 2q-42 -33 -146 -112.5t-135 -106.5zM594 -13q-226 0 -344.5 112t-118.5 313v403q0 294 -3 371t-18 145q102 -3 154 -3q53 0 155 3q-15 -67 -17.5 -141t-2.5 -375v-429q0 -225 195 -225t195 225v429
q0 301 -2.5 375t-17.5 141q102 -3 155 -3q52 0 154 3q-15 -68 -18 -145t-3 -371v-403q0 -201 -118.5 -313t-344.5 -112z" />
    <glyph glyph-name="Ucircumflex" unicode="&#xdb;" horiz-adv-x="1188" 
d="M734 1386l-148 86l-146 -86h-137l215 220h139l215 -220h-138zM594 -13q-226 0 -344.5 112t-118.5 313v403q0 294 -3 371t-18 145q102 -3 154 -3q53 0 155 3q-15 -67 -17.5 -141t-2.5 -375v-429q0 -225 195 -225t195 225v429q0 301 -2.5 375t-17.5 141q102 -3 155 -3
q52 0 154 3q-15 -68 -18 -145t-3 -371v-403q0 -201 -118.5 -313t-344.5 -112z" />
    <glyph glyph-name="Udieresis" unicode="&#xdc;" horiz-adv-x="1188" 
d="M594 -13q-226 0 -344.5 112t-118.5 313v403q0 294 -3 371t-18 145q102 -3 154 -3q53 0 155 3q-15 -67 -17.5 -141t-2.5 -375v-429q0 -225 195 -225t195 225v429q0 301 -2.5 375t-17.5 141q102 -3 155 -3q52 0 154 3q-15 -68 -18 -145t-3 -371v-403q0 -201 -118.5 -313
t-344.5 -112zM286 1508q0 54 33.5 87t91.5 33t91.5 -33t33.5 -87t-33.5 -87t-91.5 -33t-91.5 33t-33.5 87zM652 1505q0 54 33.5 87t91.5 33t91.5 -33t33.5 -87t-33.5 -87t-91.5 -33t-91.5 33t-33.5 87z" />
    <glyph glyph-name="Yacute" unicode="&#xdd;" horiz-adv-x="1090" 
d="M537 1380h-147v14q109 150 144 204q27 -1 130 -1q111 0 154 2q-42 -33 -146 -112.5t-135 -106.5zM545 809q133 251 242 521q100 -2 136 -2q17 0 157 4q-185 -325 -404 -762q0 -339 3 -420t19 -151q-70 2 -153 2q-81 0 -151 -2q14 67 16.5 148t2.5 423q-212 428 -403 762
q140 -4 157 -4q36 0 136 2q143 -334 242 -521z" />
    <glyph glyph-name="Thorn" unicode="&#xde;" horiz-adv-x="1088" 
d="M734 678q0 124 -57 187t-150 63l-125 -6v-496h94q238 0 238 252zM402 1098q82 2 112 2q250 0 371 -111t121 -300q0 -217 -132 -325.5t-387 -108.5h-85q0 -164 20 -256q-68 2 -154 2q-78 0 -150 -2q14 66 16.5 140.5t2.5 375.5v300q0 301 -2.5 375.5t-16.5 140.5
q72 -2 150 -2q86 0 154 2q-20 -92 -20 -233z" />
    <glyph glyph-name="germandbls" unicode="&#xdf;" horiz-adv-x="1067" 
d="M440 30q15 32 31.5 87.5t20.5 91.5h25q21 -25 46.5 -38t71.5 -13q42 0 71.5 30.5t29.5 81.5q0 40 -15.5 72t-40 53.5t-54 40.5t-59.5 39.5t-54.5 45t-40 62t-15.5 84.5q0 52 20 94.5t48.5 72.5t57.5 59t49 68.5t20 86.5q0 65 -39 99t-96 34q-69 0 -112.5 -43t-43.5 -128
v-692q0 -125 3 -185.5t15 -133.5q-66 2 -135 2q-72 0 -136 -2q13 66 15.5 118.5t2.5 200.5v668q0 93 31 165t85 115.5t122.5 65.5t149.5 22q167 0 270 -88.5t103 -207.5q0 -56 -20 -103.5t-49 -79.5t-58 -61t-49 -62t-20 -68q0 -38 21.5 -67t53.5 -47t70 -42.5t70 -50.5
t53.5 -73.5t21.5 -110.5q0 -135 -97.5 -220.5t-241.5 -85.5q-117 0 -202 43z" />
    <glyph glyph-name="agrave" unicode="&#xe0;" horiz-adv-x="951" 
d="M419 803q-135 0 -218 -95h-25q-4 18 -6.5 29t-10.5 26.5t-12 22.5t-21.5 35t-28.5 47q63 42 148 68.5t177 26.5q191 0 280.5 -78t89.5 -240v-443q0 -36 17.5 -49t74.5 -13q-18 -94 -18 -114q-56 -30 -124 -30q-62 0 -108.5 28t-56.5 87q-58 -123 -234 -123
q-131 0 -202.5 78t-71.5 212q0 136 102.5 213t297.5 77h85v110q0 59 -34 92t-101 33zM415 149q60 0 99.5 41.5t39.5 108.5v119h-95q-70 0 -110 -36.5t-40 -108.5q0 -61 29 -92.5t77 -31.5zM620 1102h-127q-157 137 -271 259q43 -2 144 -2q93 0 120 1q21 -40 65.5 -120
t68.5 -124v-14z" />
    <glyph glyph-name="aacute" unicode="&#xe1;" horiz-adv-x="951" 
d="M419 803q-135 0 -218 -95h-25q-4 18 -6.5 29t-10.5 26.5t-12 22.5t-21.5 35t-28.5 47q63 42 148 68.5t177 26.5q191 0 280.5 -78t89.5 -240v-443q0 -36 17.5 -49t74.5 -13q-18 -94 -18 -114q-56 -30 -124 -30q-62 0 -108.5 28t-56.5 87q-58 -123 -234 -123
q-131 0 -202.5 78t-71.5 212q0 136 102.5 213t297.5 77h85v110q0 59 -34 92t-101 33zM415 149q60 0 99.5 41.5t39.5 108.5v119h-95q-70 0 -110 -36.5t-40 -108.5q0 -61 29 -92.5t77 -31.5zM489 1102h-127v14q24 44 68.5 124t65.5 120q27 -1 120 -1q101 0 144 2
q-114 -122 -271 -259z" />
    <glyph glyph-name="acircumflex" unicode="&#xe2;" horiz-adv-x="951" 
d="M419 803q-135 0 -218 -95h-25q-4 18 -6.5 29t-10.5 26.5t-12 22.5t-21.5 35t-28.5 47q63 42 148 68.5t177 26.5q191 0 280.5 -78t89.5 -240v-443q0 -36 17.5 -49t74.5 -13q-18 -94 -18 -114q-56 -30 -124 -30q-62 0 -108.5 28t-56.5 87q-58 -123 -234 -123
q-131 0 -202.5 78t-71.5 212q0 136 102.5 213t297.5 77h85v110q0 59 -34 92t-101 33zM415 149q60 0 99.5 41.5t39.5 108.5v119h-95q-70 0 -110 -36.5t-40 -108.5q0 -61 29 -92.5t77 -31.5zM599 1102l-154 100l-152 -100h-180l245 256h177l246 -256h-182z" />
    <glyph glyph-name="atilde" unicode="&#xe3;" horiz-adv-x="951" 
d="M419 803q-135 0 -218 -95h-25q-4 18 -6.5 29t-10.5 26.5t-12 22.5t-21.5 35t-28.5 47q63 42 148 68.5t177 26.5q191 0 280.5 -78t89.5 -240v-443q0 -36 17.5 -49t74.5 -13q-18 -94 -18 -114q-56 -30 -124 -30q-62 0 -108.5 28t-56.5 87q-58 -123 -234 -123
q-131 0 -202.5 78t-71.5 212q0 136 102.5 213t297.5 77h85v110q0 59 -34 92t-101 33zM415 149q60 0 99.5 41.5t39.5 108.5v119h-95q-70 0 -110 -36.5t-40 -108.5q0 -61 29 -92.5t77 -31.5zM293 1129l-137 29q8 90 56.5 146t134.5 56q44 0 111 -34t101 -34q52 0 66 73
l143 -24q-22 -216 -210 -216q-37 0 -68 11.5t-49 26t-39.5 26t-40.5 11.5q-52 0 -68 -71z" />
    <glyph glyph-name="adieresis" unicode="&#xe4;" horiz-adv-x="951" 
d="M419 803q-135 0 -218 -95h-25q-4 18 -6.5 29t-10.5 26.5t-12 22.5t-21.5 35t-28.5 47q63 42 148 68.5t177 26.5q191 0 280.5 -78t89.5 -240v-443q0 -36 17.5 -49t74.5 -13q-18 -94 -18 -114q-56 -30 -124 -30q-62 0 -108.5 28t-56.5 87q-58 -123 -234 -123
q-131 0 -202.5 78t-71.5 212q0 136 102.5 213t297.5 77h85v110q0 59 -34 92t-101 33zM415 149q60 0 99.5 41.5t39.5 108.5v119h-95q-70 0 -110 -36.5t-40 -108.5q0 -61 29 -92.5t77 -31.5zM159 1230q0 54 33.5 87t91.5 33t91.5 -33t33.5 -87t-33.5 -87t-91.5 -33t-91.5 33
t-33.5 87zM525 1227q0 54 33.5 87t91.5 33t91.5 -33t33.5 -87t-33.5 -87t-91.5 -33t-91.5 33t-33.5 87z" />
    <glyph glyph-name="aring" unicode="&#xe5;" horiz-adv-x="951" 
d="M419 803q-135 0 -218 -95h-25q-4 18 -6.5 29t-10.5 26.5t-12 22.5t-21.5 35t-28.5 47q63 42 148 68.5t177 26.5q191 0 280.5 -78t89.5 -240v-443q0 -36 17.5 -49t74.5 -13q-18 -94 -18 -114q-56 -30 -124 -30q-62 0 -108.5 28t-56.5 87q-58 -123 -234 -123
q-131 0 -202.5 78t-71.5 212q0 136 102.5 213t297.5 77h85v110q0 59 -34 92t-101 33zM415 149q60 0 99.5 41.5t39.5 108.5v119h-95q-70 0 -110 -36.5t-40 -108.5q0 -61 29 -92.5t77 -31.5zM459 1176q23 0 39.5 16.5t16.5 47.5q0 30 -16 45.5t-40 15.5t-40 -15.5t-16 -45.5
q0 -31 16.5 -47.5t39.5 -16.5zM459 1053q-95 0 -150.5 49.5t-55.5 135.5q0 87 55.5 136t150.5 49t150.5 -49t55.5 -136q0 -86 -55.5 -135.5t-150.5 -49.5z" />
    <glyph glyph-name="ae" unicode="&#xe6;" horiz-adv-x="1402" 
d="M985 156q126 0 251 54l19 -8l-22 -176q-45 -13 -119 -26t-119 -13q-201 0 -311 107q-104 -106 -290 -106q-152 0 -238 78.5t-86 211.5q0 136 102.5 213t297.5 77h85v110q0 59 -34 92t-101 33q-135 0 -218 -95h-25q-4 18 -6.5 29t-10.5 26.5t-12 22.5t-21.5 35t-28.5 47
q63 42 148 68.5t177 26.5q174 0 272 -95q101 95 250 95q178 0 264.5 -109.5t86.5 -306.5v-135h-511q4 -138 54 -197t146 -59zM416 149q60 0 99.5 41.5t39.5 108.5v119h-95q-70 0 -110 -36.5t-40 -108.5q0 -61 29 -92.5t77 -31.5zM941 803q-74 0 -110 -50.5t-43 -190.5h273
v13q0 120 -28.5 174t-91.5 54z" />
    <glyph glyph-name="ccedilla" unicode="&#xe7;" horiz-adv-x="799" 
d="M323 -394l-32 46q155 54 155 135q0 64 -103 78l55 132q-159 29 -237 150t-78 346q0 230 117 350t312 120q63 0 136 -18t121 -42q-65 -128 -71 -182h-29q-67 67 -160 67q-184 0 -184 -331q0 -295 197 -295q85 0 204 47l18 -7l-22 -174q-106 -36 -185 -40l-10 -48
q122 -32 122 -143q0 -88 -84.5 -140t-212.5 -52q-4 0 -14.5 0.5t-14.5 0.5z" />
    <glyph glyph-name="egrave" unicode="&#xe8;" horiz-adv-x="916" 
d="M521 156q126 0 251 54l19 -8l-22 -176q-45 -13 -119 -26t-119 -13q-82 0 -147 13t-122.5 46.5t-95.5 88t-60 140t-22 199.5q0 489 397 489q178 0 264.5 -109.5t86.5 -306.5v-135h-511q4 -138 54 -197t146 -59zM477 803q-74 0 -110 -50.5t-43 -190.5h273v13
q0 120 -28.5 174t-91.5 54zM589 1102h-127q-157 137 -271 259q43 -2 144 -2q93 0 120 1q21 -40 65.5 -120t68.5 -124v-14z" />
    <glyph glyph-name="eacute" unicode="&#xe9;" horiz-adv-x="916" 
d="M521 156q126 0 251 54l19 -8l-22 -176q-45 -13 -119 -26t-119 -13q-82 0 -147 13t-122.5 46.5t-95.5 88t-60 140t-22 199.5q0 489 397 489q178 0 264.5 -109.5t86.5 -306.5v-135h-511q4 -138 54 -197t146 -59zM477 803q-74 0 -110 -50.5t-43 -190.5h273v13
q0 120 -28.5 174t-91.5 54zM508 1102h-127v14q24 44 68.5 124t65.5 120q27 -1 120 -1q101 0 144 2q-114 -122 -271 -259z" />
    <glyph glyph-name="ecircumflex" unicode="&#xea;" horiz-adv-x="916" 
d="M521 156q126 0 251 54l19 -8l-22 -176q-45 -13 -119 -26t-119 -13q-82 0 -147 13t-122.5 46.5t-95.5 88t-60 140t-22 199.5q0 489 397 489q178 0 264.5 -109.5t86.5 -306.5v-135h-511q4 -138 54 -197t146 -59zM477 803q-74 0 -110 -50.5t-43 -190.5h273v13
q0 120 -28.5 174t-91.5 54zM632 1102l-154 100l-152 -100h-180l245 256h177l246 -256h-182z" />
    <glyph glyph-name="edieresis" unicode="&#xeb;" horiz-adv-x="916" 
d="M521 156q126 0 251 54l19 -8l-22 -176q-45 -13 -119 -26t-119 -13q-82 0 -147 13t-122.5 46.5t-95.5 88t-60 140t-22 199.5q0 489 397 489q178 0 264.5 -109.5t86.5 -306.5v-135h-511q4 -138 54 -197t146 -59zM477 803q-74 0 -110 -50.5t-43 -190.5h273v13
q0 120 -28.5 174t-91.5 54zM168 1230q0 54 33.5 87t91.5 33t91.5 -33t33.5 -87t-33.5 -87t-91.5 -33t-91.5 33t-33.5 87zM534 1227q0 54 33.5 87t91.5 33t91.5 -33t33.5 -87t-33.5 -87t-91.5 -33t-91.5 33t-33.5 87z" />
    <glyph glyph-name="igrave" unicode="&#xec;" horiz-adv-x="485" 
d="M360 632v-314q0 -152 2.5 -202t14.5 -117q-64 2 -133 2q-72 0 -136 -2q12 66 14.5 118.5t2.5 200.5v314q0 147 -2.5 199.5t-14.5 118.5q64 -2 136 -2q69 0 133 2q-12 -67 -14.5 -117t-2.5 -201zM333 1102h-127q-157 137 -271 259q43 -2 144 -2q93 0 120 1
q21 -40 65.5 -120t68.5 -124v-14z" />
    <glyph glyph-name="iacute" unicode="&#xed;" horiz-adv-x="485" 
d="M360 632v-314q0 -152 2.5 -202t14.5 -117q-64 2 -133 2q-72 0 -136 -2q12 66 14.5 118.5t2.5 200.5v314q0 147 -2.5 199.5t-14.5 118.5q64 -2 136 -2q69 0 133 2q-12 -67 -14.5 -117t-2.5 -201zM259 1102h-127v14q24 44 68.5 124t65.5 120q27 -1 120 -1q101 0 144 2
q-114 -122 -271 -259z" />
    <glyph glyph-name="icircumflex" unicode="&#xee;" horiz-adv-x="485" 
d="M360 632v-314q0 -152 2.5 -202t14.5 -117q-64 2 -133 2q-72 0 -136 -2q12 66 14.5 118.5t2.5 200.5v314q0 147 -2.5 199.5t-14.5 118.5q64 -2 136 -2q69 0 133 2q-12 -67 -14.5 -117t-2.5 -201zM386 1102l-154 100l-152 -100h-180l245 256h177l246 -256h-182z" />
    <glyph glyph-name="idieresis" unicode="&#xef;" horiz-adv-x="485" 
d="M360 632v-314q0 -152 2.5 -202t14.5 -117q-64 2 -133 2q-72 0 -136 -2q12 66 14.5 118.5t2.5 200.5v314q0 147 -2.5 199.5t-14.5 118.5q64 -2 136 -2q69 0 133 2q-12 -67 -14.5 -117t-2.5 -201zM-70 1230q0 54 33.5 87t91.5 33t91.5 -33t33.5 -87t-33.5 -87t-91.5 -33
t-91.5 33t-33.5 87zM296 1227q0 54 33.5 87t91.5 33t91.5 -33t33.5 -87t-33.5 -87t-91.5 -33t-91.5 33t-33.5 87z" />
    <glyph glyph-name="eth" unicode="&#xf0;" horiz-adv-x="988" 
d="M468 861q93 0 170 -42q-16 247 -130 321l-74 -118q-52 2 -85 2q-26 0 -107 -3l111 154q-65 -1 -108 -11.5t-88 -34.5l-11 13l31 169q99 33 226 33q30 0 58 -3l49 84q20 -2 96 -2q94 0 117 1l-99 -124q255 -121 255 -593v-124q0 -295 -101 -445.5t-293 -150.5t-298.5 119
t-106.5 323q0 207 110 319.5t278 112.5zM478 691q-70 0 -113.5 -65t-43.5 -193q0 -141 45.5 -208.5t113.5 -67.5q159 0 159 286q0 119 -41.5 183.5t-119.5 64.5z" />
    <glyph glyph-name="ntilde" unicode="&#xf1;" horiz-adv-x="1000" 
d="M643 318v297q0 104 -25 146t-86 42q-71 0 -123 -64.5t-52 -170.5v-250q0 -152 2.5 -202t13.5 -117q-64 2 -133 2q-71 0 -135 -2q13 66 15.5 118.5t2.5 200.5v389q0 154 -20 244q93 -3 134 -3q37 0 130 3l-4 -85q74 97 218 97q138 0 217 -82t79 -263v-300q0 -152 2.5 -202
t15.5 -117q-64 2 -134 2q-71 0 -135 -2q12 66 14.5 118.5t2.5 200.5zM352 1129l-137 29q8 90 56.5 146t134.5 56q44 0 111 -34t101 -34q52 0 66 73l143 -24q-22 -216 -210 -216q-37 0 -68 11.5t-49 26t-39.5 26t-40.5 11.5q-52 0 -68 -71z" />
    <glyph glyph-name="ograve" unicode="&#xf2;" horiz-adv-x="944" 
d="M472 147q158 0 158 320q0 180 -38 258t-120 78t-120 -78t-38 -258q0 -320 158 -320zM472 -13q-198 0 -299 117.5t-101 388.5q0 226 102 348t298 122t298 -122t102 -348q0 -271 -101 -388.5t-299 -117.5zM619 1102h-127q-157 137 -271 259q43 -2 144 -2q93 0 120 1
q21 -40 65.5 -120t68.5 -124v-14z" />
    <glyph glyph-name="oacute" unicode="&#xf3;" horiz-adv-x="944" 
d="M472 147q158 0 158 320q0 180 -38 258t-120 78t-120 -78t-38 -258q0 -320 158 -320zM472 -13q-198 0 -299 117.5t-101 388.5q0 226 102 348t298 122t298 -122t102 -348q0 -271 -101 -388.5t-299 -117.5zM488 1102h-127v14q24 44 68.5 124t65.5 120q27 -1 120 -1
q101 0 144 2q-114 -122 -271 -259z" />
    <glyph glyph-name="ocircumflex" unicode="&#xf4;" horiz-adv-x="944" 
d="M472 147q158 0 158 320q0 180 -38 258t-120 78t-120 -78t-38 -258q0 -320 158 -320zM472 -13q-198 0 -299 117.5t-101 388.5q0 226 102 348t298 122t298 -122t102 -348q0 -271 -101 -388.5t-299 -117.5zM628 1102l-154 100l-152 -100h-180l245 256h177l246 -256h-182z
" />
    <glyph glyph-name="otilde" unicode="&#xf5;" horiz-adv-x="944" 
d="M472 147q158 0 158 320q0 180 -38 258t-120 78t-120 -78t-38 -258q0 -320 158 -320zM472 -13q-198 0 -299 117.5t-101 388.5q0 226 102 348t298 122t298 -122t102 -348q0 -271 -101 -388.5t-299 -117.5zM309 1129l-137 29q8 90 56.5 146t134.5 56q44 0 111 -34t101 -34
q52 0 66 73l143 -24q-22 -216 -210 -216q-37 0 -68 11.5t-49 26t-39.5 26t-40.5 11.5q-52 0 -68 -71z" />
    <glyph glyph-name="odieresis" unicode="&#xf6;" horiz-adv-x="944" 
d="M472 147q158 0 158 320q0 180 -38 258t-120 78t-120 -78t-38 -258q0 -320 158 -320zM472 -13q-198 0 -299 117.5t-101 388.5q0 226 102 348t298 122t298 -122t102 -348q0 -271 -101 -388.5t-299 -117.5zM170 1230q0 54 33.5 87t91.5 33t91.5 -33t33.5 -87t-33.5 -87
t-91.5 -33t-91.5 33t-33.5 87zM536 1227q0 54 33.5 87t91.5 33t91.5 -33t33.5 -87t-33.5 -87t-91.5 -33t-91.5 33t-33.5 87z" />
    <glyph glyph-name="divide" unicode="&#xf7;" horiz-adv-x="1086" 
d="M402 238q0 55 35 87.5t95 32.5t95 -32.5t35 -87.5t-35 -87.5t-95 -32.5t-95 32.5t-35 87.5zM402 957q0 55 35 87.5t95 32.5t95 -32.5t35 -87.5t-35 -87.5t-95 -32.5t-95 32.5t-35 87.5zM749 510h-434q-86 0 -182 -7q0 1 0.5 18.5t0.5 39.5v34q0 17 -0.5 55t-0.5 39
q112 -7 182 -7h434q70 0 182 7q0 -1 -0.5 -39t-0.5 -55v-34t0.5 -39.5t0.5 -18.5q-96 7 -182 7z" />
    <glyph glyph-name="oslash" unicode="&#xf8;" horiz-adv-x="944" 
d="M472 -13q-36 0 -78 5q-48 -131 -51 -162q-68 3 -134 0l70 193q-207 95 -207 470q0 226 102 348t298 122q75 0 140 -20l7 19q37 102 46 158q74 -3 150 0l-88 -237q145 -118 145 -390q0 -271 -101 -388.5t-299 -117.5zM314 467q0 -157 39 -238l199 548q-32 26 -80 26
q-82 0 -120 -78t-38 -258zM472 147q158 0 158 320q0 82 -7 137l-171 -456q7 -1 20 -1z" />
    <glyph glyph-name="ugrave" unicode="&#xf9;" horiz-adv-x="969" 
d="M347 632v-332q0 -79 28.5 -116t72.5 -37q71 0 120.5 48t56.5 130v21v286q0 152 -2.5 202t-15.5 117q93 -3 134 -3q36 0 135 3q-12 -66 -14.5 -118.5t-2.5 -200.5v-286q0 -232 12 -347q-62 2 -129 2t-129 -2l5 85q-90 -97 -223 -97q-283 0 -283 330v315q0 152 -2.5 202
t-14.5 117q93 -3 134 -3q37 0 136 3q-13 -66 -15.5 -118.5t-2.5 -200.5zM597 1102h-127q-157 137 -271 259q43 -2 144 -2q93 0 120 1q21 -40 65.5 -120t68.5 -124v-14z" />
    <glyph glyph-name="uacute" unicode="&#xfa;" horiz-adv-x="969" 
d="M347 632v-332q0 -79 28.5 -116t72.5 -37q71 0 120.5 48t56.5 130v21v286q0 152 -2.5 202t-15.5 117q93 -3 134 -3q36 0 135 3q-12 -66 -14.5 -118.5t-2.5 -200.5v-286q0 -232 12 -347q-62 2 -129 2t-129 -2l5 85q-90 -97 -223 -97q-283 0 -283 330v315q0 152 -2.5 202
t-14.5 117q93 -3 134 -3q37 0 136 3q-13 -66 -15.5 -118.5t-2.5 -200.5zM515 1102h-127v14q24 44 68.5 124t65.5 120q27 -1 120 -1q101 0 144 2q-114 -122 -271 -259z" />
    <glyph glyph-name="ucircumflex" unicode="&#xfb;" horiz-adv-x="969" 
d="M347 632v-332q0 -79 28.5 -116t72.5 -37q71 0 120.5 48t56.5 130v21v286q0 152 -2.5 202t-15.5 117q93 -3 134 -3q36 0 135 3q-12 -66 -14.5 -118.5t-2.5 -200.5v-286q0 -232 12 -347q-62 2 -129 2t-129 -2l5 85q-90 -97 -223 -97q-283 0 -283 330v315q0 152 -2.5 202
t-14.5 117q93 -3 134 -3q37 0 136 3q-13 -66 -15.5 -118.5t-2.5 -200.5zM629 1102l-154 100l-152 -100h-180l245 256h177l246 -256h-182z" />
    <glyph glyph-name="udieresis" unicode="&#xfc;" horiz-adv-x="969" 
d="M347 632v-332q0 -79 28.5 -116t72.5 -37q71 0 120.5 48t56.5 130v21v286q0 152 -2.5 202t-15.5 117q93 -3 134 -3q36 0 135 3q-12 -66 -14.5 -118.5t-2.5 -200.5v-286q0 -232 12 -347q-62 2 -129 2t-129 -2l5 85q-90 -97 -223 -97q-283 0 -283 330v315q0 152 -2.5 202
t-14.5 117q93 -3 134 -3q37 0 136 3q-13 -66 -15.5 -118.5t-2.5 -200.5zM540 1227q0 54 33.5 87t91.5 33t91.5 -33t33.5 -87t-33.5 -87t-91.5 -33t-91.5 33t-33.5 87zM174 1230q0 54 33.5 87t91.5 33t91.5 -33t33.5 -87t-33.5 -87t-91.5 -33t-91.5 33t-33.5 87z" />
    <glyph glyph-name="yacute" unicode="&#xfd;" horiz-adv-x="910" 
d="M229 -367q19 50 68.5 169t72.5 183l-22 -1q-227 701 -328 968q81 -3 129 -3q67 0 137 2q29 -88 89.5 -300.5t99.5 -326.5q74 249 168 628q67 -5 116 -5q59 0 131 6q-73 -201 -139.5 -410t-153 -497t-126.5 -416q-36 6 -110 6q-54 0 -132 -3zM522 1102h-127v14
q24 44 68.5 124t65.5 120q27 -1 120 -1q101 0 144 2q-114 -122 -271 -259z" />
    <glyph glyph-name="thorn" unicode="&#xfe;" horiz-adv-x="986" 
d="M122 -62v1073q0 152 -2.5 202t-15.5 117q64 -2 134 -2q68 0 132 2q-14 -130 -14 -349v-111q76 93 208 93q160 0 249 -122.5t89 -344.5q0 -253 -117 -381t-336 -128q-41 0 -93 7v-56q0 -147 2.5 -199.5t15.5 -118.5q-66 2 -136 2t-134 -2q13 67 15.5 117t2.5 201zM513 794
q-68 0 -111.5 -60.5t-45.5 -141.5v-427q61 -9 95 -9q47 0 82 14.5t65 50.5t46 105t16 169q0 159 -36 229t-111 70z" />
    <glyph glyph-name="ydieresis" unicode="&#xff;" horiz-adv-x="910" 
d="M229 -367q19 50 68.5 169t72.5 183l-22 -1q-227 701 -328 968q81 -3 129 -3q67 0 137 2q29 -88 89.5 -300.5t99.5 -326.5q74 249 168 628q67 -5 116 -5q59 0 131 6q-73 -201 -139.5 -410t-153 -497t-126.5 -416q-36 6 -110 6q-54 0 -132 -3zM165 1230q0 54 33.5 87
t91.5 33t91.5 -33t33.5 -87t-33.5 -87t-91.5 -33t-91.5 33t-33.5 87zM531 1227q0 54 33.5 87t91.5 33t91.5 -33t33.5 -87t-33.5 -87t-91.5 -33t-91.5 33t-33.5 87z" />
    <glyph glyph-name="dotlessi" unicode="&#x131;" horiz-adv-x="485" 
d="M360 632v-314q0 -152 2.5 -202t14.5 -117q-64 2 -133 2q-72 0 -136 -2q12 66 14.5 118.5t2.5 200.5v314q0 147 -2.5 199.5t-14.5 118.5q64 -2 136 -2q69 0 133 2q-12 -67 -14.5 -117t-2.5 -201z" />
    <glyph glyph-name="Lslash" unicode="&#x141;" horiz-adv-x="890" 
d="M878 0h-762q14 66 16.5 140t2.5 375v58l-105 -43v148l105 43v94q0 298 -2.5 372.5t-17.5 143.5q105 -3 150 -3q39 0 147 3q-9 -68 -10.5 -141.5t-1.5 -358.5l222 93v-149l-222 -92v-501q383 0 480 29q-6 -64 -6 -111q0 -63 4 -100z" />
    <glyph glyph-name="lslash" unicode="&#x142;" horiz-adv-x="495" 
d="M248 0q-68 0 -134 -2q12 67 14.5 117.5t2.5 202.5v294l-101 -57v144l101 58v253q0 151 -2.5 201t-14.5 117q66 -2 134 -2q67 0 133 2q-12 -67 -14.5 -117t-2.5 -201v-119l101 58v-148l-101 -57v-426q0 -152 2.5 -202.5t14.5 -117.5q-66 2 -133 2z" />
    <glyph glyph-name="OE" unicode="&#x152;" horiz-adv-x="1692" 
d="M798 1330h791q-5 -48 -5 -81q0 -54 3 -100q-66 12 -161.5 15t-349.5 3v-396q372 3 464 15q-4 -56 -4 -99q0 -40 4 -92q-107 14 -464 14v-439q158 0 229.5 1t154.5 6.5t142 16.5q-4 -64 -4 -104q0 -51 4 -90h-804l6 28q-91 -41 -220 -41q-257 0 -377.5 170t-120.5 522
q0 337 120.5 500.5t377.5 163.5q125 0 219 -40zM584 1169q-82 0 -130 -43t-73 -152.5t-25 -303.5q0 -280 53.5 -394.5t174.5 -114.5t174.5 114.5t53.5 394.5q0 194 -25 303.5t-73 152.5t-130 43z" />
    <glyph glyph-name="oe" unicode="&#x153;" horiz-adv-x="1463" 
d="M1068 156q126 0 251 54l19 -8l-22 -176q-45 -13 -119 -26t-119 -13q-218 0 -324 99q-96 -99 -282 -99q-198 0 -299 117.5t-101 388.5q0 226 102 348t298 122q174 0 277 -101q98 101 279 101q178 0 264.5 -109.5t86.5 -306.5v-135h-510q0 -9 -1 -13q6 -131 56.5 -187
t143.5 -56zM472 147q158 0 158 320q0 180 -38 258t-120 78t-120 -78t-38 -258q0 -320 158 -320zM1024 803q-74 0 -110 -50.5t-43 -190.5h273v13q0 120 -28.5 174t-91.5 54z" />
    <glyph glyph-name="Scaron" unicode="&#x160;" horiz-adv-x="970" 
d="M397 1620l134 -79l132 79h200l-245 -235h-177l-246 235h202zM439 167q93 0 142.5 54.5t49.5 159.5q0 36 -14 66t-32 49.5t-54.5 40.5t-61 32t-72.5 30q-43 17 -74 32t-69.5 38t-64.5 50.5t-49.5 63t-35.5 82.5t-12 102q0 179 121 277.5t330 98.5q97 0 181.5 -25
t139.5 -64q-13 -26 -29.5 -57.5t-23 -44t-14.5 -32t-15 -42.5h-36q-39 91 -214 91q-81 0 -128 -44.5t-47 -126.5q0 -28 4.5 -51.5t15 -43t20 -34t29 -28.5t31.5 -22.5t38 -19.5t38 -15.5t41 -15.5q40 -14 65.5 -24.5t63.5 -30t62.5 -38t52.5 -48t44 -63t27 -79t11 -98.5
q0 -195 -128.5 -297.5t-343.5 -102.5q-209 0 -361 108q11 24 35 73t38.5 81t19.5 52h36q36 -60 98.5 -97t144.5 -37z" />
    <glyph glyph-name="scaron" unicode="&#x161;" horiz-adv-x="795" 
d="M363 156q139 0 139 121q0 39 -23 64t-60 38t-81.5 24.5t-89 29t-81.5 44.5t-60 78.5t-23 123.5q0 133 95 210t257 77q141 0 268 -65q-21 -36 -45.5 -98.5t-28.5 -89.5h-34q-12 39 -53.5 61t-101.5 22q-127 0 -127 -102q0 -42 23.5 -68t60.5 -39t82 -23t90 -26.5t82 -42
t60.5 -76.5t23.5 -124q0 -129 -96 -219t-272 -90q-165 0 -310 81q67 130 67 185h31q21 -40 78 -68t129 -28zM257 1358l154 -100l152 100h180l-245 -256h-177l-246 256h182z" />
    <glyph glyph-name="Ydieresis" unicode="&#x178;" horiz-adv-x="1090" 
d="M545 809q133 251 242 521q100 -2 136 -2q17 0 157 4q-185 -325 -404 -762q0 -339 3 -420t19 -151q-70 2 -153 2q-81 0 -151 -2q14 67 16.5 148t2.5 423q-212 428 -403 762q140 -4 157 -4q36 0 136 2q143 -334 242 -521zM237 1508q0 54 33.5 87t91.5 33t91.5 -33t33.5 -87
t-33.5 -87t-91.5 -33t-91.5 33t-33.5 87zM603 1505q0 54 33.5 87t91.5 33t91.5 -33t33.5 -87t-33.5 -87t-91.5 -33t-91.5 33t-33.5 87z" />
    <glyph glyph-name="Zcaron" unicode="&#x17d;" horiz-adv-x="955" 
d="M387 1620l134 -79l132 79h200l-245 -235h-177l-246 235h202zM899 1252l-525 -1082q375 0 510 19q-4 -55 -4 -102q0 -56 4 -91q-53 4 -190 4h-645v71l530 1087h-292q-60 0 -186 -9q0 1 0.5 19t0.5 40v34q0 17 -0.5 55.5t-0.5 39.5q112 -7 186 -7h612v-78z" />
    <glyph glyph-name="zcaron" unicode="&#x17e;" horiz-adv-x="797" 
d="M747 862l-397 -702h208q74 0 176 6q-4 -44 -4 -86q0 -38 4 -85q-62 5 -196 5h-483v71l404 710h-196q-83 0 -171 -7v18t0.5 37t0.5 32q0 15 -0.5 49t-0.5 35q59 -4 171 -4h484v-79zM257 1358l154 -100l152 100h180l-245 -256h-177l-246 256h182z" />
    <glyph glyph-name="florin" unicode="&#x192;" horiz-adv-x="950" 
d="M598 1002l-21 -119q135 1 223 4q-4 -48 -4 -92q0 -35 4 -76q-62 3 -252 5l-111 -628q-37 -210 -128 -301t-248 -91q-64 0 -122 13l-30 162q63 -11 116 -11q79 0 118.5 51t63.5 190l107 615q-131 -2 -165 -5l1 35v50q0 14 -0.5 49.5t-0.5 36.5q33 -3 193 -8l12 68
q38 217 136 315t264 98q109 0 191 -35l-46 -159l-16 -6q-43 46 -132 46q-65 0 -99.5 -46.5t-53.5 -160.5z" />
    <glyph glyph-name="circumflex" unicode="&#x2c6;" horiz-adv-x="758" 
d="M531 1102l-154 100l-152 -100h-180l245 256h177l246 -256h-182z" />
    <glyph glyph-name="caron" unicode="&#x2c7;" horiz-adv-x="738" 
d="M217 1358l154 -100l152 100h180l-245 -256h-177l-246 256h182z" />
    <glyph glyph-name="uni02C9" unicode="&#x2c9;" horiz-adv-x="643" 
d="M393 1154h-158q-87 0 -182 -7l1 36v50t-0.5 50t-0.5 37q112 -7 182 -7h158q77 0 187 8q-6 -35 -6 -86q0 -47 6 -88q-110 7 -187 7z" />
    <glyph glyph-name="breve" unicode="&#x2d8;" horiz-adv-x="700" 
d="M80 1358h139q19 -110 130 -110q56 0 87.5 28.5t47.5 81.5h136q0 -126 -74.5 -199.5t-194.5 -73.5q-122 0 -196.5 73t-74.5 200z" />
    <glyph glyph-name="dotaccent" unicode="&#x2d9;" horiz-adv-x="470" 
d="M100 1235q0 54 37.5 90t97.5 36t97.5 -36t37.5 -90t-37.5 -90t-97.5 -36t-97.5 36t-37.5 90z" />
    <glyph glyph-name="ring" unicode="&#x2da;" horiz-adv-x="540" 
d="M270 1176q23 0 39.5 16.5t16.5 47.5q0 30 -16 45.5t-40 15.5t-40 -15.5t-16 -45.5q0 -31 16.5 -47.5t39.5 -16.5zM270 1053q-95 0 -150.5 49.5t-55.5 135.5q0 87 55.5 136t150.5 49t150.5 -49t55.5 -136q0 -86 -55.5 -135.5t-150.5 -49.5z" />
    <glyph glyph-name="ogonek" unicode="&#x2db;" horiz-adv-x="557" 
d="M467 -300v-46q-87 -41 -177 -41q-87 0 -143.5 48.5t-56.5 124.5q0 54 28.5 115.5t56 97t66.5 79.5h131q-49 -89 -65.5 -140.5t-16.5 -122.5q0 -61 50 -88t127 -27z" />
    <glyph glyph-name="tilde" unicode="&#x2dc;" horiz-adv-x="692" 
d="M177 1129l-137 29q8 90 56.5 146t134.5 56q44 0 111 -34t101 -34q52 0 66 73l143 -24q-22 -216 -210 -216q-37 0 -68 11.5t-49 26t-39.5 26t-40.5 11.5q-52 0 -68 -71z" />
    <glyph glyph-name="hungarumlaut" unicode="&#x2dd;" horiz-adv-x="855" 
d="M199 1102h-127v14q59 132 124 254q27 -1 120 -1q101 0 144 2q-58 -62 -151 -156.5t-110 -112.5zM512 1102h-127v14q32 58 77 144.5t57 109.5q27 -1 120 -1q101 0 144 2q-165 -176 -271 -269z" />
    <glyph glyph-name="_189" unicode="&#x3a9;" horiz-adv-x="1084" 
d="M539 1171q-72 0 -111.5 -44.5t-57.5 -149.5t-18 -297q0 -229 37.5 -358t112.5 -184v-138h-180q-85 0 -218 -9q0 1 0.5 38t0.5 52q0 11 -0.5 32t-0.5 37.5v18.5q102 -6 147 -6q-147 191 -147 526q0 174 19.5 291.5t68.5 201.5t134 122.5t213 38.5q129 0 213.5 -38.5
t134 -122.5t69 -201t19.5 -292q0 -341 -146 -525q17 1 51 2t60.5 2t39.5 2q-6 -34 -6 -89q0 -49 6 -90q-135 9 -224 9h-180v138q76 55 113.5 184t37.5 358q0 192 -18 297t-57.5 149.5t-112.5 44.5z" />
    <glyph glyph-name="uni03BC" unicode="&#x3bc;" horiz-adv-x="989" 
d="M868 632v-286q0 -232 12 -347q-62 2 -129 2t-129 -2l3 61q-70 -73 -154 -73q-74 0 -118 22q3 -40 3 -70q0 -147 2.5 -200t15.5 -119q-99 3 -136 3q-41 0 -134 -3q12 67 14.5 117t2.5 202v693q0 152 -2.5 202t-14.5 117q93 -3 134 -3q37 0 136 3q-13 -66 -15.5 -118.5
t-2.5 -200.5v-332q0 -153 131 -153q67 0 107 48.5t40 129.5v21v286q0 152 -2.5 202t-15.5 117q93 -3 134 -3q36 0 135 3q-12 -66 -14.5 -118.5t-2.5 -200.5z" />
    <glyph glyph-name="pi" unicode="&#x3c0;" horiz-adv-x="1094" 
d="M834 772v-540q0 -61 9 -81t36 -20q26 0 84 6l-22 -118q-78 -24 -140 -24q-201 0 -201 229v552h-158v-270q0 -293 2.5 -366t17.5 -141q-66 2 -135 2t-137 -2q13 68 15.5 141t2.5 366v267q-84 0 -149 -6q0 9 1 37.5t1 43.5q0 63 -7 102h954q-7 -39 -7 -102q0 -15 1 -43.5
t1 -37.5q-54 5 -169 5z" />
    <glyph glyph-name="uni0E01" unicode="&#xe01;" horiz-adv-x="1080" 
d="M734 339v444q0 97 -48.5 151t-150.5 54q-126 0 -224 -76v-4q51 -53 51 -135v-434q0 -165 1.5 -220.5t10.5 -119.5q-70 2 -135 2t-133 -2q12 90 12 340v457q0 104 -63 145v16q83 89 211 147t269 58q203 0 323 -102t120 -277v-444q0 -165 1.5 -220.5t10.5 -119.5
q-70 2 -132 2q-68 0 -136 -2q12 90 12 340z" />
    <glyph glyph-name="uni0E02" unicode="&#xe02;" horiz-adv-x="944" 
d="M313 494v-171q0 -84 38.5 -126t107.5 -42q138 0 138 168v480q0 159 -2 217.5t-11 123.5q64 -2 135 -2t135 2q-9 -63 -10.5 -119.5t-1.5 -221.5v-480q0 -337 -383 -337q-192 0 -290 87t-98 250v172q0 64 18.5 123t45.5 102.5t54 82t45.5 76t18.5 69.5q0 53 -59 53
q-46 0 -79 -39h-21q-19 76 -62 149q94 48 203 48q119 0 178.5 -53t59.5 -146q0 -62 -25 -124t-55 -106t-55 -107.5t-25 -128.5z" />
    <glyph glyph-name="uni0E03" unicode="&#xe03;" horiz-adv-x="993" 
d="M646 323v479q0 159 -2 217.5t-11 123.5q64 -2 135 -2t135 2q-9 -63 -10.5 -119t-1.5 -222v-479q0 -157 -100.5 -247t-287.5 -90q-192 0 -292.5 87.5t-100.5 249.5v131q0 69 25 132t61 108.5t72 87.5t61 85.5t25 84.5q0 14 -8.5 22.5t-22.5 8.5q-42 0 -90 -48h-13
q-61 53 -166 61v16l90 135q32 0 73 -21.5t62 -43.5q19 25 56 44.5t83 19.5q79 0 116.5 -37.5t37.5 -124.5q0 -53 -23 -107t-56 -100.5t-66 -93.5t-56 -104t-23 -115v-141q0 -83 41.5 -125t113.5 -42q68 0 105.5 41.5t37.5 125.5z" />
    <glyph glyph-name="uni0E04" unicode="&#xe04;" horiz-adv-x="1115" 
d="M1025 -1q-68 2 -133 2q-64 0 -134 -2q13 107 13 339v416q0 234 -205 234q-208 0 -208 -234v-217l3 -2q79 131 215 131q56 0 96 -26q-26 -55 -26 -204l-23 -16q-33 36 -91 36q-82 0 -128 -48.5t-46 -142.5q0 -180 12 -266q-78 3 -130 3t-136 -3q12 99 12 339v406
q0 194 125 305t325 111q201 0 324 -111t123 -307v-404q0 -240 12 -339z" />
    <glyph glyph-name="uni0E05" unicode="&#xe05;" horiz-adv-x="1121" 
d="M581 912h-28q-38 69 -111 69q-36 0 -60 -26.5t-24 -86.5v-331l3 -2q79 131 215 131q56 0 96 -26q-26 -55 -26 -204l-23 -16q-33 36 -91 36q-82 0 -128 -48.5t-46 -142.5q0 -180 12 -266q-78 3 -130 3t-136 -3q11 90 11 339v535q0 134 73.5 210t193.5 76q122 0 185 -85
q63 85 185 85q120 0 193.5 -76t73.5 -210v-535q0 -240 12 -339q-68 2 -133 2q-64 0 -134 -2q13 107 13 339v530q0 60 -24 86.5t-61 26.5q-73 0 -111 -69z" />
    <glyph glyph-name="uni0E06" unicode="&#xe06;" horiz-adv-x="1073" 
d="M726 339v464q0 159 -2 217.5t-11 123.5q64 -2 135 -2t135 2q-9 -63 -10.5 -119.5t-1.5 -221.5v-446q0 -180 -90 -275.5t-268 -95.5q-164 0 -263 141q1 -60 7 -128q-68 2 -128 2q-66 0 -138 -2q14 69 17 125t3 214v116q0 63 25 123.5t60.5 107.5t71.5 91t61 89.5t25 86.5
q0 14 -8.5 22.5t-22.5 8.5q-42 0 -90 -48h-13q-24 24 -58 36.5t-113 24.5v16l90 135q33 0 73.5 -21t66.5 -44q18 25 55.5 44.5t83.5 19.5q73 0 113.5 -40t40.5 -122q0 -53 -23 -108.5t-56 -103.5t-65.5 -96t-55.5 -103.5t-23 -108.5v-66q10 -109 77.5 -175.5t162.5 -66.5
q73 0 105 43.5t32 139.5z" />
    <glyph glyph-name="uni0E07" unicode="&#xe07;" horiz-adv-x="968" 
d="M457 1144h421q-10 -216 -10 -396v-458q0 -122 -73 -206t-195 -84h-267q-13 66 -37 130q-19 52 -65 182.5t-67.5 189.5t-64 167.5t-88.5 217.5q56 -4 142 -4q77 0 125 3q16 -49 61 -189t85.5 -257.5t101.5 -279.5q92 2 92 123v465q0 72 -1 127t-3 74l-1 19
q-91 -4 -155 -17q4 68 4 103q0 39 -5 90z" />
    <glyph glyph-name="uni0E08" unicode="&#xe08;" horiz-adv-x="998" 
d="M470 618l59 -450q73 6 104 65t31 173v328q0 132 -54 190t-170 58q-77 0 -151.5 -33.5t-110.5 -78.5h-30q-2 9 -4 17.5t-3.5 15t-6 17.5t-7 17t-10 22.5t-12 25t-16.5 33t-19 39.5q59 41 167 71.5t205 30.5q233 0 349.5 -101.5t116.5 -323.5v-333q0 -83 -24 -154.5
t-72.5 -127t-128.5 -87.5t-184 -32h-172q0 63 -17 172q-24 150 -46 270q-56 -1 -130 -13q2 26 2 105v84h334z" />
    <glyph glyph-name="uni0E09" unicode="&#xe09;" horiz-adv-x="1047" 
d="M373 631v-322q0 -75 34 -113.5t93 -38.5q96 0 146 65t52 175v315q0 149 -63 209.5t-185 60.5q-81 0 -166 -37t-112 -68h-40q-7 33 -20.5 65t-58.5 109q70 40 182 73t223 33q239 0 359.5 -108t120.5 -337v-374q0 -158 3 -214t16 -125q-70 2 -139 2q-60 0 -130 -2
q7 68 8 108q-87 -121 -249 -121q-147 0 -226.5 86.5t-79.5 248.5v137q-88 -9 -113 -14q4 46 4 97v90h341z" />
    <glyph glyph-name="uni0E0A" unicode="&#xe0a;" horiz-adv-x="1028" 
d="M907 610v-266q0 -358 -406 -358q-196 0 -302 89.5t-106 268.5v151q0 64 18.5 123t45.5 102.5t54 82t45.5 76t18.5 69.5q0 53 -59 53q-44 0 -79 -39h-21q-19 76 -62 149q94 48 203 48q119 0 178.5 -53t59.5 -146q0 -62 -25 -124t-55 -106t-55 -107.5t-25 -128.5v-150
q0 -103 39 -145.5t127 -42.5t126 42t38 146v286q0 75 -22 106.5t-71 31.5q-16 0 -40 -2q5 48 5 91v60q90 1 120.5 54.5t30.5 208.5q46 -3 113 -3q93 0 137 7q0 -139 -43 -218t-134 -113q71 -26 108.5 -81t37.5 -162z" />
    <glyph glyph-name="uni0E0B" unicode="&#xe0b;" horiz-adv-x="1055" 
d="M692 344v286q0 75 -22 106.5t-71 31.5q-16 0 -40 -2q5 48 5 91v60q90 1 120.5 54.5t30.5 208.5q46 -3 113 -3q93 0 137 7q0 -139 -43 -218t-134 -113q71 -26 108.5 -81t37.5 -162v-266q0 -185 -99.5 -271.5t-294.5 -86.5q-400 0 -400 358v324q0 160 142 287
q-21 -4 -53 -4q-125 0 -192 49q16 16 30 33.5t23 31.5t25.5 39.5t28.5 43.5h19q43 -52 144 -52q53 0 85.5 13t63.5 42l123 -111q-123 -90 -159.5 -162.5t-36.5 -220.5v-313q0 -105 35 -147t122 -42q85 0 118.5 41.5t33.5 147.5z" />
    <glyph glyph-name="uni0E0C" unicode="&#xe0c;" horiz-adv-x="1643" 
d="M1541 803v-444q0 -187 -74 -280t-250 -93q-91 0 -158.5 40t-102.5 106l4 -133q-68 2 -125 2q-64 0 -134 -2q9 63 11 122t2 218v448q0 99 -40 151t-140 52q-123 0 -218 -62q53 -58 53 -139v-533q0 -76 9.5 -99.5t36.5 -23.5q39 0 85 7l-22 -121q-86 -24 -138 -24
q-211 0 -211 243v571q0 25 -7.5 48t-18.5 38.5t-22.5 27t-18.5 17.5l-8 5v29q85 72 215.5 130t264.5 58q213 0 317.5 -97.5t104.5 -277.5v-327q0 -138 66.5 -219t149.5 -81q70 0 97.5 42t27.5 138v463q0 165 -1.5 221.5t-10.5 119.5q96 -3 133 -3q39 0 135 3
q-9 -63 -10.5 -119.5t-1.5 -221.5z" />
    <glyph glyph-name="uni0E0D" unicode="&#xe0d;" horiz-adv-x="1646" 
d="M714 371v416q0 99 -40 151t-140 52q-123 0 -218 -62q53 -58 53 -139v-533q0 -76 9.5 -99.5t36.5 -23.5q39 0 85 7l-22 -121q-86 -24 -138 -24q-211 0 -211 243v571q0 25 -7.5 48t-18.5 38.5t-22.5 27t-18.5 17.5l-8 5v29q85 72 215.5 130t264.5 58q213 0 317.5 -97.5
t104.5 -277.5v-434q0 -95 29.5 -133.5t102.5 -38.5q90 0 149.5 72t59.5 200v349q0 158 -3 214.5t-17 125.5q105 -3 142 -3q38 0 137 3q-12 -67 -14.5 -120.5t-2.5 -219.5v-675q0 -463 -503 -463q-50 0 -134.5 12.5t-128.5 23.5l-24 167l19 17q60 -22 140 -37.5t142 -15.5
q139 0 193 65t54 219q-84 -105 -249 -105q-178 0 -256 89.5t-78 271.5z" />
    <glyph glyph-name="uni0E0E" unicode="&#xe0e;" horiz-adv-x="1089" 
d="M755 795q-2 195 -215 195q-126 0 -211 -60q62 -62 62 -141v-561q0 -120 -50.5 -176.5t-158.5 -56.5q-64 0 -138 21l-14 125q46 -8 67 -8q25 0 37.5 16.5t12.5 66.5v582q0 25 -8.5 48t-21 38.5t-25 27.5t-20.5 18l-9 5v27q59 69 200 134.5t277 65.5q216 0 337.5 -96
t121.5 -271v-882q0 -152 -73.5 -232.5t-219.5 -80.5q-34 0 -128.5 14t-139.5 14q-125 0 -211 -28l-15 11l36 165q73 30 180 30q50 0 126 -14t110 -14q49 0 70 36t21 108v873z" />
    <glyph glyph-name="uni0E0F" unicode="&#xe0f;" horiz-adv-x="1089" 
d="M392 -223q93 0 131 69h28q39 -69 112 -69q42 0 67 25.5t25 78.5v914q0 94 -53.5 144.5t-161.5 50.5q-126 0 -211 -60q62 -62 62 -141v-561q0 -120 -50.5 -176.5t-158.5 -56.5q-64 0 -138 21l-14 125q46 -8 67 -8q25 0 37.5 16.5t12.5 66.5v582q0 25 -8.5 48t-21 38.5
t-25 27.5t-20.5 18l-9 5v27q59 69 200 134.5t277 65.5q216 0 337.5 -96t121.5 -271v-910q0 -133 -78 -209t-199 -76q-122 0 -185 85q-63 -85 -185 -85q-77 0 -145 26l-30 195l8 7q54 -26 99 -38.5t108 -12.5z" />
    <glyph glyph-name="uni0E10" unicode="&#xe10;" horiz-adv-x="1026" 
d="M470 624l59 -456q73 6 104 65t31 173v328q0 132 -54 190t-170 58q-78 0 -153 -34t-111 -78h-30q-7 41 -19.5 73.5t-56.5 113.5q59 41 167 71.5t205 30.5q95 0 168 -16q160 11 339 97l15 -8q-7 -33 -7 -202q-59 -12 -125 -17q76 -102 76 -279v-333q0 -83 -24 -154.5
t-72.5 -127t-128.5 -87.5t-184 -32h-172q0 63 -17 172q-34 207 -46 276q-56 -1 -130 -13q2 26 2 105v84h334zM664 -119v5h244q0 -133 -78 -209.5t-199 -76.5q-68 0 -106 21.5t-69 63.5q-63 -85 -185 -85q-77 0 -145 26l-30 195l8 7q54 -26 99 -38.5t108 -12.5q93 0 131 69
h28q39 -69 112 -69q82 0 82 104z" />
    <glyph glyph-name="uni0E11" unicode="&#xe11;" horiz-adv-x="1184" 
d="M441 779q16 58 53 122.5t86.5 121.5t113 94.5t124.5 37.5q257 0 257 -352v-465q0 -163 2.5 -216t16.5 -123q-68 2 -139 2q-68 0 -140 -2q12 67 14.5 123t2.5 216v486q0 85 -12 119t-41 34q-58 0 -135.5 -111t-135.5 -261.5t-67 -263.5v-23q0 -160 2.5 -205t14.5 -114
q-66 2 -137 2q-70 0 -142 -2q14 69 17 125t3 214v330q0 104 17.5 170t69.5 115q-21 -4 -53 -4q-116 0 -186 51q52 52 117 148h19q22 -27 48 -39.5t70 -12.5q45 0 74 12.5t66 42.5l113 -96q-72 -67 -92.5 -115.5t-20.5 -160.5z" />
    <glyph glyph-name="uni0E12" unicode="&#xe12;" horiz-adv-x="1674" 
d="M1565 802v-445q0 -182 -83 -276.5t-261 -94.5q-148 0 -239 127q3 -78 9 -115q-97 3 -134 3q-68 0 -136 -2q11 67 13.5 123t2.5 216v631q-1 0 -26 -12.5t-35.5 -17t-33 -10t-42.5 -5.5q-24 0 -47 7.5t-33.5 13.5t-30 21t-22.5 17q-148 -58 -148 -455q0 -376 182 -376
q70 0 125 18l-15 -154q-66 -30 -131 -30q-185 0 -295 142t-110 403q0 554 416 633q51 -72 122 -72q33 0 95.5 33t108.5 33q45 0 90.5 -15t73.5 -36v-708q8 -111 66 -176.5t149 -65.5q71 0 98.5 42t27.5 140v463q0 166 -2.5 219.5t-14.5 120.5q99 -3 137 -3q34 0 142 3
q-13 -69 -16 -125.5t-3 -214.5z" />
    <glyph glyph-name="uni0E13" unicode="&#xe13;" horiz-adv-x="1644" 
d="M534 1162q213 0 317.5 -97.5t104.5 -277.5v-447q0 -96 27.5 -138t97.5 -42q84 0 150 76t66 214v353q0 165 -1.5 221.5t-10.5 119.5q96 -3 133 -3q39 0 135 3q-9 -63 -10.5 -119.5t-1.5 -221.5v-464q0 -159 2 -218t11 -122q-70 2 -136 2q-57 0 -125 -2q4 87 4 133
q-34 -65 -105 -105.5t-156 -40.5q-176 0 -249 93t-73 280v428q0 99 -40 151t-140 52q-123 0 -218 -62q53 -58 53 -139v-533q0 -76 9.5 -99.5t36.5 -23.5q39 0 85 7l-22 -121q-86 -24 -138 -24q-211 0 -211 243v571q0 25 -7.5 48t-18.5 38.5t-22.5 27t-18.5 17.5l-8 5v29
q85 72 215.5 130t264.5 58z" />
    <glyph glyph-name="uni0E14" unicode="&#xe14;" horiz-adv-x="1108" 
d="M764 338v436q0 107 -53 159.5t-153 52.5q-98 0 -153 -53t-55 -159v-567q57 35 92.5 100t35.5 157q0 77 -43 113l6 18q25 0 51.5 6t41 11.5t53 23t54.5 24.5q51 -51 51 -136q0 -161 -105.5 -295.5t-322.5 -229.5q-38 2 -67 2q-25 0 -101 -4q12 89 12 341v426
q0 192 118.5 294t331.5 102q215 0 331.5 -102t116.5 -296v-424q0 -240 12 -339q-68 2 -133 2t-135 -2q14 115 14 339z" />
    <glyph glyph-name="uni0E15" unicode="&#xe15;" horiz-adv-x="1121" 
d="M350 868v-661q57 35 92.5 100t35.5 157q0 77 -43 113l6 18q25 0 51.5 6t41 11.5t53 23t54.5 24.5q51 -51 51 -136q0 -161 -105.5 -295.5t-322.5 -229.5q-38 2 -67 2q-25 0 -101 -4q12 89 12 341v535q0 135 71 210.5t190 75.5q130 0 195 -85q63 85 195 85
q119 0 189.5 -75.5t70.5 -210.5v-535q0 -240 12 -339q-68 2 -133 2t-135 -2q14 115 14 339v530q0 60 -24 86.5t-61 26.5q-76 0 -114 -69h-28q-40 69 -113 69q-37 0 -62 -26.5t-25 -86.5z" />
    <glyph glyph-name="uni0E16" unicode="&#xe16;" horiz-adv-x="1088" 
d="M742 338v457q0 96 -47.5 145.5t-153.5 49.5q-130 0 -225 -62q53 -58 53 -139v-557q0 -65 11 -82t40 -17q19 0 70 7l-22 -121q-86 -24 -128 -24q-109 0 -161 56.5t-52 176.5v581q0 40 -18.5 74t-36.5 48l-18 14v29q83 71 218 129.5t269 58.5q215 0 330 -95.5t115 -271.5
v-457q0 -164 1.5 -220t10.5 -120q-70 2 -132 2q-68 0 -136 -2q12 90 12 340z" />
    <glyph glyph-name="uni0E17" unicode="&#xe17;" horiz-adv-x="1074" 
d="M972 783v-444q0 -165 1.5 -221.5t10.5 -119.5q-96 3 -134 3q-39 0 -135 -3q9 65 11 123.5t2 217.5v463q0 94 -33.5 137t-105.5 43q-93 0 -157 -65.5t-72 -174.5v-403q0 -165 1.5 -221.5t10.5 -119.5q-96 3 -133 3q-39 0 -135 -3q9 63 10.5 119.5t1.5 221.5v464
q0 250 -12 340q70 -2 136 -2q61 0 131 2q-8 -67 -9 -113q107 126 277 126q176 0 254.5 -94t78.5 -279z" />
    <glyph glyph-name="uni0E18" unicode="&#xe18;" horiz-adv-x="961" 
d="M338 177q62 -11 121 -11q175 0 175 206q0 101 -37 144.5t-125 51.5q-93 9 -161.5 27t-125 51t-85.5 86t-29 127q0 147 115 222t307 75q97 0 199 -31t166 -79q-5 -10 -47 -79t-53 -104h-24q-20 53 -94 88t-157 35q-79 0 -124.5 -28.5t-45.5 -86.5q0 -56 36.5 -79.5
t152.5 -38.5q193 -26 287 -111.5t94 -258.5q0 -64 -7.5 -113.5t-34.5 -105.5t-72.5 -92.5t-127 -61t-193.5 -24.5q-96 0 -258 27q-12 2 -49 8.5t-47 7.5v145q0 163 -1.5 215t-10.5 116q96 -3 133 -3q39 0 135 3q-9 -64 -10.5 -115t-1.5 -213z" />
    <glyph glyph-name="uni0E19" unicode="&#xe19;" horiz-adv-x="1070" 
d="M106 369v434q0 165 -1.5 221.5t-10.5 119.5q64 -2 135 -2q70 0 134 2q-9 -65 -11 -123.5t-2 -217.5v-443q0 -100 35 -150t110 -50q93 0 157 65.5t72 174.5v403q0 165 -1.5 221.5t-10.5 119.5q64 -2 135 -2q69 0 133 2q-9 -63 -10.5 -119.5t-1.5 -221.5v-464
q0 -250 12 -340q-70 2 -134 2q-63 0 -133 -2q7 82 9 123q-95 -136 -271 -136q-345 0 -345 383z" />
    <glyph glyph-name="uni0E1A" unicode="&#xe1a;" horiz-adv-x="1073" 
d="M983 1144q-9 -63 -10.5 -119.5t-1.5 -221.5v-459q0 -160 -111.5 -259t-320.5 -99t-321 99.5t-112 258.5v459q0 165 -1.5 221.5t-10.5 119.5q64 -2 135 -2t135 2q-9 -63 -10.5 -119.5t-1.5 -221.5v-459q0 -88 47.5 -138t139.5 -50t139.5 50t47.5 138v459q0 159 -2 217.5
t-11 123.5q64 -2 135 -2t135 2z" />
    <glyph glyph-name="uni0E1B" unicode="&#xe1b;" horiz-adv-x="1073" 
d="M983 1520q-9 -63 -10.5 -119.5t-1.5 -221.5v-835q0 -160 -111.5 -259t-320.5 -99t-321 99.5t-112 258.5v459q0 165 -1.5 221.5t-10.5 119.5q64 -2 135 -2t135 2q-9 -63 -10.5 -119.5t-1.5 -221.5v-459q0 -88 47.5 -138t139.5 -50t139.5 50t47.5 138v835q0 159 -2 217.5
t-11 123.5q64 -2 135 -2t135 2z" />
    <glyph glyph-name="uni0E1C" unicode="&#xe1c;" horiz-adv-x="1157" 
d="M811 392v411q0 165 -1.5 221.5t-10.5 119.5q64 -2 134 -2t134 2q-9 -63 -10.5 -119.5t-1.5 -221.5v-805q-66 3 -116 3q-36 0 -102 -3l-242 399l-249 -399q-69 3 -100 3q-44 0 -113 -3v939q0 204 212 204q56 0 141 -24l8 -129q-45 15 -76 15q-44 0 -44 -65v-543l149 262
q75 -5 135 0z" />
    <glyph glyph-name="uni0E1D" unicode="&#xe1d;" horiz-adv-x="1157" 
d="M1055 1172v-1174q-66 3 -116 3q-36 0 -102 -3l-242 399l-249 -399q-69 3 -100 3q-44 0 -113 -3v939q0 204 212 204q56 0 141 -24l8 -129q-45 15 -76 15q-44 0 -44 -65v-543l149 262q75 -5 135 0l153 -265v780q0 166 -1.5 222t-10.5 119q64 -2 134 -2t134 2
q-9 -63 -10.5 -119t-1.5 -222z" />
    <glyph glyph-name="uni0E1E" unicode="&#xe1e;" horiz-adv-x="1204" 
d="M602 579l-187 -581q-84 4 -115 4q-24 0 -112 -4q-112 939 -138 1144q102 -3 129 -3q20 0 122 3q15 -250 62 -702l164 513q33 -3 76 -3t76 3l162 -510q57 606 63 699q102 -3 121 -3q27 0 129 3l-137 -1144q-92 4 -112 4q-27 0 -115 -4z" />
    <glyph glyph-name="uni0E1F" unicode="&#xe1f;" horiz-adv-x="1204" 
d="M602 579l-187 -581q-84 4 -115 4q-24 0 -112 -4q-112 939 -138 1144q102 -3 129 -3q20 0 122 3q15 -250 62 -702l164 513q33 -3 76 -3t76 3l162 -510q14 153 46 539.5t40 508.5q102 -3 121 -3q24 0 126 3q-11 -91 -50.5 -464.5t-73.5 -700.5l-33 -328q-92 4 -112 4
q-27 0 -115 -4z" />
    <glyph glyph-name="uni0E20" unicode="&#xe20;" horiz-adv-x="1101" 
d="M755 338v457q0 94 -53.5 144.5t-161.5 50.5q-126 0 -211 -60q62 -62 62 -141v-561q0 -120 -50.5 -176.5t-158.5 -56.5q-64 0 -138 21l-14 125q46 -8 67 -8q25 0 37.5 16.5t12.5 66.5v582q0 25 -8.5 48t-21 38.5t-25 27.5t-20.5 18l-9 5v27q59 69 200 134.5t277 65.5
q216 0 337.5 -96t121.5 -271v-457q0 -164 1.5 -220t10.5 -120q-70 2 -132 2q-68 0 -136 -2q12 90 12 340z" />
    <glyph glyph-name="uni0E21" unicode="&#xe21;" horiz-adv-x="1070" 
d="M366 803v-403q8 -110 69 -175t154 -65q72 0 103.5 43t31.5 137v463q0 159 -2 217.5t-11 123.5q64 -2 135 -2q70 0 134 2q-9 -63 -10.5 -119.5t-1.5 -221.5v-444q0 -181 -88 -277t-267 -96q-147 0 -245 118q2 -39 9 -105q-70 2 -131 2q-66 0 -136 -2q12 90 12 340v464
q0 165 -1.5 221.5t-10.5 119.5q64 -2 135 -2q69 0 133 2q-9 -63 -10.5 -119.5t-1.5 -221.5z" />
    <glyph glyph-name="uni0E22" unicode="&#xe22;" horiz-adv-x="1046" 
d="M700 344v459q0 159 -2 217.5t-11 123.5q64 -2 134 -2q71 0 135 2q-9 -63 -10.5 -119.5t-1.5 -221.5v-459q0 -164 -109 -261t-317 -97t-320.5 100.5t-112.5 259.5v37q0 95 52 162.5t128 95.5v2q-71 24 -121 86.5t-50 157.5q0 129 87 201.5t240 72.5q97 0 173 -42
q-55 -117 -63 -151h-26q-28 33 -76 33q-42 0 -65.5 -33t-23.5 -94q0 -156 144 -156l90 3q-3 -51 -3 -81q0 -37 3 -82q-51 4 -89 4q-154 0 -154 -178v-38q0 -100 46 -145t141 -45q94 0 138 44.5t44 143.5z" />
    <glyph glyph-name="uni0E23" unicode="&#xe23;" horiz-adv-x="893" 
d="M411 156q82 0 123.5 46t41.5 123q0 32 -11.5 57.5t-26 41t-44.5 30.5t-48.5 21.5t-57.5 19.5q-304 98 -304 340q0 138 114.5 230.5t288.5 92.5q90 0 178.5 -29.5t138.5 -69.5q-19 -37 -38.5 -72t-29.5 -54.5t-18 -43.5h-31q-18 45 -71 72t-122 27q-82 0 -126 -39
t-44 -103q0 -36 12 -64.5t28 -46t47 -33.5t52 -23.5t61 -20.5q39 -12 61 -20t57.5 -24t56.5 -30.5t46.5 -39t39.5 -52t23.5 -66t9.5 -83.5q0 -174 -112.5 -265.5t-305.5 -91.5q-92 0 -181.5 33t-153.5 84q11 18 31.5 53.5t28.5 49t17.5 34.5t14.5 38h28q80 -122 226 -122z
" />
    <glyph glyph-name="uni0E24" unicode="&#xe24;" horiz-adv-x="1088" 
d="M742 25v770q0 96 -47.5 145.5t-153.5 49.5q-130 0 -225 -62q53 -58 53 -139v-557q0 -65 11 -82t40 -17q19 0 70 7l-22 -121q-86 -24 -128 -24q-109 0 -161 56.5t-52 176.5v581q0 40 -18.5 74t-36.5 48l-18 14v29q83 71 218 129.5t269 58.5q215 0 330 -95.5t115 -271.5
v-770q0 -165 1.5 -220.5t10.5 -119.5q-70 2 -132 2q-68 0 -136 -2q12 90 12 340z" />
    <glyph glyph-name="uni0E25" unicode="&#xe25;" horiz-adv-x="1017" 
d="M671 339v169h-133q-218 0 -218 -181q0 -88 21.5 -129.5t70.5 -41.5q53 0 83 39h28q2 -13 6.5 -27.5t9.5 -27.5t18 -45t24 -60q-52 -28 -90.5 -39.5t-104.5 -11.5q-152 0 -234 90.5t-82 239.5q0 172 122.5 268.5t354.5 96.5h124v122q0 95 -45 140t-142 45
q-107 0 -168.5 -25.5t-106.5 -69.5h-34q-5 23 -62 173q72 38 171 66.5t197 28.5q224 0 329 -92.5t105 -292.5v-435q0 -165 1.5 -220.5t10.5 -119.5q-70 2 -133 2q-67 0 -135 -2q12 90 12 340z" />
    <glyph glyph-name="uni0E26" unicode="&#xe26;" horiz-adv-x="1101" 
d="M755 25v770q0 94 -53.5 144.5t-161.5 50.5q-126 0 -211 -60q62 -62 62 -141v-561q0 -120 -50.5 -176.5t-158.5 -56.5q-64 0 -138 21l-14 125q46 -8 67 -8q25 0 37.5 16.5t12.5 66.5v582q0 25 -8.5 48t-21 38.5t-25 27.5t-20.5 18l-9 5v27q59 69 200 134.5t277 65.5
q216 0 337.5 -96t121.5 -271v-770q0 -165 1.5 -220.5t10.5 -119.5q-70 2 -132 2q-68 0 -136 -2q12 90 12 340z" />
    <glyph glyph-name="uni0E27" unicode="&#xe27;" horiz-adv-x="915" 
d="M359 156q120 0 171 87.5t51 308.5q0 166 -26 263.5t-70.5 134.5t-115.5 37q-143 0 -224 -93h-29q-5 21 -15.5 48t-27.5 65t-26 59q62 37 148 64t178 27q241 0 350.5 -138t109.5 -430q0 -324 -113 -463.5t-365 -139.5q-65 0 -135.5 19.5t-116.5 46.5q48 118 56 162h28
q15 -19 69 -38.5t103 -19.5z" />
    <glyph glyph-name="uni0E28" unicode="&#xe28;" horiz-adv-x="1114" 
d="M1025 -1q-68 2 -133 2q-64 0 -134 -2q13 107 13 339v436q0 101 -52.5 157.5t-152.5 56.5q-99 0 -153.5 -57t-54.5 -157v-237l3 -2q79 131 215 131q56 0 96 -26q-26 -55 -26 -204l-23 -16q-33 36 -91 36q-82 0 -128 -48.5t-46 -142.5q0 -180 12 -266q-78 3 -130 3t-136 -3
q12 99 12 339v436q0 164 120.5 275t329.5 111q77 0 143 -17q156 13 334 97l15 -8q-7 -33 -7 -202q-57 -12 -122 -17q84 -102 84 -241v-434q0 -240 12 -339z" />
    <glyph glyph-name="uni0E29" unicode="&#xe29;" horiz-adv-x="1086" 
d="M983 1144q-9 -63 -10.5 -119.5t-1.5 -221.5v-88l90 3q-3 -39 -3 -96q0 -39 4 -80q-42 2 -91 3v-201q0 -160 -111.5 -259t-320.5 -99t-321 99.5t-112 258.5v459q0 165 -1.5 221.5t-10.5 119.5q64 -2 135 -2t135 2q-9 -63 -10.5 -119.5t-1.5 -221.5v-459q0 -88 47.5 -138
t139.5 -50t139.5 50t47.5 138v203q-179 -2 -223 -5q0 2 0.5 18.5t0.5 37.5v32q0 15 -0.5 52.5t-0.5 38.5q27 -5 223 -8v90q0 159 -2 217.5t-11 123.5q64 -2 135 -2t135 2z" />
    <glyph glyph-name="uni0E2A" unicode="&#xe2a;" horiz-adv-x="1050" 
d="M671 339v169h-133q-218 0 -218 -181q0 -87 22 -129t71 -42q53 0 83 39h28q2 -13 6.5 -27.5t9.5 -27.5t18 -45t24 -60q-51 -27 -90.5 -39t-105.5 -12q-152 0 -234 90.5t-82 239.5q0 172 122.5 268.5t354.5 96.5h124v122q0 95 -45 140t-142 45q-107 0 -168.5 -25.5
t-106.5 -69.5h-34q-5 23 -62 173q72 38 171 66.5t197 28.5q91 0 161 -15q152 12 329 96l15 -8q-7 -33 -7 -202q-57 -12 -123 -17q59 -91 59 -239v-435q0 -165 1.5 -220.5t10.5 -119.5q-70 2 -133 2q-67 0 -135 -2q12 90 12 340z" />
    <glyph glyph-name="uni0E2B" unicode="&#xe2b;" horiz-adv-x="1080" 
d="M726 339v162q0 89 -42.5 132.5t-118.5 43.5q-16 0 -36 -2l-148 -147q-17 -17 -17 -52v-137q0 -165 1.5 -221.5t10.5 -119.5q-96 3 -123 3q-37 0 -133 -3q9 63 10.5 119.5t1.5 221.5v325q0 272 -12 480q68 -2 132 -2q56 0 124 2q-12 -144 -12 -328q0 -10 8 -13t15 5
q51 56 160.5 168.5t159.5 166.5q31 0 63.5 -0.5t51.5 -1t34 -0.5q102 0 144 2l-319 -317q137 -14 213 -99.5t76 -233.5v-154q0 -165 1.5 -221.5t10.5 -119.5q-96 3 -134 3t-134 -3q9 63 10.5 119.5t1.5 221.5z" />
    <glyph glyph-name="uni0E2C" unicode="&#xe2c;" horiz-adv-x="1215" 
d="M941 1063v-3q75 -22 117.5 -81.5t42.5 -155.5q0 -123 -40.5 -412t-45.5 -414q-51 6 -130 6q-59 0 -111 -6q-17 70 -44 151.5t-73 204t-57 154.5q-128 -321 -187 -510q-68 6 -116 6q-63 0 -123 -6q-15 263 -110 1145q58 -2 129 -2q65 0 129 2q16 -306 52 -746q11 28 35 87
t35 86t27.5 69.5t29 76.5t23.5 68q28 -3 82 -3q56 0 86 3q18 -64 40.5 -125t56 -145.5t44.5 -112.5q3 42 12 137.5t14 165.5t5 112q0 154 -128 154q-33 0 -92 -4q3 36 3 87v87q85 1 131 7t74 26.5t36 50.5t8 86l-2 33q84 -3 134 -3q79 0 127 2q0 -95 -59 -172.5t-155 -105.5
z" />
    <glyph glyph-name="uni0E2D" unicode="&#xe2d;" horiz-adv-x="985" 
d="M340 289v-112q58 -23 121 -23q53 0 88 16.5t63 61.5t41 130.5t13 216.5q0 123 -15.5 205t-48 125.5t-73.5 60.5t-101 17q-80 0 -153.5 -27t-112.5 -67h-31q-6 36 -58 171q63 34 165.5 62.5t185.5 28.5q167 0 272.5 -55t160.5 -180.5t55 -330.5q0 -223 -51.5 -356.5
t-149.5 -190t-256 -56.5q-84 0 -188 30t-177 66q11 93 11 227q0 164 -9 329h407q-4 -51 -4 -87q0 -39 4 -94q-59 8 -155 10q-4 -54 -4 -178z" />
    <glyph glyph-name="uni0E2E" unicode="&#xe2e;" horiz-adv-x="985" 
d="M340 289v-112q58 -23 130 -23q51 0 84 16.5t60 61.5t39.5 130.5t12.5 216.5q0 123 -15.5 205t-48 125.5t-73.5 60.5t-101 17q-80 0 -153.5 -27t-112.5 -67h-31q-6 36 -58 171q62 33 167 62t184 29q81 0 145 -13q163 7 354 98l15 -8q-7 -33 -7 -202q-56 -12 -129 -18
q110 -136 110 -423q0 -227 -46 -358.5t-142 -188t-260 -56.5q-80 0 -192 31t-182 65q11 93 11 227q0 164 -9 329h407q-4 -51 -4 -87q0 -39 4 -94q-59 8 -155 10q-4 -54 -4 -178z" />
    <glyph glyph-name="uni0E2F" unicode="&#xe2f;" horiz-adv-x="840" 
d="M459 338v533q-34 -31 -96 -52.5t-124 -21.5q-88 0 -143.5 52.5t-55.5 139.5q0 42 8.5 88t21.5 67h230q-35 -63 -35 -134q0 -53 46 -53q73 0 135.5 53.5t109.5 133.5h146v-806q0 -163 2.5 -216t15.5 -123q-68 2 -139 2q-69 0 -139 -2q12 67 14.5 123t2.5 216z" />
    <glyph glyph-name="uni0E30" unicode="&#xe30;" horiz-adv-x="740" 
d="M331 949q-20 -36 -20 -68q0 -18 7 -26t26 -9q35 -1 99 -1q122 0 195 19l12 -8q-17 -45 -32 -87.5t-22 -63.5t-11 -29q-120 -13 -218 -13q-32 0 -53 0.5t-53 4t-53.5 10t-45.5 18.5t-38.5 29.5t-24 44t-9.5 60.5q0 65 32 120q39 -2 104 -2q91 0 105 1zM331 403
q-20 -36 -20 -68q0 -18 7 -26t26 -9q35 -1 99 -1q122 0 195 19l12 -8q-17 -45 -32 -87.5t-22 -63.5t-11 -29q-120 -13 -218 -13q-32 0 -53 0.5t-53 4t-53.5 10t-45.5 18.5t-38.5 29.5t-24 44t-9.5 60.5q0 65 32 120q39 -2 104 -2q91 0 105 1z" />
    <glyph glyph-name="uni0E31" unicode="&#xe31;" 
d="M-428 1582q-19 -46 -19 -67q0 -19 14.5 -26t43.5 -7q112 -2 133 -2q258 0 366 14l4 -4q-7 -17 -30 -85t-27 -79q-94 -10 -313 -10q-199 0 -252 9q-62 11 -100.5 51.5t-38.5 97.5q0 67 30 110q94 -8 189 -2z" />
    <glyph glyph-name="uni0E32" unicode="&#xe32;" horiz-adv-x="800" 
d="M691 815v-476q0 -162 2.5 -215t16.5 -125q-68 2 -139 2q-72 0 -144 -2q14 71 17 127t3 213v479q0 88 -41 129.5t-106 41.5q-124 0 -197 -83h-31q-7 63 -72 173q55 33 138 56.5t160 23.5q393 0 393 -344z" />
    <glyph glyph-name="uni0E33" unicode="&#xe33;" horiz-adv-x="800" 
d="M691 815v-476q0 -162 2.5 -215t16.5 -125q-68 2 -139 2q-72 0 -144 -2q14 71 17 127t3 213v479q0 88 -41 129.5t-106 41.5q-124 0 -197 -83h-31q-7 63 -72 173q55 33 138 56.5t160 23.5q393 0 393 -344zM-219 1374q35 0 51.5 20.5t16.5 51.5q0 72 -68 72t-68 -72
q0 -31 16.5 -51.5t51.5 -20.5zM-219 1250q-92 0 -150 51.5t-58 144.5q0 91 58 143.5t150 52.5t150 -52.5t58 -143.5q0 -93 -58 -144.5t-150 -51.5z" />
    <glyph glyph-name="uni0E34" unicode="&#xe34;" 
d="M-219 1328q-33 0 -139.5 1t-148.5 1q-33 0 -151 -2t-150 -2q-78 0 -112 -10l-3 4q51 130 60 160q90 10 356 10q219 0 379 -7q-3 -24 -3 -91q0 -39 4 -69q-56 5 -92 5z" />
    <glyph glyph-name="uni0E35" unicode="&#xe35;" 
d="M-531 1490q112 0 220 -3q-2 82 -2 122q24 -4 89.5 -3.5t89.5 3.5v-286q-69 5 -106 5q-35 0 -141 1t-150 1q-35 0 -136.5 -2t-135.5 -2q-83 0 -118 -10l-3 4q58 146 62 159q91 11 331 11z" />
    <glyph glyph-name="uni0E36" unicode="&#xe36;" 
d="M-862 1479q91 11 341 11h56q1 78 50 124.5t120 46.5q74 0 122.5 -45t48.5 -127q0 -76 -46.5 -121t-124.5 -45q-34 0 -113 3.5t-123 3.5q-35 0 -136.5 -2t-135.5 -2q-83 0 -118 -10l-3 4q58 146 62 159zM-244 1491q0 63 -51 63q-50 0 -50 -63q0 -64 50 -64q51 0 51 64z
" />
    <glyph glyph-name="uni0E37" unicode="&#xe37;" 
d="M-351 1609v-121q39 0 57 -1q-2 108 -2 122q24 -4 76 -3.5t76 3.5v-286q-59 5 -96 5q-35 0 -136 1t-145 1q-35 0 -141.5 -2t-140.5 -2q-83 0 -118 -10l-3 4q58 146 62 159q91 11 321 11h44q-2 112 -2 119q24 -4 74 -3.5t74 3.5z" />
    <glyph glyph-name="uni0E38" unicode="&#xe38;" 
d="M-352 -492q0 48 1 111.5t1 115.5q-75 0 -131 -10q2 16 2 84v76h339v-377q-23 2 -106 2.5t-106 -2.5z" />
    <glyph glyph-name="uni0E39" unicode="&#xe39;" 
d="M-152 -243v-103q0 -194 -260 -194q-256 0 -256 191v64q0 22 -7 29.5t-30 7.5q-5 0 -43 -7l13 112q65 19 129 19q75 0 106.5 -27t31.5 -90v-106q0 -36 13 -52t46 -16q31 0 44 16.5t13 51.5v104l-6 111q89 -5 212 0q-6 -60 -6 -111z" />
    <glyph glyph-name="uni0E3A" unicode="&#xe3a;" 
d="M-371 -220q0 52 34 86t91 34t91 -34t34 -86t-34 -86t-91 -34t-91 34t-34 86z" />
    <glyph glyph-name="uni0E3F" unicode="&#xe3f;" horiz-adv-x="998" 
d="M555 1482q-12 -66 -12 -225q329 -29 329 -316q0 -102 -56 -177.5t-128 -101.5v-3q217 -69 217 -289q0 -188 -91.5 -280t-270.5 -101q0 -139 12 -200q-63 2 -129 0q12 60 13 199q-69 1 -145.5 4t-118.5 6l-42 2q9 47 10.5 109.5t1.5 358.5v261q0 308 -1.5 390t-10.5 128
q176 11 306 13q-1 158 -13 222q66 -2 129 0zM726 359q0 96 -47.5 154t-135.5 75v-481q93 13 138 72.5t45 179.5zM321 111q51 -5 118 -7v490h-118v-483zM321 1135v-425h118v435q-36 -1 -65.5 -3.5t-41.5 -4.5zM695 930q0 92 -37.5 142.5t-114.5 65.5v-420q77 15 114.5 66
t37.5 146z" />
    <glyph glyph-name="uni0E40" unicode="&#xe40;" horiz-adv-x="522" 
d="M116 238v565q0 165 -1.5 221.5t-10.5 119.5q64 -2 133 -2t133 2q-9 -63 -10.5 -119.5t-1.5 -221.5v-547q0 -76 9.5 -99.5t36.5 -23.5q39 0 85 7l-22 -121q-86 -24 -138 -24q-213 0 -213 243z" />
    <glyph glyph-name="uni0E41" unicode="&#xe41;" horiz-adv-x="1015" 
d="M116 238v565q0 165 -1.5 221.5t-10.5 119.5q64 -2 133 -2t133 2q-9 -63 -10.5 -119.5t-1.5 -221.5v-547q0 -76 9.5 -99.5t36.5 -23.5q39 0 85 7l-22 -121q-86 -24 -138 -24q-213 0 -213 243zM593 238v565q0 165 -1.5 221.5t-10.5 119.5q64 -2 133 -2t133 2
q-9 -63 -10.5 -119.5t-1.5 -221.5v-547q0 -76 9.5 -99.5t36.5 -23.5q39 0 85 7l-22 -121q-86 -24 -138 -24q-213 0 -213 243z" />
    <glyph glyph-name="uni0E42" unicode="&#xe42;" horiz-adv-x="522" 
d="M358 1158v-902q0 -76 9.5 -99.5t36.5 -23.5q39 0 85 7l-22 -121q-86 -24 -138 -24q-213 0 -213 243v883q0 113 -24.5 192.5t-62.5 124t-99 84.5q35 107 139.5 172.5t239.5 65.5q197 0 313 -105q-5 -7 -19 -25.5t-19 -26t-16 -23t-17 -24.5t-13.5 -22t-13 -24t-9.5 -22
h-26q-63 102 -176 102q-43 0 -80.5 -13.5t-58.5 -35.5q90 -52 137 -143.5t47 -239.5z" />
    <glyph glyph-name="uni0E43" unicode="&#xe43;" horiz-adv-x="522" 
d="M116 238v852q0 59 19.5 110t48 86t56.5 65.5t47.5 62.5t19.5 63q0 43 -29.5 69t-85.5 26q-66 0 -120 -36t-73 -86h-36q-6 22 -16 43t-18.5 35t-25.5 41.5t-29 48.5q62 55 149.5 89.5t186.5 34.5q86 0 157.5 -28t117.5 -87.5t46 -140.5q0 -45 -18 -86t-43.5 -75.5
t-50.5 -71t-43 -87.5t-18 -110v-800q0 -76 9.5 -99.5t36.5 -23.5q39 0 85 7l-22 -121q-86 -24 -138 -24q-213 0 -213 243z" />
    <glyph glyph-name="uni0E44" unicode="&#xe44;" horiz-adv-x="522" 
d="M116 238v894q0 104 45 202t119 160q-50 -12 -114 -12q-192 0 -288 63q32 31 54 64.5t59 99.5h29q17 -22 91 -37t122 -15q147 0 237 61l129 -124q-83 -63 -131.5 -119.5t-79 -144.5t-30.5 -207v-867q0 -76 9.5 -99.5t36.5 -23.5q39 0 85 7l-22 -121q-86 -24 -138 -24
q-213 0 -213 243z" />
    <glyph glyph-name="uni0E45" unicode="&#xe45;" horiz-adv-x="797" 
d="M661 815v-790q0 -162 2.5 -215t16.5 -125q-68 2 -139 2q-72 0 -144 -2q14 71 17 127t3 213v793q0 171 -132 171q-129 0 -202 -83h-31q-2 16 -8 36t-21 61t-26 76q148 80 286 80q194 0 286 -83.5t92 -260.5z" />
    <glyph glyph-name="uni0E46" unicode="&#xe46;" horiz-adv-x="1018" 
d="M634 25v846q0 68 -42 81l-96 -76h-18l-111 75q-36 -23 -36 -100q0 -103 69 -103q42 0 87 16l-6 -156q-60 -29 -130 -29q-119 0 -189.5 76t-70.5 198q0 138 84.5 214.5t217.5 76.5l92 -73l99 73q148 0 220 -63.5t72 -209.5v-846q0 -162 2.5 -215t16.5 -125q-68 2 -138 2
q-71 0 -143 -2q14 71 17 127t3 213z" />
    <glyph glyph-name="uni0E47" unicode="&#xe47;" 
d="M-326 1417q80 0 139 17q-3 -28 -3 -84q0 -66 3 -83h-129q-55 0 -99.5 20.5t-63.5 53.5q-48 -74 -177 -74q-97 0 -158 59.5t-61 157.5v13q0 90 72.5 149t186.5 59q41 0 134 -4.5t124 -4.5q140 0 195 33v-177q-58 -17 -171 -17q-36 0 -140.5 5.5t-126.5 5.5q-46 0 -70 -17
t-24 -44v-5q0 -63 85 -63q81 0 124 59h12q43 -59 148 -59z" />
    <glyph glyph-name="uni0E48" unicode="&#xe48;" 
d="M-305 1990q81 -2 166 0l-6 -122l-13 -174q-15 2 -64 2t-64 -2q-11 109 -14 174q-2 30 -2.5 44.5t-1 32.5t-1.5 45z" />
    <glyph glyph-name="uni0E49" unicode="&#xe49;" 
d="M-360 1956h200v-108q155 0 255 11q-1 -21 -1 -81t1 -83q-70 4 -181 4h-263q9 6 9 116q-71 0 -141 -4q4 53 0 148q69 -3 121 -3z" />
    <glyph glyph-name="uni0E4A" unicode="&#xe4a;" 
d="M-184 1682v60q0 33 -11 45.5t-34 12.5q-45 0 -75 -54h-16q-35 52 -78 52q-20 0 -32.5 -15.5t-12.5 -40.5q0 -19 2.5 -34t4.5 -20l2 -6h-176q-14 30 -14 86q0 77 49 126t137 49q44 0 78 -19t50 -49q17 29 53 48.5t83 19.5q64 0 108 -33t44 -93v-8q76 0 152 16v-149
q-73 6 -152 6h-162z" />
    <glyph glyph-name="uni0E4B" unicode="&#xe4b;" 
d="M-320 2073q86 -3 176 0q0 -61 -3 -118q88 0 139 4q-1 -8 -1 -68t1 -70q-62 4 -143 4l-6 -126q-15 2 -75 2t-75 -2q-4 59 -7 126q-88 0 -142 -4q1 8 1 68t-1 70q59 -4 139 -4q-3 61 -3 118z" />
    <glyph glyph-name="uni0E4C" unicode="&#xe4c;" 
d="M-231 1703h-100q-35 0 -47.5 -10.5t-12.5 -38.5q0 -22 6 -48q-15 2 -97 2q-75 0 -90 -2q-9 39 -9 79q0 78 50 123t151 45h77q90 0 110 4l6 -9q-4 -14 -20.5 -69t-23.5 -76z" />
    <glyph glyph-name="uni0E4D" unicode="&#xe4d;" 
d="M-229 1374q35 0 51.5 20.5t16.5 51.5q0 72 -68 72t-68 -72q0 -31 16.5 -51.5t51.5 -20.5zM-229 1250q-92 0 -150 51.5t-58 144.5q0 91 58 143.5t150 52.5t150 -52.5t58 -143.5q0 -93 -58 -144.5t-150 -51.5z" />
    <glyph glyph-name="uni0E4E" unicode="&#xe4e;" horiz-adv-x="1661" 
 />
    <glyph glyph-name="uni0E4F" unicode="&#xe4f;" horiz-adv-x="1208" 
d="M792 525q0 -94 -57.5 -143.5t-131.5 -49.5t-132 49.5t-58 143.5q0 104 56 154.5t134 50.5q77 0 133 -50.5t56 -154.5zM605 10q-75 0 -145 17.5t-135 57.5t-113 98.5t-76.5 146.5t-28.5 195q0 133 43 235.5t115.5 162t158.5 89t181 29.5t181 -29.5t158.5 -89t115.5 -162
t43 -235.5q0 -107 -28.5 -195t-76.5 -146.5t-113 -98.5t-135 -57.5t-145 -17.5zM605 942q-61 0 -116 -15t-103 -48t-83 -81t-55.5 -118t-20.5 -155q0 -106 30.5 -187.5t84 -130.5t120 -73.5t143.5 -24.5t143.5 24.5t120 73.5t84 130.5t30.5 187.5q0 85 -20.5 155t-55.5 118
t-83 81t-103 48t-116 15z" />
    <glyph glyph-name="uni0E50" unicode="&#xe50;" horiz-adv-x="1024" 
d="M512 159q212 0 212 342q0 193 -52 276.5t-160 83.5t-160 -83.5t-52 -276.5q0 -342 212 -342zM512 -13q-76 0 -137 13.5t-119 50.5t-96.5 96t-62 155t-23.5 224q0 135 33 234.5t93.5 158t138 86.5t173.5 28t173.5 -28t138 -86.5t93.5 -158t33 -234.5q0 -128 -23.5 -224
t-62 -155t-96.5 -96t-119 -50.5t-137 -13.5z" />
    <glyph glyph-name="uni0E51" unicode="&#xe51;" horiz-adv-x="1036" 
d="M415 422v6q0 126 -9 173q30 -4 119 -4q69 0 110 7q0 -27 -1.5 -86t-1.5 -102v-119q-80 -26 -127.5 -36t-110.5 -10q-154 0 -241.5 94.5t-87.5 268.5q0 193 119 306t337 113q217 0 333.5 -132t116.5 -373q0 -143 -36.5 -248t-105.5 -168.5t-160 -93.5t-206 -30
q-100 0 -194 26l-52 156l5 15q74 -22 244 -22q147 0 212 80.5t65 284.5q0 176 -53.5 254.5t-168.5 78.5q-112 0 -171 -59t-59 -190q0 -191 100 -191q20 0 24 1z" />
    <glyph glyph-name="uni0E52" unicode="&#xe52;" horiz-adv-x="1138" 
d="M587 756q0 -54 25.5 -96.5t66.5 -63.5v-29q-32 -4 -88.5 -26.5t-106.5 -52.5q-97 102 -97 259q0 130 66.5 207t179.5 77l85 -74l88 74q264 0 264 -256v-415q0 -72 -28 -136.5t-82.5 -118t-145 -85t-206.5 -31.5q-249 0 -373.5 97t-124.5 274v493q0 150 -2.5 204
t-14.5 121q96 -3 131 -3q36 0 129 3q-12 -68 -14.5 -119t-2.5 -206v-495q0 -91 67 -144t203 -53q121 0 179.5 54.5t58.5 142.5v417q0 31 -12.5 46.5t-38.5 23.5l-76 -62l-83 61q-47 -16 -47 -88z" />
    <glyph glyph-name="uni0E53" unicode="&#xe53;" horiz-adv-x="1168" 
d="M1063 746v-407q0 -165 1.5 -220.5t10.5 -119.5q-70 2 -125 2t-123 -2q12 90 12 340v427q0 51 -16 74t-52 23q-69 0 -69 -121v-403q0 -165 1.5 -220.5t10.5 -119.5q-70 2 -123 2t-121 -2q12 90 12 340v403q0 121 -92 121q-38 0 -61 -29.5t-23 -81.5v-506q0 -71 9.5 -92
t37.5 -21q21 0 55 5l-22 -121q-62 -22 -118 -22q-186 0 -186 243v506q0 130 73.5 209.5t217.5 79.5q156 0 214 -105q27 48 80.5 76.5t126.5 28.5q145 0 207 -66.5t62 -220.5z" />
    <glyph glyph-name="uni0E54" unicode="&#xe54;" horiz-adv-x="1030" 
d="M541 1020h104q35 0 54 18t19 50q0 38 -21 90q17 0 66 -1.5t61 -1.5q38 0 119 3v-60q0 -134 -76 -202t-222 -68h-102q-252 0 -252 -289v-190q0 -106 32 -151.5t96 -45.5q41 0 70 18q-43 86 -43 187q0 119 66 192t174 73q95 0 171 -50q-11 -21 -19.5 -42.5t-14 -39
t-8.5 -30.5t-5.5 -24.5t-2.5 -12.5h-13q-25 36 -66 36q-62 0 -62 -113q0 -100 45.5 -147t116.5 -47l107 5q-8 -49 -8 -129v-48h-116q-113 0 -199 56q-74 -67 -205 -67q-163 0 -251.5 99t-88.5 273v198q0 224 122.5 342.5t351.5 118.5z" />
    <glyph glyph-name="uni0E55" unicode="&#xe55;" horiz-adv-x="1036" 
d="M824 0q-113 0 -199 56q-74 -67 -205 -67q-163 0 -251.5 99t-88.5 273v198q0 336 255 426q-3 14 -3 27q0 79 53 127.5t133 48.5q75 0 127.5 -45.5t56.5 -116.5q39 6 39 62q0 38 -21 90q17 0 66 -1.5t61 -1.5q38 0 119 3v-60q0 -133 -80 -201.5t-228 -68.5h-102
q-252 0 -252 -289v-190q0 -106 32 -151.5t96 -45.5q42 0 70 18q-43 86 -43 187q0 119 66 192t174 73q95 0 171 -50q-11 -21 -19.5 -42.5t-14 -39t-8.5 -30.5t-5.5 -24.5t-2.5 -12.5h-13q-25 36 -66 36q-62 0 -62 -113q0 -100 45.5 -147t116.5 -47l107 5q-8 -49 -8 -129v-48
h-116zM520 962q22 0 36 14t14 38q0 25 -14 39.5t-36 14.5t-36.5 -14.5t-14.5 -39.5q0 -24 14.5 -38t36.5 -14z" />
    <glyph glyph-name="uni0E56" unicode="&#xe56;" horiz-adv-x="1004" 
d="M180 726l-154 451q17 0 55.5 -1t73.5 -1q43 0 101 5l62 -227q29 31 86.5 56.5t117.5 25.5q197 0 296 -101.5t99 -296.5v-249q0 -61 -7 -110.5t-32 -106t-66.5 -95t-117 -64t-177.5 -25.5q-65 0 -116 8.5t-79.5 20t-75.5 27.5t-93 26v79q0 140 -7 251q96 -3 112 -3
q22 0 115 3q-6 -95 -6 -207v-4q88 -31 159 -31q50 0 85.5 22.5t52 59t23 70t6.5 69.5v259q0 108 -47 166t-134 58q-74 0 -118.5 -35.5t-72.5 -99.5h-141z" />
    <glyph glyph-name="uni0E57" unicode="&#xe57;" horiz-adv-x="1333" 
d="M83 248v533q0 122 69 188t176 66q73 0 122.5 -27t66.5 -73q21 43 70.5 71.5t108.5 28.5q121 0 175 -64.5t54 -218.5v-606q52 5 80.5 42.5t28.5 138.5v518q0 150 -2 204t-11 121q96 -3 125 -3q32 0 125 3q-9 -68 -11 -119t-2 -206v-482q0 -198 -88 -283.5t-283 -85.5
q-108 0 -182 13v760q0 96 -53 96q-30 0 -41.5 -22t-11.5 -74q0 -141 5 -204q-64 2 -94 2q-32 0 -96 -2q5 63 5 204q0 52 -12 74t-42 22q-57 0 -57 -87v-524q0 -66 20.5 -92.5t60.5 -26.5q19 0 70 7l-22 -121q-70 -24 -128 -24q-226 0 -226 253z" />
    <glyph glyph-name="uni0E58" unicode="&#xe58;" horiz-adv-x="1072" 
d="M305 559v-288q0 -67 21 -93.5t66 -26.5l138 125h29l147 -125q13 9 25 42t12 65q0 70 -1 112.5t-2 50.5l-1 8q-94 -8 -143 -17q5 80 5 99q0 35 -5 84h379q-10 -118 -10 -337q0 -116 -59.5 -193.5t-170.5 -77.5h-80l-112 110l-107 -108h-66q-138 0 -215.5 81.5t-77.5 208.5
v280q0 226 118 343.5t347 117.5h132q83 0 83 64q0 49 -17 95q104 -4 127 -4q34 0 115 3v-60q0 -134 -82 -202t-236 -68h-120q-115 0 -177 -65.5t-62 -223.5z" />
    <glyph glyph-name="uni0E59" unicode="&#xe59;" horiz-adv-x="1028" 
d="M81 267v477q0 125 81 207t209 82q154 0 228 -115q28 108 132 108q67 0 67 65q0 52 -15 88q48 -2 121 -2q96 0 119 1v-79q0 -108 -55.5 -167.5t-161.5 -59.5q-55 0 -78 -31.5t-23 -101.5l139 -499q51 -179 73 -240h-249l-207 786q-11 41 -27.5 58t-47.5 17
q-37 0 -58.5 -29t-21.5 -82v-466q0 -87 21.5 -118.5t81.5 -31.5q50 0 100 16l-21 -129q-80 -26 -143 -26q-130 0 -197 69.5t-67 202.5z" />
    <glyph glyph-name="endash" unicode="&#x2013;" horiz-adv-x="1086" 
d="M749 508h-434q-86 0 -182 -7q0 1 0.5 18.5t0.5 39.5v34q0 17 -0.5 55t-0.5 39q112 -7 182 -7h434q79 0 187 8q-6 -34 -6 -93q0 -53 6 -94q-110 7 -187 7z" />
    <glyph glyph-name="emdash" unicode="&#x2014;" horiz-adv-x="1196" 
d="M891 508h-612q-87 0 -182 -7q0 1 0.5 18.5t0.5 39.5v34q0 17 -0.5 55t-0.5 39q110 -7 182 -7h612q79 0 187 8q-6 -34 -6 -93q0 -53 6 -94q-110 7 -187 7z" />
    <glyph glyph-name="quoteleft" unicode="&#x2018;" horiz-adv-x="445" 
d="M243 1330h149q-9 -19 -23 -52.5t-37.5 -121.5t-23.5 -159q0 -120 10 -175q-68 2 -103 2q-61 0 -127 -2v118q0 117 38.5 203t116.5 187z" />
    <glyph glyph-name="quoteright" unicode="&#x2019;" horiz-adv-x="445" 
d="M183 822h-149q9 19 23 52.5t37.5 121.5t23.5 159q0 120 -10 175q68 -2 103 -2q61 0 127 2v-118q0 -89 -31 -172t-124 -218z" />
    <glyph glyph-name="quotesinglbase" unicode="&#x201a;" horiz-adv-x="435" 
d="M203 -338h-149q9 19 23 52.5t37.5 121.5t23.5 159q0 120 -10 175q68 -2 103 -2q61 0 127 2v-118q0 -89 -31 -172t-124 -218z" />
    <glyph glyph-name="quotedblleft" unicode="&#x201c;" horiz-adv-x="751" 
d="M540 1330h149q-9 -19 -23 -52.5t-37.5 -121.5t-23.5 -159q0 -120 10 -175q-68 2 -103 2q-61 0 -127 -2v118q0 89 31 172t124 218zM224 1330h149q-9 -19 -23 -52.5t-37.5 -121.5t-23.5 -159q0 -120 10 -175q-68 2 -103 2q-61 0 -127 -2v118q0 89 31 172t124 218z" />
    <glyph glyph-name="quotedblright" unicode="&#x201d;" horiz-adv-x="751" 
d="M183 822h-149q9 19 23 52.5t37.5 121.5t23.5 159q0 120 -10 175q68 -2 103 -2q61 0 127 2v-118q0 -89 -31 -172t-124 -218zM499 822h-149q9 19 23 52.5t37.5 121.5t23.5 159q0 120 -10 175q68 -2 103 -2q61 0 127 2v-118q0 -89 -31 -172t-124 -218z" />
    <glyph glyph-name="quotedblbase" unicode="&#x201e;" horiz-adv-x="740" 
d="M203 -338h-149q9 19 23 52.5t37.5 121.5t23.5 159q0 120 -10 175q68 -2 103 -2q61 0 127 2v-118q0 -89 -31 -172t-124 -218zM497 -338h-149q9 19 23 52.5t37.5 121.5t23.5 159q0 120 -10 175q68 -2 103 -2q61 0 127 2v-118q0 -89 -31 -172t-124 -218z" />
    <glyph glyph-name="dagger" unicode="&#x2020;" horiz-adv-x="928" 
d="M542 844l38 -844h-248l38 844l-307 -38v214l305 -38q-5 51 -19 172.5t-19 175.5h254l-41 -348q82 9 303 38v-214z" />
    <glyph glyph-name="daggerdbl" unicode="&#x2021;" horiz-adv-x="928" 
d="M579 745v-141l-29 -98q32 4 95 12t113 14.5t88 10.5v-216l-303 39q33 -310 39 -366h-252l38 366l-305 -39v216l299 -37l-29 98v141l28 98q-234 -30 -298 -37v214l305 -38q-5 51 -19 172.5t-19 175.5h254l-41 -348q82 9 303 38v-214l-297 37z" />
    <glyph glyph-name="bullet" unicode="&#x2022;" horiz-adv-x="572" 
d="M90 597q0 77 52.5 125.5t137.5 48.5t137 -48.5t52 -125.5t-52 -125.5t-137 -48.5t-137.5 48.5t-52.5 125.5z" />
    <glyph glyph-name="ellipsis" unicode="&#x2026;" horiz-adv-x="1323" 
d="M97 120q0 53 37.5 86.5t97.5 33.5q61 0 98 -33.5t37 -86.5q0 -54 -37 -87.5t-98 -33.5q-60 0 -97.5 33.5t-37.5 87.5zM513 120q0 53 37.5 86.5t97.5 33.5q61 0 98 -33.5t37 -86.5q0 -54 -37 -87.5t-98 -33.5q-60 0 -97.5 33.5t-37.5 87.5zM929 120q0 53 37.5 86.5
t97.5 33.5q61 0 98 -33.5t37 -86.5q0 -54 -37 -87.5t-98 -33.5q-60 0 -97.5 33.5t-37.5 87.5z" />
    <glyph glyph-name="perthousand" unicode="&#x2030;" horiz-adv-x="2400" 
d="M408 689q52 0 79 55.5t27 188.5t-27 189t-79 56t-79 -56t-27 -189t27 -188.5t79 -55.5zM1256 1332l-520 -1173q-40 -91 -49 -159q-18 0 -46 1t-50 1q-12 0 -120 -4l491 1129q58 131 66 203q18 0 52 -1t56 -1q12 0 120 4zM408 539q-149 0 -223.5 96t-74.5 298t74.5 298.5
t223.5 96.5t223.5 -96.5t74.5 -298.5t-74.5 -298t-223.5 -96zM1302 135q52 0 79 55.5t27 188.5t-27 189t-79 56t-79 -56t-27 -189t27 -188.5t79 -55.5zM1302 -15q-149 0 -223.5 96t-74.5 298t74.5 298.5t223.5 96.5t223.5 -96.5t74.5 -298.5t-74.5 -298t-223.5 -96z
M1992 135q52 0 79 55.5t27 188.5t-27 189t-79 56t-79 -56t-27 -189t27 -188.5t79 -55.5zM1992 -15q-149 0 -223.5 96t-74.5 298t74.5 298.5t223.5 96.5t223.5 -96.5t74.5 -298.5t-74.5 -298t-223.5 -96z" />
    <glyph glyph-name="guilsinglleft" unicode="&#x2039;" horiz-adv-x="603" 
d="M489 174h-204l-181 394l181 394h204l-129 -394z" />
    <glyph glyph-name="guilsinglright" unicode="&#x203a;" horiz-adv-x="603" 
d="M318 174h-204l129 394l-129 394h204l181 -394z" />
    <glyph glyph-name="fraction" unicode="&#x2044;" horiz-adv-x="453" 
d="M643 1531l-555 -1508q-51 -135 -59 -206q-81 3 -109 3q-15 0 -119 -4l555 1508q49 134 59 206q81 -3 108 -3q12 0 120 4z" />
    <glyph glyph-name="Euro" unicode="&#x20ac;" horiz-adv-x="988" 
d="M575 743h-144q-1 -23 -1 -71v-52h145q77 0 187 8q-6 -35 -6 -88q0 -46 6 -86q-126 6 -187 6h-133q21 -162 81 -228.5t165 -66.5q41 0 77 5t51 8.5t53.5 16.5t47.5 16l19 -16l-26 -170q-10 -2 -45.5 -11t-56.5 -13.5t-52.5 -9t-55.5 -4.5q-228 0 -358 115t-167 357
q-59 -2 -115 -5v17t0.5 36t0.5 31q0 15 -0.5 51.5t-0.5 37.5q53 -4 101 -5q0 10 -0.5 31t-0.5 32q0 38 1 56q-52 -1 -101 -5v35q1 35 1 50t-0.5 51.5t-0.5 37.5q21 -2 66.5 -4t52.5 -2q41 209 167.5 324t343.5 115q124 0 252 -74q-12 -23 -28.5 -54t-24 -46t-15.5 -35.5
t-11 -38.5h-18q-2 2 -15 14t-18 16.5t-20.5 13.5t-29.5 13t-37 7.5t-51 3.5q-92 0 -148.5 -60t-79.5 -200h129q77 0 187 8q-6 -35 -6 -88q0 -47 6 -87q-110 7 -187 7z" />
    <glyph glyph-name="trademark" unicode="&#x2122;" horiz-adv-x="1450" 
d="M927 906l-69 134v-103q0 -250 8 -325q-66 2 -107 2q-42 0 -106 -2q7 75 7 325v250h-201v-250q0 -250 8 -325q-68 2 -112 2q-38 0 -104 -2q8 75 8 325v250h-35q-99 0 -164 -5v34q1 33 1 47q0 13 -0.5 42t-0.5 31q49 -6 164 -6h630l142 -251l135 251h192v-393
q0 -250 7 -325q-64 2 -104 2q-45 0 -109 -2q8 75 8 325v103l-71 -134q-39 4 -63 4q-25 0 -64 -4z" />
    <glyph glyph-name="Omega" unicode="&#x2126;" horiz-adv-x="1084" 
d="M539 1171q-72 0 -111.5 -44.5t-57.5 -149.5t-18 -297q0 -229 37.5 -358t112.5 -184v-138h-180q-85 0 -218 -9q0 1 0.5 38t0.5 52q0 11 -0.5 32t-0.5 37.5v18.5q102 -6 147 -6q-147 191 -147 526q0 174 19.5 291.5t68.5 201.5t134 122.5t213 38.5q129 0 213.5 -38.5
t134 -122.5t69 -201t19.5 -292q0 -341 -146 -525q17 1 51 2t60.5 2t39.5 2q-6 -34 -6 -89q0 -49 6 -90q-135 9 -224 9h-180v138q76 55 113.5 184t37.5 358q0 192 -18 297t-57.5 149.5t-112.5 44.5z" />
    <glyph glyph-name="partialdiff" unicode="&#x2202;" horiz-adv-x="988" 
d="M478 691q-70 0 -113.5 -65t-43.5 -193q0 -141 45.5 -208.5t113.5 -67.5q159 0 159 286q0 119 -41.5 183.5t-119.5 64.5zM468 861q93 0 170 -42q-12 188 -77.5 272t-180.5 84q-78 0 -125.5 -10t-97.5 -36l-11 13l31 169q99 33 226 33q239 0 357.5 -154.5t118.5 -482.5
v-124q0 -295 -101 -445.5t-293 -150.5t-298.5 119t-106.5 323q0 207 110 319.5t278 112.5z" />
    <glyph glyph-name="Delta" unicode="&#x2206;" horiz-adv-x="1007" 
d="M73 172l344 1161q32 -3 102 -3q68 0 103 3l326 -1162q8 -31 23 -73.5t25 -69.5l11 -28h-997q43 101 63 172zM692 193l-189 727q-37 -128 -104 -368t-101 -359h394z" />
    <glyph glyph-name="product" unicode="&#x220f;" horiz-adv-x="1115" 
d="M883 1144v-898q0 -50 7.5 -75.5t18 -31.5t30.5 -6q22 0 76 7l-23 -121q-76 -24 -138 -24q-213 0 -213 243v910h-183v-633q0 -298 3 -372.5t18 -143.5q-70 2 -140 2q-73 0 -141 -2q13 69 15.5 143.5t2.5 372.5v630q-75 0 -161 -8q0 9 1 42.5t1 48.5q0 63 -7 102h1010
q-7 -39 -7 -102q0 -15 1 -48.5t1 -42.5q-76 7 -172 7z" />
    <glyph glyph-name="summation" unicode="&#x2211;" horiz-adv-x="928" 
d="M402 497l-332 746v89h609q75 0 187 7q-6 -40 -6 -95q0 -60 7 -98q-135 10 -188 10h-320l286 -632l-321 -668q406 2 541 34q-8 -77 -8 -117q0 -57 9 -106q-142 9 -188 9h-632v101z" />
    <glyph glyph-name="minus" unicode="&#x2212;" horiz-adv-x="1044" 
d="M720 508h-417q-82 0 -175 -7v18.5t0.5 39.5t0.5 34q0 17 -0.5 55t-0.5 39q107 -7 175 -7h417q76 0 180 8q-6 -34 -6 -93q0 -53 6 -94q-107 7 -180 7z" />
    <glyph glyph-name="uni2215" unicode="&#x2215;" horiz-adv-x="436" 
d="M618 1531l-533 -1508q-49 -135 -57 -206q-78 3 -105 3q-14 0 -114 -4l533 1508q47 134 57 206q78 -3 104 -3q11 0 115 4z" />
    <glyph glyph-name="uni2219" unicode="&#x2219;" horiz-adv-x="436" 
d="M123 589q0 43 26.5 69.5t69.5 26.5t69.5 -26.5t26.5 -69.5t-26.5 -69.5t-69.5 -26.5t-69.5 26.5t-26.5 69.5z" />
    <glyph glyph-name="radical" unicode="&#x221a;" horiz-adv-x="1096" 
d="M24 746q55 -4 123 -4q78 0 126 4q12 -71 26 -123l84 -322l322 1247h388q-5 -58 -5 -104q0 -44 6 -92q-68 5 -194 5h-14l-385 -1359q-88 4 -113 4q-31 0 -111 -4l-205 609z" />
    <glyph glyph-name="infinity" unicode="&#x221e;" horiz-adv-x="1441" 
d="M440 729q-71 0 -106.5 -32t-35.5 -106q0 -72 35.5 -104t106.5 -32q87 0 124 42t37 143q-21 42 -65 65.5t-96 23.5zM969 266q-164 0 -253 107q-96 -107 -273 -107q-362 0 -362 325q0 160 87 244t275 84q162 0 254 -108q93 108 272 108q188 0 275 -84t87 -244
q0 -325 -362 -325zM972 455q71 0 106.5 32t35.5 104q0 74 -35 106t-107 32q-86 0 -122 -42t-36 -144q19 -41 62 -64.5t96 -23.5z" />
    <glyph glyph-name="uni2224" unicode="&#x2224;" horiz-adv-x="436" 
d="M123 589q0 43 26.5 69.5t69.5 26.5t69.5 -26.5t26.5 -69.5t-26.5 -69.5t-69.5 -26.5t-69.5 26.5t-26.5 69.5z" />
    <glyph glyph-name="logicaland" unicode="&#x2227;" horiz-adv-x="436" 
d="M123 589q0 43 26.5 69.5t69.5 26.5t69.5 -26.5t26.5 -69.5t-26.5 -69.5t-69.5 -26.5t-69.5 26.5t-26.5 69.5z" />
    <glyph glyph-name="integral" unicode="&#x222b;" horiz-adv-x="643" 
d="M224 3q0 153 -29 465.5t-29 477.5q0 222 41 362.5t111.5 200t175.5 59.5q54 0 106 -35.5t52 -91.5q-21 -12 -46.5 -43.5t-32.5 -61.5h-18q-3 6 -12 26t-15.5 31t-17 26t-23.5 22t-28 7q-36 0 -54 -52.5t-18 -180.5q0 -155 24 -472.5t24 -485.5q0 -335 -83.5 -497
t-219.5 -162q-65 0 -116 40.5t-66 110.5q75 52 100 87h24q17 -79 34 -100q14 -18 34 -18q41 0 61.5 81t20.5 204z" />
    <glyph glyph-name="approxequal" unicode="&#x2248;" horiz-adv-x="1007" 
d="M132 605v201q94 56 185 56q8 0 24 -0.5t24 -0.5q62 0 154 -38l12 -5q69 -28 107 -28q82 0 207 80v-198q-90 -56 -223 -56q-64 0 -152 38l-12 4q-73 29 -111 29q-90 0 -215 -82zM132 324v171q97 77 214 77q56 0 151 -35.5t141 -35.5q111 0 207 60v-168q-58 -36 -101.5 -51
t-101.5 -15q-56 0 -150 35.5t-145 35.5q-68 0 -114 -16.5t-101 -57.5z" />
    <glyph glyph-name="notequal" unicode="&#x2260;" horiz-adv-x="1086" 
d="M749 339h-268l-132 -213h-217l132 212q-36 -1 -131 -6q0 1 0.5 18.5t0.5 39.5v34q0 17 -0.5 55t-0.5 39q112 -7 182 -7h56l105 170h-161q-72 0 -182 -6q0 1 0.5 18.5t0.5 39v33.5q0 17 -0.5 55t-0.5 39q112 -7 182 -7h268l133 213h216l-132 -212q69 2 136 7
q-6 -34 -6 -93q0 -53 6 -93q-126 6 -187 6h-56l-106 -170h162q79 0 187 8q-6 -35 -6 -93q0 -54 6 -94q-110 7 -187 7z" />
    <glyph glyph-name="lessequal" unicode="&#x2264;" horiz-adv-x="1086" 
d="M430 660l504 -211q-4 -42 -4 -99q0 -44 4 -117l-804 358q5 31 5 61q0 33 -4 62l803 409q-4 -58 -4 -120q0 -54 4 -98zM751 4h-436q-127 0 -182 -4l1 34v50t-0.5 50t-0.5 36q63 -4 182 -4h436q120 0 183 4q0 -1 -1 -36t-1 -50t1 -50l1 -34q-55 4 -183 4z" />
    <glyph glyph-name="greaterequal" unicode="&#x2265;" horiz-adv-x="1086" 
d="M130 449l504 211l-504 245q4 44 4 98q0 62 -4 120l803 -409q-4 -29 -4 -62q0 -30 5 -61l-804 -358q4 73 4 117q0 57 -4 99zM749 4h-436q-128 0 -183 -4l1 34q1 35 1 50t-1 50t-1 36q63 -4 183 -4h436q119 0 182 4q0 -1 -0.5 -36t-0.5 -50v-50l1 -34q-55 4 -182 4z" />
    <glyph glyph-name="dotmath" unicode="&#x22c5;" horiz-adv-x="436" 
d="M123 589q0 43 26.5 69.5t69.5 26.5t69.5 -26.5t26.5 -69.5t-26.5 -69.5t-69.5 -26.5t-69.5 26.5t-26.5 69.5z" />
    <glyph glyph-name="uni25AF" unicode="&#x25af;" horiz-adv-x="954" 
d="M124 0v1330h706v-1330h-706zM266 136h422v1058h-422v-1058z" />
    <glyph glyph-name="lozenge" unicode="&#x25ca;" horiz-adv-x="924" 
d="M462 255l204 409l-204 409l-204 -409zM462 1328q27 0 79 5l341 -669l-341 -665q-63 3 -79 3t-79 -3l-341 665l341 669q52 -5 79 -5z" />
    <glyph glyph-name="uni0E10.alt1" unicode="&#xf700;" horiz-adv-x="1026" 
d="M470 624l59 -456q73 6 104 65t31 173v328q0 132 -54 190t-170 58q-78 0 -153 -34t-111 -78h-30q-7 41 -19.5 73.5t-56.5 113.5q59 41 167 71.5t205 30.5q95 0 168 -16q160 11 339 97l15 -8q-7 -33 -7 -202q-59 -12 -125 -17q76 -102 76 -279v-333q0 -83 -24 -154.5
t-72.5 -127t-128.5 -87.5t-184 -32h-172q0 63 -17 172q-34 207 -46 276q-56 -1 -130 -13q2 26 2 105v84h334z" />
    <glyph glyph-name="uni0E34.alt1" unicode="&#xf701;" 
d="M-492 1328q-33 0 -129.5 1t-138.5 1q-33 0 -136 -2t-135 -2q-78 0 -112 -10l-3 4q51 130 60 160q90 10 326 10q199 0 359 -7q-3 -24 -3 -91q0 -39 4 -69q-56 5 -92 5z" />
    <glyph glyph-name="uni0E35.alt1" unicode="&#xf702;" 
d="M-777 1490q97 0 200 -3q-2 82 -2 122q24 -4 89.5 -3.5t89.5 3.5v-286q-69 5 -106 5q-35 0 -131 1t-140 1q-35 0 -126.5 -2t-125.5 -2q-83 0 -118 -10l-3 4q58 146 62 159q91 11 311 11z" />
    <glyph glyph-name="uni0E36.alt1" unicode="&#xf703;" 
d="M-1089 1479q91 11 321 11h36q1 78 50 124.5t120 46.5q74 0 122.5 -45t48.5 -127q0 -76 -46.5 -121t-124.5 -45q-34 0 -103 3.5t-113 3.5q-35 0 -126.5 -2t-125.5 -2q-83 0 -118 -10l-3 4q58 146 62 159zM-511 1491q0 63 -51 63q-50 0 -50 -63q0 -64 50 -64q51 0 51 64z
" />
    <glyph glyph-name="uni0E37.alt1" unicode="&#xf704;" 
d="M-616 1609v-121q39 0 57 -1q-2 108 -2 122q24 -4 76 -3.5t76 3.5v-286q-59 5 -96 5q-35 0 -136 1t-145 1q-35 0 -121.5 -2t-120.5 -2q-83 0 -118 -10l-3 4q58 146 62 159q91 11 281 11h44q-2 112 -2 119q24 -4 74 -3.5t74 3.5z" />
    <glyph glyph-name="uni0E48.alt1" unicode="&#xf705;" 
d="M-488 1302q-15 2 -79 2t-79 -2q-14 139 -17 204q-2 38 -3 71t-2 61q99 -3 202 0q-1 -28 -2 -61t-3 -71z" />
    <glyph glyph-name="uni0E49.alt1" unicode="&#xf706;" 
d="M-887 1619h209v-143h33q74 0 212 6q-1 -21 -1 -81t1 -83q-70 4 -211 4h-233q10 38 10 151q-76 0 -146 -4q4 55 0 153q69 -3 126 -3z" />
    <glyph glyph-name="uni0E4A.alt1" unicode="&#xf707;" 
d="M-677 1342v55q0 31 -8 45t-32 14q-41 0 -63 -40h-18q-26 40 -67 40q-18 0 -29 -14t-11 -38q0 -16 2.5 -31.5t4.5 -22.5l3 -8h-174q-16 34 -16 96q0 77 45.5 125t120.5 48q96 0 132 -58q38 58 131 58q67 0 102.5 -31.5t35.5 -87.5v-8q76 0 119 17v-165q-71 6 -159 6h-119z
" />
    <glyph glyph-name="uni0E4B.alt1" unicode="&#xf708;" 
d="M-726 1658q92 -3 188 0q0 -65 -3 -122q88 0 139 4q-1 -8 -1 -68t1 -70q-62 4 -143 4l-6 -134q-15 2 -81 2t-81 -2q-4 67 -7 134q-88 0 -142 -4q1 8 1 68t-1 70q59 -4 139 -4q-3 62 -3 122z" />
    <glyph glyph-name="uni0E4C.alt1" unicode="&#xf709;" 
d="M-395 1384h-118q-39 0 -52.5 -12t-13.5 -43q0 -11 6 -53q-17 2 -108 2q-88 0 -105 -2q-10 42 -10 86q0 97 58 142.5t188 45.5h46q32 0 68.5 2.5t56.5 5.5l20 2l6 -10q-5 -30 -22 -87t-20 -79z" />
    <glyph glyph-name="uni0E48.alt2" unicode="&#xf70a;" 
d="M-153 1302q-15 2 -79 2t-79 -2q-14 139 -17 204q-2 38 -3 71t-2 61q99 -3 202 0q-1 -28 -2 -61t-3 -71z" />
    <glyph glyph-name="uni0E49.alt2" unicode="&#xf70b;" 
d="M-475 1609h209v-133h73q74 0 212 6q-1 -21 -1 -81t1 -83q-70 4 -211 4h-273q10 28 10 141q-86 0 -156 -4q4 55 0 153q69 -3 136 -3z" />
    <glyph glyph-name="uni0E4A.alt2" unicode="&#xf70c;" 
d="M-356 1342v67q0 37 -12.5 50.5t-37.5 13.5q-50 0 -83 -59h-18q-38 57 -87 57q-22 0 -36 -17t-14 -45q0 -21 2.5 -38t5.5 -23l2 -6h-184q-16 34 -16 96q0 83 50 138t146 55q48 0 86.5 -21t55.5 -54q18 32 58.5 53.5t92.5 21.5q69 0 113.5 -38t44.5 -101v-8q87 0 169 17
v-165q-81 6 -169 6h-169z" />
    <glyph glyph-name="uni0E4B.alt2" unicode="&#xf70d;" 
d="M-326 1658q92 -3 188 0q0 -65 -3 -122q88 0 139 4q-1 -8 -1 -68t1 -70q-62 4 -143 4l-6 -134q-15 2 -81 2t-81 -2q-4 67 -7 134q-88 0 -142 -4q1 8 1 68t-1 70q59 -4 139 -4q-3 62 -3 122z" />
    <glyph glyph-name="uni0E4C.alt2" unicode="&#xf70e;" 
d="M-127 1384h-118q-39 0 -52.5 -12t-13.5 -43q0 -11 6 -53q-17 2 -108 2q-88 0 -105 -2q-10 42 -10 86q0 97 58 142.5t188 45.5h46q32 0 68.5 2.5t56.5 5.5l20 2l6 -10q-5 -30 -22 -87t-20 -79z" />
    <glyph glyph-name="uni0E0D.alt1" unicode="&#xf70f;" horiz-adv-x="1646" 
d="M1296 344v458v73.5v63.5t-0.5 46.5t-1.5 45l-3 34.5t-5 39.5t-7 37.5q105 -3 140 -3q39 0 138 3q-12 -67 -14.5 -120.5t-2.5 -219.5v-458q0 -162 -103.5 -260t-310.5 -98t-311 98t-104 260v451q0 99 -37.5 147t-138.5 48q-111 0 -213 -64q48 -55 48 -141v-529
q0 -76 9.5 -99.5t35.5 -23.5q38 0 96 7l-23 -121q-86 -24 -148 -24q-216 0 -216 243q0 35 1.5 113t1.5 127v340q0 25 -7 48.5t-17 39t-20 27.5t-17 17l-7 6v30q252 176 476 176q212 0 316 -94t104 -273v-451q0 -188 171 -188q170 0 170 188z" />
    <glyph glyph-name="uni0E31.alt1" unicode="&#xf710;" 
d="M-605 1582q-19 -46 -19 -67q0 -19 14.5 -26t43.5 -7q112 -2 133 -2q258 0 366 14l4 -4q-7 -17 -30 -85t-27 -79q-94 -10 -313 -10q-199 0 -252 9q-62 11 -100.5 51.5t-38.5 97.5q0 67 30 110q94 -8 189 -2z" />
    <glyph glyph-name="uni0E4D.alt1" unicode="&#xf711;" 
d="M-597 1374q35 0 51.5 20.5t16.5 51.5q0 72 -68 72t-68 -72q0 -31 16.5 -51.5t51.5 -20.5zM-597 1250q-92 0 -150 51.5t-58 144.5q0 91 58 143.5t150 52.5t150 -52.5t58 -143.5q0 -93 -58 -144.5t-150 -51.5z" />
    <glyph glyph-name="uni0E47.alt1" unicode="&#xf712;" 
d="M-535 1417q60 0 119 17q-3 -29 -3 -89.5t3 -77.5h-109q-47 0 -82 17.5t-51 46.5q-41 -64 -147 -64q-97 0 -153 54.5t-56 152.5v13q0 94 67 154t182 60q41 0 99 -4.5t89 -4.5q130 0 185 33v-173q-58 -17 -161 -17q-36 0 -107 5.5t-93 5.5q-81 0 -81 -64v-5q0 -28 19.5 -44
t53.5 -16q59 0 96 49h12q36 -49 118 -49z" />
    <glyph glyph-name="uni0E48.alt3" unicode="&#xf713;" 
d="M-535 1990q81 -2 166 0l-6 -122l-13 -174q-15 2 -64 2t-64 -2q-11 109 -14 174q-2 30 -2.5 44.5t-1 32.5t-1.5 45z" />
    <glyph glyph-name="uni0E49.alt3" unicode="&#xf714;" 
d="M-587 1956h200v-108q155 0 255 11q-1 -21 -1 -81t1 -83q-70 4 -181 4h-263q9 6 9 116q-71 0 -141 -4q4 53 0 148q69 -3 121 -3z" />
    <glyph glyph-name="uni0E4A.alt3" unicode="&#xf715;" 
d="M-324 1682v60q0 33 -11 45.5t-34 12.5q-45 0 -75 -54h-16q-35 52 -78 52q-20 0 -32.5 -15.5t-12.5 -40.5q0 -19 2.5 -34t4.5 -20l2 -6h-176q-14 30 -14 86q0 77 49 126t137 49q44 0 78 -19t50 -49q17 29 53 48.5t83 19.5q64 0 108 -33t44 -93v-8q76 0 152 16v-149
q-73 6 -152 6h-162z" />
    <glyph glyph-name="uni0E4B.alt3" unicode="&#xf716;" 
d="M-540 2073q86 -3 176 0q0 -61 -3 -118q88 0 139 4q-1 -8 -1 -68t1 -70q-62 4 -143 4l-6 -126q-15 2 -75 2t-75 -2q-4 59 -7 126q-88 0 -142 -4q1 8 1 68t-1 70q59 -4 139 -4q-3 61 -3 118z" />
    <glyph glyph-name="uni0E4C.alt3" unicode="&#xf717;" 
d="M-470 1703h-100q-35 0 -47.5 -10.5t-12.5 -38.5q0 -22 6 -48q-15 2 -97 2q-75 0 -90 -2q-9 39 -9 79q0 78 50 123t151 45h77q90 0 110 4l6 -9q-4 -14 -20.5 -69t-23.5 -76z" />
    <glyph glyph-name="uni0E38.alt1" unicode="&#xf718;" 
d="M-352 -777q0 48 1 101.5t1 105.5q-75 0 -131 -10q2 16 2 84v76h339v-357q-23 2 -106 2.5t-106 -2.5z" />
    <glyph glyph-name="uni0E39.alt1" unicode="&#xf719;" 
d="M-152 -531v-83q0 -194 -260 -194q-256 0 -256 191v44q0 22 -7 29.5t-30 7.5q-5 0 -43 -7l13 112q65 19 129 19q75 0 106.5 -27t31.5 -90v-81q0 -42 11 -57.5t48 -15.5q34 0 45.5 16t11.5 57v79l-6 111q89 -5 212 0q-6 -60 -6 -111z" />
    <glyph glyph-name="uni0E3A.alt1" unicode="&#xf71a;" 
d="M-371 -520q0 52 34 86t91 34t91 -34t34 -86t-34 -86t-91 -34t-91 34t-34 86z" />
    <glyph glyph-name="uni0E0E.alt1" unicode="&#xf71b;" horiz-adv-x="1089" 
d="M755 795q-2 195 -215 195q-126 0 -211 -60q62 -62 62 -141v-561q0 -120 -50.5 -176.5t-158.5 -56.5q-64 0 -138 21l-14 125q46 -8 67 -8q25 0 37.5 16.5t12.5 66.5v582q0 25 -8.5 48t-21 38.5t-25 27.5t-20.5 18l-9 5v27q59 69 200 134.5t277 65.5q216 0 337.5 -96
t121.5 -271v-862q0 -152 -73.5 -232.5t-219.5 -80.5q-34 0 -128.5 14t-139.5 14q-125 0 -211 -28l-15 11l36 165q73 30 180 30q50 0 126 -14t110 -14q49 0 70 36t21 108v853z" />
    <glyph glyph-name="uni0E0F.alt1" unicode="&#xf71c;" horiz-adv-x="1089" 
d="M392 -203q93 0 131 69h28q39 -69 112 -69q42 0 67 25.5t25 78.5v894q0 94 -53.5 144.5t-161.5 50.5q-126 0 -211 -60q62 -62 62 -141v-561q0 -120 -50.5 -176.5t-158.5 -56.5q-64 0 -138 21l-14 125q46 -8 67 -8q25 0 37.5 16.5t12.5 66.5v582q0 25 -8.5 48t-21 38.5
t-25 27.5t-20.5 18l-9 5v27q59 69 200 134.5t277 65.5q216 0 337.5 -96t121.5 -271v-890q0 -133 -78 -209t-199 -76q-122 0 -185 85q-63 -85 -185 -85q-77 0 -145 26l-30 195l8 7q54 -26 99 -38.5t108 -12.5z" />
    <glyph glyph-name="uni0E2C.alt1" unicode="&#xf71d;" horiz-adv-x="1215" 
d="M959 913v-3q76 -23 109 -80t33 -157q0 -134 -43 -359t-53 -317q-51 6 -120 6q-59 0 -111 -6q-29 63 -80.5 183t-93.5 207q-99 -189 -187 -390q-68 6 -116 6q-53 0 -113 -6q-39 487 -120 1145q58 -2 129 -2q60 0 124 2q7 -137 16.5 -276.5t22.5 -315t18 -244.5
q21 44 47 99t38.5 81.5t30 65.5t34.5 81q28 -2 82 -2q56 0 86 2q18 -50 36.5 -95t30.5 -70.5t36.5 -77t37.5 -80.5q31 205 31 355q0 154 -129 154q-32 0 -91 -4q3 36 3 87v87q85 1 131 7t74 26.5t36 50.5t8 86l-2 33q84 -3 134 -3q79 0 127 2q0 -92 -55.5 -172.5
t-140.5 -105.5z" />
    <glyph glyph-name="apple" unicode="&#xf8ff;" horiz-adv-x="1843" 
d="M1739 1054v-828q0 -21 -19 -26l-586 -312q-18 -4 -38 -4h-353q-14 0 -32 4l-582 310q-25 6 -25 40v816q0 14 4 19.5t15 12.5l861 410q12 4 21 4q8 0 16 -4l633 -306q26 -15 37 -26l46 -90q2 -8 2 -20zM1676 242v768l-534 -286v-320l264 140v178q0 9 8.5 15.5t20.5 6.5
q16 0 26 -6.5t10 -15.5v-194q0 -19 -17 -30l-312 -154v-146l285 146q6 2 14 2q30 0 30 -30q0 -6 -5.5 -13.5t-11.5 -10.5l-310 -156q-30 -12 -33 -12q-25 0 -25 30v558h-341q-16 0 -40 12l-537 286v-388l258 -140q13 -9 13 -28v-196q0 -12 -7.5 -21t-19.5 -9q-14 0 -22.5 9
t-8.5 21v182l-213 116v-314l535 -280v522q-12 10 -102.5 61t-174.5 97l-85 46q-17 5 -17 20q0 34 30 34q9 0 18 -6l373 -206q14 -9 14 -24v-566h345zM1631 1140l-626 302l-805 -388l540 -280h364l144 76v102q0 12 8 21t19 9h225l166 90zM1102 1234q22 0 92.5 -38.5
t70.5 -57.5q0 -13 -28.5 -31.5t-42.5 -18.5q-17 0 -93 43t-76 53q0 16 27 33t50 17zM780 1076q22 0 90 -39.5t68 -58.5q0 -13 -26.5 -30.5t-39.5 -17.5q-19 0 -94 42.5t-75 53.5q0 15 28 32.5t49 17.5z" />
    <glyph glyph-name="uni0E33.alt1" horiz-adv-x="800" 
d="M691 815v-476q0 -162 2.5 -215t16.5 -125q-68 2 -139 2q-72 0 -144 -2q14 71 17 127t3 213v479q0 88 -41 129.5t-106 41.5q-124 0 -197 -83h-31q-7 63 -72 173q55 33 138 56.5t160 23.5q393 0 393 -344zM-597 1374q35 0 51.5 20.5t16.5 51.5q0 72 -68 72t-68 -72
q0 -31 16.5 -51.5t51.5 -20.5zM-597 1250q-92 0 -150 51.5t-58 144.5q0 91 58 143.5t150 52.5t150 -52.5t58 -143.5q0 -93 -58 -144.5t-150 -51.5z" />
    <glyph glyph-name="uni0E4E.alt1" 
 />
    <glyph glyph-name="EK" horiz-adv-x="2630" 
d="M1062 1126v50q293 79 432 132v-540q0 -36 16 -36q9 0 22.5 9.5t19.5 16.5l140 154q234 257 332 324q104 72 216 72q66 0 119 -28t53 -84q0 -39 -33.5 -61.5t-72.5 -22.5q-29 0 -80.5 21t-79.5 21q-66 0 -140 -56q-75 -55 -208 -210l-84 -98l440 -562q75 -98 134 -136
q64 -42 130 -42v-50h-602v50q60 0 96 12q32 9 32 28q0 47 -56 108l-338 422l-56 -60v-560h-238v320q-58 -53 -93.5 -84t-94.5 -78.5t-108.5 -75.5t-112.5 -56.5t-129.5 -42t-137.5 -13.5q-215 0 -347.5 96t-132.5 268q0 118 72 200t188 122q-108 34 -177 107t-69 175
q0 81 41 144t107 99t138.5 54.5t143.5 18.5q54 0 117 -11t129 -33.5t109 -66t43 -99.5q0 -42 -28 -69t-68 -27q-36 0 -62.5 16.5t-41.5 40.5t-34 53t-38 53t-54.5 40.5t-83.5 16.5q-62 0 -104.5 -35.5t-59 -86t-16.5 -110.5q0 -44 10 -85t29.5 -76.5t54.5 -57t80 -21.5
q34 0 95 18t91 18q38 0 62 -22t24 -58q0 -41 -24 -64.5t-62 -23.5q-33 0 -93 25t-93 25q-63 0 -105.5 -41t-58.5 -94.5t-16 -114.5q0 -145 67.5 -216.5t216.5 -71.5q150 0 299 94t327 274v504q0 96 -27.5 138t-110.5 42q-40 0 -56 -2zM2472 1440v-20h-22v-74h-22v74h-26v20
h70zM2524 1346l-18 64h-2l-4 -64h-20l8 94h24l22 -70h2l22 70h24l8 -94h-20l-4 64h-2l-20 -64h-20z" />
    <glyph glyph-name="B513" horiz-adv-x="8086" 
d="M728 388q0 127 -45.5 184.5t-160.5 57.5h-196v-496q114 -8 194 -8q50 0 84.5 10t64.5 37t44.5 80.5t14.5 134.5zM700 982q0 124 -40 174t-156 50q-41 0 -85.5 -2.5t-68.5 -5.5l-24 -2v-428h178q28 0 47.5 2t44.5 8.5t41.5 21t32 37t23 59.5t7.5 86zM896 400
q0 -116 -26 -197.5t-78.5 -128.5t-122 -67.5t-165.5 -20.5q-71 0 -156.5 3.5t-135.5 6.5l-50 4v1330q196 14 318 14q192 0 288 -81.5t96 -266.5q0 -111 -44.5 -186t-107.5 -102q184 -63 184 -308zM2446 142q187 0 342.5 0.5t244.5 1t115 0.5q114 0 156 54.5t42 171.5
q0 72 -7 115.5t-28.5 76.5t-61.5 46.5t-105 13.5h-194v138h176q55 0 94 18t58.5 41.5t30.5 60t13 60t2 54.5q0 106 -51 158t-129 52q-123 0 -272 -32v138q1 0 26.5 5t51.5 9t60 9t68.5 8t61.5 3q77 0 137 -18t108.5 -59t74.5 -114.5t26 -176.5t-35 -177t-109 -97
q90 -13 129 -90t39 -222q0 -209 -88 -299.5t-272 -90.5h-1116v142h250v1050h-932v-392h76q203 0 291.5 -95t88.5 -303q0 -115 -26.5 -197.5t-76 -129.5t-112.5 -68t-145 -21q-90 0 -276 32v140q38 -9 126 -20.5t158 -11.5q85 0 137.5 69t52.5 189q0 155 -53 216.5t-155 61.5
h-246v668h1254v-1188zM4406 672q0 166 -14 274t-44 163t-66 75t-90 20l-204 -8v-1064q122 -6 202 -6q71 0 117 48.5t72.5 171.5t26.5 326zM4576 686q0 -169 -16 -290t-46.5 -200.5t-81.5 -126t-112.5 -65t-147.5 -18.5q-66 0 -153.5 3.5t-142.5 6.5l-54 4v1330
q196 14 328 14q65 0 114 -7t95 -25.5t79 -50t60.5 -81t43.5 -119t25 -162.5t9 -213zM5458 378q0 -115 -29 -194t-84.5 -121t-122.5 -59.5t-158 -17.5q-50 0 -122 8.5t-118 21.5v138q102 -28 258 -28q101 0 154.5 58.5t53.5 175.5q0 129 -43.5 184.5t-130.5 73.5
q-163 34 -236.5 114.5t-73.5 243.5q0 99 30.5 172t85.5 114.5t124 61.5t154 20q47 0 113.5 -9t106.5 -21v-138q-112 28 -238 28q-52 0 -96.5 -19t-77 -67.5t-32.5 -119.5q0 -112 36.5 -157.5t129.5 -64.5q59 -12 103.5 -29t86 -47t68 -72t42.5 -105t16 -145zM5878 0h-190
v190h190v-190zM5864 396h-162v934h162v-934zM6876 700v-682q-178 -32 -318 -32q-91 0 -155 18.5t-115.5 64.5t-82 126t-46 200.5t-15.5 290.5q0 166 20 283.5t55 190t94.5 114t126.5 56t164 14.5q46 0 120 -9t112 -19v-136q-120 24 -266 24q-53 0 -90 -11t-70.5 -44t-53 -91
t-31 -154t-11.5 -232q0 -141 10.5 -240t28.5 -158.5t49.5 -92.5t65 -44t82.5 -11q68 0 168 12v422h-168v140h326zM7924 0h-156l-444 962v-962h-154v1330h156l444 -962v962h154v-1330z" />
    <glyph glyph-name="zero.tnum" horiz-adv-x="988" 
d="M494 1173q-65 0 -103.5 -40t-61 -152.5t-22.5 -310.5q0 -195 21.5 -309t61 -159t104.5 -45t104.5 45t61 159t21.5 309q0 198 -22.5 310.5t-61 152.5t-103.5 40zM494 -13q-231 0 -329 167t-98 525q0 343 98 503.5t329 160.5t329 -160.5t98 -503.5q0 -358 -98 -525
t-329 -167z" />
    <glyph glyph-name="one.tnum" horiz-adv-x="988" 
d="M368 1076l-163 -83q-45 88 -84 114v23q220 85 462 223l39 -16q-7 -60 -8.5 -132.5t-1.5 -389.5v-300q0 -301 2 -375t13 -141q-64 2 -140 2q-71 0 -135 -2q11 70 13.5 148t2.5 368v561z" />
    <glyph glyph-name="two.tnum" horiz-adv-x="988" 
d="M126 0v166q0 52 9.5 100t23 85.5t38.5 76t45.5 64.5t55.5 59.5t56.5 52t60.5 50.5q38 31 56 47t49.5 46t47.5 53.5t34.5 56t26 68t7.5 75.5q0 169 -176 169q-80 0 -134 -33.5t-76 -85.5h-25q-3 12 -6.5 21.5t-6 17.5t-8 18.5t-8.5 16t-12.5 20t-14 21.5t-18.5 27.5
t-22 32.5q61 49 151.5 83.5t195.5 34.5q201 0 305.5 -91.5t104.5 -266.5q0 -36 -5.5 -69.5t-12.5 -61t-23 -57t-27 -49.5t-35.5 -48t-37.5 -42.5t-43 -41.5t-42.5 -38t-45.5 -39q-44 -37 -68.5 -58.5t-60 -59.5t-54.5 -70t-35 -76.5t-20 -92.5q234 0 325.5 4.5t170.5 18.5
q-5 -48 -5 -112t6 -97q-55 4 -180 4h-567z" />
    <glyph glyph-name="three.tnum" horiz-adv-x="988" 
d="M426 -13q-99 0 -197.5 31t-164.5 81q70 144 83 192h35q28 -56 100.5 -89.5t154.5 -33.5q105 0 154.5 54t49.5 174q0 112 -48.5 164t-150.5 52h-40q-86 0 -164 -6v18t0.5 38.5t0.5 33.5q0 17 -1 56v38q118 -8 164 -8h29q91 0 136.5 45t45.5 146t-41.5 148.5t-136.5 47.5
q-75 0 -141 -35.5t-87 -83.5h-35q-12 44 -27.5 72t-68.5 103q55 43 156.5 80.5t194.5 37.5q201 0 316 -87.5t115 -269.5q0 -98 -45.5 -173t-123.5 -111q87 -29 144 -102t57 -192q0 -95 -22.5 -167.5t-62.5 -120t-99 -78t-127.5 -43t-152.5 -12.5z" />
    <glyph glyph-name="four.tnum" horiz-adv-x="988" 
d="M66 302v71q200 701 248 958q99 -3 114 -3q11 0 34.5 0.5t54 2t40.5 1.5l-226 -848h235q0 316 -16 407q93 -3 133 -3q34 0 136 3q-18 -102 -18 -407q46 1 139 8q-6 -35 -6 -99q0 -60 6 -100q-137 9 -139 9q0 -208 19 -303q-66 2 -136 2q-73 0 -135 -2q17 96 17 303h-500z
" />
    <glyph glyph-name="five.tnum" horiz-adv-x="988" 
d="M840 1135q-58 8 -127 10t-308 3v-333h26q228 0 342 -97t114 -301q0 -430 -463 -430q-98 0 -190 30.5t-158 81.5q75 118 93 192h36q29 -58 90 -93t139 -35q93 0 148 59.5t55 183.5q0 119 -56.5 173t-170.5 54h-245v536q0 29 -2.5 69.5t-4.5 65.5l-2 26h684q-4 -38 -4 -90
q0 -59 4 -105z" />
    <glyph glyph-name="six.tnum" horiz-adv-x="988" 
d="M495 702q-71 0 -117.5 -61.5t-46.5 -192.5q0 -149 43 -219t115 -70q165 0 165 290q0 132 -43.5 192.5t-115.5 60.5zM331 831v-34q29 32 80 53.5t110 21.5q175 0 276.5 -107t101.5 -317t-106.5 -335.5t-304.5 -125.5q-181 0 -291 133.5t-110 386.5v308q0 86 19 164
t58 144.5t95 115.5t133.5 76.5t169.5 27.5q108 0 226 -30l14 -168l-15 -15q-72 21 -117 28t-113 7q-103 0 -164.5 -86.5t-61.5 -247.5z" />
    <glyph glyph-name="seven.tnum" horiz-adv-x="988" 
d="M894 1252l-449 -1253q-52 2 -120 2q-59 0 -146 -3l424 1150h-298q-71 0 -173 -14v20t0.5 42.5t0.5 37.5q0 19 -1 60v41q93 -5 173 -5h589v-78z" />
    <glyph glyph-name="eight.tnum" horiz-adv-x="988" 
d="M680 371q0 231 -250 241q-42 -25 -67 -52t-39 -73.5t-14 -115.5q0 -109 49.5 -160.5t134.5 -51.5q86 0 136 52t50 160zM655 980q0 191 -161 191q-77 0 -118.5 -48.5t-41.5 -142.5t56.5 -149t162.5 -58q47 26 74.5 83.5t27.5 123.5zM918 388q0 -195 -107 -298t-317 -103
t-317 103t-107 298q0 189 164 301q-61 45 -99 115.5t-38 158.5q0 123 55 211t143 128.5t199 40.5q172 0 285 -97.5t113 -282.5q0 -162 -137 -259q163 -85 163 -316z" />
    <glyph glyph-name="nine.tnum" horiz-adv-x="988" 
d="M491 628q71 0 117.5 61.5t46.5 192.5q0 149 -43 219t-115 70q-165 0 -165 -290q0 -132 43.5 -192.5t115.5 -60.5zM655 469v64q-29 -32 -80 -53.5t-110 -21.5q-175 0 -276.5 107t-101.5 317t106.5 335.5t304.5 125.5q181 0 291 -133.5t110 -386.5v-308
q0 -241 -122.5 -384.5t-352.5 -143.5q-108 0 -226 30l-14 168l15 15q74 -22 114 -28.5t106 -6.5q108 0 172 73.5t64 230.5z" />
    </font>
</defs>
</svg>
