<?xml version="1.0" standalone="no"?>
<!DOCTYPE svg PUBLIC "-//W3C//DTD SVG 1.1//EN" "http://www.w3.org/Graphics/SVG/1.1/DTD/svg11.dtd" >
<svg xmlns="http://www.w3.org/2000/svg" xmlns:xlink="http://www.w3.org/1999/xlink" version="1.1">
<metadata>
Created by FontForge 20170731 at Tue Apr  7 03:48:36 2015
 By Aleksey,,,
Copyright (c) 2014-2015 by Typek - Ekaluck Peanpanawate &#38; Tippawan Sumnavong. All rights reserved. Exclusive Licensed for Chulalongkorn University.
</metadata>
<defs>
<font id="CHULALONGKORN-Regular" horiz-adv-x="0" >
  <font-face 
    font-family="CHULALONGKORN"
    font-weight="400"
    font-stretch="normal"
    units-per-em="2000"
    panose-1="2 0 5 6 5 0 0 2 0 4"
    ascent="1616"
    descent="-384"
    x-height="946"
    cap-height="1330"
    bbox="-1119 -768 7924 2054"
    underline-thickness="150"
    underline-position="-570"
    unicode-range="U+000D-FB02"
  />
<missing-glyph horiz-adv-x="954" 
d="M124 0v1330h706v-1330h-706zM266 136h422v1058h-422v-1058z" />
    <glyph glyph-name="uni0E5A" unicode="&#xe2f;&#xe2f;" horiz-adv-x="1098" 
d="M487 323v594q-33 -32 -90 -59.5t-124 -27.5q-102 0 -153 51t-51 140q0 57 17 117h171q-28 -41 -28 -105q0 -37 21.5 -60t68.5 -23q116 0 222 188h106v-815q0 -171 2 -222.5t11 -100.5q-92 3 -185 0q9 49 10.5 103.5t1.5 219.5zM756 0q10 48 12 121.5t2 386.5v122
q0 313 -2 386.5t-11 121.5q92 -3 186 0q-9 -48 -11 -121.5t-2 -386.5v-122q0 -313 2 -386.5t12 -121.5q-93 3 -188 0z" />
    <glyph glyph-name="uni0E4F.liga" unicode="&#xe4f;&#x22;" horiz-adv-x="1208" 
d="M605 99q76 0 143 26t120 77t84 134t31 189t-31 189.5t-84 134.5t-120 77t-143 26t-143 -26t-120 -77t-84 -134.5t-31 -189.5t31 -189t84 -134t120 -77t143 -26zM603 322q-72 0 -131 54t-59 149q0 105 57 160t133 55t133 -55t57 -160q0 -95 -59 -149t-131 -54zM605 0
q-75 0 -145.5 19t-135 60t-112.5 101t-76.5 149t-28.5 196q0 133 43 237t115.5 165.5t158.5 92.5t181 31t181 -31t158.5 -92.5t115.5 -165.5t43 -237q0 -107 -28.5 -196t-76.5 -149t-112.5 -101t-135 -60t-145.5 -19z" />
    <glyph glyph-name="uni0E24.liga" unicode="&#xe24;&#xe32;" horiz-adv-x="1767" 
d="M150 470v345q0 47 -17 85.5t-34 53.5l-17 16v8q74 66 198.5 121t250.5 55q197 0 304.5 -92t107.5 -261v-793q0 -171 1.5 -222.5t10.5 -100.5q-92 3 -189 0q9 49 11 103t2 220v793q0 234 -248 234q-165 0 -275 -90v-4q2 -1 6 -4.5t14 -15.5t17.5 -27t14 -41.5t6.5 -57.5
v-557q0 -99 17.5 -129t67.5 -30q16 0 51 7l-14 -74q-58 -17 -112 -17q-178 0 -178 224q0 32 2 112.5t2 138.5zM1616 820v-812q0 -171 2 -222.5t11 -100.5q-92 3 -187 0q9 49 11 103t2 220v815q0 109 -47 159.5t-129 50.5q-65 0 -121.5 -27.5t-86.5 -58.5h-14q-3 31 -42 137
q114 65 251 65q175 0 262.5 -78.5t87.5 -250.5z" />
    <glyph glyph-name="uni0E26.liga" unicode="&#xe26;&#xe32;" horiz-adv-x="1767" 
d="M335 795v-325q0 -58 2 -138.5t2 -112.5q0 -224 -178 -224q-46 0 -104 17l-15 74q35 -7 58 -7q42 0 56.5 24t14.5 114v587q0 29 -8 56t-19.5 44.5t-23.5 30.5t-20 19l-8 6v7q53 64 182.5 125.5t256.5 61.5q197 0 304.5 -92t107.5 -261v-793q0 -171 1.5 -222.5t10.5 -100.5
q-92 3 -189 0q9 49 11 103t2 220v793q0 234 -248 234q-156 0 -264 -90v-4q3 -1 7.5 -4.5t16 -15.5t20.5 -27t16.5 -41.5t7.5 -57.5zM1616 820v-812q0 -171 2 -222.5t11 -100.5q-92 3 -187 0q9 49 11 103t2 220v815q0 109 -47 159.5t-129 50.5q-65 0 -121.5 -27.5
t-86.5 -58.5h-14q-3 31 -42 137q114 65 251 65q175 0 262.5 -78.5t87.5 -250.5z" />
    <glyph glyph-name="fi" unicode="fi" horiz-adv-x="978" 
d="M838 950q-9 -47 -10.5 -98.5t-1.5 -209.5v-334q0 -158 1.5 -209.5t10.5 -98.5q-91 3 -184 0q9 47 10.5 98.5t1.5 209.5v334q0 147 -1 190q-101 2 -315 2v-526q0 -163 1.5 -212t10.5 -96q-91 3 -184 0q9 47 10.5 98.5t1.5 209.5v526q-93 0 -145 -4q1 8 1 57t-1 59
q90 -6 145 -6v85q0 156 85.5 244t244.5 88q94 0 162 -26l-22 -128l-5 -1q-54 41 -131 41q-84 0 -129 -48.5t-45 -144.5v-112q245 0 304 12q93 -3 184 0z" />
    <glyph glyph-name="fl" unicode="fl" horiz-adv-x="1006" 
d="M824 1022v-714q0 -163 1.5 -212t10.5 -96q-91 3 -184 0q9 47 10.5 98.5t1.5 209.5v714q0 137 -1 179q-24 17 -67 29.5t-87 12.5q-76 0 -117.5 -45.5t-41.5 -127.5v-132q74 0 212 6q-3 -73 0 -114q-70 4 -212 4v-526q0 -163 1.5 -212t10.5 -96q-91 3 -184 0
q9 47 10.5 98.5t1.5 209.5v526q-93 0 -145 -4q1 8 1 57t-1 59q90 -6 145 -6v105q0 151 85 231.5t230 80.5q41 0 125 -15t123 -15q16 0 45.5 1.5t37.5 1.5q-9 -47 -10.5 -96t-1.5 -212z" />
    <glyph glyph-name=".notdef" horiz-adv-x="954" 
d="M124 0v1330h706v-1330h-706zM266 136h422v1058h-422v-1058z" />
    <glyph glyph-name=".null" 
 />
    <glyph glyph-name=".null" 
 />
    <glyph glyph-name="nonmarkingreturn" horiz-adv-x="666" 
 />
    <glyph glyph-name="CR" unicode="&#xd;" horiz-adv-x="494" 
 />
    <glyph glyph-name="space" unicode=" " horiz-adv-x="494" 
 />
    <glyph glyph-name="exclam" unicode="!" horiz-adv-x="474" 
d="M333 96q0 -43 -26.5 -69.5t-69.5 -26.5t-69.5 26.5t-26.5 69.5t26.5 69.5t69.5 26.5t69.5 -26.5t26.5 -69.5zM196 380q-41 570 -44 642q-3 97 -4 186t-4 122q92 -3 186 0q-3 -33 -4 -122t-4 -186l-44 -642q-42 1 -82 0z" />
    <glyph glyph-name="quotedbl" unicode="&#x22;" horiz-adv-x="684" 
d="M109 1330q83 -2 170 0q-4 -95 -6 -122q-4 -58 -16.5 -144t-23.5 -143l-11 -57q-28 4 -55 0q-45 214 -53 344q-2 30 -2.5 44.5t-1 32.5t-1.5 45zM404 1330q83 -2 170 0q-4 -95 -6 -122q-4 -58 -16.5 -144t-23.5 -143l-11 -57q-28 4 -55 0q-45 214 -53 344q-2 30 -2.5 44.5
t-1 32.5t-1.5 45z" />
    <glyph glyph-name="numbersign" unicode="#" horiz-adv-x="892" 
d="M64 444h135l40 460h-134l9 102h134l28 324h122l-28 -324h212l28 324h122l-28 -324h132l-9 -102h-132l-40 -460h131l-8 -102h-132l-30 -342h-122l30 342h-212l-30 -342h-122l30 342h-134zM361 904l-40 -460h212l40 460h-212z" />
    <glyph glyph-name="dollar" unicode="$" horiz-adv-x="950" 
d="M731 1067q-19 46 -65 68.5t-129 25.5v-431q49 -14 84 -26.5t74 -32.5t64.5 -45.5t47.5 -61t32.5 -84.5t10.5 -110q0 -158 -89.5 -255.5t-223.5 -120.5q0 -138 9 -205q-18 1 -53 1q-37 0 -55 -1q8 55 9 197q-99 2 -196.5 27.5t-150.5 66.5q32 75 56 164h25
q32 -60 101 -96.5t165 -37.5v477q-63 16 -109 33.5t-89.5 45.5t-70.5 64.5t-43.5 90t-16.5 121.5q0 130 94.5 222t234.5 114q-1 147 -9 204q18 -1 55 -1q35 0 53 1q-9 -66 -9 -198q81 -2 160 -22t116 -48q-40 -87 -57 -147h-25zM286 964q0 -89 36 -135t125 -74v400
q-72 -16 -116.5 -65t-44.5 -126zM680 351q0 162 -143 212v-441q66 22 104.5 80t38.5 149z" />
    <glyph glyph-name="percent" unicode="%" horiz-adv-x="1626" 
d="M552 935q0 293 -130 293t-130 -293t130 -293t130 293zM1140 1330l-437 -1137q-6 -15 -18 -46.5t-18 -47.5t-14 -37.5t-12 -36.5t-5 -25q-111 2 -148 0l437 1137q63 161 67 193q111 -2 148 0zM692 935q0 -196 -69.5 -294.5t-200.5 -98.5t-200.5 98.5t-69.5 294.5
t69.5 294.5t200.5 98.5t200.5 -98.5t69.5 -294.5zM1334 379q0 293 -130 293t-130 -293t130 -293t130 293zM1474 379q0 -196 -69.5 -294.5t-200.5 -98.5t-200.5 98.5t-69.5 294.5t69.5 294.5t200.5 98.5t200.5 -98.5t69.5 -294.5z" />
    <glyph glyph-name="ampersand" unicode="&#x26;" horiz-adv-x="1098" 
d="M939 744v-108q0 -239 -81 -412l160 -218v-6h-202l-55 84q-101 -98 -246 -98q-170 0 -262.5 98.5t-92.5 283.5q0 208 198 343q-67 108 -103 194t-36 172q0 115 77.5 190.5t192.5 75.5q116 0 193 -70.5t77 -185.5q0 -118 -63.5 -207t-176.5 -134l251 -391q19 94 19 225
q0 112 -22 156v8h172zM537 118q98 0 158 68l-292 454q-77 -122 -77 -260q0 -128 49.5 -195t161.5 -67zM381 1084q0 -74 26 -138.5t79 -148.5q115 118 115 291q0 63 -30.5 99t-81.5 36q-49 0 -78.5 -36.5t-29.5 -102.5z" />
    <glyph glyph-name="quotesingle" unicode="'" horiz-adv-x="390" 
d="M109 1330q83 -2 170 0q-4 -95 -6 -122q-4 -58 -16.5 -144t-23.5 -143l-11 -57q-28 4 -55 0q-45 214 -53 344q-2 30 -2.5 44.5t-1 32.5t-1.5 45z" />
    <glyph glyph-name="parenleft" unicode="(" horiz-adv-x="608" 
d="M104 664q0 249 66.5 481t185.5 413h138q-121 -205 -174.5 -409.5t-53.5 -484.5q0 -279 53.5 -483t174.5 -409h-138q-119 181 -185.5 412.5t-66.5 479.5z" />
    <glyph glyph-name="parenright" unicode=")" horiz-adv-x="608" 
d="M504 664q0 -248 -66.5 -479.5t-185.5 -412.5h-138q121 205 174.5 409t53.5 483q0 280 -53.5 484.5t-174.5 409.5h138q119 -181 185.5 -413t66.5 -481z" />
    <glyph glyph-name="asterisk" unicode="*" horiz-adv-x="912" 
d="M424 1070l-26 298q24 -8 60 -8t60 8l-29 -298l247 172q10 -70 60 -104l-272 -128l270 -132q-49 -38 -58 -100l-249 164l31 -292q-36 8 -60 8t-60 -8l26 292l-242 -166q-9 67 -58 102l268 130l-276 130q23 19 40.5 47.5t17.5 56.5z" />
    <glyph glyph-name="plus" unicode="+" horiz-adv-x="1044" 
d="M582 822v-174h159q88 0 143 4q-1 -8 -1 -58t1 -60q-64 4 -143 4h-159v-174q0 -88 4 -143q-8 1 -62.5 1t-65.5 -1q4 64 4 143v174h-159q-88 0 -143 -4q1 8 1 57.5t-1 60.5q64 -4 143 -4h159v174q0 88 -4 143q8 -1 63 -1t65 1q-4 -64 -4 -143z" />
    <glyph glyph-name="comma" unicode="," horiz-adv-x="436" 
d="M83 -288l-47 5q67 88 85 162t18 236q0 37 22 61t62 24q41 0 63.5 -24.5t22.5 -70.5q0 -96 -60.5 -201.5t-165.5 -191.5z" />
    <glyph glyph-name="hyphen" unicode="-" horiz-adv-x="940" 
d="M635 531h-330q-88 0 -143 -4q1 8 1 62.5t-1 65.5q64 -4 143 -4h330q88 0 143 4q-1 -8 -1 -63t1 -65q-64 4 -143 4z" />
    <glyph glyph-name="period" unicode="." horiz-adv-x="436" 
d="M123 95q0 43 26.5 69.5t69.5 26.5t69.5 -26.5t26.5 -69.5t-26.5 -69.5t-69.5 -26.5t-69.5 26.5t-26.5 69.5z" />
    <glyph glyph-name="slash" unicode="/" horiz-adv-x="618" 
d="M608 1538l-399 -1554q-28 -109 -39 -194q-89 4 -160 0l399 1554q28 109 39 194q89 -4 160 0z" />
    <glyph glyph-name="zero" unicode="0" horiz-adv-x="950" 
d="M693 670q0 221 -24 342t-69.5 164t-125.5 43q-79 0 -124 -43t-69 -164t-24 -342q0 -218 23.5 -340.5t69 -170.5t124.5 -48t125 48t70 171t24 340zM855 680q0 -361 -86 -527.5t-295 -166.5q-208 0 -293.5 166.5t-85.5 527.5q0 345 85.5 504.5t293.5 159.5q211 0 296 -159
t85 -505z" />
    <glyph glyph-name="one" unicode="1" horiz-adv-x="750" 
d="M342 1152l-193 -98q-1 2 -9.5 20t-13.5 27t-14 21t-17 18v14q68 28 132.5 59.5t147 75.5t116.5 61l24 -10q-7 -66 -7 -518v-314q0 -313 2 -386.5t11 -121.5q-33 1 -98 1q-62 0 -94 -1q9 50 11 127.5t2 380.5v644z" />
    <glyph glyph-name="two" unicode="2" horiz-adv-x="950" 
d="M136 0v143q0 98 28 179t73.5 137t100 106t109 96t100 94.5t73.5 114.5t28 145q0 111 -48.5 159t-144.5 48q-87 0 -149 -36t-84 -89h-24q-15 59 -54 147q45 37 131.5 68.5t171.5 31.5q190 0 281.5 -85t91.5 -260q0 -86 -28 -160t-73.5 -127.5t-100 -103t-109 -98.5
t-100 -101.5t-74 -124t-29.5 -154.5h2q222 0 330.5 4t161.5 18q-3 -28 -3 -84.5t3 -73.5q-90 6 -135 6h-529z" />
    <glyph glyph-name="three" unicode="3" horiz-adv-x="950" 
d="M387 -14q-92 0 -179 26t-140 68q34 85 53 164h24q30 -60 95.5 -94t157.5 -34q115 0 183 66t68 202q0 131 -54.5 193.5t-173.5 62.5h-47q-83 0 -135 -4q1 8 1 64t-1 66q90 -6 135 -6h29q113 0 165.5 51.5t52.5 175.5q0 235 -219 235q-87 0 -149 -36t-84 -89h-24
q-15 59 -54 147q45 37 131.5 68.5t171.5 31.5q184 0 288.5 -84t104.5 -259q0 -106 -49 -185t-113 -106v-3q34 -12 64 -31.5t61.5 -54.5t50.5 -93t19 -132q0 -114 -32 -195.5t-92 -127.5t-135.5 -66.5t-173.5 -20.5z" />
    <glyph glyph-name="four" unicode="4" horiz-adv-x="950" 
d="M100 316v40q193 719 239 974q81 -2 161 0l-222 -884h310q0 354 -12 424q89 -3 180 0q-12 -64 -12 -424q82 0 134 4q-1 -8 -1 -69t1 -71q-90 6 -134 6q0 -250 13 -316q-91 3 -181 0q12 67 12 316h-488z" />
    <glyph glyph-name="five" unicode="5" horiz-adv-x="950" 
d="M780 1190q-36 7 -105 8.5t-328 1.5v-408h66q86 0 157.5 -20t131.5 -63.5t94 -120.5t34 -182q0 -420 -425 -420q-177 0 -295 94q34 85 53 164h24q32 -65 85.5 -99.5t143.5 -34.5q111 0 177.5 69t66.5 215q0 137 -67.5 202.5t-191.5 65.5h-216v530l-6 138h601
q-5 -58 0 -140z" />
    <glyph glyph-name="six" unicode="6" horiz-adv-x="950" 
d="M476 734q-93 0 -148.5 -66t-55.5 -178v-11q0 -88 10 -153.5t27 -107t43 -67t54.5 -35.5t64.5 -10q102 0 153.5 78.5t51.5 258.5q0 154 -54 222.5t-146 68.5zM272 870v-98q28 34 90.5 58t124.5 24q164 0 260 -107t96 -316q0 -203 -101 -324t-282 -121q-160 0 -256.5 130
t-96.5 363v343q0 256 113 389t334 133q58 0 192 -32l18 -128l-8 -8q-7 2 -28.5 9.5t-30.5 10.5t-29.5 8.5t-36.5 7.5t-40.5 4t-51.5 2q-122 0 -194.5 -91.5t-72.5 -256.5z" />
    <glyph glyph-name="seven" unicode="7" horiz-adv-x="890" 
d="M788 1282l-442 -1282q-87 3 -184 0l425 1200h-350q-66 0 -135 -10q1 8 1 70.5t-1 72.5q56 -3 135 -3h551v-48z" />
    <glyph glyph-name="eight" unicode="8" horiz-adv-x="950" 
d="M700 358q0 148 -77 215t-226 67q-79 -45 -113 -104.5t-34 -177.5q0 -128 60.5 -190t163.5 -62q105 0 165.5 61.5t60.5 190.5zM676 994q0 230 -202 230q-96 0 -148 -58.5t-52 -171.5q0 -114 70 -180t199 -66q66 27 99.5 93.5t33.5 152.5zM860 376q0 -190 -97 -290
t-289 -100q-190 0 -287 100t-97 290q0 201 181 313q-64 37 -109.5 114t-45.5 173q0 178 102 273t256 95q101 0 180.5 -38.5t129.5 -123.5t50 -206q0 -182 -165 -275q87 -28 139 -109t52 -216z" />
    <glyph glyph-name="nine" unicode="9" horiz-adv-x="950" 
d="M479 586q91 0 142.5 75.5t51.5 198.5v31q0 174 -54 253.5t-145 79.5q-101 0 -148 -73.5t-47 -253.5q0 -156 55 -233.5t145 -77.5zM673 450v105q-70 -89 -205 -89q-171 0 -263.5 114t-92.5 329q0 202 96 318.5t267 116.5q168 0 265.5 -122.5t97.5 -360.5v-323
q0 -263 -106 -407.5t-321 -144.5q-58 0 -192 32l-18 128l8 8q7 -2 28.5 -9.5t30.5 -10.5t29.5 -8.5t36.5 -7.5t40.5 -4t51.5 -2q122 0 184.5 85t62.5 253z" />
    <glyph glyph-name="colon" unicode=":" horiz-adv-x="436" 
d="M123 95q0 43 26.5 69.5t69.5 26.5t69.5 -26.5t26.5 -69.5t-26.5 -69.5t-69.5 -26.5t-69.5 26.5t-26.5 69.5zM123 855q0 43 26.5 69.5t69.5 26.5t69.5 -26.5t26.5 -69.5t-26.5 -69.5t-69.5 -26.5t-69.5 26.5t-26.5 69.5z" />
    <glyph glyph-name="semicolon" unicode=";" horiz-adv-x="436" 
d="M123 855q0 43 26.5 69.5t69.5 26.5t69.5 -26.5t26.5 -69.5t-26.5 -69.5t-69.5 -26.5t-69.5 26.5t-26.5 69.5zM83 -288l-47 5q63 83 81 171.5t18 226.5q0 34 25 59.5t63 25.5q33 0 59.5 -20.5t26.5 -54.5q0 -92 -54 -187.5t-172 -225.5z" />
    <glyph glyph-name="less" unicode="&#x3c;" horiz-adv-x="1044" 
d="M336 639l551 -298q-2 -74 0 -146l-726 388q4 46 0 108l726 378q-3 -78 0 -154z" />
    <glyph glyph-name="equal" unicode="=" horiz-adv-x="1044" 
d="M741 354h-436q-88 0 -143 -4q1 8 1 62.5t-1 65.5q64 -4 143 -4h436q88 0 143 4q-1 -8 -1 -63t1 -65q-64 4 -143 4zM741 712h-436q-88 0 -143 -4q1 8 1 63t-1 65q64 -4 143 -4h436q88 0 143 4q-1 -8 -1 -63t1 -65q-64 4 -143 4z" />
    <glyph glyph-name="greater" unicode="&#x3e;" horiz-adv-x="1044" 
d="M161 341l551 298l-551 276q3 76 0 154l726 -378q-4 -62 0 -108l-726 -388q2 72 0 146z" />
    <glyph glyph-name="question" unicode="?" horiz-adv-x="684" 
d="M409 96q0 -43 -26.5 -69.5t-69.5 -26.5t-69.5 26.5t-26.5 69.5t26.5 69.5t69.5 26.5t69.5 -26.5t26.5 -69.5zM382 396q-72 2 -142 0v126q0 56 19 106t47.5 85t62 74.5t62 74.5t47.5 85.5t19 106.5q0 85 -46 126.5t-129 41.5q-171 0 -218 -115h-25q-17 60 -57 147
q46 36 126 63t168 27q342 0 342 -297q0 -63 -21 -120t-53 -96.5t-69 -81.5t-69 -76t-53 -79t-21 -92q0 -32 2.5 -58.5t5.5 -37.5z" />
    <glyph glyph-name="at" unicode="@" horiz-adv-x="1548" 
d="M896 524v392q-35 10 -80 10q-95 0 -144.5 -75.5t-49.5 -216.5q0 -248 132 -248q75 0 108.5 42.5t33.5 95.5zM818 -14q-311 0 -483.5 170t-172.5 500q0 323 165.5 505.5t448.5 182.5q288 0 449 -160.5t161 -441.5q0 -246 -77 -367t-207 -121q-68 0 -112.5 38.5t-57.5 99.5
q-48 -118 -196 -118q-118 0 -192 97t-74 255q0 182 88.5 291t263.5 109q42 0 111 -8.5t111 -19.5v-558q0 -76 62 -76q56 0 90 90.5t34 287.5q0 466 -454 466q-221 0 -338.5 -136t-117.5 -416q0 -145 35.5 -251.5t103 -169.5t156.5 -93t203 -30q143 0 239 32l8 -8l-18 -128
q-32 -8 -107 -15t-122 -7z" />
    <glyph glyph-name="A" unicode="A" horiz-adv-x="1046" 
d="M42 0l443 1340h92l441 -1340q-92 4 -184 0l-99 321h-418l-100 -321q-87 4 -175 0zM698 443l-170 561l-173 -561h343z" />
    <glyph glyph-name="B" unicode="B" horiz-adv-x="1071" 
d="M779 384q0 256 -253 256h-180v-524q92 -8 178 -8q43 0 77 6t68.5 24t57.5 47.5t37.5 80t14.5 118.5zM749 987q0 125 -57 181t-185 56q-44 0 -84.5 -2.5t-58.5 -5.5l-18 -2v-454h161q62 0 103.5 9.5t74.5 34t48.5 69.5t15.5 114zM154 0q9 48 10.5 121.5t1.5 386.5v314
q0 313 -1.5 386.5t-10.5 121.5q227 14 358 14q207 0 310 -80t103 -263q0 -107 -52.5 -185.5t-120.5 -105.5v-3q36 -12 67.5 -31.5t65.5 -54.5t54 -93t20 -132q0 -115 -28 -195.5t-84 -127t-131 -67t-178 -20.5q-76 0 -172 3.5t-154 6.5z" />
    <glyph glyph-name="C" unicode="C" horiz-adv-x="947" 
d="M856 154l9 -8l-19 -128q-144 -32 -230 -32q-162 0 -267 67t-162 223t-57 408q0 660 486 660q67 0 138.5 -15.5t112.5 -41.5q-46 -99 -52 -134h-22q-32 32 -77.5 48.5t-126.5 16.5q-277 0 -277 -546q0 -136 15.5 -237t41.5 -162t65 -98t79.5 -50t91.5 -13q119 0 251 42z
" />
    <glyph glyph-name="D" unicode="D" horiz-adv-x="1100" 
d="M797 672q0 135 -14 232t-38.5 158t-65 97t-86.5 49.5t-109 13.5q-33 0 -67 -2t-51 -4l-18 -2v-1100q48 -6 134 -6q103 0 171 53.5t106 180.5t38 330zM155 0q9 48 10.5 121.5t1.5 386.5v314q0 313 -1.5 386.5t-10.5 121.5q154 14 293 14q84 0 148 -10t127.5 -36t108 -73.5
t79.5 -119t52 -177t17 -242.5q0 -166 -25 -290t-68 -201.5t-108.5 -125t-138 -65.5t-165.5 -18q-72 0 -152 3.5t-124 6.5z" />
    <glyph glyph-name="E" unicode="E" horiz-adv-x="973" 
d="M154 1330h714q-5 -56 0 -134q-57 10 -521 10v-454q383 0 472 14q-6 -83 0 -149q-62 11 -472 11v-504q237 0 356.5 4t175.5 18q-4 -28 -4 -78.5t4 -67.5h-725q9 48 10.5 121.5t1.5 386.5v314q0 313 -1.5 386.5t-10.5 121.5z" />
    <glyph glyph-name="F" unicode="F" horiz-adv-x="943" 
d="M359 0h-205q9 48 10.5 121.5t1.5 386.5v314q0 313 -1.5 386.5t-10.5 121.5h714q-5 -56 0 -134q-57 10 -521 10v-456q383 0 472 14q-6 -83 0 -149q-62 11 -472 11v-118q0 -313 1.5 -386.5t10.5 -121.5z" />
    <glyph glyph-name="G" unicode="G" horiz-adv-x="1054" 
d="M754 126v293q0 167 -16 249q14 -2 98.5 -2.5t97.5 2.5q-3 -176 -3 -271v-373q-12 -2 -60.5 -10.5t-66.5 -11t-56 -7.5t-68 -7t-62 -2q-131 0 -219 32.5t-150.5 112t-90.5 215t-28 340.5q0 333 131.5 495.5t374.5 162.5q78 0 164.5 -16.5t131.5 -42.5q-40 -80 -49 -132
h-25q-71 69 -242 69q-75 0 -129.5 -28t-94.5 -91t-60 -170t-20 -261q0 -141 13.5 -242.5t37 -163.5t62.5 -97.5t81.5 -48t101.5 -12.5q79 0 146 18z" />
    <glyph glyph-name="H" unicode="H" horiz-adv-x="1150" 
d="M806 616h-464v-108q0 -313 2 -386.5t11 -121.5q-102 3 -205 0q9 48 10.5 121.5t1.5 386.5v314q0 313 -1.5 386.5t-10.5 121.5q101 -3 204 0q-9 -48 -10.5 -121.5t-1.5 -386.5v-76h464v76q0 313 -2 386.5t-11 121.5q102 -3 206 0q-9 -48 -11 -121.5t-2 -386.5v-314
q0 -313 2 -386.5t12 -121.5q-104 3 -207 0q9 48 11 121.5t2 386.5v108z" />
    <glyph glyph-name="I" unicode="I" horiz-adv-x="628" 
d="M210 0q10 48 12 121.5t2 386.5v314q0 313 -2 386.5t-11 121.5q102 -3 206 0q-9 -48 -11 -121.5t-2 -386.5v-314q0 -313 2 -386.5t12 -121.5q-103 3 -208 0z" />
    <glyph glyph-name="J" unicode="J" horiz-adv-x="634" 
d="M411 822v-712q0 -71 -2.5 -112t-17.5 -96.5t-44 -97.5q-44 -64 -131.5 -108.5t-181.5 -47.5l-19 93q18 -3 52 -3q37 0 65.5 14.5t45.5 44t28.5 61.5t16.5 79t6.5 84t1.5 89v712q0 313 -2 386.5t-11 121.5q102 -3 206 0q-9 -48 -11 -121.5t-2 -386.5z" />
    <glyph glyph-name="K" unicode="K" horiz-adv-x="1030" 
d="M347 822v-82v-5q1 -11 12 -11q12 0 24 18l381 588q140 -2 187 0l-409 -616l436 -714q-103 3 -196 0l-405 676q-9 16 -20 16q-8 0 -10 -10v-174q0 -313 2 -386.5t11 -121.5q-101 3 -202 0q9 48 11 121.5t2 386.5v314q0 313 -2 386.5t-11 121.5q99 -3 201 0
q-9 -48 -10.5 -121.5t-1.5 -386.5z" />
    <glyph glyph-name="L" unicode="L" horiz-adv-x="846" 
d="M820 0h-667q9 48 10.5 121.5t1.5 386.5v314q0 313 -1.5 386.5t-10.5 121.5q101 -3 205 0q-9 -48 -10.5 -121.5t-1.5 -386.5q0 -104 6 -692q262 0 350 3.5t118 17.5q-3 -11 -3 -76t3 -75z" />
    <glyph glyph-name="M" unicode="M" horiz-adv-x="1264" 
d="M663 423h-62l-270 520v-435q0 -304 2.5 -381.5t12.5 -126.5q-35 1 -99 1q-63 0 -97 -1q10 48 12 121.5t2 386.5v822h130l338 -666l338 666h131v-822q0 -313 2 -386.5t11 -121.5q-34 1 -97 1q-64 0 -99 -1q10 49 12.5 126.5t2.5 381.5v435z" />
    <glyph glyph-name="N" unicode="N" horiz-adv-x="1139" 
d="M164 508v328q0 313 -2 386.5t-12 121.5h154l506 -945v423q0 304 -2.5 381.5t-12.5 126.5q97 -3 194 0q-9 -48 -11 -121.5t-2 -386.5v-834h-110l-537 983v-463q0 -304 2.5 -381.5t12.5 -126.5q-97 3 -194 0q10 48 12 121.5t2 386.5z" />
    <glyph glyph-name="O" unicode="O" horiz-adv-x="1150" 
d="M308 665q0 -131 13 -229.5t35.5 -160.5t57 -100t73.5 -52.5t88 -14.5t88 14.5t73.5 52.5t57 100t35.5 160.5t13 229.5t-13 229.5t-35.5 160.5t-57 100t-73.5 52.5t-88 14.5t-88 -14.5t-73.5 -52.5t-57 -100t-35.5 -160.5t-13 -229.5zM128 665q0 357 113 518t334 161
t334 -161t113 -518q0 -359 -111.5 -519t-335.5 -160t-335.5 160t-111.5 519z" />
    <glyph glyph-name="P" unicode="P" horiz-adv-x="1016" 
d="M754 922q0 160 -55.5 231t-168.5 71q-50 0 -96 -2.5t-66 -5.5l-21 -2v-585h153q125 0 189.5 65.5t64.5 227.5zM347 510q0 -314 1.5 -388t11.5 -122q-103 3 -206 0q9 48 10.5 121.5t1.5 386.5v314q0 313 -1.5 386.5t-10.5 121.5q192 14 362 14q210 0 315 -107t105 -303
q0 -211 -117.5 -317.5t-337.5 -106.5h-134z" />
    <glyph glyph-name="Q" unicode="Q" horiz-adv-x="1145" 
d="M128 665q0 357 113 518t334 161t334 -161t113 -518q0 -523 -252 -641q145 -109 287 -199q-44 -12 -94 -37t-71 -45q-29 28 -53 51t-40 38t-41 36t-38.5 32t-49.5 40t-57 47q-6 0 -18.5 -0.5t-19.5 -0.5q-224 0 -335.5 160t-111.5 519zM308 665q0 -131 13 -229.5
t35.5 -160.5t57 -100t73.5 -52.5t88 -14.5t88 14.5t73.5 52.5t57 100t35.5 160.5t13 229.5t-13 229.5t-35.5 160.5t-57 100t-73.5 52.5t-88 14.5t-88 -14.5t-73.5 -52.5t-57 -100t-35.5 -160.5t-13 -229.5z" />
    <glyph glyph-name="R" unicode="R" horiz-adv-x="1058" 
d="M347 864v-184h156q107 0 178 63t71 203q0 146 -60 212t-164 66q-65 0 -114.5 -3.5t-59.5 -3.5q-7 -184 -7 -353zM170 508v356q0 187 -11 466q27 0 134.5 7t220.5 7q215 0 316.5 -102t101.5 -282q0 -137 -68.5 -235.5t-179.5 -138.5l303 -586q-110 6 -199 0l-280 558h-162
v-50q0 -313 2 -386.5t11 -121.5q-101 3 -202 0q9 48 11 121.5t2 386.5z" />
    <glyph glyph-name="S" unicode="S" horiz-adv-x="914" 
d="M419 110q103 0 161 64t58 178q0 113 -40.5 169t-143.5 85q-78 22 -134 48t-108.5 69t-80 109t-27.5 153q0 172 111 265.5t301 93.5q83 0 163 -20t119 -50q-40 -87 -57 -147h-25q-21 51 -73 73t-149 22q-96 0 -151 -54t-55 -154q0 -121 42.5 -169t167.5 -83q32 -9 52 -15
t50 -17t49.5 -21.5t45 -28t42 -36.5t34 -46t27 -58t16 -71.5t6.5 -87.5q0 -190 -114 -292.5t-306 -102.5t-316 94q32 75 56 164h25q71 -134 254 -134z" />
    <glyph glyph-name="T" unicode="T" horiz-adv-x="856" 
d="M515 1206v-698q0 -313 2 -386.5t12 -121.5q-101 3 -200 0q9 48 10.5 121.5t1.5 386.5v698q-197 0 -321 -11q2 9 2 66t-3 69h818q-3 -13 -3.5 -67t2.5 -68q-148 11 -321 11z" />
    <glyph glyph-name="U" unicode="U" horiz-adv-x="1136" 
d="M345 822v-481q0 -110 57.5 -171.5t167.5 -61.5q113 0 172.5 62t59.5 171v481q0 304 -2.5 381.5t-12.5 126.5q100 -3 199 0q-9 -48 -11 -121.5t-2 -386.5v-445q0 -187 -109.5 -289t-293.5 -102t-294.5 102t-110.5 289v445q0 304 -2.5 381.5t-12.5 126.5q104 -3 209 0
q-10 -48 -12 -121.5t-2 -386.5z" />
    <glyph glyph-name="V" unicode="V" horiz-adv-x="992" 
d="M396 0q-315 1238 -351 1330q102 -3 202 0q6 -41 261 -1082q60 252 110 460t74.5 307.5t42.5 172.5t24 99t8 43q87 -3 175 0q-8 -18 -33.5 -116.5t-116 -435t-214.5 -778.5q-92 6 -182 0z" />
    <glyph glyph-name="W" unicode="W" horiz-adv-x="1297" 
d="M1023 0q-91 6 -180 0q-36 123 -98 356.5t-102 369.5q-114 -439 -195 -726q-91 6 -180 0q-93 767 -186 1330q99 -3 197 0q17 -167 56.5 -493.5t59.5 -543.5q8 28 38 132.5t43.5 154t37.5 136.5t42.5 162t34.5 149q60 -5 113 0q25 -106 53 -203t74.5 -248t82.5 -276
q105 856 124 1030q92 -3 183 0q-27 -184 -97 -644t-101 -686z" />
    <glyph glyph-name="X" unicode="X" horiz-adv-x="1039" 
d="M267 0q-92 3 -195 0l366 691l-338 639q48 -2 196 0l231 -465l238 465q140 -2 186 0l-337 -635l364 -695q-103 3 -195 0l-259 524z" />
    <glyph glyph-name="Y" unicode="Y" horiz-adv-x="1028" 
d="M607 584v-76q0 -313 2 -386.5t12 -121.5q-103 3 -207 0q9 48 11 121.5t2 386.5v63q-307 608 -387 759q50 -2 199 0q45 -94 137 -290t144 -305q94 189 286 595q14 -3 93 -3t94 3q-89 -179 -386 -746z" />
    <glyph glyph-name="Z" unicode="Z" horiz-adv-x="918" 
d="M835 1282l-532 -1164q231 0 344 4t169 18q-3 -29 -3 -79t3 -67q-94 6 -143 6h-595v40l539 1170h-345q-60 0 -143 -6q1 8 1 64t-1 66q64 -4 143 -4h563v-48z" />
    <glyph glyph-name="bracketleft" unicode="[" horiz-adv-x="618" 
d="M314 -108h65q88 0 143 4q-1 -8 -1 -64t1 -66q-96 6 -143 6h-229q9 48 10.5 121.5t1.5 386.5v770q0 313 -1.5 386.5t-10.5 121.5h229q47 0 143 6q-1 -10 -1 -66t1 -64q-55 4 -143 4h-65v-1546z" />
    <glyph glyph-name="backslash" unicode="\" horiz-adv-x="618" 
d="M409 -16l-399 1554q71 -4 160 0q11 -85 39 -194l399 -1554q-71 4 -160 0q-11 85 -39 194z" />
    <glyph glyph-name="bracketright" unicode="]" horiz-adv-x="618" 
d="M304 1438h-65q-88 0 -143 -4q1 8 1 64t-1 66q96 -6 143 -6h229q-9 -48 -10.5 -121.5t-1.5 -386.5v-770q0 -313 1.5 -386.5t10.5 -121.5h-229q-47 0 -143 -6q1 11 1 66.5t-1 63.5q55 -4 143 -4h65v1546z" />
    <glyph glyph-name="asciicircum" unicode="^" horiz-adv-x="926" 
d="M470 1280l-218 -482q-84 3 -166 0l308 646q73 -5 148 0l298 -646q-88 3 -174 0z" />
    <glyph glyph-name="underscore" unicode="_" horiz-adv-x="968" 
d="M821 -320h-672q-88 0 -143 -4q1 8 1 63t-1 65q64 -4 143 -4h672q88 0 143 4q-1 -8 -1 -62.5t1 -65.5q-64 4 -143 4z" />
    <glyph glyph-name="grave" unicode="`" horiz-adv-x="576" 
d="M474 1102h-74q-128 81 -310 256q126 -5 206 0q56 -84 178 -251v-5z" />
    <glyph glyph-name="a" unicode="a" horiz-adv-x="914" 
d="M435 854q-52 0 -93 -9t-70 -27.5t-40 -28t-29 -27.5h-24q0 8 -3 19.5t-7 23t-13 37t-16 48.5q51 28 130 51t146 23q172 0 255.5 -77t83.5 -233v-491q0 -48 16 -61t70 -13q-10 -41 -10 -73q-24 -20 -77 -20q-119 0 -142 109v1q-30 -53 -94 -86.5t-141 -33.5
q-133 0 -209.5 75.5t-76.5 203.5q0 135 91 212.5t272 77.5h138v138q0 75 -39.5 118t-117.5 43zM418 100q79 0 126.5 51.5t47.5 137.5v166h-148q-183 0 -183 -180q0 -88 41.5 -131.5t115.5 -43.5z" />
    <glyph glyph-name="b" unicode="b" horiz-adv-x="948" 
d="M484 844q-75 0 -121.5 -56t-46.5 -120v-551q77 -11 126 -11q123 0 175 99.5t52 311.5q0 185 -43.5 256t-141.5 71zM316 1022v-140q31 35 80.5 58.5t111.5 23.5q168 0 248 -106.5t80 -320.5q0 -299 -94 -425t-318 -126q-48 0 -146.5 13t-121.5 14v1009q0 158 -1.5 209.5
t-10.5 98.5q93 -3 184 0q-9 -47 -10.5 -96t-1.5 -212z" />
    <glyph glyph-name="c" unicode="c" horiz-adv-x="768" 
d="M469 838q-59 0 -97 -33t-60 -119t-22 -230q0 -88 11 -152t28 -100.5t45 -58t55 -28.5t64 -7q85 0 191 42l8 -8l-18 -125q-95 -33 -172 -33q-73 0 -126 10.5t-103.5 42.5t-81.5 87.5t-50 147.5t-19 220q0 470 358 470q61 0 126.5 -14t100.5 -32q-44 -93 -49 -134h-24
q-59 54 -165 54z" />
    <glyph glyph-name="d" unicode="d" horiz-adv-x="958" 
d="M818 1022v-714q0 -163 1.5 -212t10.5 -96q-91 3 -184 0q7 41 10 87q-34 -45 -90 -73t-118 -28q-156 0 -241 124t-85 343q0 249 114 380t306 131q48 0 116 -14v72q0 158 -1.5 209.5t-10.5 98.5q93 -3 184 0q-9 -47 -10.5 -96t-1.5 -212zM658 301v7v522q-47 14 -129 14
q-54 0 -95.5 -19.5t-75 -64.5t-51.5 -127.5t-18 -199.5q0 -171 47 -249t143 -78q86 0 131 58t48 137z" />
    <glyph glyph-name="e" unicode="e" horiz-adv-x="900" 
d="M509 106q111 0 225 48l8 -8l-18 -128q-112 -32 -195 -32q-97 0 -167 22t-126.5 75.5t-85 151t-28.5 239.5q0 258 89 374t268 116q162 0 240.5 -108.5t78.5 -303.5v-125h-513q2 -92 18 -155.5t46 -99.5t68.5 -51t91.5 -15zM475 854q-94 0 -137 -74t-51 -253h351v44
q0 80 -16 142t-54 101.5t-93 39.5z" />
    <glyph glyph-name="f" unicode="f" horiz-adv-x="590" 
d="M350 834v-526q0 -163 1.5 -212t10.5 -96q-91 3 -184 0q9 47 10.5 98.5t1.5 209.5v526q-93 0 -145 -4q1 8 1 57t-1 59q90 -6 145 -6v55q0 170 92 266t230 96q69 0 137 -26l-22 -125l-5 -1q-46 38 -105 38q-167 0 -167 -232v-73q74 0 212 6q-3 -73 0 -114q-70 4 -212 4z
" />
    <glyph glyph-name="g" unicode="g" horiz-adv-x="980" 
d="M459 126q84 0 134 55.5t50 118.5v536q-58 8 -129 8q-81 0 -131 -36.5t-77 -127t-27 -243.5q0 -171 43.5 -241t136.5 -70zM643 50v53q-30 -43 -86.5 -70t-128.5 -27q-316 0 -316 443q0 269 102 392t321 123q70 0 273 -24v-852q0 -220 -95.5 -326t-311.5 -106
q-58 0 -192 32l-18 128l8 8q7 -2 28.5 -9.5t30.5 -10.5t29.5 -8.5t36.5 -7.5t40.5 -4t51.5 -2q227 0 227 268z" />
    <glyph glyph-name="h" unicode="h" horiz-adv-x="962" 
d="M310 1022v-212q27 73 91 113.5t152 40.5q128 0 196.5 -82.5t68.5 -238.5v-335q0 -163 1.5 -212t10.5 -96q-91 3 -184 0q9 47 10.5 98.5t1.5 209.5v353q0 95 -37.5 144t-100.5 49q-84 0 -140.5 -55t-69.5 -151v-340q0 -163 1.5 -212t10.5 -96q-91 3 -184 0q9 47 10.5 98.5
t1.5 209.5v714q0 163 -1.5 212t-10.5 96q91 -3 184 0q-9 -47 -10.5 -98.5t-1.5 -209.5z" />
    <glyph glyph-name="i" unicode="i" horiz-adv-x="464" 
d="M324 950q-9 -47 -10.5 -98.5t-1.5 -209.5v-334q0 -158 1.5 -209.5t10.5 -98.5q-91 3 -184 0q9 47 10.5 98.5t1.5 209.5v334q0 158 -1.5 209.5t-10.5 98.5q93 -3 184 0zM136 1234q0 43 26.5 69.5t69.5 26.5t69.5 -26.5t26.5 -69.5t-26.5 -69.5t-69.5 -26.5t-69.5 26.5
t-26.5 69.5z" />
    <glyph glyph-name="j" unicode="j" horiz-adv-x="466" 
d="M136 1234q0 43 26.5 69.5t69.5 26.5t69.5 -26.5t26.5 -69.5t-26.5 -69.5t-69.5 -26.5t-69.5 26.5t-26.5 69.5zM312 642v-548q0 -70 -2.5 -109t-17.5 -91t-44 -94q-45 -66 -122 -107.5t-170 -44.5l-19 93q18 -3 52 -3q37 0 65.5 13t45.5 40t28 56t16 73.5t6.5 80t1.5 87.5
v554q0 158 -1.5 209.5t-10.5 98.5q93 -3 184 0q-9 -47 -10.5 -96t-1.5 -212z" />
    <glyph glyph-name="k" unicode="k" horiz-adv-x="882" 
d="M312 1022v-490q1 -6 10 -6q8 0 21 18l307 406q82 -5 172 0l-342 -421l358 -529q-133 2 -184 0l-314 476q-9 16 -19 16q-7 0 -9 -7v-177q0 -163 1.5 -212t10.5 -96q-91 3 -184 0q9 47 10.5 98.5t1.5 209.5v714q0 158 -1.5 209.5t-10.5 98.5q93 -3 184 0q-9 -47 -10.5 -96
t-1.5 -212z" />
    <glyph glyph-name="l" unicode="l" horiz-adv-x="426" 
d="M293 1022v-714q0 -163 1.5 -212t10.5 -96q-91 3 -184 0q9 47 10.5 98.5t1.5 209.5v714q0 158 -1.5 209.5t-10.5 98.5q93 -3 184 0q-9 -47 -10.5 -96t-1.5 -212z" />
    <glyph glyph-name="m" unicode="m" horiz-adv-x="1386" 
d="M310 612v-304q0 -163 1.5 -212t10.5 -96q-91 3 -184 0q9 47 10.5 98.5t1.5 209.5v414q0 166 -13 228q91 -3 183 0l-6 -120q24 58 87.5 96t129.5 38q172 0 230 -151q34 64 103 107.5t142 43.5q127 0 192 -82t65 -239v-335q0 -163 1.5 -212t10.5 -96q-91 3 -184 0
q9 47 10.5 98.5t1.5 209.5v353q0 96 -34 144.5t-96 48.5q-78 0 -126 -47t-60 -135q1 -9 1 -29v-335q0 -163 1.5 -212t10.5 -96q-91 3 -184 0q9 47 10.5 98.5t1.5 209.5v353q0 96 -34 144.5t-96 48.5q-83 0 -132 -53t-56 -153v-36z" />
    <glyph glyph-name="n" unicode="n" horiz-adv-x="962" 
d="M310 612v-304q0 -163 1.5 -212t10.5 -96q-91 3 -184 0q9 47 10.5 98.5t1.5 209.5v414q0 166 -13 228q91 -3 183 0l-6 -119q25 63 89.5 98t147.5 35q128 0 197.5 -83t69.5 -238v-335q0 -163 1.5 -212t10.5 -96q-91 3 -184 0q9 47 10.5 98.5t1.5 209.5v353q0 95 -38.5 144
t-101.5 49q-85 0 -143 -54t-65 -152v-36z" />
    <glyph glyph-name="o" unicode="o" horiz-adv-x="936" 
d="M468 96q101 0 150.5 86.5t49.5 283.5q0 215 -46.5 301.5t-153.5 86.5t-153.5 -86.5t-46.5 -301.5q0 -197 49.5 -283.5t150.5 -86.5zM468 -14q-89 0 -154.5 26t-114.5 84.5t-74 157.5t-25 240q0 228 94.5 349t273.5 121t273.5 -121t94.5 -349q0 -141 -25 -240t-74 -157.5
t-114.5 -84.5t-154.5 -26z" />
    <glyph glyph-name="p" unicode="p" horiz-adv-x="948" 
d="M154 -72v714q0 163 -1.5 212t-10.5 96q91 -3 184 0q-9 -50 -10 -88q33 45 89 73.5t119 28.5q164 0 245 -109t81 -358q0 -270 -105.5 -390.5t-317.5 -120.5q-55 0 -113 14v-72q0 -158 1.5 -209.5t10.5 -98.5q-93 3 -184 0q9 47 10.5 96t1.5 212zM314 642v-522
q45 -14 134 -14q58 0 98.5 17t73 61t48 126.5t15.5 206.5q0 127 -22.5 200t-62 100t-105.5 27q-88 0 -133.5 -60.5t-45.5 -141.5z" />
    <glyph glyph-name="q" unicode="q" horiz-adv-x="958" 
d="M476 106q75 0 121.5 56t46.5 120v551q-77 11 -126 11q-123 0 -175 -99.5t-52 -311.5q0 -124 21 -196.5t60 -101.5t104 -29zM644 -72v140q-31 -35 -80.5 -58.5t-111.5 -23.5q-152 0 -240 116.5t-88 320.5q0 282 95.5 411.5t316.5 129.5q48 0 146.5 -13t121.5 -14v-1009
q0 -158 1.5 -209.5t10.5 -98.5q-93 3 -184 0q9 47 10.5 96t1.5 212z" />
    <glyph glyph-name="r" unicode="r" horiz-adv-x="642" 
d="M493 822q-79 0 -129.5 -60t-53.5 -180v-274q0 -163 1.5 -212t10.5 -96q-91 3 -184 0q9 47 10.5 98.5t1.5 209.5v414q0 166 -13 228q91 -3 181 0q-8 -104 -8 -132q43 76 93.5 111t118.5 35q57 0 88 -12q-11 -89 -13 -154l-14 -7q-11 13 -36 22t-54 9z" />
    <glyph glyph-name="s" unicode="s" horiz-adv-x="764" 
d="M366 108q72 0 113 44.5t41 104.5q0 80 -30 116.5t-104 48.5q-144 24 -207 89t-63 172q0 129 84.5 206t231.5 77q34 0 70 -6.5t58 -13.5t57 -19.5t47 -16.5q-15 -27 -32.5 -79.5t-20.5 -77.5h-13q-19 42 -66.5 66.5t-115.5 24.5q-70 0 -106 -38t-36 -109q0 -66 31.5 -98
t100.5 -45q144 -28 208 -91.5t64 -180.5q0 -126 -82.5 -211t-242.5 -85q-143 0 -258 66q13 29 27.5 73.5t17.5 72.5h17q21 -40 76 -65t133 -25z" />
    <glyph glyph-name="t" unicode="t" horiz-adv-x="610" 
d="M172 1144l157 70h10v-276q74 0 212 6q-3 -73 0 -114q-70 4 -211 4v-510q0 -144 25 -189t112 -45q45 0 90 14v-88q-86 -30 -154 -30q-233 0 -233 250v598q-93 0 -145 -4q1 8 1 57t-1 59q90 -6 145 -6q0 156 -8 204z" />
    <glyph glyph-name="u" unicode="u" horiz-adv-x="932" 
d="M300 642v-353q0 -193 122 -193q84 0 143.5 58.5t66.5 157.5v26v304q0 163 -1.5 212t-10.5 96q91 -3 184 0q-9 -47 -10.5 -98.5t-1.5 -209.5v-304q0 -246 9 -338q-89 3 -178 0l6 133q-24 -67 -91 -107t-149 -40q-249 0 -249 321v335q0 163 -1.5 212t-10.5 96q91 -3 184 0
q-9 -47 -10.5 -98.5t-1.5 -209.5z" />
    <glyph glyph-name="v" unicode="v" horiz-adv-x="858" 
d="M340 0q-26 80 -128 421.5t-170 528.5q63 -2 188 0q42 -167 113 -426t95 -348q26 87 46.5 157t35 120t29 102.5t21.5 78t20.5 77t18 68t21 81.5t22.5 90q10 -3 81.5 -3t82.5 3q-155 -459 -300 -950q-23 2 -86 2t-90 -2z" />
    <glyph glyph-name="w" unicode="w" horiz-adv-x="1222" 
d="M782 0q-31 136 -95 374t-84 319q-14 -58 -41 -170t-44 -180t-42 -164t-50 -179q-87 6 -156 0q-146 645 -228 950q63 -2 188 0q59 -366 138 -734q21 93 85 336.5t92 397.5q49 -2 146 0q27 -135 88.5 -368t90.5 -366q13 67 68 321.5t78 412.5q10 -3 81.5 -3t82.5 3
q-45 -189 -126.5 -500.5t-115.5 -449.5q-87 6 -156 0z" />
    <glyph glyph-name="x" unicode="x" horiz-adv-x="882" 
d="M644 0l-200 351l-193 -351q-45 2 -164 0q175 287 285 477l-269 473q90 -5 172 0l185 -318l180 318q82 -5 172 0q-189 -288 -280 -442l296 -508q-133 2 -184 0z" />
    <glyph glyph-name="y" unicode="y" horiz-adv-x="880" 
d="M399 -4q-22 -2 -29 -4q-225 701 -318 958q63 -2 188 0q120 -411 218 -754q97 329 206 754q11 -3 82 -3t82 3q-49 -144 -96.5 -300.5t-106.5 -362t-87 -297.5q-90 -305 -105 -352q-12 3 -82.5 2.5t-81.5 -2.5q14 39 44 115t52 136.5t34 106.5z" />
    <glyph glyph-name="z" unicode="z" horiz-adv-x="766" 
d="M680 892l-401 -782h248q83 0 135 4q-1 -8 -1 -59t1 -61q-90 6 -135 6h-453v40l408 790h-225q-83 0 -135 -4q1 8 1 58.5t-1 61.5q90 -6 135 -6h423v-48z" />
    <glyph glyph-name="braceleft" unicode="{" horiz-adv-x="618" 
d="M66 650v30q84 10 124 55.5t40 142.5v488q0 108 48 155t160 47q39 0 84 -10v-75q-33 11 -61 11q-83 0 -83 -80v-542q0 -182 -178 -208q85 -10 131.5 -61.5t46.5 -144.5v-542q0 -43 21 -61.5t65 -18.5q27 0 58 11v-75q-45 -10 -84 -10q-112 0 -160 47t-48 155v488
q0 97 -40 142.5t-124 55.5z" />
    <glyph glyph-name="bar" unicode="|" horiz-adv-x="550" 
d="M186 -210q10 48 12 121.5t2 386.5v732q0 313 -2 386.5t-11 121.5q88 -3 178 0q-9 -48 -11 -121.5t-2 -386.5v-732q0 -313 2 -386.5t12 -121.5q-89 3 -180 0z" />
    <glyph glyph-name="braceright" unicode="}" horiz-adv-x="618" 
d="M552 680v-30q-84 -10 -124 -55.5t-40 -142.5v-488q0 -108 -48 -155t-160 -47q-39 0 -84 10v75q31 -11 58 -11q44 0 65 18.5t21 61.5v542q0 93 46.5 144.5t131.5 61.5q-178 26 -178 208v542q0 80 -83 80q-28 0 -61 -11v75q45 10 84 10q112 0 160 -47t48 -155v-488
q0 -97 40 -142.5t124 -55.5z" />
    <glyph glyph-name="asciitilde" unicode="~" horiz-adv-x="968" 
d="M162 506v148q103 62 194 62q52 0 139 -37t135 -37q76 0 178 68v-148q-95 -62 -194 -62q-53 0 -138 37t-138 37q-78 0 -176 -68z" />
    <glyph glyph-name="uni00A0" unicode="&#xa0;" horiz-adv-x="470" 
 />
    <glyph glyph-name="exclamdown" unicode="&#xa1;" horiz-adv-x="474" 
d="M141 854q0 43 26.5 69.5t69.5 26.5t69.5 -26.5t26.5 -69.5t-26.5 -69.5t-69.5 -26.5t-69.5 26.5t-26.5 69.5zM278 570q41 -570 44 -642q3 -97 4 -186t4 -122q-92 3 -186 0q3 33 4 122t4 186l44 642q42 -1 82 0z" />
    <glyph glyph-name="cent" unicode="&#xa2;" horiz-adv-x="950" 
d="M595 832v-729q140 5 222 51l8 -8l-18 -117q-28 -13 -92 -25.5t-120 -16.5q0 -132 9 -198q-18 1 -53 1q-37 0 -55 -1q8 55 9 200q-173 17 -274 142.5t-101 362.5q0 193 107 319.5t268 146.5q-1 118 -9 180q18 -1 55 -1q35 0 53 1q-9 -62 -9 -177q149 -7 255 -65
q-4 -9 -10.5 -22.5t-9.5 -19.5l-8 -16t-7 -15t-5 -12t-4.5 -11t-3 -9.5t-2 -9.5t-1.5 -9h-24q-17 17 -71 41t-109 31v-14zM298 466q0 -156 59.5 -248t147.5 -112v726v10q-207 -40 -207 -376z" />
    <glyph glyph-name="sterling" unicode="&#xa3;" horiz-adv-x="950" 
d="M230 964q0 182 102 282.5t254 100.5q71 0 140.5 -20t105.5 -52q-12 -21 -20 -50.5t-10 -48.5l-2 -19l-5 -1q-32 35 -91 63t-114 28q-196 0 -196 -215q0 -99 56 -258q184 0 272 4q-3 -66 0 -104q-77 4 -239 4q45 -130 45 -206q0 -136 -31.5 -221t-104.5 -143v-4h216
q74 0 212 6q-3 -73 0 -114q-70 4 -212 4h-350q-91 0 -143 -4q1 8 1 51t-1 54q21 -1 31 -1q62 0 106 27.5t66.5 75t32 99t9.5 112.5q0 69 -61 264q-120 0 -184 -4q1 8 1 52t-1 54q55 -4 153 -6q-38 128 -38 190z" />
    <glyph glyph-name="currency" unicode="&#xa4;" horiz-adv-x="1082" 
d="M542 230q133 0 215.5 89.5t82.5 250.5t-82.5 250.5t-215.5 89.5t-215.5 -89.5t-82.5 -250.5t82.5 -250.5t215.5 -89.5zM542 124q-158 0 -262 78l-112 -112l-108 106l120 120q-56 103 -56 254q0 149 56 252l-120 122l108 106l112 -112q108 78 262 78t262 -78l112 112
l108 -106l-120 -122q56 -103 56 -252q0 -151 -56 -254l120 -120l-108 -106l-112 112q-104 -78 -262 -78z" />
    <glyph glyph-name="yen" unicode="&#xa5;" horiz-adv-x="950" 
d="M691 526h-124v-18v-148h124q88 0 143 4q-1 -8 -1 -58t1 -60q-64 4 -143 4h-124q1 -188 14 -250q-103 3 -207 0q12 63 13 250h-132q-88 0 -143 -4q1 8 1 58t-1 60q64 -4 143 -4h132v148v18h-132q-88 0 -143 -4q1 8 1 58t-1 60q64 -4 143 -4h102q-289 632 -317 694
q50 -2 199 0q103 -272 241 -595q133 316 246 595q14 -3 93 -3t94 3q-54 -116 -160 -342.5t-163 -351.5h101q88 0 143 4q-1 -8 -1 -57.5t1 -60.5q-64 4 -143 4z" />
    <glyph glyph-name="brokenbar" unicode="&#xa6;" horiz-adv-x="550" 
d="M200 1122v148q0 202 -13 268q88 -3 178 0q-13 -66 -13 -268v-148q0 -202 13 -268q-90 3 -178 0q13 66 13 268zM200 58v148q0 202 -13 268q88 -3 178 0q-13 -66 -13 -268v-148q0 -202 13 -268q-90 3 -178 0q13 66 13 268z" />
    <glyph glyph-name="section" unicode="&#xa7;" horiz-adv-x="900" 
d="M612 662q0 65 -45 103.5t-149 56.5q-37 -12 -66.5 -57.5t-29.5 -96.5q0 -66 42 -104t142 -54q35 17 70.5 61t35.5 91zM441 110q71 0 112 36.5t41 97.5q0 60 -35.5 95t-116.5 48q-284 46 -284 253q0 78 44.5 136t123.5 76q-144 57 -144 222q0 130 89 200t231 70
q83 0 161 -20t117 -50q-40 -87 -57 -147h-25q-21 52 -67 73.5t-141 21.5q-72 0 -111 -34t-39 -98q0 -62 35.5 -97.5t116.5 -48.5q284 -46 284 -254q0 -82 -46 -140t-128 -74q75 -29 112.5 -87t37.5 -135q0 -127 -90 -197.5t-230 -70.5q-188 0 -312 94q32 75 56 164h25
q35 -65 89.5 -99.5t150.5 -34.5z" />
    <glyph glyph-name="dieresis" unicode="&#xa8;" horiz-adv-x="674" 
d="M51 1234q0 43 26.5 69.5t69.5 26.5t69.5 -26.5t26.5 -69.5t-26.5 -69.5t-69.5 -26.5t-69.5 26.5t-26.5 69.5zM431 1234q0 43 26.5 69.5t69.5 26.5t69.5 -26.5t26.5 -69.5t-26.5 -69.5t-69.5 -26.5t-69.5 26.5t-26.5 69.5z" />
    <glyph glyph-name="copyright" unicode="&#xa9;" horiz-adv-x="1520" 
d="M1370 664q0 -322 -151 -500t-449 -178q-302 0 -461 177t-159 501q0 320 159 500t461 180q298 0 449 -179t151 -501zM1258 664q0 585 -488 585q-252 0 -380 -148t-128 -437q0 -285 128.5 -434t379.5 -149q488 0 488 583zM935 412l6 -4l-13 -97q-101 -19 -141 -19
q-145 0 -219 97t-74 287q0 179 78 269.5t225 90.5q91 0 155 -36q-26 -48 -36 -100h-15q-48 41 -113 41q-44 0 -72.5 -11t-50 -40t-31.5 -83t-10 -138q0 -82 12 -139t34.5 -87t48.5 -43t60 -13q24 0 43 1t36.5 4.5t25.5 5.5t26.5 7t24.5 7z" />
    <glyph glyph-name="ordfeminine" unicode="&#xaa;" horiz-adv-x="750" 
d="M365 1252q-54 0 -96.5 -15.5t-56.5 -27t-32 -30.5h-20q0 8 -3 18t-12 36.5t-16 47.5q40 22 103.5 40.5t117.5 18.5q138 0 204.5 -61.5t66.5 -186.5v-353q0 -38 13 -48.5t56 -10.5q-8 -31 -8 -58q-19 -16 -62 -16q-90 0 -109 91v1q-25 -44 -78.5 -72t-123.5 -28
q-99 0 -157 64t-58 149q0 109 71 170.5t215 61.5h111v80q0 60 -31.5 94.5t-94.5 34.5zM348 686q67 0 105 45.5t38 118.5v103h-119q-70 0 -108 -29.5t-38 -104.5q0 -61 32 -97t90 -36z" />
    <glyph glyph-name="guillemotleft" unicode="&#xab;" horiz-adv-x="884" 
d="M436 174h-124l-170 394l170 394h124l-118 -394zM740 174h-124l-170 394l170 394h124l-118 -394z" />
    <glyph glyph-name="logicalnot" unicode="&#xac;" horiz-adv-x="1092" 
d="M841 531h-566q-88 0 -143 -4q1 8 1 62.5t-1 65.5q64 -4 143 -4h542q88 0 143 4v-310q0 -79 5 -143q-8 1 -128 1q4 72 4 143v185z" />
    <glyph glyph-name="uni00AD" unicode="&#xad;" horiz-adv-x="940" 
d="M635 531h-330q-88 0 -143 -4q1 8 1 62.5t-1 65.5q64 -4 143 -4h330q88 0 143 4q-1 -8 -1 -63t1 -65q-64 4 -143 4z" />
    <glyph glyph-name="registered" unicode="&#xae;" horiz-adv-x="1520" 
d="M1370 664q0 -322 -151 -500t-449 -178q-302 0 -461 177t-159 501q0 320 159 500t461 180q298 0 449 -179t151 -501zM1258 664q0 585 -488 585q-252 0 -380 -148t-128 -437q0 -285 128.5 -434t379.5 -149q488 0 488 583zM683 768v-72h85q117 0 117 129q0 123 -112 123
q-9 0 -43 -2t-44 -2q-3 -78 -3 -176zM568 590v178q0 114 -7 263q17 0 76 3.5t127 3.5q126 0 183.5 -59t57.5 -153q0 -71 -41 -129.5t-105 -77.5l179 -316q-84 2 -129 0l-162 302h-64v-15q0 -254 8 -287q-65 2 -131 0q8 33 8 287z" />
    <glyph glyph-name="macron" unicode="&#xaf;" horiz-adv-x="618" 
d="M408 1150h-198q-88 0 -143 -4q1 8 1 63t-1 65q64 -4 143 -4h198q88 0 143 4q-1 -8 -1 -62.5t1 -65.5q-64 4 -143 4z" />
    <glyph glyph-name="degree" unicode="&#xb0;" horiz-adv-x="690" 
d="M514 1048q0 86 -44.5 135t-125.5 49t-125.5 -49t-44.5 -135q0 -87 44.5 -139.5t125.5 -52.5q80 0 125 53t45 139zM632 1046q0 -127 -79 -214.5t-209 -87.5q-131 0 -209.5 87.5t-78.5 214.5t78 210.5t210 83.5q131 0 209.5 -83t78.5 -211z" />
    <glyph glyph-name="plusminus" unicode="&#xb1;" horiz-adv-x="1044" 
d="M582 822v-164h159q88 0 143 4q-1 -8 -1 -57.5t1 -60.5q-64 4 -143 4h-159v-144q0 -88 4 -143q-8 1 -62.5 1t-65.5 -1q4 64 4 143v144h-159q-88 0 -143 -4q1 8 1 57.5t-1 60.5q64 -4 143 -4h159v164q0 88 -4 143q8 -1 63 -1t65 1q-4 -64 -4 -143zM741 4h-438
q-88 0 -143 -4q1 8 1 57.5t-1 60.5q64 -4 143 -4h438q88 0 143 4q-1 -8 -1 -58t1 -60q-64 4 -143 4z" />
    <glyph glyph-name="twosuperior" unicode="&#xb2;" horiz-adv-x="778" 
d="M116 400v100q0 68 21.5 124.5t55.5 96t75.5 74t83 66.5t75.5 66t55.5 80t21.5 101q0 147 -143 147q-68 0 -113.5 -24.5t-63.5 -62.5h-19q-13 43 -43 102q35 27 99.5 48.5t132.5 21.5q144 0 216.5 -63.5t72.5 -177.5q0 -61 -21.5 -112.5t-56 -89t-76 -72l-83 -69t-76 -71
t-56.5 -86.5t-22 -108h2q301 0 365 15q-2 -20 -2 -59t2 -51q-96 4 -108 4h-395z" />
    <glyph glyph-name="threesuperior" unicode="&#xb3;" horiz-adv-x="778" 
d="M337 390q-152 0 -245 65q26 56 43 115h19q50 -89 192 -89q84 0 130 50.5t46 137.5q0 178 -167 178h-38q-66 0 -108 -2q1 5 1 44.5t-1 46.5q80 -5 108 -5h23q165 0 165 167q0 157 -163 157q-68 0 -111.5 -24.5t-61.5 -63.5h-19q-13 43 -43 103q37 27 99.5 48.5t129.5 21.5
q142 0 221.5 -59.5t79.5 -172.5q0 -75 -39.5 -134t-89.5 -78v-2q27 -8 50 -22t47.5 -38t39 -64.5t14.5 -92.5q0 -140 -85 -213.5t-237 -73.5z" />
    <glyph glyph-name="acute" unicode="&#xb4;" horiz-adv-x="576" 
d="M179 1102h-74v5q122 167 178 251q80 -5 206 0q-182 -175 -310 -256z" />
    <glyph glyph-name="mu" unicode="&#xb5;" horiz-adv-x="932" 
d="M300 642v-353q0 -94 45.5 -143.5t116.5 -49.5q78 0 124 56t46 150v340q0 163 -1.5 212t-10.5 96q91 -3 184 0q-9 -47 -10.5 -98.5t-1.5 -209.5v-304q0 -246 9 -338q-89 3 -178 0q1 20 2.5 49t1.5 34q-59 -97 -188 -97q-93 0 -139 51v-109q0 -158 1.5 -209.5t10.5 -98.5
q-93 3 -184 0q9 47 10.5 96t1.5 212v714q0 163 -1.5 212t-10.5 96q91 -3 184 0q-9 -47 -10.5 -98.5t-1.5 -209.5z" />
    <glyph glyph-name="paragraph" unicode="&#xb6;" horiz-adv-x="1100" 
d="M489 650h-34q-179 0 -277 91t-98 263q0 158 91.5 249t278.5 91q76 0 128.5 -3.5t67.5 -6.5l15 -4q-9 -48 -10.5 -121.5t-1.5 -386.5v-314q0 -313 1.5 -386.5t10.5 -121.5q-93 3 -185 0q9 46 11 173t2 477zM802 0q10 48 12 121.5t2 386.5v314q0 313 -2 386.5t-11 121.5
q92 -3 186 0q-9 -48 -11 -121.5t-2 -386.5v-314q0 -313 2 -386.5t12 -121.5q-93 3 -188 0z" />
    <glyph glyph-name="periodcentered" unicode="&#xb7;" horiz-adv-x="436" 
d="M123 589q0 43 26.5 69.5t69.5 26.5t69.5 -26.5t26.5 -69.5t-26.5 -69.5t-69.5 -26.5t-69.5 26.5t-26.5 69.5z" />
    <glyph glyph-name="cedilla" unicode="&#xb8;" horiz-adv-x="574" 
d="M156 -390l-29 27q75 37 116.5 76t41.5 92q0 38 -24 56.5t-74 32.5l54 180h69l-27 -132q59 -8 93 -42t34 -95q0 -75 -73 -131.5t-181 -63.5z" />
    <glyph glyph-name="onesuperior" unicode="&#xb9;" horiz-adv-x="778" 
d="M346 1206l-151 -69q-27 51 -43 60v10q55 20 106 41.5t123.5 54t93.5 41.5l19 -7q-6 -46 -6 -362v-220q0 -219 1.5 -270t9.5 -85h-163q7 34 8.5 85t1.5 270v451z" />
    <glyph glyph-name="ordmasculine" unicode="&#xba;" horiz-adv-x="790" 
d="M395 686q81 0 120 67.5t39 208.5q0 155 -36.5 222.5t-122.5 67.5t-122.5 -67.5t-36.5 -222.5q0 -141 39 -208.5t120 -67.5zM395 598q-146 0 -217.5 87.5t-71.5 298.5q0 175 72.5 265.5t216.5 90.5t216.5 -90.5t72.5 -265.5q0 -211 -71.5 -298.5t-217.5 -87.5z" />
    <glyph glyph-name="guillemotright" unicode="&#xbb;" horiz-adv-x="884" 
d="M572 174h-126l120 394l-120 394h126l168 -394zM268 174h-126l120 394l-120 394h126l168 -394z" />
    <glyph glyph-name="onequarter" unicode="&#xbc;" horiz-adv-x="1702" 
d="M1214 1538l-542 -1534q-53 -148 -59 -194q-77 3 -139 0l542 1534q53 148 59 194q77 -3 139 0zM983 221v28q154 502 191 681q65 -1 129 0l-178 -618h244q0 246 -9 296q73 -1 148 0q-10 -44 -10 -296q66 0 107 2q-1 -5 -1 -48t1 -50q-80 5 -107 5q0 -174 10 -221
q-74 1 -148 0q9 47 9 221h-386zM328 1206l-151 -69q-27 51 -43 60v10q55 20 106 41.5t123.5 54t93.5 41.5l19 -7q-6 -46 -6 -362v-220q0 -219 1.5 -270t9.5 -85h-163q7 34 8.5 85t1.5 270v451z" />
    <glyph glyph-name="onehalf" unicode="&#xbd;" horiz-adv-x="1702" 
d="M1204 1538l-542 -1534q-53 -148 -59 -194q-77 3 -139 0l542 1534q53 148 59 194q77 -3 139 0zM1091 0v100q0 68 21.5 124.5t55.5 96t75.5 74t83 66.5t75.5 66t55.5 80t21.5 101q0 147 -143 147q-68 0 -113.5 -24.5t-63.5 -62.5h-19q-13 43 -43 102q35 27 99.5 48.5
t132.5 21.5q144 0 216.5 -63.5t72.5 -177.5q0 -61 -21.5 -112.5t-56 -89t-76 -72l-83 -69t-76 -71t-56.5 -86.5t-22 -108h2q301 0 365 15q-2 -20 -2 -59t2 -51q-96 4 -108 4h-395zM328 1206l-151 -69q-27 51 -43 60v10q55 20 106 41.5t123.5 54t93.5 41.5l19 -7
q-6 -46 -6 -362v-220q0 -219 1.5 -270t9.5 -85h-163q7 34 8.5 85t1.5 270v451z" />
    <glyph glyph-name="threequarters" unicode="&#xbe;" horiz-adv-x="1702" 
d="M983 221v28q154 502 191 681q65 -1 129 0l-178 -618h244q0 246 -9 296q73 -1 148 0q-10 -44 -10 -296q66 0 107 2q-1 -5 -1 -48t1 -50q-80 5 -107 5q0 -174 10 -221q-74 1 -148 0q9 47 9 221h-386zM307 390q-152 0 -245 65q26 56 43 115h19q50 -89 192 -89q84 0 130 50.5
t46 137.5q0 178 -167 178h-38q-66 0 -108 -2q1 5 1 44.5t-1 46.5q80 -5 108 -5h23q165 0 165 167q0 157 -163 157q-68 0 -111.5 -24.5t-61.5 -63.5h-19q-13 43 -43 103q37 27 99.5 48.5t129.5 21.5q142 0 221.5 -59.5t79.5 -172.5q0 -75 -39.5 -134t-89.5 -78v-2
q27 -8 50 -22t47.5 -38t39 -64.5t14.5 -92.5q0 -140 -85 -213.5t-237 -73.5zM1214 1538l-542 -1534q-53 -148 -59 -194q-77 3 -139 0l542 1534q53 148 59 194q77 -3 139 0z" />
    <glyph glyph-name="questiondown" unicode="&#xbf;" horiz-adv-x="684" 
d="M295 854q0 43 26.5 69.5t69.5 26.5t69.5 -26.5t26.5 -69.5t-26.5 -69.5t-69.5 -26.5t-69.5 26.5t-26.5 69.5zM322 554q72 -2 142 0v-126q0 -56 -19 -106t-47.5 -85t-62 -74.5t-62 -74.5t-47.5 -85.5t-19 -106.5q0 -85 46 -126.5t129 -41.5q171 0 218 115h25
q17 -60 57 -147q-46 -36 -126 -63t-168 -27q-342 0 -342 297q0 63 21 120t53 96.5t69 81.5t69 76t53 79t21 92q0 32 -2.5 58.5t-5.5 37.5z" />
    <glyph glyph-name="Agrave" unicode="&#xc0;" horiz-adv-x="1046" 
d="M631 1380h-104q-47 30 -146 104.5t-154 113.5q126 -5 206 0q39 -41 105 -113.5t93 -99.5v-5zM42 0l443 1340h92l441 -1340q-92 4 -184 0l-99 321h-418l-100 -321q-87 4 -175 0zM698 443l-170 561l-173 -561h343z" />
    <glyph glyph-name="Aacute" unicode="&#xc1;" horiz-adv-x="1046" 
d="M528 1380h-104v5q27 27 93 99.5t105 113.5q80 -5 206 0q-55 -39 -154 -113.5t-146 -104.5zM42 0l443 1340h92l441 -1340q-92 4 -184 0l-99 321h-418l-100 -321q-87 4 -175 0zM698 443l-170 561l-173 -561h343z" />
    <glyph glyph-name="Acircumflex" unicode="&#xc2;" horiz-adv-x="1046" 
d="M727 1386l-200 106l-198 -106h-84l216 220h134l216 -220h-84zM42 0l443 1340h92l441 -1340q-92 4 -184 0l-99 321h-418l-100 -321q-87 4 -175 0zM698 443l-170 561l-173 -561h343z" />
    <glyph glyph-name="Atilde" unicode="&#xc3;" horiz-adv-x="1046" 
d="M42 0l443 1340h92l441 -1340q-92 4 -184 0l-99 321h-418l-100 -321q-87 4 -175 0zM698 443l-170 561l-173 -561h343zM308 1398l-64 12q7 40 17 69t29.5 57.5t52.5 43t79 14.5q49 0 94 -23t83 -46t71 -23q27 0 47.5 23t27.5 67l67 -12q-8 -85 -49.5 -138.5t-118.5 -53.5
q-49 0 -94.5 23t-85 46t-74.5 23q-32 0 -50 -21.5t-32 -60.5z" />
    <glyph glyph-name="Adieresis" unicode="&#xc4;" horiz-adv-x="1046" 
d="M42 0l443 1340h92l441 -1340q-92 4 -184 0l-99 321h-418l-100 -321q-87 4 -175 0zM698 443l-170 561l-173 -561h343zM242 1492q0 43 26.5 69.5t69.5 26.5t69.5 -26.5t26.5 -69.5t-26.5 -69.5t-69.5 -26.5t-69.5 26.5t-26.5 69.5zM622 1492q0 43 26.5 69.5t69.5 26.5
t69.5 -26.5t26.5 -69.5t-26.5 -69.5t-69.5 -26.5t-69.5 26.5t-26.5 69.5z" />
    <glyph glyph-name="Aring" unicode="&#xc5;" horiz-adv-x="1046" 
d="M709 1432q0 -60 -29.5 -101.5t-79.5 -60.5l418 -1270q-92 4 -184 0l-99 321h-418l-100 -321q-87 4 -175 0l419 1268q-52 17 -83 59.5t-31 104.5q0 81 50.5 127.5t129.5 46.5q81 0 131.5 -45.5t50.5 -128.5zM698 443l-170 561l-173 -561h343zM601 1434q0 92 -74 92
q-39 0 -56.5 -27t-17.5 -65q0 -36 17 -64.5t53 -29.5h8q70 2 70 94z" />
    <glyph glyph-name="AE" unicode="&#xc6;" horiz-adv-x="1422" 
d="M723 0q6 46 2 102t-25 234h-375l-110 -336q-87 4 -175 0l464 1330h766q-5 -56 0 -134q-46 8 -509 10l55 -454q373 3 444 16q-6 -86 0 -153q-64 11 -430 13l60 -504q330 0 417 22q-4 -29 -4 -79t4 -67h-584zM685 461l-73 741l-246 -741h319z" />
    <glyph glyph-name="Ccedilla" unicode="&#xc7;" horiz-adv-x="947" 
d="M500 -390l-29 27q75 37 116.5 76t41.5 92q0 38 -24 56.5t-74 32.5l28 94q-216 17 -322.5 181t-106.5 515q0 660 486 660q67 0 138.5 -15.5t112.5 -41.5q-46 -99 -52 -134h-22q-32 32 -77.5 48.5t-126.5 16.5q-277 0 -277 -546q0 -136 15.5 -237t41.5 -162t65 -98
t79.5 -50t91.5 -13q119 0 251 42l9 -8l-19 -128q-124 -27 -210 -31l-9 -45q59 -8 93 -42t34 -95q0 -75 -73 -131.5t-181 -63.5z" />
    <glyph glyph-name="Egrave" unicode="&#xc8;" horiz-adv-x="973" 
d="M622 1380h-104q-47 30 -146 104.5t-154 113.5q126 -5 206 0q39 -41 105 -113.5t93 -99.5v-5zM154 1330h714q-5 -56 0 -134q-57 10 -521 10v-454q383 0 472 14q-6 -83 0 -149q-62 11 -472 11v-504q237 0 356.5 4t175.5 18q-4 -28 -4 -78.5t4 -67.5h-725q9 48 10.5 121.5
t1.5 386.5v314q0 313 -1.5 386.5t-10.5 121.5z" />
    <glyph glyph-name="Eacute" unicode="&#xc9;" horiz-adv-x="973" 
d="M488 1380h-104v5q27 27 93 99.5t105 113.5q80 -5 206 0q-55 -39 -154 -113.5t-146 -104.5zM154 1330h714q-5 -56 0 -134q-57 10 -521 10v-454q383 0 472 14q-6 -83 0 -149q-62 11 -472 11v-504q237 0 356.5 4t175.5 18q-4 -28 -4 -78.5t4 -67.5h-725q9 48 10.5 121.5
t1.5 386.5v314q0 313 -1.5 386.5t-10.5 121.5z" />
    <glyph glyph-name="Ecircumflex" unicode="&#xca;" horiz-adv-x="973" 
d="M707 1386l-200 106l-198 -106h-84l216 220h134l216 -220h-84zM154 1330h714q-5 -56 0 -134q-57 10 -521 10v-454q383 0 472 14q-6 -83 0 -149q-62 11 -472 11v-504q237 0 356.5 4t175.5 18q-4 -28 -4 -78.5t4 -67.5h-725q9 48 10.5 121.5t1.5 386.5v314q0 313 -1.5 386.5
t-10.5 121.5z" />
    <glyph glyph-name="Edieresis" unicode="&#xcb;" horiz-adv-x="973" 
d="M154 1330h714q-5 -56 0 -134q-57 10 -521 10v-454q383 0 472 14q-6 -83 0 -149q-62 11 -472 11v-504q237 0 356.5 4t175.5 18q-4 -28 -4 -78.5t4 -67.5h-725q9 48 10.5 121.5t1.5 386.5v314q0 313 -1.5 386.5t-10.5 121.5zM232 1492q0 43 26.5 69.5t69.5 26.5t69.5 -26.5
t26.5 -69.5t-26.5 -69.5t-69.5 -26.5t-69.5 26.5t-26.5 69.5zM612 1492q0 43 26.5 69.5t69.5 26.5t69.5 -26.5t26.5 -69.5t-26.5 -69.5t-69.5 -26.5t-69.5 26.5t-26.5 69.5z" />
    <glyph glyph-name="Igrave" unicode="&#xcc;" horiz-adv-x="628" 
d="M418 1380h-104q-47 30 -146 104.5t-154 113.5q126 -5 206 0q39 -41 105 -113.5t93 -99.5v-5zM210 0q10 48 12 121.5t2 386.5v314q0 313 -2 386.5t-11 121.5q102 -3 206 0q-9 -48 -11 -121.5t-2 -386.5v-314q0 -313 2 -386.5t12 -121.5q-103 3 -208 0z" />
    <glyph glyph-name="Iacute" unicode="&#xcd;" horiz-adv-x="628" 
d="M315 1380h-104v5q27 27 93 99.5t105 113.5q80 -5 206 0q-55 -39 -154 -113.5t-146 -104.5zM210 0q10 48 12 121.5t2 386.5v314q0 313 -2 386.5t-11 121.5q102 -3 206 0q-9 -48 -11 -121.5t-2 -386.5v-314q0 -313 2 -386.5t12 -121.5q-103 3 -208 0z" />
    <glyph glyph-name="Icircumflex" unicode="&#xce;" horiz-adv-x="628" 
d="M512 1386l-200 106l-198 -106h-84l216 220h134l216 -220h-84zM210 0q10 48 12 121.5t2 386.5v314q0 313 -2 386.5t-11 121.5q102 -3 206 0q-9 -48 -11 -121.5t-2 -386.5v-314q0 -313 2 -386.5t12 -121.5q-103 3 -208 0z" />
    <glyph glyph-name="Idieresis" unicode="&#xcf;" horiz-adv-x="628" 
d="M210 0q10 48 12 121.5t2 386.5v314q0 313 -2 386.5t-11 121.5q102 -3 206 0q-9 -48 -11 -121.5t-2 -386.5v-314q0 -313 2 -386.5t12 -121.5q-103 3 -208 0zM29 1492q0 43 26.5 69.5t69.5 26.5t69.5 -26.5t26.5 -69.5t-26.5 -69.5t-69.5 -26.5t-69.5 26.5t-26.5 69.5z
M409 1492q0 43 26.5 69.5t69.5 26.5t69.5 -26.5t26.5 -69.5t-26.5 -69.5t-69.5 -26.5t-69.5 26.5t-26.5 69.5z" />
    <glyph glyph-name="Eth" unicode="&#xd0;" horiz-adv-x="1056" 
d="M155 0q9 48 10.5 121.5t1.5 386.5v114q-59 0 -119 -4q1 8 1 62.5t-1 65.5q67 -4 119 -4v80q0 313 -1.5 386.5t-10.5 121.5q154 14 293 14q84 0 148 -10t127.5 -36t108 -73.5t79.5 -119t52 -177t17 -242.5q0 -166 -25 -290t-68 -201.5t-108.5 -125t-138 -65.5t-165.5 -18
q-72 0 -152 3.5t-124 6.5zM797 672q0 135 -14 232t-38.5 158t-65 97t-86.5 49.5t-109 13.5q-33 0 -67 -2t-51 -4l-18 -2v-472h69q88 0 143 4q-1 -8 -1 -63t1 -65q-64 4 -143 4h-69v-508q48 -6 134 -6q103 0 171 53.5t106 180.5t38 330z" />
    <glyph glyph-name="Ntilde" unicode="&#xd1;" horiz-adv-x="1139" 
d="M164 508v328q0 313 -2 386.5t-12 121.5h154l506 -945v423q0 304 -2.5 381.5t-12.5 126.5q97 -3 194 0q-9 -48 -11 -121.5t-2 -386.5v-834h-110l-537 983v-463q0 -304 2.5 -381.5t12.5 -126.5q-97 3 -194 0q10 48 12 121.5t2 386.5zM342 1398l-64 12q7 40 17 69t29.5 57.5
t52.5 43t79 14.5q49 0 94 -23t83 -46t71 -23q27 0 47.5 23t27.5 67l67 -12q-8 -85 -49.5 -138.5t-118.5 -53.5q-49 0 -94.5 23t-85 46t-74.5 23q-32 0 -50 -21.5t-32 -60.5z" />
    <glyph glyph-name="Ograve" unicode="&#xd2;" horiz-adv-x="1150" 
d="M674 1380h-104q-47 30 -146 104.5t-154 113.5q126 -5 206 0q39 -41 105 -113.5t93 -99.5v-5zM308 665q0 -131 13 -229.5t35.5 -160.5t57 -100t73.5 -52.5t88 -14.5t88 14.5t73.5 52.5t57 100t35.5 160.5t13 229.5t-13 229.5t-35.5 160.5t-57 100t-73.5 52.5t-88 14.5
t-88 -14.5t-73.5 -52.5t-57 -100t-35.5 -160.5t-13 -229.5zM128 665q0 357 113 518t334 161t334 -161t113 -518q0 -359 -111.5 -519t-335.5 -160t-335.5 160t-111.5 519z" />
    <glyph glyph-name="Oacute" unicode="&#xd3;" horiz-adv-x="1150" 
d="M574 1380h-104v5q27 27 93 99.5t105 113.5q80 -5 206 0q-55 -39 -154 -113.5t-146 -104.5zM308 665q0 -131 13 -229.5t35.5 -160.5t57 -100t73.5 -52.5t88 -14.5t88 14.5t73.5 52.5t57 100t35.5 160.5t13 229.5t-13 229.5t-35.5 160.5t-57 100t-73.5 52.5t-88 14.5
t-88 -14.5t-73.5 -52.5t-57 -100t-35.5 -160.5t-13 -229.5zM128 665q0 357 113 518t334 161t334 -161t113 -518q0 -359 -111.5 -519t-335.5 -160t-335.5 160t-111.5 519z" />
    <glyph glyph-name="Ocircumflex" unicode="&#xd4;" horiz-adv-x="1150" 
d="M774 1386l-200 106l-198 -106h-84l216 220h134l216 -220h-84zM308 665q0 -131 13 -229.5t35.5 -160.5t57 -100t73.5 -52.5t88 -14.5t88 14.5t73.5 52.5t57 100t35.5 160.5t13 229.5t-13 229.5t-35.5 160.5t-57 100t-73.5 52.5t-88 14.5t-88 -14.5t-73.5 -52.5t-57 -100
t-35.5 -160.5t-13 -229.5zM128 665q0 357 113 518t334 161t334 -161t113 -518q0 -359 -111.5 -519t-335.5 -160t-335.5 160t-111.5 519z" />
    <glyph glyph-name="Otilde" unicode="&#xd5;" horiz-adv-x="1150" 
d="M308 665q0 -131 13 -229.5t35.5 -160.5t57 -100t73.5 -52.5t88 -14.5t88 14.5t73.5 52.5t57 100t35.5 160.5t13 229.5t-13 229.5t-35.5 160.5t-57 100t-73.5 52.5t-88 14.5t-88 -14.5t-73.5 -52.5t-57 -100t-35.5 -160.5t-13 -229.5zM128 665q0 357 113 518t334 161
t334 -161t113 -518q0 -359 -111.5 -519t-335.5 -160t-335.5 160t-111.5 519zM355 1398l-64 12q7 40 17 69t29.5 57.5t52.5 43t79 14.5q49 0 94 -23t83 -46t71 -23q27 0 47.5 23t27.5 67l67 -12q-8 -85 -49.5 -138.5t-118.5 -53.5q-49 0 -94.5 23t-85 46t-74.5 23
q-32 0 -50 -21.5t-32 -60.5z" />
    <glyph glyph-name="Odieresis" unicode="&#xd6;" horiz-adv-x="1150" 
d="M308 665q0 -131 13 -229.5t35.5 -160.5t57 -100t73.5 -52.5t88 -14.5t88 14.5t73.5 52.5t57 100t35.5 160.5t13 229.5t-13 229.5t-35.5 160.5t-57 100t-73.5 52.5t-88 14.5t-88 -14.5t-73.5 -52.5t-57 -100t-35.5 -160.5t-13 -229.5zM128 665q0 357 113 518t334 161
t334 -161t113 -518q0 -359 -111.5 -519t-335.5 -160t-335.5 160t-111.5 519zM288 1492q0 43 26.5 69.5t69.5 26.5t69.5 -26.5t26.5 -69.5t-26.5 -69.5t-69.5 -26.5t-69.5 26.5t-26.5 69.5zM668 1492q0 43 26.5 69.5t69.5 26.5t69.5 -26.5t26.5 -69.5t-26.5 -69.5
t-69.5 -26.5t-69.5 26.5t-26.5 69.5z" />
    <glyph glyph-name="multiply" unicode="&#xd7;" horiz-adv-x="1044" 
d="M445 588l-140 140q-62 62 -104 98q6 5 40.5 39.5t43.5 44.5q56 -64 98 -104l140 -140l140 140q62 62 98 104q5 -6 39.5 -40.5t44.5 -43.5q-64 -56 -104 -98l-140 -140l140 -140q62 -62 104 -98q-6 -5 -40.5 -39.5t-43.5 -44.5q-56 64 -98 104l-140 140l-140 -140
q-62 -62 -98 -104q-5 6 -39.5 40.5t-44.5 43.5q64 56 104 98z" />
    <glyph glyph-name="Oslash" unicode="&#xd8;" horiz-adv-x="1150" 
d="M128 665q0 357 113 518t334 161q85 0 156 -24l9 24q7 20 19 51.5t17.5 47.5t11 33.5t6.5 25.5q81 -3 145 0l-91 -250q174 -155 174 -587q0 -359 -111.5 -519t-335.5 -160q-101 0 -178 31q-52 -148 -57 -187q-77 3 -139 0l90 254q-163 155 -163 581zM842 665
q0 277 -58 412l-340 -931q52 -38 131 -38q49 0 88 14.5t73.5 52.5t57 100t35.5 160.5t13 229.5zM308 665q0 -260 50 -393l329 923q-48 27 -112 27q-49 0 -88 -14.5t-73.5 -52.5t-57 -100t-35.5 -160.5t-13 -229.5z" />
    <glyph glyph-name="Ugrave" unicode="&#xd9;" horiz-adv-x="1136" 
d="M661 1380h-104q-47 30 -146 104.5t-154 113.5q126 -5 206 0q39 -41 105 -113.5t93 -99.5v-5zM345 822v-481q0 -110 57.5 -171.5t167.5 -61.5q113 0 172.5 62t59.5 171v481q0 304 -2.5 381.5t-12.5 126.5q100 -3 199 0q-9 -48 -11 -121.5t-2 -386.5v-445
q0 -187 -109.5 -289t-293.5 -102t-294.5 102t-110.5 289v445q0 304 -2.5 381.5t-12.5 126.5q104 -3 209 0q-10 -48 -12 -121.5t-2 -386.5z" />
    <glyph glyph-name="Uacute" unicode="&#xda;" horiz-adv-x="1136" 
d="M559 1380h-104v5q27 27 93 99.5t105 113.5q80 -5 206 0q-55 -39 -154 -113.5t-146 -104.5zM345 822v-481q0 -110 57.5 -171.5t167.5 -61.5q113 0 172.5 62t59.5 171v481q0 304 -2.5 381.5t-12.5 126.5q100 -3 199 0q-9 -48 -11 -121.5t-2 -386.5v-445q0 -187 -109.5 -289
t-293.5 -102t-294.5 102t-110.5 289v445q0 304 -2.5 381.5t-12.5 126.5q104 -3 209 0q-10 -48 -12 -121.5t-2 -386.5z" />
    <glyph glyph-name="Ucircumflex" unicode="&#xdb;" horiz-adv-x="1136" 
d="M763 1386l-200 106l-198 -106h-84l216 220h134l216 -220h-84zM345 822v-481q0 -110 57.5 -171.5t167.5 -61.5q113 0 172.5 62t59.5 171v481q0 304 -2.5 381.5t-12.5 126.5q100 -3 199 0q-9 -48 -11 -121.5t-2 -386.5v-445q0 -187 -109.5 -289t-293.5 -102t-294.5 102
t-110.5 289v445q0 304 -2.5 381.5t-12.5 126.5q104 -3 209 0q-10 -48 -12 -121.5t-2 -386.5z" />
    <glyph glyph-name="Udieresis" unicode="&#xdc;" horiz-adv-x="1136" 
d="M345 822v-481q0 -110 57.5 -171.5t167.5 -61.5q113 0 172.5 62t59.5 171v481q0 304 -2.5 381.5t-12.5 126.5q100 -3 199 0q-9 -48 -11 -121.5t-2 -386.5v-445q0 -187 -109.5 -289t-293.5 -102t-294.5 102t-110.5 289v445q0 304 -2.5 381.5t-12.5 126.5q104 -3 209 0
q-10 -48 -12 -121.5t-2 -386.5zM282 1492q0 43 26.5 69.5t69.5 26.5t69.5 -26.5t26.5 -69.5t-26.5 -69.5t-69.5 -26.5t-69.5 26.5t-26.5 69.5zM662 1492q0 43 26.5 69.5t69.5 26.5t69.5 -26.5t26.5 -69.5t-26.5 -69.5t-69.5 -26.5t-69.5 26.5t-26.5 69.5z" />
    <glyph glyph-name="Yacute" unicode="&#xdd;" horiz-adv-x="1028" 
d="M479 1380h-104v5q27 27 93 99.5t105 113.5q80 -5 206 0q-55 -39 -154 -113.5t-146 -104.5zM606 584v-76q0 -313 2 -386.5t12 -121.5q-104 3 -207 0q9 48 11 121.5t2 386.5v63q-307 608 -387 759q50 -2 199 0q45 -94 137 -290t144 -305q94 189 286 595q14 -3 93 -3t94 3
q-89 -179 -386 -746z" />
    <glyph glyph-name="Thorn" unicode="&#xde;" horiz-adv-x="996" 
d="M724 675q0 161 -51 229t-163 68q-50 0 -91 -2.5t-57 -5.5l-15 -2v-575h133q82 0 133.5 24t81 88.5t29.5 175.5zM347 1086q126 6 149 6q410 0 410 -405q0 -419 -445 -419h-114q0 -202 13 -268q-103 3 -206 0q12 66 12 386v568q0 310 -12 376q101 -3 205 0
q-12 -66 -12 -244z" />
    <glyph glyph-name="germandbls" unicode="&#xdf;" horiz-adv-x="986" 
d="M491 1231q-179 0 -179 -212v-711q0 -163 1.5 -212t10.5 -96q-91 3 -184 0q9 47 10.5 98.5t1.5 209.5v686q0 180 92 270.5t243 90.5q152 0 241.5 -84.5t89.5 -200.5q0 -65 -24 -117t-58 -83.5t-68 -58t-58 -55t-24 -59.5q0 -35 18 -61.5t47 -43.5t64 -33.5t70 -38t64 -50
t47 -77t18 -111.5q0 -131 -88.5 -213.5t-218.5 -82.5q-57 0 -114.5 12t-88.5 29q13 29 27.5 73.5t17.5 72.5h17q38 -65 146 -65q59 0 95.5 40t36.5 109q0 49 -17.5 86t-45.5 60.5t-62 43t-68 39.5t-62 43.5t-45.5 61.5t-17.5 88q0 47 17 84.5t43 60.5t56 48t56 47.5t43 59
t17 81.5q0 84 -46 127.5t-121 43.5z" />
    <glyph glyph-name="agrave" unicode="&#xe0;" horiz-adv-x="914" 
d="M435 854q-52 0 -93 -9t-70 -27.5t-40 -28t-29 -27.5h-24q0 8 -3 19.5t-7 23t-13 37t-16 48.5q51 28 130 51t146 23q172 0 255.5 -77t83.5 -233v-491q0 -48 16 -61t70 -13q-10 -41 -10 -73q-24 -20 -77 -20q-119 0 -142 109v1q-30 -53 -94 -86.5t-141 -33.5
q-133 0 -209.5 75.5t-76.5 203.5q0 135 91 212.5t272 77.5h138v138q0 75 -39.5 118t-117.5 43zM418 100q79 0 126.5 51.5t47.5 137.5v166h-148q-183 0 -183 -180q0 -88 41.5 -131.5t115.5 -43.5zM614 1102h-74q-128 81 -310 256q126 -5 206 0q56 -84 178 -251v-5z" />
    <glyph glyph-name="aacute" unicode="&#xe1;" horiz-adv-x="914" 
d="M435 854q-52 0 -93 -9t-70 -27.5t-40 -28t-29 -27.5h-24q0 8 -3 19.5t-7 23t-13 37t-16 48.5q51 28 130 51t146 23q172 0 255.5 -77t83.5 -233v-491q0 -48 16 -61t70 -13q-10 -41 -10 -73q-24 -20 -77 -20q-119 0 -142 109v1q-30 -53 -94 -86.5t-141 -33.5
q-133 0 -209.5 75.5t-76.5 203.5q0 135 91 212.5t272 77.5h138v138q0 75 -39.5 118t-117.5 43zM418 100q79 0 126.5 51.5t47.5 137.5v166h-148q-183 0 -183 -180q0 -88 41.5 -131.5t115.5 -43.5zM419 1102h-74v5q122 167 178 251q80 -5 206 0q-182 -175 -310 -256z" />
    <glyph glyph-name="acircumflex" unicode="&#xe2;" horiz-adv-x="914" 
d="M435 854q-52 0 -93 -9t-70 -27.5t-40 -28t-29 -27.5h-24q0 8 -3 19.5t-7 23t-13 37t-16 48.5q51 28 130 51t146 23q172 0 255.5 -77t83.5 -233v-491q0 -48 16 -61t70 -13q-10 -41 -10 -73q-24 -20 -77 -20q-119 0 -142 109v1q-30 -53 -94 -86.5t-141 -33.5
q-133 0 -209.5 75.5t-76.5 203.5q0 135 91 212.5t272 77.5h138v138q0 75 -39.5 118t-117.5 43zM418 100q79 0 126.5 51.5t47.5 137.5v166h-148q-183 0 -183 -180q0 -88 41.5 -131.5t115.5 -43.5zM665 1102l-200 142l-198 -142h-84l216 256h134l216 -256h-84z" />
    <glyph glyph-name="atilde" unicode="&#xe3;" horiz-adv-x="914" 
d="M435 854q-52 0 -93 -9t-70 -27.5t-40 -28t-29 -27.5h-24q0 8 -3 19.5t-7 23t-13 37t-16 48.5q51 28 130 51t146 23q172 0 255.5 -77t83.5 -233v-491q0 -48 16 -61t70 -13q-10 -41 -10 -73q-24 -20 -77 -20q-119 0 -142 109v1q-30 -53 -94 -86.5t-141 -33.5
q-133 0 -209.5 75.5t-76.5 203.5q0 135 91 212.5t272 77.5h138v138q0 75 -39.5 118t-117.5 43zM418 100q79 0 126.5 51.5t47.5 137.5v166h-148q-183 0 -183 -180q0 -88 41.5 -131.5t115.5 -43.5zM232 1134l-64 12q7 40 17 69t29.5 57.5t52.5 43t79 14.5q49 0 94 -23t83 -46
t71 -23q27 0 47.5 23t27.5 67l67 -12q-8 -85 -49.5 -138.5t-118.5 -53.5q-49 0 -94.5 23t-85 46t-74.5 23q-32 0 -50 -21.5t-32 -60.5z" />
    <glyph glyph-name="adieresis" unicode="&#xe4;" horiz-adv-x="914" 
d="M435 854q-52 0 -93 -9t-70 -27.5t-40 -28t-29 -27.5h-24q0 8 -3 19.5t-7 23t-13 37t-16 48.5q51 28 130 51t146 23q172 0 255.5 -77t83.5 -233v-491q0 -48 16 -61t70 -13q-10 -41 -10 -73q-24 -20 -77 -20q-119 0 -142 109v1q-30 -53 -94 -86.5t-141 -33.5
q-133 0 -209.5 75.5t-76.5 203.5q0 135 91 212.5t272 77.5h138v138q0 75 -39.5 118t-117.5 43zM418 100q79 0 126.5 51.5t47.5 137.5v166h-148q-183 0 -183 -180q0 -88 41.5 -131.5t115.5 -43.5zM169 1234q0 43 26.5 69.5t69.5 26.5t69.5 -26.5t26.5 -69.5t-26.5 -69.5
t-69.5 -26.5t-69.5 26.5t-26.5 69.5zM549 1234q0 43 26.5 69.5t69.5 26.5t69.5 -26.5t26.5 -69.5t-26.5 -69.5t-69.5 -26.5t-69.5 26.5t-26.5 69.5z" />
    <glyph glyph-name="aring" unicode="&#xe5;" horiz-adv-x="914" 
d="M435 854q-52 0 -93 -9t-70 -27.5t-40 -28t-29 -27.5h-24q0 8 -3 19.5t-7 23t-13 37t-16 48.5q51 28 130 51t146 23q172 0 255.5 -77t83.5 -233v-491q0 -48 16 -61t70 -13q-10 -41 -10 -73q-24 -20 -77 -20q-119 0 -142 109v1q-30 -53 -94 -86.5t-141 -33.5
q-133 0 -209.5 75.5t-76.5 203.5q0 135 91 212.5t272 77.5h138v138q0 75 -39.5 118t-117.5 43zM418 100q79 0 126.5 51.5t47.5 137.5v166h-148q-183 0 -183 -180q0 -88 41.5 -131.5t115.5 -43.5zM520 1228q0 92 -74 92q-39 0 -56.5 -27t-17.5 -65q0 -37 18 -65.5t56 -28.5
q74 0 74 94zM628 1226q0 -80 -52 -127t-130 -47q-79 0 -129.5 47t-50.5 127q0 81 50.5 127.5t129.5 46.5q81 0 131.5 -45.5t50.5 -128.5z" />
    <glyph glyph-name="ae" unicode="&#xe6;" horiz-adv-x="1348" 
d="M965 106q111 0 225 48l8 -8l-18 -128q-112 -32 -195 -32q-208 0 -302 129q-87 -129 -276 -129q-145 0 -230.5 75.5t-85.5 209.5t85.5 209t267.5 75h148v138q0 75 -39.5 118t-117.5 43q-52 0 -93 -9t-70 -27.5t-40 -28t-29 -27.5h-24q0 8 -3 19.5t-7 23t-13 37t-16 48.5
q51 28 130 51t146 23q203 0 278 -111q86 111 247 111q313 0 313 -412v-115h-503q4 -182 56 -256.5t158 -74.5zM420 96q74 0 123 56t49 139v164h-158q-173 0 -173 -174q0 -90 41 -137.5t118 -47.5zM937 854q-94 0 -135 -69t-49 -248h341v34q0 125 -38 204t-119 79z" />
    <glyph glyph-name="ccedilla" unicode="&#xe7;" horiz-adv-x="768" 
d="M344 -390l-29 27q75 37 116.5 76t41.5 92q0 38 -24 56.5t-74 32.5l29 99q-54 8 -95 26t-77.5 54.5t-59.5 91.5t-36.5 137.5t-13.5 191.5q0 470 358 470q61 0 126.5 -14t100.5 -32q-44 -93 -49 -134h-24q-59 54 -165 54q-59 0 -97 -33t-60 -119t-22 -230q0 -88 11 -152
t28 -100.5t45 -58t55 -28.5t64 -7q85 0 191 42l8 -8l-18 -125q-95 -33 -172 -33h-22l-9 -44q59 -8 93 -42t34 -95q0 -75 -73 -131.5t-181 -63.5z" />
    <glyph glyph-name="egrave" unicode="&#xe8;" horiz-adv-x="890" 
d="M499 106q111 0 225 48l8 -8l-18 -128q-112 -32 -195 -32q-97 0 -167 22t-126.5 75.5t-85 151t-28.5 239.5q0 258 89 374t268 116q162 0 240.5 -108.5t78.5 -303.5v-125h-513q2 -92 18 -155.5t46 -99.5t68.5 -51t91.5 -15zM465 854q-94 0 -137 -74t-51 -253h351v44
q0 80 -16 142t-54 101.5t-93 39.5zM586 1102h-74q-128 81 -310 256q126 -5 206 0q56 -84 178 -251v-5z" />
    <glyph glyph-name="eacute" unicode="&#xe9;" horiz-adv-x="890" 
d="M499 106q111 0 225 48l8 -8l-18 -128q-112 -32 -195 -32q-97 0 -167 22t-126.5 75.5t-85 151t-28.5 239.5q0 258 89 374t268 116q162 0 240.5 -108.5t78.5 -303.5v-125h-513q2 -92 18 -155.5t46 -99.5t68.5 -51t91.5 -15zM465 854q-94 0 -137 -74t-51 -253h351v44
q0 80 -16 142t-54 101.5t-93 39.5zM439 1102h-74v5q122 167 178 251q80 -5 206 0q-182 -175 -310 -256z" />
    <glyph glyph-name="ecircumflex" unicode="&#xea;" horiz-adv-x="890" 
d="M499 106q111 0 225 48l8 -8l-18 -128q-112 -32 -195 -32q-97 0 -167 22t-126.5 75.5t-85 151t-28.5 239.5q0 258 89 374t268 116q162 0 240.5 -108.5t78.5 -303.5v-125h-513q2 -92 18 -155.5t46 -99.5t68.5 -51t91.5 -15zM465 854q-94 0 -137 -74t-51 -253h351v44
q0 80 -16 142t-54 101.5t-93 39.5zM669 1102l-200 142l-198 -142h-84l216 256h134l216 -256h-84z" />
    <glyph glyph-name="edieresis" unicode="&#xeb;" horiz-adv-x="890" 
d="M499 106q111 0 225 48l8 -8l-18 -128q-112 -32 -195 -32q-97 0 -167 22t-126.5 75.5t-85 151t-28.5 239.5q0 258 89 374t268 116q162 0 240.5 -108.5t78.5 -303.5v-125h-513q2 -92 18 -155.5t46 -99.5t68.5 -51t91.5 -15zM465 854q-94 0 -137 -74t-51 -253h351v44
q0 80 -16 142t-54 101.5t-93 39.5zM179 1234q0 43 26.5 69.5t69.5 26.5t69.5 -26.5t26.5 -69.5t-26.5 -69.5t-69.5 -26.5t-69.5 26.5t-26.5 69.5zM559 1234q0 43 26.5 69.5t69.5 26.5t69.5 -26.5t26.5 -69.5t-26.5 -69.5t-69.5 -26.5t-69.5 26.5t-26.5 69.5z" />
    <glyph glyph-name="igrave" unicode="&#xec;" horiz-adv-x="466" 
d="M324 950q-9 -47 -10.5 -98.5t-1.5 -209.5v-334q0 -158 1.5 -209.5t10.5 -98.5q-91 3 -184 0q9 47 10.5 98.5t1.5 209.5v334q0 158 -1.5 209.5t-10.5 98.5q93 -3 184 0zM338 1102h-74q-128 81 -310 256q126 -5 206 0q56 -84 178 -251v-5z" />
    <glyph glyph-name="iacute" unicode="&#xed;" horiz-adv-x="466" 
d="M324 950q-9 -47 -10.5 -98.5t-1.5 -209.5v-334q0 -158 1.5 -209.5t10.5 -98.5q-91 3 -184 0q9 47 10.5 98.5t1.5 209.5v334q0 158 -1.5 209.5t-10.5 98.5q93 -3 184 0zM198 1102h-74v5q122 167 178 251q80 -5 206 0q-182 -175 -310 -256z" />
    <glyph glyph-name="icircumflex" unicode="&#xee;" horiz-adv-x="466" 
d="M324 950q-9 -47 -10.5 -98.5t-1.5 -209.5v-334q0 -158 1.5 -209.5t10.5 -98.5q-91 3 -184 0q9 47 10.5 98.5t1.5 209.5v334q0 158 -1.5 209.5t-10.5 98.5q93 -3 184 0zM431 1102l-200 142l-198 -142h-84l216 256h134l216 -256h-84z" />
    <glyph glyph-name="idieresis" unicode="&#xef;" horiz-adv-x="466" 
d="M324 950q-9 -47 -10.5 -98.5t-1.5 -209.5v-334q0 -158 1.5 -209.5t10.5 -98.5q-91 3 -184 0q9 47 10.5 98.5t1.5 209.5v334q0 158 -1.5 209.5t-10.5 98.5q93 -3 184 0zM-51 1234q0 43 26.5 69.5t69.5 26.5t69.5 -26.5t26.5 -69.5t-26.5 -69.5t-69.5 -26.5t-69.5 26.5
t-26.5 69.5zM329 1234q0 43 26.5 69.5t69.5 26.5t69.5 -26.5t26.5 -69.5t-26.5 -69.5t-69.5 -26.5t-69.5 26.5t-26.5 69.5z" />
    <glyph glyph-name="eth" unicode="&#xf0;" horiz-adv-x="950" 
d="M680 772q0 329 -162 418l-74 -134q-72 3 -146 0l106 162h-3q-105 0 -207 -40l-8 8l18 128q32 11 91.5 20.5t100.5 9.5q37 0 79 -5l47 85q72 -3 146 0l-76 -115q126 -54 188.5 -197t62.5 -390v-143q0 -593 -363 -593q-177 0 -275 119t-98 322q0 206 101 319.5t255 113.5
q73 0 130 -25.5t87 -62.5zM474 740q-89 0 -144.5 -77.5t-55.5 -229.5q0 -165 58 -246t144 -81q92 0 147 82.5t55 260.5q0 141 -52.5 216t-151.5 75z" />
    <glyph glyph-name="ntilde" unicode="&#xf1;" horiz-adv-x="962" 
d="M310 612v-304q0 -163 1.5 -212t10.5 -96q-91 3 -184 0q9 47 10.5 98.5t1.5 209.5v414q0 166 -13 228q91 -3 183 0l-6 -119q25 63 89.5 98t147.5 35q128 0 197.5 -83t69.5 -238v-335q0 -163 1.5 -212t10.5 -96q-91 3 -184 0q9 47 10.5 98.5t1.5 209.5v353q0 95 -38.5 144
t-101.5 49q-85 0 -143 -54t-65 -152v-36zM289 1134l-64 12q7 40 17 69t29.5 57.5t52.5 43t79 14.5q49 0 94 -23t83 -46t71 -23q27 0 47.5 23t27.5 67l67 -12q-8 -85 -49.5 -138.5t-118.5 -53.5q-49 0 -94.5 23t-85 46t-74.5 23q-32 0 -50 -21.5t-32 -60.5z" />
    <glyph glyph-name="ograve" unicode="&#xf2;" horiz-adv-x="936" 
d="M468 96q101 0 150.5 86.5t49.5 283.5q0 215 -46.5 301.5t-153.5 86.5t-153.5 -86.5t-46.5 -301.5q0 -197 49.5 -283.5t150.5 -86.5zM468 -14q-89 0 -154.5 26t-114.5 84.5t-74 157.5t-25 240q0 228 94.5 349t273.5 121t273.5 -121t94.5 -349q0 -141 -25 -240t-74 -157.5
t-114.5 -84.5t-154.5 -26zM614 1102h-74q-128 81 -310 256q126 -5 206 0q56 -84 178 -251v-5z" />
    <glyph glyph-name="oacute" unicode="&#xf3;" horiz-adv-x="936" 
d="M468 96q101 0 150.5 86.5t49.5 283.5q0 215 -46.5 301.5t-153.5 86.5t-153.5 -86.5t-46.5 -301.5q0 -197 49.5 -283.5t150.5 -86.5zM468 -14q-89 0 -154.5 26t-114.5 84.5t-74 157.5t-25 240q0 228 94.5 349t273.5 121t273.5 -121t94.5 -349q0 -141 -25 -240t-74 -157.5
t-114.5 -84.5t-154.5 -26zM419 1102h-74v5q122 167 178 251q80 -5 206 0q-182 -175 -310 -256z" />
    <glyph glyph-name="ocircumflex" unicode="&#xf4;" horiz-adv-x="936" 
d="M468 96q101 0 150.5 86.5t49.5 283.5q0 215 -46.5 301.5t-153.5 86.5t-153.5 -86.5t-46.5 -301.5q0 -197 49.5 -283.5t150.5 -86.5zM468 -14q-89 0 -154.5 26t-114.5 84.5t-74 157.5t-25 240q0 228 94.5 349t273.5 121t273.5 -121t94.5 -349q0 -141 -25 -240t-74 -157.5
t-114.5 -84.5t-154.5 -26zM665 1102l-200 142l-198 -142h-84l216 256h134l216 -256h-84z" />
    <glyph glyph-name="otilde" unicode="&#xf5;" horiz-adv-x="936" 
d="M468 96q101 0 150.5 86.5t49.5 283.5q0 215 -46.5 301.5t-153.5 86.5t-153.5 -86.5t-46.5 -301.5q0 -197 49.5 -283.5t150.5 -86.5zM468 -14q-89 0 -154.5 26t-114.5 84.5t-74 157.5t-25 240q0 228 94.5 349t273.5 121t273.5 -121t94.5 -349q0 -141 -25 -240t-74 -157.5
t-114.5 -84.5t-154.5 -26zM248 1134l-64 12q7 40 17 69t29.5 57.5t52.5 43t79 14.5q49 0 94 -23t83 -46t71 -23q27 0 47.5 23t27.5 67l67 -12q-8 -85 -49.5 -138.5t-118.5 -53.5q-49 0 -94.5 23t-85 46t-74.5 23q-32 0 -50 -21.5t-32 -60.5z" />
    <glyph glyph-name="odieresis" unicode="&#xf6;" horiz-adv-x="968" 
d="M181 1234q0 43 26.5 69.5t69.5 26.5t69.5 -26.5t26.5 -69.5t-26.5 -69.5t-69.5 -26.5t-69.5 26.5t-26.5 69.5zM561 1234q0 43 26.5 69.5t69.5 26.5t69.5 -26.5t26.5 -69.5t-26.5 -69.5t-69.5 -26.5t-69.5 26.5t-26.5 69.5zM468 96q101 0 150.5 86.5t49.5 283.5
q0 215 -46.5 301.5t-153.5 86.5t-153.5 -86.5t-46.5 -301.5q0 -197 49.5 -283.5t150.5 -86.5zM468 -14q-89 0 -154.5 26t-114.5 84.5t-74 157.5t-25 240q0 228 94.5 349t273.5 121t273.5 -121t94.5 -349q0 -141 -25 -240t-74 -157.5t-114.5 -84.5t-154.5 -26z" />
    <glyph glyph-name="divide" unicode="&#xf7;" horiz-adv-x="1044" 
d="M741 533h-436q-88 0 -143 -4q1 8 1 62.5t-1 65.5q64 -4 143 -4h436q88 0 143 4q-1 -8 -1 -62.5t1 -65.5q-64 4 -143 4zM427 219q0 43 26.5 69.5t69.5 26.5t69.5 -26.5t26.5 -69.5t-26.5 -69.5t-69.5 -26.5t-69.5 26.5t-26.5 69.5zM427 969q0 43 26.5 69.5t69.5 26.5
t69.5 -26.5t26.5 -69.5t-26.5 -69.5t-69.5 -26.5t-69.5 26.5t-26.5 69.5z" />
    <glyph glyph-name="oslash" unicode="&#xf8;" horiz-adv-x="936" 
d="M468 -14q-44 0 -89 8q-46 -132 -49 -164q-72 3 -129 0l70 202q-171 104 -171 462q0 228 94.5 349t273.5 121q65 0 122 -17l5 15q38 109 44 158q81 -3 145 0l-84 -234q136 -118 136 -392q0 -141 -25 -240t-74 -157.5t-114.5 -84.5t-154.5 -26zM268 466q0 -201 53 -290
l231 662q-35 16 -84 16q-107 0 -153.5 -86.5t-46.5 -301.5zM468 96q101 0 150.5 86.5t49.5 283.5q0 166 -28 254l-222 -618q22 -6 50 -6z" />
    <glyph glyph-name="ugrave" unicode="&#xf9;" horiz-adv-x="932" 
d="M300 642v-353q0 -193 122 -193q84 0 143.5 58.5t66.5 157.5v26v304q0 163 -1.5 212t-10.5 96q91 -3 184 0q-9 -47 -10.5 -98.5t-1.5 -209.5v-304q0 -246 9 -338q-89 3 -178 0l6 133q-24 -67 -91 -107t-149 -40q-249 0 -249 321v335q0 163 -1.5 212t-10.5 96q91 -3 184 0
q-9 -47 -10.5 -98.5t-1.5 -209.5zM592 1102h-74q-128 81 -310 256q126 -5 206 0q56 -84 178 -251v-5z" />
    <glyph glyph-name="uacute" unicode="&#xfa;" horiz-adv-x="932" 
d="M300 642v-353q0 -193 122 -193q84 0 143.5 58.5t66.5 157.5v26v304q0 163 -1.5 212t-10.5 96q91 -3 184 0q-9 -47 -10.5 -98.5t-1.5 -209.5v-304q0 -246 9 -338q-89 3 -178 0l6 133q-24 -67 -91 -107t-149 -40q-249 0 -249 321v335q0 163 -1.5 212t-10.5 96q91 -3 184 0
q-9 -47 -10.5 -98.5t-1.5 -209.5zM444 1102h-74v5q122 167 178 251q80 -5 206 0q-182 -175 -310 -256z" />
    <glyph glyph-name="ucircumflex" unicode="&#xfb;" horiz-adv-x="932" 
d="M300 642v-353q0 -193 122 -193q84 0 143.5 58.5t66.5 157.5v26v304q0 163 -1.5 212t-10.5 96q91 -3 184 0q-9 -47 -10.5 -98.5t-1.5 -209.5v-304q0 -246 9 -338q-89 3 -178 0l6 133q-24 -67 -91 -107t-149 -40q-249 0 -249 321v335q0 163 -1.5 212t-10.5 96q91 -3 184 0
q-9 -47 -10.5 -98.5t-1.5 -209.5zM665 1102l-200 142l-198 -142h-84l216 256h134l216 -256h-84z" />
    <glyph glyph-name="udieresis" unicode="&#xfc;" horiz-adv-x="932" 
d="M300 642v-353q0 -193 122 -193q84 0 143.5 58.5t66.5 157.5v26v304q0 163 -1.5 212t-10.5 96q91 -3 184 0q-9 -47 -10.5 -98.5t-1.5 -209.5v-304q0 -246 9 -338q-89 3 -178 0l6 133q-24 -67 -91 -107t-149 -40q-249 0 -249 321v335q0 163 -1.5 212t-10.5 96q91 -3 184 0
q-9 -47 -10.5 -98.5t-1.5 -209.5zM564 1234q0 43 26.5 69.5t69.5 26.5t69.5 -26.5t26.5 -69.5t-26.5 -69.5t-69.5 -26.5t-69.5 26.5t-26.5 69.5zM184 1234q0 43 26.5 69.5t69.5 26.5t69.5 -26.5t26.5 -69.5t-26.5 -69.5t-69.5 -26.5t-69.5 26.5t-26.5 69.5z" />
    <glyph glyph-name="yacute" unicode="&#xfd;" horiz-adv-x="880" 
d="M399 -4q-22 -2 -29 -4q-225 701 -318 958q63 -2 188 0q120 -411 218 -754q97 329 206 754q11 -3 82 -3t82 3q-49 -144 -96.5 -300.5t-106.5 -362t-87 -297.5q-90 -305 -105 -352q-12 3 -82.5 2.5t-81.5 -2.5q14 39 44 115t52 136.5t34 106.5zM461 1102h-74v5
q122 167 178 251q80 -5 206 0q-182 -175 -310 -256z" />
    <glyph glyph-name="thorn" unicode="&#xfe;" horiz-adv-x="948" 
d="M314 1022v-162q33 46 89.5 75t120.5 29q164 0 245 -109t81 -358q0 -270 -105.5 -390.5t-317.5 -120.5q-55 0 -113 14v-72q0 -158 1.5 -209.5t10.5 -98.5q-93 3 -184 0q9 47 10.5 96t1.5 212v1094q0 158 -1.5 209.5t-10.5 98.5q93 -3 184 0q-9 -47 -10.5 -96t-1.5 -212z
M493 844q-86 0 -131.5 -58t-47.5 -137v-529q45 -14 134 -14q58 0 98.5 17t73 61t48 126.5t15.5 206.5q0 127 -22.5 200t-62 100t-105.5 27z" />
    <glyph glyph-name="ydieresis" unicode="&#xff;" horiz-adv-x="880" 
d="M399 -4q-22 -2 -29 -4q-225 701 -318 958q63 -2 188 0q120 -411 218 -754q97 329 206 754q11 -3 82 -3t82 3q-49 -144 -96.5 -300.5t-106.5 -362t-87 -297.5q-90 -305 -105 -352q-12 3 -82.5 2.5t-81.5 -2.5q14 39 44 115t52 136.5t34 106.5zM172 1234q0 43 26.5 69.5
t69.5 26.5t69.5 -26.5t26.5 -69.5t-26.5 -69.5t-69.5 -26.5t-69.5 26.5t-26.5 69.5zM552 1234q0 43 26.5 69.5t69.5 26.5t69.5 -26.5t26.5 -69.5t-26.5 -69.5t-69.5 -26.5t-69.5 26.5t-26.5 69.5z" />
    <glyph glyph-name="dotlessi" unicode="&#x131;" horiz-adv-x="464" 
d="M324 950q-9 -47 -10.5 -98.5t-1.5 -209.5v-334q0 -158 1.5 -209.5t10.5 -98.5q-91 3 -184 0q9 47 10.5 98.5t1.5 209.5v334q0 158 -1.5 209.5t-10.5 98.5q93 -3 184 0z" />
    <glyph glyph-name="Lslash" unicode="&#x141;" horiz-adv-x="846" 
d="M820 0h-667q9 48 10.5 121.5t1.5 386.5v98l-117 -56v128l117 56v88q0 313 -1.5 386.5t-10.5 121.5q101 -3 205 0q-9 -48 -10.5 -121.5t-1.5 -386.5v-1l214 103v-128l-214 -103q0 -84 6 -563q262 0 350 3.5t118 17.5q-3 -11 -3 -76t3 -75z" />
    <glyph glyph-name="lslash" unicode="&#x142;" horiz-adv-x="532" 
d="M331 1022v-149l115 76v-128l-115 -75v-438q0 -163 1.5 -212t10.5 -96q-91 3 -184 0q9 47 10.5 98.5t1.5 209.5v335l-105 -68v124l105 69v254q0 158 -1.5 209.5t-10.5 98.5q93 -3 184 0q-9 -47 -10.5 -96t-1.5 -212z" />
    <glyph glyph-name="OE" unicode="&#x152;" horiz-adv-x="1640" 
d="M841 1330h694q-5 -53 0 -126q-57 10 -521 10v-466q371 0 472 16q-6 -81 0 -145q-74 13 -472 13v-512q237 0 356.5 4t175.5 18q-4 -28 -4 -76.5t4 -65.5h-705q8 53 9 88q-99 -102 -275 -102q-220 0 -333.5 162.5t-113.5 516.5q0 679 447 679q174 0 275 -105q-1 48 -9 91z
M308 665q0 -131 13.5 -229.5t37 -160.5t58 -100t72.5 -52.5t86 -14.5t86 14.5t72.5 52.5t58 100t37 160.5t13.5 229.5t-13.5 229.5t-37 160.5t-58 100t-72.5 52.5t-86 14.5t-86 -14.5t-72.5 -52.5t-58 -100t-37 -160.5t-13.5 -229.5z" />
    <glyph glyph-name="oe" unicode="&#x153;" horiz-adv-x="1446" 
d="M1055 106q111 0 225 48l8 -8l-18 -128q-112 -32 -195 -32q-226 0 -322 130q-87 -130 -284 -130q-89 0 -154.5 26t-114.5 84.5t-74 157.5t-25 240q0 228 94.5 349t273.5 121q185 0 279 -129q86 129 277 129q162 0 240.5 -108.5t78.5 -303.5v-125h-509q0 -16 -2 -42
q10 -155 65 -217t157 -62zM469 96q97 0 146 79t53 259v40v37q-4 189 -51 266t-148 77q-107 0 -153.5 -86.5t-46.5 -301.5q0 -197 49.5 -283.5t150.5 -86.5zM1021 854q-89 0 -132.5 -66.5t-53.5 -226.5q1 -11 1 -34h348v44q0 80 -16 142t-54 101.5t-93 39.5z" />
    <glyph glyph-name="Scaron" unicode="&#x160;" horiz-adv-x="914" 
d="M481 1500l200 106h84l-216 -220h-134l-216 220h84zM419 110q103 0 161 64t58 178q0 113 -40.5 169t-143.5 85q-78 22 -134 48t-108.5 69t-80 109t-27.5 153q0 172 111 265.5t301 93.5q83 0 163 -20t119 -50q-40 -87 -57 -147h-25q-21 51 -73 73t-149 22q-96 0 -151 -54
t-55 -154q0 -121 42.5 -169t167.5 -83q32 -9 52 -15t50 -17t49.5 -21.5t45 -28t42 -36.5t34 -46t27 -58t16 -71.5t6.5 -87.5q0 -190 -114 -292.5t-306 -102.5t-316 94q32 75 56 164h25q71 -134 254 -134z" />
    <glyph glyph-name="scaron" unicode="&#x161;" horiz-adv-x="764" 
d="M366 108q72 0 113 44.5t41 104.5q0 80 -30 116.5t-104 48.5q-144 24 -207 89t-63 172q0 129 84.5 206t231.5 77q34 0 70 -6.5t58 -13.5t57 -19.5t47 -16.5q-15 -27 -32.5 -79.5t-20.5 -77.5h-13q-19 42 -66.5 66.5t-115.5 24.5q-70 0 -106 -38t-36 -109q0 -66 31.5 -98
t100.5 -45q144 -28 208 -91.5t64 -180.5q0 -126 -82.5 -211t-242.5 -85q-143 0 -258 66q13 29 27.5 73.5t17.5 72.5h17q21 -40 76 -65t133 -25zM204 1358l200 -142l198 142h84l-216 -256h-134l-216 256h84z" />
    <glyph glyph-name="Ydieresis" unicode="&#x178;" horiz-adv-x="1028" 
d="M606 584v-76q0 -313 2 -386.5t12 -121.5q-104 3 -207 0q9 48 11 121.5t2 386.5v63q-307 608 -387 759q50 -2 199 0q45 -94 137 -290t144 -305q94 189 286 595q14 -3 93 -3t94 3q-89 -179 -386 -746zM233 1492q0 43 26.5 69.5t69.5 26.5t69.5 -26.5t26.5 -69.5
t-26.5 -69.5t-69.5 -26.5t-69.5 26.5t-26.5 69.5zM613 1492q0 43 26.5 69.5t69.5 26.5t69.5 -26.5t26.5 -69.5t-26.5 -69.5t-69.5 -26.5t-69.5 26.5t-26.5 69.5z" />
    <glyph glyph-name="Zcaron" unicode="&#x17d;" horiz-adv-x="918" 
d="M835 1282l-532 -1164q231 0 344 4t169 18q-3 -29 -3 -79t3 -67q-94 6 -143 6h-595v40l539 1170h-345q-60 0 -143 -6q1 8 1 64t-1 66q64 -4 143 -4h563v-48zM496 1500l200 106h84l-216 -220h-134l-216 220h84z" />
    <glyph glyph-name="zcaron" unicode="&#x17e;" horiz-adv-x="766" 
d="M680 892l-401 -782h248q83 0 135 4q-1 -8 -1 -59t1 -61q-90 6 -135 6h-453v40l408 790h-225q-83 0 -135 -4q1 8 1 58.5t-1 61.5q90 -6 135 -6h423v-48zM204 1358l200 -142l198 142h84l-216 -256h-134l-216 256h84z" />
    <glyph glyph-name="florin" unicode="&#x192;" horiz-adv-x="950" 
d="M578 995l-25 -135q146 0 229 4q-3 -73 0 -114q-69 4 -248 4l-129 -720q-27 -150 -112.5 -230t-215.5 -80q-55 0 -111 14l-16 103q63 -13 95 -13q77 0 129 47.5t74 172.5l127 706q-162 -2 -190 -4q1 8 1 57t-1 59q49 -4 209 -6l16 90q39 219 128 313t235 94q99 0 163 -26
l-45 -128l-5 -1q-19 17 -56.5 29t-72.5 12q-77 0 -115.5 -54.5t-63.5 -193.5z" />
    <glyph glyph-name="circumflex" unicode="&#x2c6;" horiz-adv-x="728" 
d="M562 1102l-200 142l-198 -142h-84l216 256h134l216 -256h-84z" />
    <glyph glyph-name="caron" unicode="&#x2c7;" horiz-adv-x="728" 
d="M164 1358l200 -142l198 142h84l-216 -256h-134l-216 256h84z" />
    <glyph glyph-name="uni02C9" unicode="&#x2c9;" horiz-adv-x="618" 
d="M408 1154h-199q-88 0 -143 -4q1 8 1 56t-1 58q64 -4 143 -4h199q88 0 143 4q-1 -8 -1 -56t1 -58q-64 4 -143 4z" />
    <glyph glyph-name="breve" unicode="&#x2d8;" horiz-adv-x="672" 
d="M94 1358h64q10 -57 54.5 -96.5t121.5 -39.5q140 0 178 136h64q0 -108 -67.5 -177t-172.5 -69q-107 0 -174.5 69t-67.5 177z" />
    <glyph glyph-name="dotaccent" unicode="&#x2d9;" horiz-adv-x="312" 
d="M51 1234q0 43 26.5 69.5t69.5 26.5t69.5 -26.5t26.5 -69.5t-26.5 -69.5t-69.5 -26.5t-69.5 26.5t-26.5 69.5z" />
    <glyph glyph-name="ring" unicode="&#x2da;" horiz-adv-x="494" 
d="M320 1228q0 92 -74 92q-39 0 -56.5 -27t-17.5 -65q0 -37 18 -65.5t56 -28.5q74 0 74 94zM428 1226q0 -80 -52 -127t-130 -47q-79 0 -129.5 47t-50.5 127q0 81 50.5 127.5t129.5 46.5q81 0 131.5 -45.5t50.5 -128.5z" />
    <glyph glyph-name="ogonek" unicode="&#x2db;" horiz-adv-x="604" 
d="M422 -300v-34q-81 -18 -138 -18q-74 0 -117 45.5t-43 113.5q0 64 38 139t84 128h72q-74 -142 -74 -235q0 -42 14.5 -71t41.5 -43t56 -19.5t66 -5.5z" />
    <glyph glyph-name="tilde" unicode="&#x2dc;" horiz-adv-x="664" 
d="M108 1134l-64 12q7 40 17 69t29.5 57.5t52.5 43t79 14.5q49 0 94 -23t83 -46t71 -23q27 0 47.5 23t27.5 67l67 -12q-8 -85 -49.5 -138.5t-118.5 -53.5q-49 0 -94.5 23t-85 46t-74.5 23q-32 0 -50 -21.5t-32 -60.5z" />
    <glyph glyph-name="hungarumlaut" unicode="&#x2dd;" horiz-adv-x="880" 
d="M173 1140h-74v5q11 16 79 116.5t105 154.5q80 -5 206 0q-215 -206 -316 -276zM493 1140h-74v5q65 89 178 271q80 -5 206 0q-172 -174 -310 -276z" />
    <glyph glyph-name="_189" unicode="&#x3a9;" horiz-adv-x="1042" 
d="M520 1224q-87 0 -136 -52.5t-70.5 -170.5t-21.5 -331q0 -435 176 -568v-102h-186q-70 0 -160 -6q1 10 1 61t-1 59q52 -4 170 -4q-80 85 -125 213.5t-45 356.5q0 139 11.5 241t38.5 185t72.5 133.5t113.5 77.5t162 27t162 -27t113.5 -77.5t72.5 -133.5t38.5 -185
t11.5 -241q0 -228 -45 -356.5t-125 -213.5q118 0 170 4q-1 -8 -1 -59t1 -61q-90 6 -160 6h-186v102q176 133 176 568q0 213 -21.5 331t-70.5 170.5t-136 52.5z" />
    <glyph glyph-name="uni03BC" unicode="&#x3bc;" horiz-adv-x="932" 
d="M300 642v-353q0 -94 45.5 -143.5t116.5 -49.5q78 0 124 56t46 150v340q0 163 -1.5 212t-10.5 96q91 -3 184 0q-9 -47 -10.5 -98.5t-1.5 -209.5v-304q0 -246 9 -338q-89 3 -178 0q1 20 2.5 49t1.5 34q-59 -97 -188 -97q-93 0 -139 51v-109q0 -158 1.5 -209.5t10.5 -98.5
q-93 3 -184 0q9 47 10.5 96t1.5 212v714q0 163 -1.5 212t-10.5 96q91 -3 184 0q-9 -47 -10.5 -98.5t-1.5 -209.5z" />
    <glyph glyph-name="pi" unicode="&#x3c0;" horiz-adv-x="1052" 
d="M236 508v315q-21 0 -149 -9q2 9 2 66.5t-3 69.5h882q-3 -13 -3.5 -67.5t2.5 -68.5q-71 5 -171 8v-584q0 -98 18 -128.5t68 -30.5q16 0 51 7l-14 -74q-58 -17 -112 -17q-88 0 -129.5 55.5t-41.5 168.5v606h-240v-317q0 -313 2 -386.5t12 -121.5q-94 3 -186 0
q9 48 10.5 121.5t1.5 386.5z" />
    <glyph glyph-name="uni0E01" unicode="&#xe01;" horiz-adv-x="1084" 
d="M779 323v478q0 233 -248 233q-162 0 -275 -94v-4q2 -1 6 -4.5t14 -15.5t17.5 -27t14 -41.5t6.5 -57.5v-467q0 -171 2 -222.5t11 -100.5q-94 3 -189 0q9 49 10.5 103.5t1.5 219.5v482q0 47 -17 85.5t-34 53.5l-17 16v8q74 74 198 130t251 56q197 0 304.5 -92t107.5 -261
v-478q0 -171 1.5 -222.5t10.5 -100.5q-92 3 -189 0q9 49 11 103.5t2 219.5z" />
    <glyph glyph-name="uni0E02" unicode="&#xe02;" horiz-adv-x="941" 
d="M265 486v-178q0 -103 48.5 -154.5t137.5 -51.5q182 0 182 206v500q0 172 -1.5 223.5t-10.5 100.5q66 -2 94 -2q24 0 96 2q-9 -50 -11.5 -107t-2.5 -217v-500q0 -160 -87 -241.5t-259 -81.5t-261 83.5t-89 239.5v179q0 67 21.5 126t52 100.5t61 79t52 77t21.5 78.5
q0 98 -87 98q-28 0 -55.5 -11.5t-41.5 -28.5h-15q-7 28 -32 112q64 33 155 33q228 0 228 -191q0 -45 -20 -93t-49 -90.5t-58 -86t-49 -97t-20 -107.5z" />
    <glyph glyph-name="uni0E03" unicode="&#xe03;" horiz-adv-x="1000" 
d="M149 308v137q0 71 23.5 139t56.5 119.5t66 98t56.5 92.5t23.5 84q0 23 -12.5 35.5t-33.5 12.5q-10 0 -18.5 -2t-14.5 -4.5t-14.5 -9t-13 -10t-15.5 -14.5t-17 -16h-9q-39 25 -66.5 35t-88.5 19v6l82 109q32 -8 68 -29.5t52 -37.5q47 66 105 66q141 0 141 -146
q0 -54 -21.5 -111.5t-52 -107t-60.5 -99t-51.5 -107t-21.5 -112.5v-147q0 -103 49 -154.5t138 -51.5q181 0 181 206v500q0 172 -1.5 223.5t-10.5 100.5q66 -2 94 -2q24 0 96 2q-9 -50 -11.5 -107t-2.5 -217v-500q0 -151 -88 -237t-257 -86q-173 0 -262 83.5t-89 239.5z" />
    <glyph glyph-name="uni0E04" unicode="&#xe04;" horiz-adv-x="1088" 
d="M794 323v474q0 108 -66 174.5t-180 66.5q-113 0 -180.5 -67t-67.5 -174v-154l-2 -158l4 -2q92 174 246 174q44 0 78 -12q-15 -34 -15 -160l-15 -10q-11 13 -36.5 23t-55.5 10q-99 0 -151.5 -72.5t-52.5 -198.5q0 -152 16 -237q-95 3 -192 0q9 49 10.5 103.5t1.5 219.5
v474q0 153 112 258t300 105q189 0 299.5 -105t110.5 -260v-472q0 -171 1.5 -222.5t10.5 -100.5q-92 3 -189 0q9 49 11 103.5t2 219.5z" />
    <glyph glyph-name="uni0E05" unicode="&#xe05;" horiz-adv-x="1100" 
d="M300 872v-229l-2 -158l4 -2q92 174 246 174q44 0 78 -12q-15 -34 -15 -160l-15 -10q-11 13 -36.5 23t-55.5 10q-99 0 -151.5 -72.5t-52.5 -198.5q0 -152 16 -237q-95 3 -192 0q9 49 10.5 103.5t1.5 219.5v554q0 126 67 200t171 74q123 0 180 -104q58 104 181 104
q104 0 170.5 -74t66.5 -200v-554q0 -171 2 -222.5t11 -100.5q-93 3 -189 0q9 49 10.5 103.5t1.5 219.5v549q0 153 -115 153q-85 0 -131 -93h-15q-48 93 -131 93q-116 0 -116 -153z" />
    <glyph glyph-name="uni0E06" unicode="&#xe06;" horiz-adv-x="1063" 
d="M743 1132q94 -3 189 0q-9 -49 -10.5 -103.5t-1.5 -220.5v-465q0 -174 -78.5 -266t-237.5 -92q-101 0 -184.5 47t-118.5 128q1 -98 12 -160q-92 3 -187 0q9 49 11 103.5t2 219.5v122q0 71 25 139t61 119.5t72 98t61 92.5t25 84q0 23 -13.5 35.5t-34.5 12.5q-13 0 -22.5 -2
t-19.5 -8t-15.5 -10.5t-19.5 -17t-22 -18.5h-9q-39 25 -66.5 35t-88.5 19v6l82 109q32 -8 68 -29.5t52 -37.5q47 66 106 66q148 0 148 -146q0 -54 -23.5 -111.5t-57 -107t-66.5 -99t-56.5 -107t-23.5 -112.5v-75q10 -125 88.5 -200.5t190.5 -75.5q95 0 135.5 52t40.5 168
v484q0 172 -2 223.5t-11 100.5z" />
    <glyph glyph-name="uni0E07" unicode="&#xe07;" horiz-adv-x="951" 
d="M484 1132h335q-9 -204 -9 -471v-431q0 -105 -52 -167.5t-147 -62.5h-223q-12 59 -32 115q-155 433 -320 835q87 -6 181 0q33 -103 74.5 -222t69.5 -197t81 -222t75 -205h29q44 0 70 31.5t26 94.5v431q0 77 -2 165t-4 138l-2 50q-92 0 -151 -10q3 51 3 67q0 43 -2 61z" />
    <glyph glyph-name="uni0E08" unicode="&#xe08;" horiz-adv-x="987" 
d="M451 628l68 -521q90 0 145 72t55 205v330q0 169 -69 240.5t-208 71.5q-91 0 -161 -32t-99 -67h-26q-4 24 -48 141q50 27 158 54t178 27q218 0 328.5 -106t110.5 -329v-347q0 -162 -97 -264.5t-276 -102.5h-120q0 69 -15 163l-57 341q-86 0 -142 -11q1 15 1 66v69h274z
" />
    <glyph glyph-name="uni0E09" unicode="&#xe09;" horiz-adv-x="1014" 
d="M324 628v-346q0 -96 34 -137t114 -41q118 0 183 73.5t75 202.5v334q0 89 -19.5 151t-58.5 96.5t-89.5 49.5t-120.5 15q-91 0 -171 -37t-110 -72h-26q-5 25 -48 140q56 32 162.5 62t194.5 30q448 0 448 -435v-391q0 -165 2 -219.5t11 -103.5q-93 3 -185 0q8 71 9 157
q-32 -83 -103 -127.5t-178 -44.5q-123 0 -200 81t-77 229v214q-52 0 -111 -10q1 14 1 65v64h263z" />
    <glyph glyph-name="uni0E0A" unicode="&#xe0a;" horiz-adv-x="1004" 
d="M860 608v-279q0 -344 -367 -344q-178 0 -274.5 85.5t-96.5 258.5v158q0 67 19.5 127t46.5 103.5t54.5 83t47 80.5t19.5 80q0 37 -26 61t-65 24q-25 0 -52 -12t-41 -29h-15q-7 28 -32 112q25 13 70.5 23.5t87.5 10.5q99 0 156.5 -48.5t57.5 -129.5q0 -45 -17 -90.5
t-41 -86t-48 -84t-41 -102.5t-17 -124v-157q0 -124 49 -175.5t158 -51.5q110 0 157 51t47 176v268q0 97 -33 151.5t-100 54.5q-14 0 -38 -2q2 17 2 63v33q47 1 81.5 14.5t55.5 36.5t34 58.5t17.5 74t4.5 88.5q93 -7 171 3q0 -110 -51.5 -197t-146.5 -113v-4
q166 -15 166 -250z" />
    <glyph glyph-name="uni0E0B" unicode="&#xe0b;" horiz-adv-x="1004" 
d="M170 329v339q0 104 41 185t111 133q-36 -15 -71 -15q-103 0 -172 44q23 23 92 129h4q19 -24 58.5 -38t78.5 -14q85 0 148 51l87 -80q-81 -62 -123.5 -111t-66 -120t-23.5 -175v-328q0 -126 44 -176.5t153 -50.5q108 0 150.5 50t42.5 177v268q0 97 -33 151.5t-100 54.5
q-14 0 -38 -2q2 17 2 63v33q58 1 97.5 20.5t60 58t28.5 84t8 109.5q113 -2 171 0q0 -110 -51.5 -195.5t-147.5 -111.5v-4q166 -15 166 -250v-279q0 -177 -90 -260.5t-266 -83.5q-361 0 -361 344z" />
    <glyph glyph-name="uni0E0C" unicode="&#xe0c;" horiz-adv-x="1615" 
d="M1325 324v484q0 166 -2 220.5t-11 103.5q97 -3 189 0q-9 -49 -10.5 -100.5t-1.5 -223.5v-465q0 -358 -308 -358q-85 0 -161.5 44t-111.5 113l3 -142q-91 3 -187 0q9 49 11 103.5t2 219.5v478q0 118 -47 176t-171 58q-59 0 -111 -14.5t-81 -30.5t-71 -45v-4q2 -1 6 -4.5
t14 -16t17.5 -28t14 -43t6.5 -59.5v-552q0 -99 17.5 -129t67.5 -30q16 0 51 7l-14 -74q-58 -17 -112 -17q-178 0 -178 224q0 32 2 112.5t2 138.5v355q0 29 -7 56t-17 44.5t-20 30.5t-17 19l-7 6v7q225 166 437 166q193 0 287.5 -90.5t94.5 -262.5v-362q0 -82 23 -147.5
t60 -105.5t81.5 -61t91.5 -21q94 0 131 51t37 169z" />
    <glyph glyph-name="uni0E0D" unicode="&#xe0d;" horiz-adv-x="1602" 
d="M1489 808v-705q0 -215 -107.5 -308.5t-338.5 -93.5q-95 0 -207 30l-19 124l8 8q125 -47 233 -47q260 0 260 247v94q-36 -71 -107.5 -114t-165.5 -43q-308 0 -308 358v443q0 118 -47 176t-171 58q-59 0 -111 -14.5t-81 -30.5t-71 -45v-4q2 -1 6 -4.5t14 -16t17.5 -28
t14 -43t6.5 -59.5v-552q0 -99 17.5 -129t67.5 -30q16 0 51 7l-14 -74q-58 -17 -112 -17q-178 0 -178 224q0 32 2 112.5t2 138.5v355q0 29 -7 56t-17 44.5t-20 30.5t-17 19l-7 6v7q225 166 437 166q193 0 287.5 -90.5t94.5 -262.5v-462q0 -118 37 -169t131 -51q47 0 91.5 21
t81.5 61t60 105.5t23 147.5v354q0 166 -2 220.5t-11 103.5q97 -3 189 0q-9 -49 -10.5 -100.5t-1.5 -223.5z" />
    <glyph glyph-name="uni0E0E" unicode="&#xe0e;" horiz-adv-x="1065" 
d="M335 795v-325q0 -58 2 -138.5t2 -112.5q0 -224 -178 -224q-47 0 -105 17l-15 74q35 -7 58 -7q29 0 42.5 8t21.5 38t8 92v587q0 29 -8 56t-19.5 44.5t-23.5 30.5t-20 19l-8 6v7q53 64 182.5 125.5t256.5 61.5q198 0 310 -92.5t112 -260.5v-902q0 -287 -285 -287
q-36 0 -108 15t-111 15q-35 0 -79.5 -8t-71.5 -16l-27 -8l-6 5l30 123q68 30 154 30q35 0 103 -15t104 -15q72 0 102.5 40.5t30.5 129.5v893q0 112 -64.5 173t-193.5 61q-156 0 -264 -90v-4q3 -1 7.5 -4.5t16 -15.5t20.5 -27t16.5 -41.5t7.5 -57.5z" />
    <glyph glyph-name="uni0E0F" unicode="&#xe0f;" horiz-adv-x="1065" 
d="M384 -265q52 0 84 17t60 63h15q26 -43 59.5 -61.5t81.5 -18.5q105 0 105 139v927q0 112 -64.5 173t-193.5 61q-156 0 -264 -90v-4q3 -1 7.5 -4.5t16 -15.5t20.5 -27t16.5 -41.5t7.5 -57.5v-325q0 -58 2 -138.5t2 -112.5q0 -224 -178 -224q-47 0 -105 17l-15 74
q35 -7 58 -7q29 0 42.5 8t21.5 38t8 92v587q0 29 -8 56t-19.5 44.5t-23.5 30.5t-20 19l-8 6v7q53 64 182.5 125.5t256.5 61.5q198 0 310 -92.5t112 -260.5v-932q0 -125 -66 -193.5t-171 -68.5q-62 0 -102.5 22t-78.5 67q-37 -45 -78 -67t-102 -22q-68 0 -120 21l-21 150
q95 -43 170 -43z" />
    <glyph glyph-name="uni0E10" unicode="&#xe10;" horiz-adv-x="987" 
d="M451 628l68 -521q90 0 145 72t55 205v330q0 169 -69 240.5t-208 71.5q-91 0 -161 -32t-99 -67h-26q-4 24 -48 141q50 27 158 54t178 27q107 0 191 -26q122 3 288 87l4 -6q-10 -28 -15 -146q-54 -12 -134 -21q105 -108 105 -323v-347q0 -162 -97 -264.5t-276 -102.5h-120
q0 69 -15 163l-57 341q-86 0 -142 -11q1 15 1 66v69h274zM719 -136v13h164v-8q0 -127 -60.5 -194.5t-166.5 -67.5q-62 0 -105 22.5t-81 66.5q-74 -89 -185 -89q-68 0 -120 21l-21 150q95 -43 170 -43q53 0 87 17.5t62 62.5h15q49 -80 134 -80q54 0 80.5 30.5t26.5 98.5z" />
    <glyph glyph-name="uni0E11" unicode="&#xe11;" horiz-adv-x="1147" 
d="M1028 809v-486q0 -171 2 -222.5t11 -100.5q-94 3 -189 0q9 49 10.5 103.5t1.5 219.5v508q0 104 -23.5 147t-74.5 43q-69 0 -153.5 -118t-144 -279t-67.5 -285v-26q0 -168 1.5 -215.5t10.5 -97.5q-92 3 -189 0q9 49 11 103.5t2 219.5v391q0 111 11.5 168.5t39.5 95.5
q-20 -3 -43 -3q-49 0 -94.5 14t-70.5 35q79 79 107 123h4q41 -55 113 -55q43 0 75 14.5t71 46.5l78 -55q-75 -69 -102.5 -121.5t-27.5 -124.5v-127q24 67 59.5 133.5t85 135t114 111t132.5 42.5q125 0 182 -83t57 -255z" />
    <glyph glyph-name="uni0E12" unicode="&#xe12;" horiz-adv-x="1653" 
d="M1514 808v-465q0 -176 -73.5 -267t-231.5 -91q-98 0 -173 45.5t-109 126.5q1 -94 11 -157q-96 3 -187 0q9 49 10.5 103.5t1.5 219.5v687q-15 0 -72 -27.5t-102 -27.5q-74 0 -131 47q-87 -22 -141.5 -136.5t-54.5 -343.5q0 -210 66 -315.5t167 -105.5q66 0 108 18
l-16 -110q-55 -24 -123 -24q-161 0 -264 142.5t-103 397.5q0 285 95 438t267 188h3q49 -70 139 -70q35 0 95 34.5t107 34.5q82 0 124 -34v-736q10 -127 79 -201.5t178 -74.5q94 0 130 51t36 169v484q0 172 -1.5 223.5t-10.5 100.5q92 -3 189 0q-9 -49 -11 -103.5t-2 -220.5z
" />
    <glyph glyph-name="uni0E13" unicode="&#xe13;" horiz-adv-x="1630" 
d="M1315 0l3 142q-35 -69 -111.5 -113t-161.5 -44q-308 0 -308 358v458q0 118 -47 176t-171 58q-59 0 -111 -14.5t-81 -30.5t-71 -45v-4q5 -4 13 -13t21 -48t13 -90v-552q0 -99 17.5 -129t67.5 -30q14 0 52 7l-15 -74q-58 -17 -111 -17q-179 0 -179 224q0 31 2.5 112
t2.5 139v355q0 47 -14.5 86t-29.5 55l-14 15v7q225 166 437 166q193 0 287.5 -90.5t94.5 -262.5v-477q0 -118 37 -169t131 -51q47 0 91.5 21t81.5 61t60 105.5t23 147.5v369q0 166 -2 220.5t-11 103.5q97 -3 189 0q-9 -49 -10.5 -100.5t-1.5 -223.5v-485q0 -165 1.5 -219.5
t10.5 -103.5q-94 3 -186 0z" />
    <glyph glyph-name="uni0E14" unicode="&#xe14;" horiz-adv-x="1088" 
d="M300 797v-640q194 70 194 326q0 28 -16 61t-35 50l9 15q31 0 61 8t64.5 23.5t35.5 16.5q12 -14 20.5 -49t8.5 -64q0 -362 -398 -544q-60 2 -120 0q9 49 10.5 103.5t1.5 219.5v474q0 153 112 258t300 105q189 0 299.5 -105t110.5 -260v-472q0 -171 1.5 -222.5t10.5 -100.5
q-92 3 -189 0q9 49 11 103.5t2 219.5v474q0 108 -66 174.5t-180 66.5q-113 0 -180.5 -67t-67.5 -174z" />
    <glyph glyph-name="uni0E15" unicode="&#xe15;" horiz-adv-x="1102" 
d="M972 882v-559q0 -171 2 -222.5t11 -100.5q-93 3 -189 0q9 49 10.5 103.5t1.5 219.5v554q0 148 -115 148q-85 0 -131 -93h-15q-48 93 -131 93q-116 0 -116 -148v-720q86 31 140 119t54 195q0 35 -9 61t-18 37t-24 25l9 15q31 0 61 8t64.5 23.5t35.5 16.5q12 -14 20.5 -49
t8.5 -64q0 -362 -398 -544q-58 3 -120 0q9 49 10.5 103.5t1.5 219.5v559q0 126 64.5 197.5t168.5 71.5q136 0 185 -104q50 104 186 104q104 0 168 -71.5t64 -197.5z" />
    <glyph glyph-name="uni0E16" unicode="&#xe16;" horiz-adv-x="1084" 
d="M150 470v345q0 47 -17 85.5t-34 53.5l-17 16v8q74 66 198.5 121t250.5 55q197 0 304.5 -92t107.5 -261v-478q0 -171 1.5 -222.5t10.5 -100.5q-92 3 -189 0q9 49 11 103.5t2 219.5v478q0 234 -248 234q-165 0 -275 -90v-4q2 -1 6 -4.5t14 -15.5t17.5 -27t14 -41.5
t6.5 -57.5v-557q0 -99 17.5 -129t67.5 -30q16 0 51 7l-14 -74q-58 -17 -112 -17q-178 0 -178 224q0 32 2 112.5t2 138.5z" />
    <glyph glyph-name="uni0E17" unicode="&#xe17;" horiz-adv-x="1063" 
d="M920 323q0 -171 1.5 -222.5t10.5 -100.5q-92 3 -189 0q9 49 11 103.5t2 219.5v480q0 117 -40.5 169t-135.5 52q-111 0 -189 -75.5t-88 -199.5l1 -426q0 -171 2 -222.5t11 -100.5q-94 3 -191 0q9 49 11 103.5t2 219.5v482q0 172 -2 223t-11 101q93 -3 189 0
q-11 -71 -12 -162q36 81 118.5 128t182.5 47q159 0 237.5 -92t78.5 -266v-461z" />
    <glyph glyph-name="uni0E18" unicode="&#xe18;" horiz-adv-x="924" 
d="M264 880q0 -54 15 -80t62 -43t148 -30q184 -23 266 -104t82 -253q0 -43 -3.5 -78.5t-14 -76.5t-27.5 -72.5t-47.5 -62t-71.5 -51t-100 -32.5t-133 -12q-41 0 -86.5 4.5t-70 8t-83 14t-76.5 13.5v127q0 166 -2 220t-11 104q97 -3 189 0q-9 -50 -10.5 -101.5t-1.5 -222.5
v-20q23 -6 75.5 -12.5t86.5 -6.5q217 0 217 246q0 119 -45.5 171.5t-153.5 63.5q-85 9 -147.5 26t-114.5 48t-78.5 81t-26.5 119q0 139 104.5 209.5t279.5 70.5q89 0 178 -28t143 -69q-15 -32 -30.5 -62.5t-23.5 -46t-12 -30.5h-23q-21 58 -84 88.5t-159 30.5
q-98 0 -154 -37t-56 -114z" />
    <glyph glyph-name="uni0E19" unicode="&#xe19;" horiz-adv-x="1063" 
d="M130 337v471q0 166 -1.5 220.5t-10.5 103.5q95 -3 189 0q-9 -49 -11 -100.5t-2 -223.5v-484q0 -111 50 -165.5t137 -54.5q112 0 190 75.5t87 200.5v428q0 160 -2.5 217t-11.5 107q97 -3 190 0q-9 -49 -10.5 -100.5t-1.5 -223.5v-485q0 -165 1.5 -219.5t10.5 -103.5
q-95 3 -187 0q9 68 10 158q-36 -80 -118.5 -126.5t-181.5 -46.5q-153 0 -240 91.5t-87 260.5z" />
    <glyph glyph-name="uni0E1A" unicode="&#xe1a;" horiz-adv-x="1048" 
d="M753 329v479q0 172 -2 223.5t-11 100.5q94 -3 190 0q-9 -50 -11 -107t-2 -217v-479q0 -157 -100 -250.5t-288 -93.5q-189 0 -291 95.5t-102 248.5v479q0 172 -1.5 223.5t-10.5 100.5q93 -3 189 0q-9 -49 -11 -103.5t-2 -220.5v-479q0 -108 58 -167.5t171 -59.5
q112 0 168 59.5t56 167.5z" />
    <glyph glyph-name="uni0E1B" unicode="&#xe1b;" horiz-adv-x="1056" 
d="M753 329v868q0 171 -2 222.5t-11 100.5q94 -3 190 0q-9 -50 -11 -107t-2 -216v-868q0 -157 -100 -250.5t-288 -93.5q-189 0 -291 95.5t-102 248.5v479q0 172 -1.5 223.5t-10.5 100.5q93 -3 189 0q-9 -49 -11 -103.5t-2 -220.5v-479q0 -108 58 -167.5t171 -59.5
q112 0 168 59.5t56 167.5z" />
    <glyph glyph-name="uni0E1C" unicode="&#xe1c;" horiz-adv-x="1147" 
d="M854 0l-268 507l-277 -507q-75 5 -149 0v656q0 59 -2.5 139.5t-2.5 111.5q0 225 179 225q47 0 105 -17l15 -74q-39 7 -58 7q-43 0 -58 -24.5t-15 -114.5v-610l199 378q62 -5 116 0l204 -378v509q0 172 -1.5 223.5t-10.5 100.5q93 -3 190 0q-9 -50 -11.5 -107t-2.5 -217
v-808q-77 5 -152 0z" />
    <glyph glyph-name="uni0E1D" unicode="&#xe1d;" horiz-adv-x="1147" 
d="M856 0l-270 507l-277 -507q-75 5 -149 0v656q0 59 -2.5 139.5t-2.5 111.5q0 225 179 225q47 0 105 -17l15 -74q-39 7 -58 7q-43 0 -58 -24.5t-15 -114.5v-610l199 378q62 -5 116 0l204 -378v897q0 171 -1.5 222.5t-10.5 100.5q93 -3 190 0q-9 -50 -11.5 -106.5
t-2.5 -216.5v-1196q-76 5 -150 0z" />
    <glyph glyph-name="uni0E1E" unicode="&#xe1e;" horiz-adv-x="1184" 
d="M592 683l-206 -683q-84 6 -170 0q-105 918 -131 1132q86 -2 170 0q4 -74 14 -192.5t20.5 -234l20 -220t16.5 -170.5l6 -66l207 685q54 -3 107 0l206 -685l6 66q6 66 16 170.5t20 220t20 234t15 192.5q84 -2 170 0l-130 -1132q-87 6 -171 0z" />
    <glyph glyph-name="uni0E1F" unicode="&#xe1f;" horiz-adv-x="1193" 
d="M592 683l-206 -683q-84 6 -170 0q-105 918 -131 1132q85 -2 168 0q4 -74 14 -192.5t21 -235t21 -221.5t17 -171l6 -66l207 688q54 -3 107 0l206 -688l18 254q19 254 42 567t31 430q82 -2 166 0q-12 -95 -47 -469.5t-64 -701.5l-29 -326q-87 6 -171 0z" />
    <glyph glyph-name="uni0E20" unicode="&#xe20;" horiz-adv-x="1094" 
d="M335 795v-325q0 -58 2 -138.5t2 -112.5q0 -224 -178 -224q-46 0 -104 17l-15 74q35 -7 58 -7q42 0 56.5 24t14.5 114v587q0 29 -8 56t-19.5 44.5t-23.5 30.5t-20 19l-8 6v7q53 64 182.5 125.5t256.5 61.5q198 0 310 -92.5t112 -260.5v-478q0 -171 2 -222.5t11 -100.5
q-94 3 -190 0q9 49 11 103.5t2 219.5v478q0 112 -64.5 173t-193.5 61q-156 0 -264 -90v-4q3 -1 7.5 -4.5t16 -15.5t20.5 -27t16.5 -41.5t7.5 -57.5z" />
    <glyph glyph-name="uni0E21" unicode="&#xe21;" horiz-adv-x="1063" 
d="M920 808v-465q0 -174 -78.5 -266t-237.5 -92q-101 0 -183.5 47t-117.5 128q1 -98 12 -160q-93 3 -189 0q9 49 11 103.5t2 219.5v485q0 172 -2 223.5t-11 100.5q94 -3 191 0q-9 -50 -11.5 -107t-2.5 -217v-428q10 -125 88 -200.5t189 -75.5q95 0 135.5 52t40.5 168v484
q0 172 -2 223.5t-11 100.5q94 -3 189 0q-9 -49 -10.5 -103.5t-1.5 -220.5z" />
    <glyph glyph-name="uni0E22" unicode="&#xe22;" horiz-adv-x="1034" 
d="M896 808v-479q0 -157 -100 -250.5t-288 -93.5q-189 0 -291 95.5t-102 248.5v49q0 204 180 262v3q-78 37 -121.5 93t-43.5 155q0 121 77.5 190.5t210.5 69.5q94 0 158 -33q-25 -84 -32 -112h-23q-14 17 -40 28.5t-54 11.5q-69 0 -101.5 -40.5t-32.5 -126.5
q0 -92 46.5 -142.5t135.5 -50.5l88 2q-1 -17 -1 -54q0 -39 1 -54q-59 3 -97 3q-187 0 -187 -205v-49q0 -122 56 -175t173 -53q116 0 170 53.5t54 174.5v479q0 172 -2 223.5t-11 100.5q93 -3 189 0q-9 -49 -10.5 -103.5t-1.5 -220.5z" />
    <glyph glyph-name="uni0E23" unicode="&#xe23;" horiz-adv-x="850" 
d="M407 101q94 0 143.5 57.5t49.5 150.5q0 53 -21.5 90.5t-56 57.5t-79 38t-91 31t-91 37.5t-79 56t-56 88.5t-21.5 133q0 142 102.5 224.5t271.5 82.5q69 0 143.5 -24.5t115.5 -55.5q-14 -30 -31 -62t-24 -47t-11 -30h-23q-18 48 -66.5 75t-115.5 27q-93 0 -146.5 -49
t-53.5 -129q0 -64 27.5 -107t71 -65.5t96 -39t105.5 -37t96.5 -50.5t71 -87t27.5 -139q0 -168 -101.5 -255.5t-275.5 -87.5q-83 0 -159 28t-130 71q9 23 25 55.5t26 55t12 33.5h23q36 -58 93 -92.5t132 -34.5z" />
    <glyph glyph-name="uni0E24" unicode="&#xe24;" horiz-adv-x="1073" 
d="M150 470v345q0 47 -17 85.5t-34 53.5l-17 16v8q74 66 198.5 121t250.5 55q197 0 304.5 -92t107.5 -261v-793q0 -171 1.5 -222.5t10.5 -100.5q-92 3 -189 0q9 49 11 103t2 220v793q0 234 -248 234q-165 0 -275 -90v-4q2 -1 6 -4.5t14 -15.5t17.5 -27t14 -41.5t6.5 -57.5
v-557q0 -99 17.5 -129t67.5 -30q16 0 51 7l-14 -74q-58 -17 -112 -17q-178 0 -178 224q0 32 2 112.5t2 138.5z" />
    <glyph glyph-name="uni0E25" unicode="&#xe25;" horiz-adv-x="1010" 
d="M704 323v204h-204q-132 0 -192 -53.5t-60 -163.5q0 -116 38 -162.5t118 -46.5q29 0 61.5 12t45.5 28h23q1 -9 5.5 -21t16 -43t21.5 -59q-67 -35 -197 -35q-131 0 -214.5 83.5t-83.5 230.5q0 165 107.5 255.5t318.5 90.5h196v170q0 217 -227 217q-103 0 -177 -30.5
t-106 -62.5h-25q-4 19 -41 136q49 27 150 51.5t175 24.5q158 0 249.5 -43t127.5 -123.5t36 -214.5v-445q0 -171 2 -222.5t11 -100.5q-93 3 -188 0q9 49 11 103.5t2 219.5z" />
    <glyph glyph-name="uni0E26" unicode="&#xe26;" horiz-adv-x="1084" 
d="M335 795v-325q0 -58 2 -138.5t2 -112.5q0 -224 -178 -224q-46 0 -104 17l-15 74q35 -7 58 -7q42 0 56.5 24t14.5 114v587q0 29 -8 56t-19.5 44.5t-23.5 30.5t-20 19l-8 6v7q53 64 182.5 125.5t256.5 61.5q197 0 304.5 -92t107.5 -261v-793q0 -171 1.5 -222.5t10.5 -100.5
q-92 3 -189 0q9 49 11 103t2 220v793q0 234 -248 234q-156 0 -264 -90v-4q3 -1 7.5 -4.5t16 -15.5t20.5 -27t16.5 -41.5t7.5 -57.5z" />
    <glyph glyph-name="uni0E27" unicode="&#xe27;" horiz-adv-x="880" 
d="M362 101q140 0 197.5 108t57.5 337q0 96 -5 163.5t-20 132t-41 103.5t-70 62.5t-105 23.5q-88 0 -144.5 -26t-99.5 -72h-25q-1 8 -6 21.5t-16 44.5t-22 71q51 29 139.5 53t162.5 24q97 0 170 -26.5t120 -73t76.5 -118.5t41.5 -155t12 -190q0 -325 -99.5 -462t-337.5 -137
q-61 0 -128.5 15t-99.5 35q41 102 45 119h23q16 -20 65.5 -36.5t108.5 -16.5z" />
    <glyph glyph-name="uni0E28" unicode="&#xe28;" horiz-adv-x="1071" 
d="M794 323v474q0 108 -66 174.5t-180 66.5q-113 0 -180.5 -67t-67.5 -174v-154l-2 -158l4 -2q92 174 246 174q44 0 78 -12q-15 -34 -15 -160l-15 -10q-11 13 -36.5 23t-55.5 10q-99 0 -151.5 -72.5t-52.5 -198.5q0 -152 16 -237q-95 3 -192 0q9 49 10.5 103.5t1.5 219.5
v474q0 153 112 258t300 105q107 0 192 -37q119 7 277 87l5 -6q-12 -30 -15 -146q-65 -14 -141 -22q92 -98 92 -241v-472q0 -171 1.5 -222.5t10.5 -100.5q-92 3 -189 0q9 49 11 103.5t2 219.5z" />
    <glyph glyph-name="uni0E29" unicode="&#xe29;" horiz-adv-x="1044" 
d="M753 695v113q0 165 -2 219t-10 105q94 -3 189 0q-8 -49 -10 -102.5t-3 -221.5v-112l77 3q-3 -76 0 -119l-77 3v-254q0 -157 -100 -250.5t-288 -93.5q-189 0 -291 95.5t-102 248.5v479q0 172 -1.5 223.5t-10.5 100.5q93 -3 189 0q-9 -49 -11 -103.5t-2 -220.5v-479
q0 -108 58 -167.5t171 -59.5q112 0 168 59.5t56 167.5v255q-215 0 -270 -4q1 8 1 59t-1 62q94 -6 270 -6z" />
    <glyph glyph-name="uni0E2A" unicode="&#xe2a;" horiz-adv-x="1010" 
d="M704 323v204h-204q-132 0 -192 -53.5t-60 -163.5q0 -116 38 -162.5t118 -46.5q29 0 61.5 12t45.5 28h23q1 -9 5.5 -21t16 -43t21.5 -59q-67 -35 -197 -35q-131 0 -214.5 83.5t-83.5 230.5q0 165 107.5 255.5t318.5 90.5h196v170q0 217 -227 217q-103 0 -177 -30.5
t-106 -62.5h-25q-4 19 -41 136q48 26 159.5 51t186.5 25q108 0 186 -26q118 4 284 87l4 -6q-10 -28 -15 -146q-64 -14 -142 -22q75 -91 75 -268v-445q0 -171 2 -222.5t11 -100.5q-93 3 -188 0q9 49 11 103.5t2 219.5z" />
    <glyph glyph-name="uni0E2B" unicode="&#xe2b;" horiz-adv-x="1036" 
d="M898 526v-203q0 -171 1.5 -222.5t10.5 -100.5q-92 3 -189 0q9 49 11 103.5t2 219.5v222q0 102 -42.5 147.5t-123.5 45.5q-33 0 -57 -7l-190 -201q-13 -13 -15.5 -22t-2.5 -43l1 -142q1 -252 11 -323q-93 3 -188 0q9 49 11 103.5t2 219.5v338q0 154 -14 471q96 -3 192 0
q-2 -48 -5.5 -113t-5 -97t-2.5 -86.5t-1 -118.5q0 -11 10 -11q5 0 20 13l363 413q144 -2 193 0l-274 -290q133 -5 207.5 -87t74.5 -229z" />
    <glyph glyph-name="uni0E2C" unicode="&#xe2c;" horiz-adv-x="1193" 
d="M934 1337q118 -2 177 0q0 -99 -58 -172t-167 -94v-4q87 -7 129 -68t42 -160q0 -92 -31 -392t-41 -447q-12 2 -84.5 2.5t-85.5 -2.5q-19 77 -58.5 197.5t-89.5 262t-61 174.5q-3 -7 -64 -161t-102.5 -267t-69.5 -206q-13 3 -86.5 3t-84.5 -3q-22 456 -92 1130q86 -3 176 0
q20 -494 52 -885q22 69 96.5 265t111.5 314q15 -2 66 -2t68 2q35 -132 102 -329.5t84 -253.5q40 440 40 585q0 95 -44 139t-120 44q-49 0 -86 -5q2 17 2 64v60q86 1 135.5 8.5t84 31t47 63t12.5 106.5z" />
    <glyph glyph-name="uni0E2D" unicode="&#xe2d;" horiz-adv-x="947" 
d="M292 293v-153q70 -38 169 -38q48 0 83 11t65.5 41t49 82.5t29 136.5t10.5 202q0 139 -16.5 229.5t-53.5 140t-85.5 68t-122.5 18.5q-155 0 -246 -98h-18q-1 9 -5.5 22t-18 48t-25.5 67q50 28 142.5 52.5t166.5 24.5q156 0 252.5 -51.5t147 -175.5t50.5 -334
q0 -226 -42.5 -357t-130.5 -187.5t-238 -56.5q-74 0 -175 27.5t-160 58.5q10 98 10 222q0 131 -9 335h328q-2 -18 -2 -61q0 -16 3 -67q-59 10 -151 10q-7 -45 -7 -217z" />
    <glyph glyph-name="uni0E2E" unicode="&#xe2e;" horiz-adv-x="947" 
d="M292 293v-153q70 -38 169 -38q48 0 83 11t65.5 41t49 82.5t29 136.5t10.5 202q0 113 -10.5 192t-30 131t-53 81t-74.5 40.5t-100 11.5q-165 0 -256 -98h-18q-1 9 -5.5 22t-18 48t-25.5 67q49 27 151.5 52t178.5 25q103 0 181 -24q120 9 273 87l5 -6q-12 -30 -15 -146
q-56 -12 -127 -20q112 -125 112 -452q0 -226 -42.5 -357t-130.5 -187.5t-238 -56.5q-74 0 -175 27.5t-160 58.5q10 98 10 222q0 131 -9 335h328q-2 -18 -2 -61q0 -16 3 -67q-59 10 -151 10q-7 -45 -7 -217z" />
    <glyph glyph-name="uni0E2F" unicode="&#xe2f;" horiz-adv-x="819" 
d="M487 323v594q-33 -32 -90 -59.5t-124 -27.5q-102 0 -153 51t-51 140q0 57 17 117h171q-28 -41 -28 -105q0 -37 21.5 -60t68.5 -23q116 0 222 188h110v-815q0 -171 2 -222.5t11 -100.5q-94 3 -189 0q9 49 10.5 103.5t1.5 219.5z" />
    <glyph glyph-name="uni0E30" unicode="&#xe30;" horiz-adv-x="672" 
d="M254 945q-19 -46 -19 -80q0 -37 58 -37q107 0 177 3q95 4 118 10l3 -4q-3 -10 -19 -59t-23 -69q-91 -11 -217 -11q-78 0 -128 9q-110 16 -110 136q0 76 16 104q82 -7 144 -2zM254 369q-19 -46 -19 -80q0 -37 58 -37q107 0 177 2q95 4 118 11l3 -5q-5 -13 -20 -61t-22 -67
q-94 -10 -217 -10q-75 0 -128 8q-110 17 -110 137q0 76 16 104q79 -9 144 -2z" />
    <glyph glyph-name="uni0E31" unicode="&#xe31;" 
d="M-453 1552q-18 -46 -18 -80q0 -37 57 -37q114 -2 145 -2q35 0 116.5 2t115.5 2q78 0 118 11l3 -4q-6 -16 -21 -58.5l-21 -59.5q-94 -10 -311 -10q-154 0 -208 8q-60 8 -94.5 43.5t-34.5 93.5q0 64 20 93q77 -7 133 -2z" />
    <glyph glyph-name="uni0E32" unicode="&#xe32;" horiz-adv-x="756" 
d="M615 820v-497q0 -171 2 -222.5t11 -100.5q-92 3 -187 0q9 49 11 103.5t2 219.5v500q0 111 -43.5 160.5t-132.5 49.5q-65 0 -121.5 -27.5t-86.5 -58.5h-14q-3 31 -42 137q46 26 123 45.5t148 19.5q163 0 246.5 -78.5t83.5 -250.5z" />
    <glyph glyph-name="uni0E33" unicode="&#xe33;" horiz-adv-x="766" 
d="M615 820v-497q0 -171 2 -222.5t11 -100.5q-92 3 -187 0q9 49 11 103.5t2 219.5v500q0 111 -43.5 160.5t-132.5 49.5q-65 0 -121.5 -27.5t-86.5 -58.5h-14q-3 31 -42 137q46 26 123 45.5t148 19.5q163 0 246.5 -78.5t83.5 -250.5zM-158 1448q0 80 -71 80q-36 0 -53.5 -22
t-17.5 -58q0 -33 17.5 -56.5t53.5 -23.5q71 0 71 80zM-48 1448q0 -83 -49.5 -132.5t-131.5 -49.5q-83 0 -130.5 49t-47.5 133q0 82 47.5 131t130.5 49q85 0 133 -47.5t48 -132.5z" />
    <glyph glyph-name="uni0E34" unicode="&#xe34;" 
d="M-240 1328q-35 0 -126 1t-135 1q-35 0 -121.5 -2t-120.5 -2q-83 0 -118 -10l-3 4q28 71 42 114q91 11 321 11q196 0 356 -8q-3 -24 -3 -63q0 -19 4 -51q-59 5 -96 5z" />
    <glyph glyph-name="uni0E35" unicode="&#xe35;" 
d="M-501 1445q105 0 210 -3q-2 108 -2 167q24 -4 74.5 -3.5t74.5 3.5v-286q-59 5 -96 5q-35 0 -126 1t-135 1q-35 0 -121.5 -2t-120.5 -2q-83 0 -118 -10l-3 4q28 71 42 114q91 11 321 11z" />
    <glyph glyph-name="uni0E36" unicode="&#xe36;" 
d="M-822 1434q91 11 321 11h30q-4 28 -4 44q0 79 49 125.5t121 46.5q74 0 122.5 -45t48.5 -127q0 -76 -46.5 -121t-124.5 -45q-34 0 -93 3.5t-103 3.5q-35 0 -121.5 -2t-120.5 -2q-83 0 -118 -10l-3 4q28 71 42 114zM-244 1491q0 73 -61 73q-60 0 -60 -73q0 -35 15.5 -54.5
t44.5 -19.5q61 0 61 74z" />
    <glyph glyph-name="uni0E37" unicode="&#xe37;" 
d="M-351 1609v-165l77 -2q-2 108 -2 167q24 -4 66 -3.5t66 3.5v-286q-59 5 -96 5q-35 0 -126 1t-135 1q-35 0 -121.5 -2t-120.5 -2q-83 0 -118 -10l-3 4q28 71 42 114q91 11 321 11h24q-2 106 -2 164q58 -9 128 0z" />
    <glyph glyph-name="uni0E38" unicode="&#xe38;" 
d="M-307 -500q0 51 1 130t1 134q-81 0 -137 -11q2 17 2 67v59h288q-6 -57 -6 -115v-264q-24 3 -74.5 3.5t-74.5 -3.5z" />
    <glyph glyph-name="uni0E39" unicode="&#xe39;" 
d="M-152 -243v-103q0 -81 -62.5 -127.5t-163.5 -46.5q-108 0 -167 48.5t-59 122.5v84q0 32 -10.5 44.5t-36.5 12.5q-15 0 -53 -7l15 74q58 17 111 17q75 0 102.5 -26t27.5 -92v-105q0 -39 17 -56t56 -17q74 0 74 73v104l-6 111q68 -4 161 0q-6 -60 -6 -111z" />
    <glyph glyph-name="uni0E3A" unicode="&#xe3a;" 
d="M-342 -244q0 43 26.5 69.5t69.5 26.5t69.5 -26.5t26.5 -69.5t-26.5 -69.5t-69.5 -26.5t-69.5 26.5t-26.5 69.5z" />
    <glyph glyph-name="uni0E3F" unicode="&#xe3f;" horiz-adv-x="960" 
d="M534 1482q-12 -66 -12 -225q316 -29 316 -316q0 -102 -54 -177.5t-122 -101.5v-3q208 -69 208 -289q0 -188 -88 -280t-260 -101q0 -139 12 -200q-61 2 -124 0q11 61 12 199q-66 1 -139.5 4t-114.5 6l-40 2q8 47 9.5 109.5t1.5 358.5v261q0 308 -1.5 390t-9.5 128
q169 11 294 13q-1 165 -12 222q63 -2 124 0zM698 359q0 97 -45.5 155t-130.5 74v-481q90 13 133 72.5t43 179.5zM309 111q49 -5 113 -7v490h-113v-483zM309 1135v-425h113v435q-35 -1 -63 -3.5t-39 -4.5zM668 930q0 92 -36 142.5t-110 65.5v-420q74 15 110 66t36 146z" />
    <glyph glyph-name="uni0E40" unicode="&#xe40;" horiz-adv-x="502" 
d="M150 470v338q0 172 -1.5 223.5t-10.5 100.5q92 -3 187 0q-9 -49 -10.5 -103.5t-1.5 -220.5v-570q0 -98 18 -128.5t68 -30.5q16 0 51 7l-14 -74q-58 -17 -112 -17q-178 0 -178 224q0 32 2 112.5t2 138.5z" />
    <glyph glyph-name="uni0E41" unicode="&#xe41;" horiz-adv-x="976" 
d="M150 470v338q0 172 -1.5 223.5t-10.5 100.5q92 -3 187 0q-9 -49 -10.5 -103.5t-1.5 -220.5v-570q0 -98 18 -128.5t68 -30.5q16 0 51 7l-14 -74q-58 -17 -112 -17q-178 0 -178 224q0 32 2 112.5t2 138.5zM624 470v338q0 172 -1.5 223.5t-10.5 100.5q92 -3 187 0
q-9 -49 -10.5 -103.5t-1.5 -220.5v-570q0 -98 18 -128.5t68 -30.5q16 0 51 7l-14 -74q-58 -17 -112 -17q-178 0 -178 224q0 32 2 112.5t2 138.5z" />
    <glyph glyph-name="uni0E42" unicode="&#xe42;" horiz-adv-x="502" 
d="M303 1641q-135 0 -182 -79q35 -18 66 -47t61 -74t47.5 -112.5t17.5 -148.5v-942q0 -98 18 -128.5t68 -30.5q16 0 51 7l-14 -74q-58 -17 -112 -17q-177 0 -177 224q0 32 2 112.5t2 138.5v672q0 181 -46.5 268.5t-136.5 123.5q40 111 128 167.5t208 56.5q87 0 168 -28
t129 -72q-15 -31 -31.5 -62t-24 -46.5t-11.5 -30.5h-23q-20 55 -75 88.5t-133 33.5z" />
    <glyph glyph-name="uni0E43" unicode="&#xe43;" horiz-adv-x="502" 
d="M217 1641q-173 0 -218 -122h-23q-4 15 -11.5 30t-24 47t-30.5 62q53 40 133 70t163 30q56 0 108 -14.5t96.5 -42.5t71 -75.5t26.5 -107.5q0 -39 -14.5 -74.5t-36 -61.5t-47 -59t-47 -65t-36 -81.5t-14.5 -107.5v-831q0 -98 18 -128.5t68 -30.5q16 0 51 7l-14 -74
q-58 -17 -112 -17q-177 0 -177 224q0 32 2 112.5t2 138.5v637q0 62 21 115t50.5 90t59 69.5t50.5 69t21 74.5q0 50 -38 83t-98 33z" />
    <glyph glyph-name="uni0E44" unicode="&#xe44;" horiz-adv-x="502" 
d="M313 1177v-939q0 -98 18 -128.5t68 -30.5q16 0 51 7l-14 -74q-58 -17 -112 -17q-177 0 -177 224q0 32 2 112.5t2 138.5v718q0 117 49.5 217t113.5 147q-52 -13 -138 -13q-71 0 -140.5 13.5t-101.5 34.5q15 15 31 38.5t34.5 55t22.5 38.5h4q18 -25 78.5 -39t124.5 -14
q171 0 241 50l79 -79q-79 -61 -127 -119t-78.5 -144t-30.5 -197z" />
    <glyph glyph-name="uni0E45" unicode="&#xe45;" horiz-adv-x="766" 
d="M615 820v-812q0 -171 2 -222.5t11 -100.5q-92 3 -187 0q9 49 11 103t2 220v815q0 109 -47 159.5t-129 50.5q-65 0 -121.5 -27.5t-86.5 -58.5h-14q-3 31 -42 137q114 65 251 65q175 0 262.5 -78.5t87.5 -250.5z" />
    <glyph glyph-name="uni0E46" unicode="&#xe46;" horiz-adv-x="979" 
d="M265 859q0 -76 29.5 -109.5t88.5 -33.5q45 0 78 13l-16 -110q-46 -19 -93 -19q-114 0 -183 72t-69 190q0 130 69.5 202t179.5 72l118 -88l125 88q120 0 178.5 -59.5t58.5 -196.5v-872q0 -171 2 -222.5t11 -100.5q-91 3 -187 0q9 49 11 103t2 220v872q0 62 -20 89.5
t-64 27.5l-107 -82h-17l-122 82q-73 0 -73 -138z" />
    <glyph glyph-name="uni0E47" unicode="&#xe47;" 
d="M-356 1357q70 0 129 17q-8 -79 0 -127h-119q-100 0 -143 74q-48 -74 -151 -74q-83 0 -139 53t-56 136v13q0 82 58.5 139t170.5 57q41 0 114 -4.5t104 -4.5q130 0 185 33v-127q-58 -17 -161 -17q-36 0 -120.5 5.5t-106.5 5.5q-53 0 -78.5 -24.5t-25.5 -62.5v-5
q0 -40 22 -63.5t60 -23.5q74 0 117 59h12q15 -20 23.5 -29.5t36 -19.5t68.5 -10z" />
    <glyph glyph-name="uni0E48" unicode="&#xe48;" 
d="M-290 1990q71 -2 146 0l-6 -122l-13 -174q-15 2 -54 2t-54 -2q-11 109 -14 174q-2 30 -2.5 44.5t-1 32.5t-1.5 45z" />
    <glyph glyph-name="uni0E49" unicode="&#xe49;" 
d="M-335 1932h134v-121h48q74 0 212 6q-3 -77 0 -120q-70 4 -211 4h-208q10 18 10 131q-54 0 -121 -4q3 39 0 107q80 -3 136 -3z" />
    <glyph glyph-name="uni0E4A" unicode="&#xe4a;" 
d="M-167 1682v64q0 51 -45 51q-48 0 -74 -46h-16q-30 45 -73 45q-19 0 -31.5 -14.5t-12.5 -35.5q0 -19 2.5 -35t4.5 -23l2 -6h-140q-10 34 -10 90q0 67 41 103.5t111 36.5q81 0 116 -68q37 68 123 68q61 0 95 -27.5t34 -80.5v-12q83 0 159 16v-131q-82 5 -161 5h-125z" />
    <glyph glyph-name="uni0E4B" unicode="&#xe4b;" 
d="M-306 2054q72 -2 148 0q0 -65 -3 -124q75 0 134 4q-1 -10 -1 -60t1 -58q-54 4 -141 4l-5 -121q-15 2 -59 2t-59 -2q-3 62 -6 121q-78 0 -140 -4q1 10 1 60t-1 58q51 -4 134 -4q-3 64 -3 124z" />
    <glyph glyph-name="uni0E4C" unicode="&#xe4c;" 
d="M-160 1671h-120q-39 0 -54 -12.5t-15 -39.5q0 -21 6 -63q-17 2 -79 2q-54 0 -71 -2q-10 36 -10 78q0 71 50 112t158 41h18q52 0 91 3t52 6l13 3l3 -2q-18 -67 -42 -126z" />
    <glyph glyph-name="uni0E4D" unicode="&#xe4d;" 
d="M-158 1448q0 80 -71 80q-36 0 -53.5 -22t-17.5 -58q0 -33 17.5 -56.5t53.5 -23.5q71 0 71 80zM-48 1448q0 -83 -49.5 -132.5t-131.5 -49.5q-83 0 -130.5 49t-47.5 133q0 82 47.5 131t130.5 49q85 0 133 -47.5t48 -132.5z" />
    <glyph glyph-name="uni0E4E" unicode="&#xe4e;" horiz-adv-x="1661" 
 />
    <glyph glyph-name="uni0E4F" unicode="&#xe4f;" horiz-adv-x="1208" 
d="M792 525q0 -95 -58.5 -149t-130.5 -54t-131 54t-59 149q0 105 57 160t133 55t132.5 -55t56.5 -160zM605 0q-75 0 -145.5 19t-135 60t-112.5 101t-76.5 149t-28.5 196q0 133 43 237t115.5 165.5t158.5 92.5t181 31t181 -31t158.5 -92.5t115.5 -165.5t43 -237
q0 -107 -28.5 -196t-76.5 -149t-112.5 -101t-135 -60t-145.5 -19zM605 952q-76 0 -143 -26t-120 -77t-84 -134.5t-31 -189.5t31 -189t84 -134t120 -77t143 -26t143 26t120 77t84 134t31 189t-31 189.5t-84 134.5t-120 77t-143 26z" />
    <glyph glyph-name="uni0E50" unicode="&#xe50;" horiz-adv-x="1024" 
d="M512 106q262 0 262 388q0 217 -64 311.5t-198 94.5t-198 -94.5t-64 -311.5q0 -388 262 -388zM512 -14q-60 0 -110 9.5t-98.5 32t-85.5 63t-65.5 98t-43.5 141.5t-15 190q0 133 31.5 231t89.5 156t132 85.5t165 27.5t165 -27.5t132 -85.5t89.5 -156t31.5 -231
q0 -106 -15 -190t-43.5 -141.5t-65.5 -98t-85.5 -63t-98.5 -32t-110 -9.5z" />
    <glyph glyph-name="uni0E51" unicode="&#xe51;" horiz-adv-x="1036" 
d="M450 367v24q0 110 -16 192q14 -3 91 -3q63 0 74 3q-3 -171 -3 -204v-101q-7 -2 -30.5 -10t-37.5 -12t-36.5 -9.5t-45.5 -8t-48 -2.5q-141 0 -222.5 95.5t-81.5 264.5q0 197 106.5 310.5t319.5 113.5q420 0 420 -498q0 -278 -121.5 -405t-348.5 -127q-110 0 -177 19
l-28 121l8 8q95 -28 202 -28q69 0 122 19.5t96 64.5t66 128t23 200q0 201 -61 289.5t-201 88.5q-270 0 -270 -306q0 -122 41 -181t104 -59q34 0 55 13z" />
    <glyph glyph-name="uni0E52" unicode="&#xe52;" horiz-adv-x="1138" 
d="M530 748q0 -63 18.5 -104.5t64.5 -69.5v-22q-32 -4 -127 -60q-43 30 -69.5 100t-26.5 156q0 126 60 198t161 72l98 -79l115 79q113 0 166.5 -58.5t53.5 -190.5v-423q0 -69 -25 -131.5t-75.5 -114t-136 -82t-195.5 -30.5q-238 0 -354 93t-116 265v516q0 158 -1.5 209.5
t-10.5 98.5q91 -3 180 0q-9 -47 -10.5 -96t-1.5 -212v-518q0 -110 75 -173t237 -63q146 0 212 64.5t66 171.5v425q0 63 -15 90t-49 27l-114 -70h-2l-113 70q-27 0 -46 -35.5t-19 -102.5z" />
    <glyph glyph-name="uni0E53" unicode="&#xe53;" horiz-adv-x="1168" 
d="M526 308v435q0 85 -33 121t-99 36q-58 0 -92.5 -38.5t-34.5 -107.5v-527q0 -90 25 -121t77 -31q14 0 49 7l-14 -71q-57 -16 -106 -16q-88 0 -139 55.5t-51 158.5q0 30 2 106.5t2 132.5v300q0 117 74 194.5t190 77.5q86 0 143.5 -36t80.5 -97q23 61 80.5 97t135.5 36
q242 0 242 -270v-442q0 -163 1.5 -212t10.5 -96q-89 3 -180 0q11 73 11 308v460q0 70 -25 101t-84 31q-55 0 -82.5 -37t-27.5 -120v-435q0 -163 1.5 -212t10.5 -96q-89 3 -180 0q9 47 10.5 98.5t1.5 209.5z" />
    <glyph glyph-name="uni0E54" unicode="&#xe54;" horiz-adv-x="1030" 
d="M554 1006h98q127 0 127 92q0 37 -13 72q84 -3 168 0v-32q0 -123 -77.5 -187.5t-214.5 -64.5h-86q-141 0 -220.5 -76t-79.5 -256v-188q0 -128 43 -187t127 -59q69 0 117 43q-49 86 -49 201t58.5 181t163.5 66q84 0 134 -33q-28 -92 -31 -105h-22q-24 28 -69 28
q-78 0 -78 -149q0 -232 193 -232l79 7q-5 -28 -5 -86v-41h-92q-118 0 -204 70q-72 -82 -207 -82q-150 0 -233 100t-83 270v196q0 220 118 336t338 116z" />
    <glyph glyph-name="uni0E55" unicode="&#xe55;" horiz-adv-x="1056" 
d="M728 501q-78 0 -78 -149q0 -232 193 -232l79 7q-5 -28 -5 -86v-41h-92q-118 0 -204 70q-72 -82 -207 -82q-150 0 -233 100t-83 270v196q0 170 71.5 278.5t207.5 149.5q-7 18 -7 46q0 69 43 110.5t109 41.5q67 0 109.5 -40.5t42.5 -107.5q0 -17 -1 -26q49 3 77.5 26.5
t28.5 65.5q0 37 -13 72q84 -3 168 0v-32q0 -123 -77.5 -187.5t-214.5 -64.5h-106q-280 0 -280 -332v-188q0 -128 43 -187t127 -59q69 0 117 43q-49 86 -49 201t58.5 181t163.5 66q84 0 134 -33q-28 -92 -31 -105h-22q-24 28 -69 28zM524 978q25 0 39.5 15t14.5 37
q0 23 -14.5 39.5t-39.5 16.5t-39.5 -16.5t-14.5 -39.5q0 -22 14.5 -37t39.5 -15z" />
    <glyph glyph-name="uni0E56" unicode="&#xe56;" horiz-adv-x="1004" 
d="M198 748l-132 422q128 -2 172 0l55 -246q44 45 105.5 71.5t125.5 26.5q185 0 284.5 -100.5t99.5 -285.5v-261q0 -59 -7 -107t-30.5 -103t-63 -92t-110.5 -62t-168 -25q-77 0 -138 14t-116.5 35.5t-88.5 28.5v61q0 196 -12 262q91 -3 180 0q-12 -66 -12 -212v-20
q4 -1 29 -10.5t46 -16.5t55.5 -13.5t66.5 -6.5q53 0 92.5 18t61.5 44.5t35.5 63.5t17.5 67.5t4 63.5v271q0 128 -58.5 196t-167.5 68q-96 0 -145.5 -40.5t-78.5 -111.5h-102z" />
    <glyph glyph-name="uni0E57" unicode="&#xe57;" horiz-adv-x="1314" 
d="M1064 260v602q0 158 -1.5 209.5t-10.5 98.5q91 -3 180 0q-9 -47 -10.5 -96t-1.5 -212v-586q0 -288 -298 -288q-91 0 -150 16v752q0 83 -21 114.5t-64 31.5t-70 -35t-27 -101q0 -129 6 -208q-73 2 -148 0q6 79 6 208q0 136 -90 136q-47 0 -72 -32.5t-25 -93.5v-549
q0 -90 25 -121t77 -31q14 0 49 7l-14 -71q-57 -16 -106 -16q-88 0 -139 55.5t-51 158.5q0 30 2 106.5t2 132.5v338q0 111 68 173.5t158 62.5q70 0 121 -29t67 -91q17 57 73 88.5t113 31.5q110 0 164 -61.5t54 -204.5v-658q61 0 97 39t37 123z" />
    <glyph glyph-name="uni0E58" unicode="&#xe58;" horiz-adv-x="1072" 
d="M256 554v-280q0 -166 94 -166h24l170 152h14l154 -152q35 0 58.5 38.5t23.5 93.5q0 73 -2 125.5t-4 68.5l-1 16q-88 0 -144 -10q3 48 3 64q0 41 -2 58h309q-7 -86 -7 -322q0 -71 -18.5 -126.5t-62.5 -91.5t-109 -36h-80l-126 124l-120 -122h-66q-125 0 -195.5 77
t-70.5 197v292q0 220 118 336t338 116h138q68 0 97.5 19.5t29.5 66.5q0 43 -13 78q84 -3 168 0v-32q0 -125 -75 -188.5t-217 -63.5h-126q-141 0 -220.5 -76t-79.5 -256z" />
    <glyph glyph-name="uni0E59" unicode="&#xe59;" horiz-adv-x="1028" 
d="M1016 1170v-72q0 -92 -63 -143t-179 -51q-46 0 -68 -36.5t-22 -95.5l136 -558q32 -132 62 -214h-174l-200 798q-14 56 -40.5 79t-76.5 23q-58 0 -91 -38.5t-33 -107.5v-487q0 -106 35.5 -146.5t122.5 -40.5q24 0 59 7l-12 -73q-67 -19 -124 -19q-117 0 -178.5 67.5
t-61.5 186.5q0 30 2 106.5t2 132.5v260q0 117 73.5 194.5t189.5 77.5q86 0 144 -36t81 -97q8 56 46.5 90.5t102.5 34.5q68 0 90 18t22 62q0 43 -13 78q84 -3 168 0z" />
    <glyph glyph-name="endash" unicode="&#x2013;" horiz-adv-x="1044" 
d="M741 531h-436q-88 0 -143 -4q1 8 1 62.5t-1 65.5q64 -4 143 -4h436q88 0 143 4q-1 -8 -1 -63t1 -65q-64 4 -143 4z" />
    <glyph glyph-name="emdash" unicode="&#x2014;" horiz-adv-x="1150" 
d="M883 531h-616q-88 0 -143 -4q1 8 1 62.5t-1 65.5q64 -4 143 -4h616q88 0 143 4q-1 -8 -1 -63t1 -65q-64 4 -143 4z" />
    <glyph glyph-name="quoteleft" unicode="&#x2018;" horiz-adv-x="428" 
d="M258 1328h82q-8 -20 -20 -52.5t-32 -117t-20 -148.5q0 -86 12 -152q-85 3 -172 0v92q0 85 31.5 165t118.5 213z" />
    <glyph glyph-name="quoteright" unicode="&#x2019;" horiz-adv-x="428" 
d="M168 860h-82q8 20 20 52.5t32 117t20 148.5q0 86 -12 152q85 -3 172 0v-92q0 -85 -31.5 -165t-118.5 -213z" />
    <glyph glyph-name="quotesinglbase" unicode="&#x201a;" horiz-adv-x="418" 
d="M178 -298h-82q8 19 20 51.5t32 116.5t20 148q0 86 -12 152q85 -3 172 0v-92q0 -84 -31.5 -163t-118.5 -213z" />
    <glyph glyph-name="quotedblleft" unicode="&#x201c;" horiz-adv-x="722" 
d="M554 1328h82q-8 -20 -20 -52.5t-32 -117t-20 -148.5q0 -86 12 -152q-85 3 -172 0v92q0 85 31.5 165t118.5 213zM258 1328h82q-8 -20 -20 -52.5t-32 -117t-20 -148.5q0 -86 12 -152q-85 3 -172 0v92q0 85 31.5 165t118.5 213z" />
    <glyph glyph-name="quotedblright" unicode="&#x201d;" horiz-adv-x="722" 
d="M168 860h-82q8 20 20 52.5t32 117t20 148.5q0 86 -12 152q85 -3 172 0v-92q0 -85 -31.5 -165t-118.5 -213zM464 860h-82q8 20 20 52.5t32 117t20 148.5q0 86 -12 152q85 -3 172 0v-92q0 -85 -31.5 -165t-118.5 -213z" />
    <glyph glyph-name="quotedblbase" unicode="&#x201e;" horiz-adv-x="712" 
d="M180 -298h-82q8 19 19 51.5t30 116.5t19 148q0 86 -12 152q85 -3 172 0v-92q0 -86 -30 -165.5t-116 -210.5zM476 -298h-82q8 19 19 51.5t30 116.5t19 148q0 86 -12 152q85 -3 172 0v-92q0 -86 -30 -165.5t-116 -210.5z" />
    <glyph glyph-name="dagger" unicode="&#x2020;" horiz-adv-x="892" 
d="M494 888l40 -888h-172l40 888l-308 -40v152l308 -40l-40 370h172l-40 -370l306 40v-152z" />
    <glyph glyph-name="daggerdbl" unicode="&#x2021;" horiz-adv-x="892" 
d="M534 748v-146l-40 -140l306 40v-154l-306 40l40 -388h-172l40 388l-308 -40v154l308 -40l-40 140v146l40 140l-308 -40v152l308 -40l-40 370h172l-40 -370l306 40v-152l-306 40z" />
    <glyph glyph-name="bullet" unicode="&#x2022;" horiz-adv-x="550" 
d="M125 594q0 68 41.5 110t108.5 42t108.5 -42t41.5 -110t-41.5 -110t-108.5 -42t-108.5 42t-41.5 110z" />
    <glyph glyph-name="ellipsis" unicode="&#x2026;" horiz-adv-x="1272" 
d="M123 95q0 43 26.5 69.5t69.5 26.5t69.5 -26.5t26.5 -69.5t-26.5 -69.5t-69.5 -26.5t-69.5 26.5t-26.5 69.5zM541 95q0 43 26.5 69.5t69.5 26.5t69.5 -26.5t26.5 -69.5t-26.5 -69.5t-69.5 -26.5t-69.5 26.5t-26.5 69.5zM959 95q0 43 26.5 69.5t69.5 26.5t69.5 -26.5
t26.5 -69.5t-26.5 -69.5t-69.5 -26.5t-69.5 26.5t-26.5 69.5z" />
    <glyph glyph-name="perthousand" unicode="&#x2030;" horiz-adv-x="2238" 
d="M552 935q0 293 -130 293t-130 -293t130 -293t130 293zM1140 1330l-437 -1137q-6 -15 -18 -46.5t-18 -47.5t-14 -37.5t-12 -36.5t-5 -25q-111 2 -148 0l437 1137q63 161 67 193q111 -2 148 0zM692 935q0 -196 -69.5 -294.5t-200.5 -98.5t-200.5 98.5t-69.5 294.5
t69.5 294.5t200.5 98.5t200.5 -98.5t69.5 -294.5zM1334 379q0 293 -130 293t-130 -293t130 -293t130 293zM1474 379q0 -196 -69.5 -294.5t-200.5 -98.5t-200.5 98.5t-69.5 294.5t69.5 294.5t200.5 98.5t200.5 -98.5t69.5 -294.5zM1948 379q0 293 -130 293t-130 -293
t130 -293t130 293zM2088 379q0 -196 -69.5 -294.5t-200.5 -98.5t-200.5 98.5t-69.5 294.5t69.5 294.5t200.5 98.5t200.5 -98.5t69.5 -294.5z" />
    <glyph glyph-name="guilsinglleft" unicode="&#x2039;" horiz-adv-x="580" 
d="M436 174h-124l-170 394l170 394h124l-118 -394z" />
    <glyph glyph-name="guilsinglright" unicode="&#x203a;" horiz-adv-x="580" 
d="M268 174h-126l120 394l-120 394h126l168 -394z" />
    <glyph glyph-name="fraction" unicode="&#x2044;" horiz-adv-x="436" 
d="M588 1538l-542 -1534q-53 -148 -59 -194q-77 3 -139 0l542 1534q53 148 59 194q77 -3 139 0z" />
    <glyph glyph-name="Euro" unicode="&#x20ac;" horiz-adv-x="950" 
d="M567 478h-173q9 -110 29 -183.5t52.5 -112.5t70.5 -54.5t92 -15.5q108 0 221 42l9 -8l-19 -128q-144 -32 -210 -32q-203 0 -302.5 113t-122.5 379q-57 0 -114 -4q1 8 1 57.5t-1 60.5q57 -4 107 -4q-1 30 -1 96q0 61 2 90q-55 0 -108 -4q1 8 1 57.5t-1 60.5q65 -4 117 -4
q29 233 133 346.5t289 113.5q153 0 231 -49q-41 -90 -47 -127h-22q-60 50 -169 50q-45 0 -79.5 -14t-67 -49.5t-54.5 -103.5t-33 -167h169q88 0 143 4q-1 -8 -1 -58t1 -60q-64 4 -143 4h-177q-2 -32 -2 -102q0 -58 1 -84h178q88 0 143 4q-1 -8 -1 -57.5t1 -60.5
q-64 4 -143 4z" />
    <glyph glyph-name="trademark" unicode="&#x2122;" horiz-adv-x="1394" 
d="M888 908l-124 226v-206q0 -163 1.5 -212t10.5 -96q-76 2 -154 0q9 47 10.5 98.5t1.5 209.5v302h-218v-302q0 -163 1.5 -212t10.5 -96q-76 2 -154 0q9 47 10.5 98.5t1.5 209.5v302h-75q-83 0 -135 -4q1 8 1 54t-1 56q90 -6 135 -6h573l158 -290l154 290h146v-402
q0 -163 1.5 -212t10.5 -96q-76 2 -154 0q9 47 10.5 98.5t1.5 209.5v206l-126 -226q-14 2 -48 2t-50 -2z" />
    <glyph glyph-name="Omega" unicode="&#x2126;" horiz-adv-x="1042" 
d="M520 1224q-87 0 -136 -52.5t-70.5 -170.5t-21.5 -331q0 -435 176 -568v-102h-186q-70 0 -160 -6q1 10 1 61t-1 59q52 -4 170 -4q-80 85 -125 213.5t-45 356.5q0 139 11.5 241t38.5 185t72.5 133.5t113.5 77.5t162 27t162 -27t113.5 -77.5t72.5 -133.5t38.5 -185
t11.5 -241q0 -228 -45 -356.5t-125 -213.5q118 0 170 4q-1 -8 -1 -59t1 -61q-90 6 -160 6h-186v102q176 133 176 568q0 213 -21.5 331t-70.5 170.5t-136 52.5z" />
    <glyph glyph-name="partialdiff" unicode="&#x2202;" horiz-adv-x="950" 
d="M474 740q-89 0 -144.5 -77.5t-55.5 -229.5q0 -165 58 -246t144 -81q92 0 147 82.5t55 260.5q0 141 -52.5 216t-151.5 75zM680 772q0 230 -75.5 338t-203.5 108q-105 0 -207 -40l-8 8l18 128q32 11 91.5 20.5t100.5 9.5q227 0 337 -146.5t110 -475.5v-143
q0 -593 -363 -593q-177 0 -275 119t-98 322q0 206 101 319.5t255 113.5q71 0 129.5 -25.5t87.5 -62.5z" />
    <glyph glyph-name="Delta" unicode="&#x2206;" horiz-adv-x="968" 
d="M86 142l338 1188q70 -5 142 0l320 -1188q8 -30 19.5 -65.5t18.5 -56.5l8 -20h-894q28 67 48 142zM716 142l-236 946l-258 -946h494z" />
    <glyph glyph-name="product" unicode="&#x220f;" horiz-adv-x="1072" 
d="M236 508v690q-21 0 -149 -9q2 9 2 69t-3 72h900q-3 -13 -3.5 -70t2.5 -71q-71 5 -171 8v-959q0 -98 18 -128.5t68 -30.5q16 0 51 7l-14 -74q-58 -17 -112 -17q-175 0 -175 224v981h-250v-692q0 -313 2 -386.5t12 -121.5q-96 3 -190 0q9 48 10.5 121.5t1.5 386.5z" />
    <glyph glyph-name="summation" unicode="&#x2211;" horiz-adv-x="892" 
d="M436 488l-336 794v48h572q79 0 143 4q-1 -11 -1 -66.5t1 -63.5q-83 6 -143 6h-376l300 -692l-335 -704q465 0 553 22q-3 -29 -3 -89t3 -77q-94 6 -143 6h-595v60z" />
    <glyph glyph-name="minus" unicode="&#x2212;" horiz-adv-x="1044" 
d="M741 531h-436q-88 0 -143 -4q1 8 1 62.5t-1 65.5q64 -4 143 -4h436q88 0 143 4q-1 -8 -1 -63t1 -65q-64 4 -143 4z" />
    <glyph glyph-name="uni2215" unicode="&#x2215;" horiz-adv-x="436" 
d="M588 1538l-542 -1534q-53 -148 -59 -194q-77 3 -139 0l542 1534q53 148 59 194q77 -3 139 0z" />
    <glyph glyph-name="uni2219" unicode="&#x2219;" horiz-adv-x="436" 
d="M123 589q0 43 26.5 69.5t69.5 26.5t69.5 -26.5t26.5 -69.5t-26.5 -69.5t-69.5 -26.5t-69.5 26.5t-26.5 69.5z" />
    <glyph glyph-name="radical" unicode="&#x221a;" horiz-adv-x="1054" 
d="M57 744q88 -3 175 0q18 -78 32 -131l118 -427l366 1372h336q-3 -28 -3 -78.5t3 -67.5q-94 6 -143 6h-77l-386 -1418q-92 6 -182 0l-188 613q-8 27 -21 59.5t-21 51.5z" />
    <glyph glyph-name="infinity" unicode="&#x221e;" horiz-adv-x="1386" 
d="M426 762q-91 0 -136.5 -40.5t-45.5 -133.5q0 -92 45 -132t137 -40q110 0 153 51t43 177q-24 55 -76.5 86.5t-119.5 31.5zM702 428q-32 -69 -104.5 -109.5t-167.5 -40.5q-172 0 -258 80.5t-86 229.5q0 150 86 231t258 81t256 -150q33 70 104.5 110t167.5 40q172 0 258 -81
t86 -231q0 -149 -86 -229.5t-258 -80.5q-82 0 -145 33.5t-111 116.5zM962 416q90 0 136 40.5t46 131.5q0 93 -45 133.5t-137 40.5q-110 0 -152 -51t-42 -177q22 -55 74 -86.5t120 -31.5z" />
    <glyph glyph-name="uni2224" unicode="&#x2224;" horiz-adv-x="436" 
d="M123 589q0 43 26.5 69.5t69.5 26.5t69.5 -26.5t26.5 -69.5t-26.5 -69.5t-69.5 -26.5t-69.5 26.5t-26.5 69.5z" />
    <glyph glyph-name="logicaland" unicode="&#x2227;" horiz-adv-x="436" 
d="M123 589q0 43 26.5 69.5t69.5 26.5t69.5 -26.5t26.5 -69.5t-26.5 -69.5t-69.5 -26.5t-69.5 26.5t-26.5 69.5z" />
    <glyph glyph-name="integral" unicode="&#x222b;" horiz-adv-x="618" 
d="M248 -27q0 171 -24 464.5t-24 510.5q0 167 20 288t58.5 193t90.5 105.5t121 33.5q41 0 79.5 -22t38.5 -60q-18 -11 -35 -34.5t-23 -48.5h-12q-16 32 -43.5 53.5t-60.5 21.5q-82 0 -82 -249q0 -149 19 -448t19 -542q0 -153 -13.5 -267t-36.5 -184t-58 -112.5t-72 -58.5
t-84 -16q-52 0 -92 32.5t-40 86.5q50 38 73 73h12q13 -33 21 -49t24 -29.5t38 -13.5q86 0 86 272z" />
    <glyph glyph-name="approxequal" unicode="&#x2248;" horiz-adv-x="968" 
d="M162 346v128q102 64 194 64q52 0 139 -37t135 -37q76 0 178 68v-128q-95 -62 -194 -62q-53 0 -138 37t-138 37q-75 0 -176 -70zM162 650v128q60 37 103 49.5t91 12.5q52 0 139 -37t135 -37q76 0 178 68v-128q-95 -62 -194 -62q-53 0 -138 37t-138 37q-78 0 -176 -68z" />
    <glyph glyph-name="notequal" unicode="&#x2260;" horiz-adv-x="1044" 
d="M741 354h-295l-132 -222h-132l132 222h-9q-88 0 -143 -4q1 8 1 62.5t-1 65.5q64 -4 143 -4h81l142 238h-223q-88 0 -143 -4q1 8 1 63t-1 65q64 -4 143 -4h294l133 222h132l-133 -222h10q88 0 143 4q-1 -8 -1 -63t1 -65q-64 4 -143 4h-81l-142 -238h223q88 0 143 4
q-1 -8 -1 -63t1 -65q-64 4 -143 4z" />
    <glyph glyph-name="lessequal" unicode="&#x2264;" horiz-adv-x="1044" 
d="M741 4h-438q-88 0 -143 -4q1 8 1 57.5t-1 60.5q64 -4 143 -4h438q88 0 143 4q-1 -8 -1 -58t1 -60q-64 4 -143 4zM884 392q-6 -76 0 -154l-722 344q5 47 0 100l722 390q-6 -74 0 -152l-536 -282z" />
    <glyph glyph-name="greaterequal" unicode="&#x2265;" horiz-adv-x="1044" 
d="M741 4h-438q-88 0 -143 -4q1 8 1 57.5t-1 60.5q64 -4 143 -4h438q88 0 143 4q-1 -8 -1 -58t1 -60q-64 4 -143 4zM162 392l536 246l-536 282q6 78 0 152l722 -390q-5 -53 0 -100l-722 -344q6 78 0 154z" />
    <glyph glyph-name="dotmath" unicode="&#x22c5;" horiz-adv-x="436" 
d="M123 589q0 43 26.5 69.5t69.5 26.5t69.5 -26.5t26.5 -69.5t-26.5 -69.5t-69.5 -26.5t-69.5 26.5t-26.5 69.5z" />
    <glyph glyph-name="uni25AF" unicode="&#x25af;" horiz-adv-x="954" 
d="M124 0v1330h706v-1330h-706zM266 136h422v1058h-422v-1058z" />
    <glyph glyph-name="lozenge" unicode="&#x25ca;" horiz-adv-x="890" 
d="M445 1136l-236 -472l236 -472l236 472zM45 664l346 666q53 -4 108 0l346 -666l-346 -664q-53 4 -108 0z" />
    <glyph glyph-name="uni0E10.alt1" unicode="&#xf700;" horiz-adv-x="987" 
d="M451 628l68 -521q90 0 145 72t55 205v330q0 169 -69 240.5t-208 71.5q-91 0 -161 -32t-99 -67h-26q-4 24 -48 141q50 27 158 54t178 27q107 0 191 -26q122 3 288 87l4 -6q-10 -28 -15 -146q-54 -12 -134 -21q105 -108 105 -323v-347q0 -162 -97 -264.5t-276 -102.5h-120
q0 69 -15 163l-57 341q-86 0 -142 -11q1 15 1 66v69h274z" />
    <glyph glyph-name="uni0E34.alt1" unicode="&#xf701;" 
d="M-486 1328q-35 0 -121 1t-130 1q-35 0 -121.5 -2t-120.5 -2q-83 0 -118 -10l-3 4q28 71 42 114q91 11 321 11q186 0 346 -8q-3 -24 -3 -63q0 -19 4 -51q-59 5 -96 5z" />
    <glyph glyph-name="uni0E35.alt1" unicode="&#xf702;" 
d="M-737 1445q104 0 209 -3q-2 108 -2 167q24 -4 70 -3.5t70 3.5v-286q-59 5 -96 5q-35 0 -121 1t-130 1q-35 0 -121.5 -2t-120.5 -2q-83 0 -118 -10l-3 4q28 71 42 114q91 11 321 11z" />
    <glyph glyph-name="uni0E36.alt1" unicode="&#xf703;" 
d="M-1049 1434q91 11 311 11h30q-4 28 -4 44q0 79 49 125.5t121 46.5q74 0 122.5 -45t48.5 -127q0 -76 -46.5 -121t-124.5 -45q-34 0 -93 3.5t-103 3.5q-35 0 -116.5 -2t-115.5 -2q-83 0 -118 -10l-3 4q28 71 42 114zM-481 1491q0 73 -61 73q-60 0 -60 -73q0 -35 15.5 -54.5
t44.5 -19.5q61 0 61 74z" />
    <glyph glyph-name="uni0E37.alt1" unicode="&#xf704;" 
d="M-616 1609v-165l77 -2q-2 108 -2 167q24 -4 66 -3.5t66 3.5v-286q-59 5 -96 5q-35 0 -126 1t-135 1q-35 0 -116.5 -2t-115.5 -2q-83 0 -118 -10l-3 4q28 71 42 114q91 11 311 11h24q-2 106 -2 164q58 -9 128 0z" />
    <glyph glyph-name="uni0E48.alt1" unicode="&#xf705;" 
d="M-638 1638q79 -2 162 0q-2 -37 -5 -71.5t-4 -60.5l-13 -204q-15 2 -59 2t-59 -2q-11 139 -14 204q-2 27 -3.5 47.5t-2.5 37.5t-2 47z" />
    <glyph glyph-name="uni0E49.alt1" unicode="&#xf706;" 
d="M-786 1599h159v-143h53q74 0 212 6q-3 -79 0 -124q-70 4 -211 4h-223q10 38 10 151q-66 0 -136 -4q3 41 0 113q69 -3 136 -3z" />
    <glyph glyph-name="uni0E4A.alt1" unicode="&#xf707;" 
d="M-638 1342v77q0 37 -12.5 50.5t-37.5 13.5q-20 0 -41 -14.5t-32 -33.5h-18q-31 46 -77 46q-22 0 -36 -17t-14 -45q0 -21 2.5 -40.5t5.5 -28.5l2 -8h-149q-11 34 -11 96q0 75 46.5 119t122.5 44q83 0 119 -63q15 27 48 45t80 18q68 0 104.5 -32.5t36.5 -96.5v-8
q64 0 149 17v-145q-61 6 -149 6h-139z" />
    <glyph glyph-name="uni0E4B.alt1" unicode="&#xf708;" 
d="M-686 1638q72 -2 148 0q0 -65 -3 -122q88 0 139 4q-1 -8 -1 -58t1 -60q-62 4 -145 4l-6 -134q-15 2 -59 2t-59 -2q-4 67 -7 134q-90 0 -144 -4q1 8 1 57.5t-1 60.5q59 -4 139 -4q-3 62 -3 122z" />
    <glyph glyph-name="uni0E4C.alt1" unicode="&#xf709;" 
d="M-398 1391h-120q-39 0 -54 -12.5t-15 -39.5q0 -21 6 -63q-17 2 -79 2q-54 0 -71 -2q-10 36 -10 78q0 71 50 112t158 41h18q52 0 91 3t52 6l13 3l3 -2q-18 -67 -42 -126z" />
    <glyph glyph-name="uni0E48.alt2" unicode="&#xf70a;" 
d="M-313 1638q79 -2 162 0q-2 -37 -5 -71.5t-4 -60.5l-13 -204q-15 2 -59 2t-59 -2q-11 139 -14 204q-2 27 -3.5 47.5t-2.5 37.5t-2 47z" />
    <glyph glyph-name="uni0E49.alt2" unicode="&#xf70b;" 
d="M-445 1599h159v-143h93q74 0 212 6q-3 -79 0 -124q-70 4 -211 4h-263q10 38 10 151q-66 0 -136 -4q3 41 0 113q69 -3 136 -3z" />
    <glyph glyph-name="uni0E4A.alt2" unicode="&#xf70c;" 
d="M-326 1342v77q0 37 -12.5 50.5t-37.5 13.5t-49.5 -16.5t-38.5 -42.5h-18q-38 57 -92 57q-22 0 -36 -17t-14 -45q0 -21 2.5 -40.5t5.5 -28.5l2 -8h-149q-11 34 -11 96q0 75 47 119t124 44q93 0 132 -75q42 75 141 75q68 0 105.5 -32.5t37.5 -96.5v-8q97 0 179 17v-145
q-91 6 -179 6h-139z" />
    <glyph glyph-name="uni0E4B.alt2" unicode="&#xf70d;" 
d="M-306 1638q72 -2 148 0q0 -65 -3 -122q88 0 139 4q-1 -8 -1 -58t1 -60q-62 4 -145 4l-6 -134q-15 2 -59 2t-59 -2q-4 67 -7 134q-90 0 -144 -4q1 8 1 57.5t-1 60.5q59 -4 139 -4q-3 61 -3 122z" />
    <glyph glyph-name="uni0E4C.alt2" unicode="&#xf70e;" 
d="M-130 1391h-120q-39 0 -54 -12.5t-15 -39.5q0 -21 6 -63q-17 2 -79 2q-54 0 -71 -2q-10 36 -10 78q0 71 50 112t158 41h18q52 0 91 3t52 6l13 3l3 -2q-18 -67 -42 -126z" />
    <glyph glyph-name="uni0E0D.alt1" unicode="&#xf70f;" horiz-adv-x="1602" 
d="M1489 808v-449q0 -172 -93.5 -269.5t-272.5 -97.5q-183 0 -284.5 95t-101.5 274v440q0 118 -47 176t-171 58q-59 0 -111 -14.5t-81 -30.5t-71 -45v-4q2 -1 6 -4.5t14 -16t17.5 -28t14 -43t6.5 -59.5v-552q0 -99 17.5 -129t67.5 -30q16 0 51 7l-14 -74q-58 -17 -112 -17
q-178 0 -178 224q0 32 2 112.5t2 138.5v355q0 29 -7 56t-17 44.5t-20 30.5t-17 19l-7 6v7q225 166 437 166q193 0 287.5 -90.5t94.5 -262.5v-459q0 -126 53 -178.5t167 -52.5q204 0 204 231v466q0 166 -2 220.5t-11 103.5q97 -3 189 0q-9 -49 -10.5 -100.5t-1.5 -223.5z" />
    <glyph glyph-name="uni0E31.alt1" unicode="&#xf710;" 
d="M-630 1552q-18 -46 -18 -80q0 -37 57 -37q114 -2 145 -2q35 0 116.5 2t115.5 2q78 0 118 11l3 -4q-6 -16 -21 -58.5l-21 -59.5q-94 -10 -311 -10q-154 0 -208 8q-60 8 -94.5 43.5t-34.5 93.5q0 64 20 93q77 -7 133 -2z" />
    <glyph glyph-name="uni0E4D.alt1" unicode="&#xf711;" 
d="M-509 1448q0 80 -71 80q-36 0 -53.5 -22t-17.5 -58q0 -33 17.5 -56.5t53.5 -23.5q71 0 71 80zM-399 1448q0 -83 -49.5 -132.5t-131.5 -49.5q-83 0 -130.5 49t-47.5 133q0 82 47.5 131t130.5 49q85 0 133 -47.5t48 -132.5z" />
    <glyph glyph-name="uni0E47.alt1" unicode="&#xf712;" 
d="M-496 1357q61 0 120 17q-8 -79 0 -127h-110q-101 0 -144 74q-48 -74 -152 -74q-83 0 -140 53t-57 136v13q0 82 60.5 139t173.5 57q41 0 109 -4.5t99 -4.5q130 0 185 33v-127q-58 -17 -161 -17q-36 0 -115.5 5.5t-101.5 5.5q-54 0 -81.5 -25t-27.5 -62v-5q0 -40 23 -63.5
t61 -23.5q75 0 118 59h12q14 -20 23.5 -29.5t37 -19.5t68.5 -10z" />
    <glyph glyph-name="uni0E48.alt3" unicode="&#xf713;" 
d="M-520 1990q71 -2 146 0l-6 -122l-13 -174q-15 2 -54 2t-54 -2q-11 109 -14 174q-2 30 -2.5 44.5t-1 32.5t-1.5 45z" />
    <glyph glyph-name="uni0E49.alt3" unicode="&#xf714;" 
d="M-562 1932h134v-121h48q74 0 212 6q-3 -77 0 -120q-70 4 -211 4h-208q10 18 10 131q-54 0 -121 -4q3 39 0 107q80 -3 136 -3z" />
    <glyph glyph-name="uni0E4A.alt3" unicode="&#xf715;" 
d="M-307 1682v64q0 51 -45 51q-48 0 -74 -46h-16q-30 45 -73 45q-19 0 -31.5 -14.5t-12.5 -35.5q0 -19 2.5 -35t4.5 -23l2 -6h-140q-10 34 -10 90q0 67 41 103.5t111 36.5q81 0 116 -68q37 68 123 68q61 0 95 -27.5t34 -80.5v-12q83 0 159 16v-131q-82 5 -161 5h-125z" />
    <glyph glyph-name="uni0E4B.alt3" unicode="&#xf716;" 
d="M-526 2054q72 -2 148 0q0 -65 -3 -124q75 0 134 4q-1 -11 -1 -60.5t1 -57.5q-54 4 -141 4l-5 -121q-15 2 -59 2t-59 -2q-3 62 -6 121q-78 0 -140 -4q1 10 1 60t-1 58q51 -4 134 -4q-3 64 -3 124z" />
    <glyph glyph-name="uni0E4C.alt3" unicode="&#xf717;" 
d="M-399 1671h-120q-39 0 -54 -12.5t-15 -39.5q0 -21 6 -63q-17 2 -79 2q-54 0 -71 -2q-10 36 -10 78q0 71 50 112t158 41h18q52 0 91 3t52 6l13 3l3 -2q-18 -67 -42 -126z" />
    <glyph glyph-name="uni0E38.alt1" unicode="&#xf718;" 
d="M-307 -739q0 51 1 105t1 109q-81 0 -137 -11q2 17 2 67v59h288q-6 -57 -6 -115v-214q-24 3 -74.5 3.5t-74.5 -3.5z" />
    <glyph glyph-name="uni0E39.alt1" unicode="&#xf719;" 
d="M-152 -521v-73q0 -81 -62.5 -127.5t-163.5 -46.5q-108 0 -167 48.5t-59 122.5v54q0 32 -10.5 44.5t-36.5 12.5q-15 0 -53 -7l15 74q58 17 111 17q75 0 102.5 -26t27.5 -92v-75q0 -39 17 -56t56 -17q74 0 74 73v74l-6 111q68 -4 161 0q-6 -60 -6 -111z" />
    <glyph glyph-name="uni0E3A.alt1" unicode="&#xf71a;" 
d="M-342 -506q0 43 26.5 69.5t69.5 26.5t69.5 -26.5t26.5 -69.5t-26.5 -69.5t-69.5 -26.5t-69.5 26.5t-26.5 69.5z" />
    <glyph glyph-name="uni0E0E.alt1" unicode="&#xf71b;" horiz-adv-x="1065" 
d="M335 795v-325q0 -58 2 -138.5t2 -112.5q0 -224 -178 -224q-47 0 -105 17l-15 74q35 -7 58 -7q29 0 42.5 8t21.5 38t8 92v587q0 29 -8 56t-19.5 44.5t-23.5 30.5t-20 19l-8 6v7q53 64 182.5 125.5t256.5 61.5q200 0 316.5 -93t116.5 -260v-862q0 -287 -286 -287
q-36 0 -107 15t-111 15q-35 0 -80 -8t-72 -16l-27 -8l-6 5l31 123q68 30 154 30q34 0 102 -15t105 -15q72 0 102.5 40.5t30.5 129.5v853q0 111 -69 172.5t-200 61.5q-156 0 -264 -90v-4q3 -1 7.5 -4.5t16 -15.5t20.5 -27t16.5 -41.5t7.5 -57.5z" />
    <glyph glyph-name="uni0E0F.alt1" unicode="&#xf71c;" horiz-adv-x="1065" 
d="M384 -215q52 0 84 17t60 63h15q26 -43 59.5 -61.5t81.5 -18.5q105 0 105 139v877q0 112 -64.5 173t-193.5 61q-156 0 -264 -90v-4q3 -1 7.5 -4.5t16 -15.5t20.5 -27t16.5 -41.5t7.5 -57.5v-325q0 -58 2 -138.5t2 -112.5q0 -224 -178 -224q-47 0 -105 17l-15 74
q35 -7 58 -7q29 0 42.5 8t21.5 38t8 92v587q0 29 -8 56t-19.5 44.5t-23.5 30.5t-20 19l-8 6v7q53 64 182.5 125.5t256.5 61.5q198 0 310 -92.5t112 -260.5v-882q0 -125 -66 -193.5t-171 -68.5q-62 0 -102.5 22t-78.5 67q-37 -45 -78 -67t-102 -22q-68 0 -120 21l-21 150
q95 -43 170 -43z" />
    <glyph glyph-name="uni0E2C.alt1" unicode="&#xf71d;" horiz-adv-x="1193" 
d="M934 1209q118 -2 177 0q0 -99 -58 -172t-167 -94v-4q87 -7 129 -68t42 -160q0 -90 -26 -323.5t-36 -387.5q-11 2 -84 2.5t-86 -2.5q-41 97 -119 290t-100 245q-33 -71 -111.5 -252t-124.5 -283q-13 3 -86.5 3t-84.5 -3q-22 456 -92 1130q86 -3 176 0q22 -555 52 -917
q21 47 98 225.5t115 255.5q15 -2 61.5 -2t62.5 2q2 -5 80 -192.5t122 -291.5q29 336 29 488q0 95 -44 139t-120 44q-49 0 -86 -5q2 17 2 64v60q86 1 135.5 8.5t84 31t47 63t12.5 106.5z" />
    <glyph glyph-name="apple" unicode="&#xf8ff;" horiz-adv-x="1772" 
d="M1672 1054v-828q0 -21 -18 -26l-564 -312q-16 -4 -36 -4h-340q-14 0 -30 4l-560 310q-24 6 -24 40v816q0 14 4 19.5t14 12.5l828 410q12 4 20 4t16 -4l608 -306q23 -13 36 -26l44 -90q2 -8 2 -20zM1612 242v768l-514 -286v-320l254 140v178q0 9 8 15.5t20 6.5
q15 0 24.5 -6.5t9.5 -15.5v-194q0 -19 -16 -30l-300 -154v-146l274 146q6 2 14 2q28 0 28 -30q0 -16 -16 -24l-298 -156q-3 -1 -9.5 -4.5t-12 -5.5t-10.5 -2q-24 0 -24 30v558h-328q-14 0 -38 12l-516 286v-388l248 -140q12 -9 12 -28v-196q0 -12 -7 -21t-19 -9
q-13 0 -21.5 9t-8.5 21v182l-204 116v-314l514 -280v522q-12 10 -99 61t-168 97l-81 46q-16 5 -16 20q0 34 28 34q9 0 18 -6l358 -206q14 -9 14 -24v-566h332zM1568 1140l-602 302l-774 -388l520 -280h350l138 76v102q0 12 8 21t18 9h216l160 90zM1060 1234q21 0 88.5 -38.5
t67.5 -57.5q0 -13 -27.5 -31.5t-40.5 -18.5q-17 0 -89.5 43t-72.5 53q0 16 26 33t48 17zM750 1076q21 0 86.5 -39.5t65.5 -58.5q0 -13 -25.5 -30.5t-38.5 -17.5q-18 0 -90 42.5t-72 53.5q0 15 27 32.5t47 17.5z" />
    <glyph glyph-name="uni0E33.alt1" horiz-adv-x="752" 
d="M-509 1448q0 80 -71 80q-36 0 -53.5 -22t-17.5 -58q0 -33 17.5 -56.5t53.5 -23.5q71 0 71 80zM-399 1448q0 -83 -49.5 -132.5t-131.5 -49.5q-83 0 -130.5 49t-47.5 133q0 82 47.5 131t130.5 49q85 0 133 -47.5t48 -132.5zM615 820v-497q0 -171 2 -222.5t11 -100.5
q-92 3 -187 0q9 49 11 103.5t2 219.5v500q0 111 -43.5 160.5t-132.5 49.5q-65 0 -121.5 -27.5t-86.5 -58.5h-14q-3 31 -42 137q46 26 123 45.5t148 19.5q163 0 246.5 -78.5t83.5 -250.5z" />
    <glyph glyph-name="uni0E4E.alt1" 
 />
    <glyph glyph-name="EK" horiz-adv-x="2630" 
d="M1062 1126v50q293 79 432 132v-540q0 -36 16 -36q9 0 22.5 9.5t19.5 16.5l140 154q217 243 332 324q108 72 216 72q66 0 119 -28t53 -84q0 -39 -33.5 -61.5t-72.5 -22.5q-29 0 -80.5 21t-79.5 21q-62 0 -140 -56q-81 -62 -208 -210l-84 -98l440 -562q72 -94 134 -136
q68 -42 130 -42v-50h-602v50q60 0 96 12q32 9 32 28q0 47 -56 108l-338 422l-56 -60v-560h-238v320q-58 -53 -93.5 -84t-94.5 -78.5t-108.5 -75.5t-112.5 -56.5t-129.5 -42t-137.5 -13.5q-215 0 -347.5 96t-132.5 268q0 118 72 200t188 122q-108 34 -177 107t-69 175
q0 81 41 144t107 99t138.5 54.5t143.5 18.5q54 0 117 -11t129 -33.5t109 -66t43 -99.5q0 -42 -28 -69t-68 -27q-36 0 -62.5 16.5t-41.5 40.5t-34 53t-38 53t-54.5 40.5t-83.5 16.5q-62 0 -104.5 -35.5t-59 -86t-16.5 -110.5q0 -44 10 -85t29.5 -76.5t54.5 -57t80 -21.5
q34 0 95 18t91 18q38 0 62 -22t24 -58q0 -41 -24 -64.5t-62 -23.5q-33 0 -93 25t-93 25q-63 0 -105.5 -41t-58.5 -94.5t-16 -114.5q0 -145 67.5 -216.5t216.5 -71.5q150 0 299 94t327 274v504q0 96 -27.5 138t-110.5 42q-40 0 -56 -2zM2472 1440v-20h-22v-74h-22v74h-26v20
h70zM2524 1346l-18 64h-2l-4 -64h-20l8 94h24l22 -70h2l22 70h24l8 -94h-20l-4 64h-2l-20 -64h-20z" />
    <glyph glyph-name="B513" horiz-adv-x="8086" 
d="M728 388q0 127 -45.5 184.5t-160.5 57.5h-196v-496q114 -8 194 -8q50 0 84.5 10t64.5 37t44.5 80.5t14.5 134.5zM700 982q0 124 -40 174t-156 50q-41 0 -85.5 -2.5t-68.5 -5.5l-24 -2v-428h178q28 0 47.5 2t44.5 8.5t41.5 21t32 37t23 59.5t7.5 86zM896 400
q0 -116 -26 -197.5t-78.5 -128.5t-122 -67.5t-165.5 -20.5q-71 0 -156.5 3.5t-135.5 6.5l-50 4v1330q196 14 318 14q192 0 288 -81.5t96 -266.5q0 -111 -44.5 -186t-107.5 -102q184 -63 184 -308zM2446 142q187 0 342.5 0.5t244.5 1t115 0.5q114 0 156 54.5t42 171.5
q0 72 -7 115.5t-28.5 76.5t-61.5 46.5t-105 13.5h-194v138h176q55 0 94 18t58.5 41.5t30.5 60t13 60t2 54.5q0 106 -51 158t-129 52q-123 0 -272 -32v138q1 0 26.5 5t51.5 9t60 9t68.5 8t61.5 3q77 0 137 -18t108.5 -59t74.5 -114.5t26 -176.5t-35 -177t-109 -97
q90 -13 129 -90t39 -222q0 -209 -88 -299.5t-272 -90.5h-1116v142h250v1050h-932v-392h76q203 0 291.5 -95t88.5 -303q0 -115 -26.5 -197.5t-76 -129.5t-112.5 -68t-145 -21q-90 0 -276 32v140q38 -9 126 -20.5t158 -11.5q85 0 137.5 69t52.5 189q0 155 -53 216.5t-155 61.5
h-246v668h1254v-1188zM4406 672q0 166 -14 274t-44 163t-66 75t-90 20l-204 -8v-1064q122 -6 202 -6q71 0 117 48.5t72.5 171.5t26.5 326zM4576 686q0 -169 -16 -290t-46.5 -200.5t-81.5 -126t-112.5 -65t-147.5 -18.5q-66 0 -153.5 3.5t-142.5 6.5l-54 4v1330
q196 14 328 14q65 0 114 -7t95 -25.5t79 -50t60.5 -81t43.5 -119t25 -162.5t9 -213zM5458 378q0 -115 -29 -194t-84.5 -121t-122.5 -59.5t-158 -17.5q-50 0 -122 8.5t-118 21.5v138q102 -28 258 -28q101 0 154.5 58.5t53.5 175.5q0 129 -43.5 184.5t-130.5 73.5
q-163 34 -236.5 114.5t-73.5 243.5q0 99 30.5 172t85.5 114.5t124 61.5t154 20q47 0 113.5 -9t106.5 -21v-138q-112 28 -238 28q-52 0 -96.5 -19t-77 -67.5t-32.5 -119.5q0 -112 36.5 -157.5t129.5 -64.5q59 -12 103.5 -29t86 -47t68 -72t42.5 -105t16 -145zM5878 0h-190
v190h190v-190zM5864 396h-162v934h162v-934zM6876 700v-682q-178 -32 -318 -32q-91 0 -155 18.5t-115.5 64.5t-82 126t-46 200.5t-15.5 290.5q0 166 20 283.5t55 190t94.5 114t126.5 56t164 14.5q46 0 120 -9t112 -19v-136q-120 24 -266 24q-53 0 -90 -11t-70.5 -44t-53 -91
t-31 -154t-11.5 -232q0 -141 10.5 -240t28.5 -158.5t49.5 -92.5t65 -44t82.5 -11q68 0 168 12v422h-168v140h326zM7924 0h-156l-444 962v-962h-154v1330h156l444 -962v962h154v-1330z" />
    <glyph glyph-name="zero.tnum" horiz-adv-x="950" 
d="M693 670q0 221 -24 342t-69.5 164t-125.5 43q-79 0 -124 -43t-69 -164t-24 -342q0 -218 23.5 -340.5t69 -170.5t124.5 -48t125 48t70 171t24 340zM855 680q0 -361 -86 -527.5t-295 -166.5q-208 0 -293.5 166.5t-85.5 527.5q0 345 85.5 504.5t293.5 159.5q211 0 296 -159
t85 -505z" />
    <glyph glyph-name="one.tnum" horiz-adv-x="950" 
d="M442 1152l-193 -98q-1 2 -9.5 20t-13.5 27t-14 21t-17 18v14q68 28 132.5 59.5t147 75.5t116.5 61l24 -10q-7 -66 -7 -518v-314q0 -313 2 -386.5t11 -121.5q-33 1 -98 1q-62 0 -94 -1q9 50 11 127.5t2 380.5v644z" />
    <glyph glyph-name="two.tnum" horiz-adv-x="950" 
d="M136 0v143q0 86 22 159.5t58 125t82 100t93.5 86t93.5 81.5t82 87t58 103.5t22 129.5q0 111 -48.5 159t-144.5 48q-87 0 -149 -36t-84 -89h-24q-15 59 -54 147q45 37 131.5 68.5t171.5 31.5q190 0 281.5 -85t91.5 -260q0 -86 -28 -160t-73 -127.5t-99.5 -103
t-109.5 -98.5t-100 -101.5t-73.5 -124t-29.5 -154.5h2q222 0 330.5 4t161.5 18q-3 -28 -3 -84.5t3 -73.5q-90 6 -135 6h-529z" />
    <glyph glyph-name="three.tnum" horiz-adv-x="950" 
d="M387 -14q-92 0 -179 26t-140 68q34 85 53 164h24q30 -60 95.5 -94t157.5 -34q115 0 183 66t68 202q0 131 -54.5 193.5t-173.5 62.5h-47q-83 0 -135 -4q1 8 1 64t-1 66q90 -6 135 -6h29q113 0 165.5 51.5t52.5 175.5q0 235 -219 235q-87 0 -149 -36t-84 -89h-24
q-15 59 -54 147q45 37 131.5 68.5t171.5 31.5q184 0 288.5 -84t104.5 -259q0 -106 -49 -185t-113 -106v-3q34 -12 64 -31.5t61.5 -54.5t50.5 -93t19 -132q0 -114 -32 -195.5t-92 -127.5t-135.5 -66.5t-173.5 -20.5z" />
    <glyph glyph-name="four.tnum" horiz-adv-x="950" 
d="M100 316v40q193 719 239 974q81 -2 161 0l-222 -884h310q0 354 -12 424q89 -3 180 0q-12 -64 -12 -424q82 0 134 4q-1 -8 -1 -69t1 -71q-90 6 -134 6q0 -250 13 -316q-91 3 -181 0q12 67 12 316h-488z" />
    <glyph glyph-name="five.tnum" horiz-adv-x="950" 
d="M780 1190q-36 7 -105 8.5t-328 1.5v-408h66q86 0 157.5 -20t131.5 -63.5t94 -120.5t34 -182q0 -420 -425 -420q-177 0 -295 94q34 85 53 164h24q32 -65 85.5 -99.5t143.5 -34.5q111 0 177.5 69t66.5 215q0 137 -67.5 202.5t-191.5 65.5h-216v530l-6 138h601
q-5 -58 0 -140z" />
    <glyph glyph-name="six.tnum" horiz-adv-x="950" 
d="M476 734q-93 0 -148.5 -66t-55.5 -178v-11q0 -88 10 -153.5t27 -107t43 -67t54.5 -35.5t64.5 -10q102 0 153.5 78.5t51.5 258.5q0 154 -54 222.5t-146 68.5zM272 870v-98q28 34 90.5 58t124.5 24q164 0 260 -107t96 -316q0 -203 -101 -324t-282 -121q-160 0 -256.5 130
t-96.5 363v343q0 256 113 389t334 133q58 0 192 -32l18 -128l-8 -8q-7 2 -28.5 9.5t-30.5 10.5t-29.5 8.5t-36.5 7.5t-40.5 4t-51.5 2q-122 0 -194.5 -91.5t-72.5 -256.5z" />
    <glyph glyph-name="seven.tnum" horiz-adv-x="950" 
d="M828 1282l-442 -1282q-87 3 -184 0l425 1200h-350q-66 0 -135 -10q1 8 1 70.5t-1 72.5q56 -3 135 -3h551v-48z" />
    <glyph glyph-name="eight.tnum" horiz-adv-x="950" 
d="M700 358q0 148 -77 215t-226 67q-79 -45 -113 -104.5t-34 -177.5q0 -128 60.5 -190t163.5 -62q105 0 165.5 61.5t60.5 190.5zM676 994q0 230 -202 230q-96 0 -148 -58.5t-52 -171.5q0 -114 70 -180t199 -66q66 27 99.5 93.5t33.5 152.5zM860 376q0 -190 -97 -290
t-289 -100q-190 0 -287 100t-97 290q0 201 181 313q-64 37 -109.5 114t-45.5 173q0 178 102 273t256 95q101 0 180.5 -38.5t129.5 -123.5t50 -206q0 -182 -165 -275q87 -28 139 -109t52 -216z" />
    <glyph glyph-name="nine.tnum" horiz-adv-x="950" 
d="M479 586q91 0 142.5 75.5t51.5 198.5v31q0 174 -54 253.5t-145 79.5q-101 0 -148 -73.5t-47 -253.5q0 -156 55 -233.5t145 -77.5zM673 450v105q-70 -89 -205 -89q-171 0 -263.5 114t-92.5 329q0 202 96 318.5t267 116.5q168 0 265.5 -122.5t97.5 -360.5v-323
q0 -263 -106 -407.5t-321 -144.5q-58 0 -192 32l-18 128l8 8q7 -2 28.5 -9.5t30.5 -10.5t29.5 -8.5t36.5 -7.5t40.5 -4t51.5 -2q122 0 184.5 85t62.5 253z" />
    </font>
</defs>
</svg>
